# SSTK version 0.8.0
# 2
mtllib original-2.mtl
o mesh2/mesh2-geometry#mesh2-geometry
v 0.013009 0.239820 0.018674
v 0.013009 0.237508 -0.010818
v 0.013009 0.236723 0.004080
v 0.013009 0.242123 -0.025005
v 0.031056 0.236723 0.004080
v -0.008046 0.237508 -0.010818
v 0.031056 0.239820 0.018674
v -0.008046 0.236723 0.004080
v 0.013009 0.246589 0.031969
v 0.031056 0.237508 -0.010818
v -0.008046 0.242123 -0.025005
v 0.031056 0.246589 0.031969
v -0.008046 0.239820 0.018674
v 0.013009 0.250252 -0.037514
v 0.031056 0.242123 -0.025005
v -0.008046 0.250252 -0.037514
v 0.031056 0.256568 0.043058
v -0.008046 0.246589 0.031969
v 0.013009 0.256568 0.043058
v 0.031056 0.250252 -0.037514
v 0.013009 0.261341 -0.047493
v -0.008046 0.256568 0.043058
v 0.013009 0.269077 0.051187
v 0.031056 0.261341 -0.047493
v -0.008046 0.261341 -0.047493
v 0.031056 0.269077 0.051187
v -0.008046 0.269077 0.051187
v 0.013009 0.274636 -0.054262
v 0.031056 0.274636 -0.054262
v 0.013009 0.283264 0.055802
v -0.008046 0.283264 0.055802
v -0.008046 0.274636 -0.054262
v 0.031056 0.283264 0.055802
v 0.013009 0.289230 -0.057359
v 0.031056 0.289230 -0.057359
v 0.013009 0.298162 0.056587
v -0.008046 0.298162 0.056587
v -0.008046 0.289230 -0.057359
v 0.031056 0.298162 0.056587
v 0.013009 0.304127 -0.056574
v 0.031056 0.304127 -0.056574
v 0.013009 0.312756 0.053490
v -0.008046 0.312756 0.053490
v -0.008046 0.304127 -0.056574
v 0.031056 0.312756 0.053490
v 0.013009 0.318315 -0.051959
v 0.031056 0.318315 -0.051959
v 0.013009 0.326050 0.046721
v -0.008046 0.326050 0.046721
v -0.008046 0.318315 -0.051959
v 0.031056 0.326050 0.046721
v 0.013009 0.330824 -0.043830
v 0.031056 0.330824 -0.043830
v 0.013009 0.337140 0.036742
v -0.008046 0.337140 0.036742
v -0.008046 0.330824 -0.043830
v 0.031056 0.337140 0.036742
v 0.013009 0.340803 -0.032740
v -0.008046 0.340803 -0.032740
v 0.031056 0.345269 0.024233
v 0.013009 0.345269 0.024233
v 0.031056 0.340803 -0.032740
v -0.008046 0.345269 0.024233
v 0.013009 0.347572 -0.019446
v -0.008046 0.347572 -0.019446
v 0.031056 0.349884 0.010046
v 0.031056 0.347572 -0.019446
v 0.013009 0.349884 0.010046
v -0.008046 0.349884 0.010046
v 0.013009 0.350669 -0.004852
v -0.008046 0.350669 -0.004852
v 0.031056 0.350669 -0.004852
vt 2.602355 3.963726
vt 2.366135 3.768451
vt 2.602355 3.768451
vt 2.877946 3.963726
vt -2.602355 -0.818149
vt -2.366135 -0.622874
vt -2.602355 -0.622874
vt -2.877946 -0.818149
vt 2.602355 6.845836
vt 2.366135 6.650561
vt 2.602355 6.650561
vt 2.877946 6.845836
vt 2.366135 3.963726
vt -2.366135 -0.818149
vt 2.877946 3.768451
vt 2.877946 6.650561
vt -2.366135 2.571805
vt -2.602355 2.37653
vt -2.366135 2.37653
vt -2.877946 -0.622874
vt -2.602355 2.571805
vt -2.877946 2.37653
vt 2.366135 6.845836
vt 2.877946 9.268067
vt 2.602355 9.072792
vt 2.877946 9.072792
vt 3.384268 11.096509
vt 2.998242 11.126771
vt 3.189263 11.086229
vt -2.998242 11.126771
vt -3.384268 11.096509
vt -3.189263 11.086229
vt -3.569967 11.15691
vt 3.569967 11.15691
vt 2.824223 11.21537
vt -2.366135 5.597874
vt -2.602355 5.402599
vt -2.366135 5.402599
vt -2.877946 2.571805
vt 2.602355 9.268067
vt 2.366135 9.072792
vt -2.824223 11.21537
vt -3.733706 11.263315
vt 3.733706 11.263315
vt -2.602355 5.597874
vt 2.679065 11.345991
vt -2.877946 5.402599
vt 2.366135 9.268067
vt 2.877946 10.870074
vt 2.602355 11.065349
vt 2.602355 10.870074
vt -2.679065 11.345991
vt -2.366135 8.053835
vt -2.602355 8.249111
vt -2.602355 8.053835
vt 3.864326 11.408473
vt -2.877946 5.597874
vt 2.366135 11.065349
vt 2.366135 10.870074
vt 2.877946 11.065349
vt -3.864326 11.408473
vt -2.366135 8.249111
vt -2.877946 8.249111
vt 2.572661 11.50973
vt -2.877946 8.053835
vt 2.602355 11.919924
vt 2.366135 12.115199
vt 2.366135 11.919924
vt 2.877946 11.919924
vt 2.602355 12.115199
vt -2.572661 11.50973
vt -2.366135 10.149562
vt -2.602355 10.344838
vt -2.602355 10.149562
vt -2.877946 10.344838
vt -2.877946 10.149562
vt 3.952926 11.582492
vt 2.877946 12.115199
vt -3.952926 11.582492
vt -2.366135 10.344838
vt -2.51226 11.695429
vt 2.51226 11.695429
vt 2.602355 12.150797
vt 2.366135 12.346073
vt 2.366135 12.150797
vt 2.877946 12.150797
vt 2.602355 12.346073
vt -2.366135 11.54696
vt -2.602355 11.742235
vt -2.602355 11.54696
vt -2.877946 11.742235
vt -2.877946 11.54696
vt -3.993467 11.773512
vt 3.993467 11.773512
vt 2.877946 12.346073
vt -2.366135 11.742235
vt -2.50198 11.890434
vt 2.50198 11.890434
vt 2.602355 11.54696
vt 2.366135 11.742235
vt 2.366135 11.54696
vt 2.877946 11.54696
vt 2.602355 11.742235
vt -2.366135 12.150797
vt -2.602355 12.346073
vt -2.602355 12.150797
vt -2.877946 12.346073
vt -2.877946 12.150797
vt -3.983187 11.968517
vt 3.983187 11.968517
vt 2.877946 11.742235
vt -2.366135 12.346073
vt -2.542522 12.081454
vt 2.542522 12.081454
vt 2.602355 10.149562
vt 2.366135 10.344838
vt 2.366135 10.149562
vt 2.877946 10.149562
vt 2.602355 10.344838
vt -2.366135 11.919924
vt -2.602355 12.115199
vt -2.602355 11.919924
vt -2.877946 12.115199
vt -2.877946 11.919924
vt -3.922787 12.154216
vt 3.922787 12.154216
vt 2.877946 10.344838
vt -2.366135 12.115199
vt -2.631121 12.255473
vt 2.631121 12.255473
vt 2.602355 8.053835
vt 2.366135 8.249111
vt 2.366135 8.053835
vt 2.877946 8.053835
vt 2.602355 8.249111
vt -2.366135 10.870074
vt -2.602355 11.065349
vt -2.602355 10.870074
vt -2.877946 11.065349
vt -2.877946 10.870074
vt -3.816382 12.317955
vt 3.816382 12.317955
vt 2.877946 8.249111
vt -2.366135 11.065349
vt -2.761741 12.400631
vt 2.761741 12.400631
vt 2.602355 5.597874
vt 2.366135 5.402599
vt 2.602355 5.402599
vt 2.877946 5.597874
vt 2.877946 5.402599
vt -2.366135 9.268067
vt -2.602355 9.072792
vt -2.366135 9.072792
vt -2.602355 9.268067
vt -2.877946 9.072792
vt -3.671224 12.448575
vt 3.671224 12.448575
vt 2.366135 5.597874
vt 2.92548 12.507036
vt -2.877946 9.268067
vt -2.92548 12.507036
vt 2.877946 2.571805
vt 2.602355 2.37653
vt 2.877946 2.37653
vt 2.602355 2.571805
vt 2.366135 2.37653
vt -2.366135 6.845836
vt -2.602355 6.650561
vt -2.366135 6.650561
vt 3.497205 12.537175
vt -2.602355 6.845836
vt -2.877946 6.650561
vt -3.497205 12.537175
vt 2.366135 2.571805
vt 3.11118 12.567437
vt -2.877946 6.845836
vt -3.11118 12.567437
vt 2.877946 -0.622874
vt 2.602355 -0.818149
vt 2.877946 -0.818149
vt 2.602355 -0.622874
vt 2.366135 -0.818149
vt -2.366135 3.963726
vt -2.602355 3.768451
vt -2.366135 3.768451
vt 3.306185 12.577717
vt -2.602355 3.963726
vt -2.877946 3.768451
vt -3.306185 12.577717
vt 2.366135 -0.622874
vt -2.877946 3.963726
vn -1 0 0
vn 1 0 0
vn 0 -0.983198805796133 -0.18253796394464855
vn 0.4502929558014971 -0.8901499126273396 0.06978099315064695
vn 0 -0.9969413744063882 0.07815302935076646
vn 0 0.983198805796133 0.18253796394464855
vn -0.4502929558014971 0.8901499126273396 -0.06978099315064695
vn 0 0.9969413744063882 -0.07815302935076646
vn -0.4502928053598512 -0.8778796205344214 -0.16298392954980423
vn 0.4502928053598512 0.8778796205344214 0.16298392954980423
vn 0.45029304590872926 -0.8417580858197665 0.29779103036069043
vn 0 -0.9427440759733914 0.3335170268773045
vn -0.45029304590872926 0.8417580858197665 -0.29779103036069043
vn 0 0.9427440759733914 -0.3335170268773045
vn -0.4502929558014971 -0.8901499126273396 0.06978099315064695
vn 0.4502929558014971 0.8901499126273396 -0.06978099315064695
vn 0 -0.9024531271768621 -0.43078806070816555
vn 0.4502928053598512 -0.8778796205344214 -0.16298392954980423
vn 0 0.9024531271768621 0.43078806070816555
vn -0.4502928053598512 0.8778796205344214 0.16298392954980423
vn -0.4502929400239113 -0.8057828926749635 -0.3846429487680628
vn 0.4502929400239113 0.8057828926749635 0.3846429487680628
vn 0.4502929871887143 -0.7360019790600079 0.5055069856178209
vn -0.4502929871887143 0.7360019790600079 -0.5055069856178209
vn -0.45029304590872926 -0.8417580858197665 0.29779103036069043
vn 0.45029304590872926 0.8417580858197665 -0.29779103036069043
vn 0 -0.8243001197671067 0.5661530822595011
vn 0 0.8243001197671067 -0.5661530822595011
vn 0.4502929400239113 -0.8057828926749635 -0.3846429487680628
vn -0.4502929400239113 0.8057828926749635 0.3846429487680628
vn -0.45029299624703306 -0.6787739943427582 -0.5800879951652567
vn 0.45029299624703306 0.6787739943427582 0.5800879951652567
vn 0.45029299624703306 -0.5800879951652567 0.6787739943427582
vn -0.45029299624703306 0.5800879951652567 -0.6787739943427582
vn -0.4502929871887143 -0.7360019790600079 0.5055069856178209
vn 0.4502929871887143 0.7360019790600079 -0.5055069856178209
vn 0 -0.7602060518612587 -0.6496820443213106
vn 0 0.7602060518612587 0.6496820443213106
vn 0.45029299624703306 -0.6787739943427582 -0.5800879951652567
vn -0.45029299624703306 0.6787739943427582 0.5800879951652567
vn 0 -0.6496820443213106 0.7602060518612587
vn 0 0.6496820443213106 -0.7602060518612587
vn 0 -0.5661530822595011 -0.8243001197671067
vn 0 0.5661530822595011 0.8243001197671067
vn -0.45029299624703306 -0.5800879951652567 0.6787739943427582
vn 0.45029299624703306 0.5800879951652567 -0.6787739943427582
vn 0 -0.43078806070816555 0.9024531271768621
vn 0 0.43078806070816555 -0.9024531271768621
vn 0.4502929871887143 -0.5055069856178209 -0.7360019790600079
vn -0.4502929871887143 0.5055069856178209 0.7360019790600079
vn -0.4502929871887143 -0.5055069856178209 -0.7360019790600079
vn 0.4502929871887143 0.5055069856178209 0.7360019790600079
vn 0.4502929400239113 -0.3846429487680628 0.8057828926749635
vn -0.4502929400239113 0.3846429487680628 -0.8057828926749635
vn -0.4502929400239113 -0.3846429487680628 0.8057828926749635
vn 0.4502929400239113 0.3846429487680628 -0.8057828926749635
vn 0.45029304590872926 -0.29779103036069043 -0.8417580858197665
vn -0.45029304590872926 0.29779103036069043 0.8417580858197665
vn 0 -0.3335170268773045 -0.9427440759733914
vn 0 0.3335170268773045 0.9427440759733914
vn 0 -0.18253796394464855 0.983198805796133
vn 0 0.18253796394464855 -0.983198805796133
vn -0.4502928053598512 -0.16298392954980423 0.8778796205344214
vn 0.4502928053598512 0.16298392954980423 -0.8778796205344214
vn -0.45029304590872926 -0.29779103036069043 -0.8417580858197665
vn 0.45029304590872926 0.29779103036069043 0.8417580858197665
vn 0.4502928053598512 -0.16298392954980423 0.8778796205344214
vn -0.4502928053598512 0.16298392954980423 -0.8778796205344214
vn 0.4502929558014971 -0.06978099315064695 -0.8901499126273396
vn -0.4502929558014971 0.06978099315064695 0.8901499126273396
vn 0 -0.07815302935076646 -0.9969413744063882
vn 0 0.07815302935076646 0.9969413744063882
vn -0.4502929558014971 -0.06978099315064695 -0.8901499126273396
vn 0.4502929558014971 0.06978099315064695 0.8901499126273396
usemtl material_0_2
f 1//1 2//1 3//1
f 3//2 2//2 1//2
f 2//1 1//1 4//1
f 4//2 1//2 2//2
f 4//1 1//1 9//1
f 9//2 1//2 4//2
f 4//1 9//1 14//1
f 14//2 9//2 4//2
f 14//1 9//1 19//1
f 19//2 9//2 14//2
f 14//1 19//1 21//1
f 21//2 19//2 14//2
f 21//1 19//1 23//1
f 23//2 19//2 21//2
f 21//1 23//1 28//1
f 28//2 23//2 21//2
f 28//1 23//1 30//1
f 30//2 23//2 28//2
f 28//1 30//1 34//1
f 34//2 30//2 28//2
f 34//1 30//1 36//1
f 36//2 30//2 34//2
f 34//1 36//1 40//1
f 40//2 36//2 34//2
f 40//1 36//1 42//1
f 42//2 36//2 40//2
f 40//1 42//1 46//1
f 46//2 42//2 40//2
f 46//1 42//1 48//1
f 48//2 42//2 46//2
f 46//1 48//1 52//1
f 52//2 48//2 46//2
f 52//1 48//1 54//1
f 54//2 48//2 52//2
f 52//1 54//1 58//1
f 58//2 54//2 52//2
f 58//1 54//1 61//1
f 61//2 54//2 58//2
f 58//1 61//1 64//1
f 64//2 61//2 58//2
f 64//1 61//1 68//1
f 68//2 61//2 64//2
f 64//1 68//1 70//1
f 70//2 68//2 64//2
usemtl material_1_2
f 2/1/3 5/2/4 3/3/5
f 3/3/8 5/2/7 2/1/6
f 3/3/5 6/4/9 2/1/3
f 2/1/6 6/4/10 3/3/8
f 3/5/5 7/6/11 1/7/12
f 1/7/14 7/6/13 3/5/8
f 1/7/12 8/8/15 3/5/5
f 3/5/8 8/8/16 1/7/14
f 4/9/17 10/10/18 2/11/3
f 2/11/6 10/10/20 4/9/19
f 2/11/3 11/12/21 4/9/17
f 4/9/19 11/12/22 2/11/6
f 5/2/4 2/1/3 10/13/18
f 10/13/20 2/1/6 5/2/7
f 7/6/11 3/5/5 5/14/4
f 5/14/7 3/5/8 7/6/13
f 6/4/9 3/3/5 8/15/15
f 8/15/16 3/3/8 6/4/10
f 11/12/21 2/11/3 6/16/9
f 6/16/10 2/11/6 11/12/22
f 12/17/23 1/18/12 7/19/11
f 7/19/13 1/18/14 12/17/24
f 8/8/15 1/7/12 13/20/25
f 13/20/26 1/7/14 8/8/16
f 1/18/12 12/17/23 9/21/27
f 9/21/28 12/17/24 1/18/14
f 9/21/27 13/22/25 1/18/12
f 1/18/14 13/22/26 9/21/28
f 10/10/18 4/9/17 15/23/29
f 15/23/30 4/9/19 10/10/20
f 16/24/31 4/25/17 11/26/21
f 11/26/22 4/25/19 16/24/32
f 10/27/18 7/28/11 5/29/4
f 5/29/7 7/28/13 10/27/20
f 13/30/25 6/31/9 8/32/15
f 8/32/16 6/31/10 13/30/26
f 6/31/9 13/30/25 11/33/21
f 11/33/22 13/30/26 6/31/10
f 7/28/11 15/34/29 12/35/23
f 12/35/24 15/34/30 7/28/13
f 17/36/33 9/37/27 12/38/23
f 12/38/24 9/37/28 17/36/34
f 13/22/25 9/21/27 18/39/35
f 18/39/36 9/21/28 13/22/26
f 14/40/37 15/41/29 4/25/17
f 4/25/19 15/41/30 14/40/38
f 4/25/17 16/24/31 14/40/37
f 14/40/38 16/24/32 4/25/19
f 7/28/11 10/27/18 15/34/29
f 15/34/30 10/27/20 7/28/13
f 11/33/21 18/42/35 16/43/31
f 16/43/32 18/42/36 11/33/22
f 11/33/21 13/30/25 18/42/35
f 18/42/36 13/30/26 11/33/22
f 12/35/23 15/34/29 20/44/39
f 20/44/40 15/34/30 12/35/24
f 9/37/27 17/36/33 19/45/41
f 19/45/42 17/36/34 9/37/28
f 12/35/23 20/44/39 17/46/33
f 17/46/34 20/44/40 12/35/24
f 19/45/41 18/47/35 9/37/27
f 9/37/28 18/47/36 19/45/42
f 15/41/29 14/40/37 20/48/39
f 20/48/40 14/40/38 15/41/30
f 16/49/31 21/50/43 14/51/37
f 14/51/38 21/50/44 16/49/32
f 16/43/31 18/42/35 22/52/45
f 22/52/46 18/42/36 16/43/32
f 17/53/33 23/54/47 19/55/41
f 19/55/42 23/54/48 17/53/34
f 17/46/33 20/44/39 24/56/49
f 24/56/50 20/44/40 17/46/34
f 18/47/35 19/45/41 22/57/45
f 22/57/46 19/45/42 18/47/36
f 24/58/49 14/51/37 21/50/43
f 21/50/44 14/51/38 24/58/50
f 14/51/37 24/58/49 20/59/39
f 20/59/40 24/58/50 14/51/38
f 21/50/43 16/49/31 25/60/51
f 25/60/52 16/49/32 21/50/44
f 16/43/31 22/52/45 25/61/51
f 25/61/52 22/52/46 16/43/32
f 23/54/47 17/53/33 26/62/53
f 26/62/54 17/53/34 23/54/48
f 27/63/55 19/55/41 23/54/47
f 23/54/48 19/55/42 27/63/56
f 17/46/33 24/56/49 26/64/53
f 26/64/54 24/56/50 17/46/34
f 19/55/41 27/63/55 22/65/45
f 22/65/46 27/63/56 19/55/42
f 21/66/43 29/67/57 24/68/49
f 24/68/50 29/67/58 21/66/44
f 25/69/51 28/70/59 21/66/43
f 21/66/44 28/70/60 25/69/52
f 25/61/51 22/52/45 27/71/55
f 27/71/56 22/52/46 25/61/52
f 26/72/53 30/73/61 23/74/47
f 23/74/48 30/73/62 26/72/54
f 23/74/47 31/75/63 27/76/55
f 27/76/56 31/75/64 23/74/48
f 26/64/53 24/56/49 29/77/57
f 29/77/58 24/56/50 26/64/54
f 29/67/57 21/66/43 28/70/59
f 28/70/60 21/66/44 29/67/58
f 28/70/59 25/69/51 32/78/65
f 32/78/66 25/69/52 28/70/60
f 25/61/51 27/71/55 32/79/65
f 32/79/66 27/71/56 25/61/52
f 30/73/61 26/72/53 33/80/67
f 33/80/68 26/72/54 30/73/62
f 31/75/63 23/74/47 30/73/61
f 30/73/62 23/74/48 31/75/64
f 32/79/65 27/71/55 31/81/63
f 31/81/64 27/71/56 32/79/66
f 26/64/53 29/77/57 33/82/67
f 33/82/68 29/77/58 26/64/54
f 28/83/59 35/84/69 29/85/57
f 29/85/58 35/84/70 28/83/60
f 32/86/65 34/87/71 28/83/59
f 28/83/60 34/87/72 32/86/66
f 33/88/67 36/89/72 30/90/61
f 30/90/62 36/89/71 33/88/68
f 30/90/61 37/91/70 31/92/63
f 31/92/64 37/91/69 30/90/62
f 32/79/65 31/81/63 38/93/73
f 38/93/74 31/81/64 32/79/66
f 33/82/67 29/77/57 35/94/69
f 35/94/70 29/77/58 33/82/68
f 35/84/69 28/83/59 34/87/71
f 34/87/72 28/83/60 35/84/70
f 34/87/71 32/86/65 38/95/73
f 38/95/74 32/86/66 34/87/72
f 36/89/72 33/88/67 39/96/74
f 39/96/73 33/88/68 36/89/71
f 37/91/70 30/90/61 36/89/72
f 36/89/71 30/90/62 37/91/69
f 38/93/73 31/81/63 37/97/70
f 37/97/69 31/81/64 38/93/74
f 33/82/67 35/94/69 39/98/74
f 39/98/73 35/94/70 33/82/68
f 34/99/71 41/100/64 35/101/69
f 35/101/70 41/100/63 34/99/72
f 38/102/73 40/103/62 34/99/71
f 34/99/72 40/103/61 38/102/74
f 39/104/74 42/105/60 36/106/72
f 36/106/71 42/105/59 39/104/73
f 36/106/72 43/107/58 37/108/70
f 37/108/69 43/107/57 36/106/71
f 38/93/73 37/97/70 44/109/68
f 44/109/67 37/97/69 38/93/74
f 39/98/74 35/94/69 41/110/64
f 41/110/63 35/94/70 39/98/73
f 41/100/64 34/99/71 40/103/62
f 40/103/61 34/99/72 41/100/63
f 40/103/62 38/102/73 44/111/68
f 44/111/67 38/102/74 40/103/61
f 42/105/60 39/104/74 45/112/66
f 45/112/65 39/104/73 42/105/59
f 43/107/58 36/106/72 42/105/60
f 42/105/59 36/106/71 43/107/57
f 44/109/68 37/97/70 43/113/58
f 43/113/57 37/97/69 44/109/67
f 39/98/74 41/110/64 45/114/66
f 45/114/65 41/110/63 39/98/73
f 40/115/62 47/116/56 41/117/64
f 41/117/63 47/116/55 40/115/61
f 44/118/68 46/119/48 40/115/62
f 40/115/61 46/119/47 44/118/67
f 45/120/66 48/121/44 42/122/60
f 42/122/59 48/121/43 45/120/65
f 42/122/60 49/123/50 43/124/58
f 43/124/57 49/123/49 42/122/59
f 44/109/68 43/113/58 50/125/54
f 50/125/53 43/113/57 44/109/67
f 45/114/66 41/110/64 47/126/56
f 47/126/55 41/110/63 45/114/65
f 47/116/56 40/115/62 46/119/48
f 46/119/47 40/115/61 47/116/55
f 46/119/48 44/118/68 50/127/54
f 50/127/53 44/118/67 46/119/47
f 48/121/44 45/120/66 51/128/52
f 51/128/51 45/120/65 48/121/43
f 49/123/50 42/122/60 48/121/44
f 48/121/43 42/122/59 49/123/49
f 50/125/54 43/113/58 49/129/50
f 49/129/49 43/113/57 50/125/53
f 45/114/66 47/126/56 51/130/52
f 51/130/51 47/126/55 45/114/65
f 46/131/48 53/132/46 47/133/56
f 47/133/55 53/132/45 46/131/47
f 50/134/54 52/135/42 46/131/48
f 46/131/47 52/135/41 50/134/53
f 51/136/52 54/137/38 48/138/44
f 48/138/43 54/137/37 51/136/51
f 48/138/44 55/139/40 49/140/50
f 49/140/49 55/139/39 48/138/43
f 50/125/54 49/129/50 56/141/34
f 56/141/33 49/129/49 50/125/53
f 51/130/52 47/126/56 53/142/46
f 53/142/45 47/126/55 51/130/51
f 53/132/46 46/131/48 52/135/42
f 52/135/41 46/131/47 53/132/45
f 52/135/42 50/134/54 56/143/34
f 56/143/33 50/134/53 52/135/41
f 54/137/38 51/136/52 57/144/32
f 57/144/31 51/136/51 54/137/37
f 55/139/40 48/138/44 54/137/38
f 54/137/37 48/138/43 55/139/39
f 56/141/34 49/129/50 55/145/40
f 55/145/39 49/129/49 56/141/33
f 51/130/52 53/142/46 57/146/32
f 57/146/31 53/142/45 51/130/51
f 58/147/28 53/148/46 52/149/42
f 52/149/41 53/148/45 58/147/27
f 59/150/24 52/149/42 56/151/34
f 56/151/33 52/149/41 59/150/23
f 60/152/22 54/153/38 57/154/32
f 57/154/31 54/153/37 60/152/21
f 61/155/19 55/156/40 54/153/38
f 54/153/37 55/156/39 61/155/17
f 56/141/34 55/145/40 59/157/24
f 59/157/23 55/145/39 56/141/33
f 57/146/32 53/142/46 62/158/36
f 62/158/35 53/142/45 57/146/31
f 52/149/42 59/150/24 58/147/28
f 58/147/27 59/150/23 52/149/41
f 53/148/46 58/147/28 62/159/36
f 62/159/35 58/147/27 53/148/45
f 54/153/38 60/152/22 61/155/19
f 61/155/17 60/152/21 54/153/37
f 57/146/32 62/158/36 60/160/22
f 60/160/21 62/158/35 57/146/31
f 55/156/40 61/155/19 63/161/30
f 63/161/29 61/155/17 55/156/39
f 59/157/24 55/145/40 63/162/30
f 63/162/29 55/145/39 59/157/23
f 65/163/13 58/164/28 59/165/24
f 59/165/23 58/164/27 65/163/11
f 64/166/14 62/167/36 58/164/28
f 58/164/27 62/167/35 64/166/12
f 66/168/10 61/169/19 60/170/22
f 60/170/21 61/169/17 66/168/9
f 60/160/22 62/158/36 67/171/26
f 67/171/25 62/158/35 60/160/21
f 68/172/6 63/173/30 61/169/19
f 61/169/17 63/173/29 68/172/3
f 59/157/24 63/162/30 65/174/13
f 65/174/11 63/162/29 59/157/23
f 58/164/28 65/163/13 64/166/14
f 64/166/12 65/163/11 58/164/27
f 62/167/36 64/166/14 67/175/26
f 67/175/25 64/166/12 62/167/35
f 61/169/19 66/168/10 68/172/6
f 68/172/3 66/168/9 61/169/17
f 60/160/22 67/171/26 66/176/10
f 66/176/9 67/171/25 60/160/21
f 63/173/30 68/172/6 69/177/20
f 69/177/18 68/172/3 63/173/29
f 65/174/13 63/162/30 69/178/20
f 69/178/18 63/162/29 65/174/11
f 71/179/7 64/180/14 65/181/13
f 65/181/11 64/180/12 71/179/4
f 70/182/8 67/183/26 64/180/14
f 64/180/12 67/183/25 70/182/5
f 72/184/16 68/185/6 66/186/10
f 66/186/9 68/185/3 72/184/15
f 66/176/10 67/171/26 72/187/16
f 72/187/15 67/171/25 66/176/9
f 70/188/8 69/189/20 68/185/6
f 68/185/3 69/189/18 70/188/5
f 65/174/13 69/178/20 71/190/7
f 71/190/4 69/178/18 65/174/11
f 68/185/6 72/184/16 70/188/8
f 70/188/5 72/184/15 68/185/3
f 64/180/14 71/179/7 70/182/8
f 70/182/5 71/179/4 64/180/12
f 67/183/26 70/182/8 72/191/16
f 72/191/15 70/182/5 67/183/25
f 69/189/20 70/188/8 71/192/7
f 71/192/4 70/188/5 69/189/18
