# SSTK version 0.8.0
# 3
mtllib original-3.mtl
o mesh3/mesh3-geometry#mesh3-geometry
v 0.198865 0.746550 0.645800
v 0.162017 0.722472 0.618200
v -0.139345 0.723668 0.619570
v 0.198865 0.291784 0.124492
v 0.162017 0.477684 0.831742
v -0.176194 0.748038 0.647506
v 0.198865 0.431141 0.828718
v 0.162017 0.316007 0.152260
v -0.139345 0.478879 0.833112
v -0.176194 0.293272 0.126198
v 0.198865 0.529203 0.835404
v 0.198865 0.022063 0.359784
v 0.198865 0.437553 0.835164
v -0.056447 0.316007 0.152260
v -0.139345 0.072252 0.366987
v -0.139345 0.317040 0.153444
v 0.162017 0.071219 0.365802
v -0.176194 0.431141 0.828718
v -0.176194 0.529203 0.838408
v 0.198865 0.521976 0.840919
v -0.176194 0.023552 0.361490
v -0.056796 0.022063 0.359784
v 0.198865 0.444750 0.840717
v -0.176194 0.437553 0.835164
v -0.176194 0.528034 0.836296
v 0.198865 0.514091 0.845444
v -0.176194 0.529203 0.835404
v -0.056796 0.291784 0.124492
v 0.198865 0.452612 0.845283
v -0.176194 0.444750 0.840717
v -0.056447 0.071219 0.365802
v -0.176194 0.521976 0.840919
v 0.198865 0.505683 0.848901
v 0.198865 0.461002 0.848784
v -0.176194 0.452612 0.845283
v -0.176194 0.514091 0.845444
v 0.198865 0.496895 0.851231
v 0.198865 0.469777 0.851160
v -0.176194 0.461002 0.848784
v -0.176194 0.505683 0.848901
v 0.198865 0.487879 0.852394
v 0.198865 0.478787 0.852370
v -0.176194 0.469777 0.851160
v -0.176194 0.496895 0.851231
v -0.176194 0.478787 0.852370
v -0.176194 0.487879 0.852394
vt 0.02971 2.732882
vt 0.114201 2.6489
vt 0.805194 2.653071
vt 0.02971 1.146676
vt 0.124922 1.000162
vt 0.811997 1.748618
vt 0.121001 1.74498
vt 0.889685 2.738073
vt -1.332142 2.387783
vt 0.282579 2.068251
vt -0.912728 3.110984
vt 0.114201 1.231166
vt 0.815918 1.003801
vt -0.21891 2.123793
vt 1.339074 2.494501
vt 0.849443 3.055776
vt 0.889685 1.151866
vt -0.896998 1.749065
vt -0.040502 1.083217
vt -0.03702 1.744538
vt -0.256922 1.449809
vt -1.34692 2.402484
vt 0.615116 1.231166
vt 0.805194 1.23477
vt -1.342217 2.497243
vt 0.216194 2.126162
vt -0.852585 3.058518
vt 0.270721 1.562518
vt -0.278668 2.071663
vt 1.332142 2.387783
vt 0.91664 3.114396
vt -0.900503 1.083217
vt -1.360117 2.596059
vt -1.34747 2.61263
vt -0.02971 2.573523
vt -0.889685 1.151866
vt -0.02971 1.146676
vt 0.615917 0.923629
vt 0.02971 1.744318
vt 0.02971 0.923629
vt -1.359653 2.418989
vt -0.02971 2.649266
vt -0.889685 2.628421
vt -0.02971 2.628421
vt -0.615116 1.744318
vt -0.114201 0.999491
vt -0.114201 1.744318
vt -0.273437 1.564887
vt 0.260833 1.453221
vt 1.34692 2.402484
vt 1.349516 2.609949
vt 1.354358 2.61263
vt -1.370492 2.577979
vt -0.889685 1.259409
vt -0.02971 1.238564
vt -0.02971 1.259409
vt -0.889685 2.573523
vt -0.615917 1.146676
vt 0.615917 1.744318
vt -1.370123 2.437014
vt -0.889685 2.745776
vt -0.02971 2.724931
vt -0.02971 2.745776
vt -0.889685 2.649266
vt 0.615917 1.146676
vt -0.615116 0.999491
vt -0.621731 1.009909
vt -0.799502 1.757778
vt -0.811817 1.013052
vt -0.609416 1.754635
vt 0.608615 1.754621
vt 0.895964 0.938571
vt 0.882394 1.759149
vt 1.359653 2.418989
vt 1.360117 2.596059
vt -1.378419 2.5587
vt -0.889685 1.574671
vt -0.02971 1.553826
vt -0.02971 1.574671
vt -0.889685 1.238564
vt 0.622185 0.934044
vt -1.37815 2.456251
vt -0.889685 2.795484
vt -0.02971 2.774639
vt -0.02971 2.795484
vt -0.889685 2.724931
vt -0.889685 2.774639
vt 1.370123 2.437014
vt 1.370492 2.577979
vt -0.889685 1.256037
vt -1.383761 2.538551
vt -0.889685 1.863169
vt -0.02971 1.842324
vt -0.02971 1.863169
vt -0.889685 1.553826
vt -1.383598 2.476372
vt -0.889685 2.797539
vt -0.02971 2.776693
vt -0.02971 2.797539
vt -0.889685 2.776693
vt 1.37815 2.456251
vt 1.378419 2.5587
vt -1.386428 2.517877
vt -0.889685 2.119966
vt -0.02971 2.09912
vt -0.02971 2.119966
vt -0.889685 1.842324
vt -1.386373 2.497032
vt -0.889685 2.751905
vt -0.02971 2.73106
vt -0.02971 2.751905
vt -0.889685 2.73106
vt 1.383598 2.476372
vt 1.383761 2.538551
vt -0.889685 2.340667
vt -0.02971 2.319822
vt -0.02971 2.340667
vt -0.889685 2.09912
vt -0.889685 2.659363
vt -0.02971 2.638518
vt -0.02971 2.659363
vt -0.889685 2.638518
vt 1.386373 2.497032
vt 1.386428 2.517877
vt -0.889685 2.521498
vt -0.02971 2.500653
vt -0.02971 2.521498
vt -0.889685 2.319822
vt -0.889685 2.500653
vn 0 0.7535633445315004 -0.6573753005540283
vn 0 -0.7535633445315004 0.6573753005540283
vn -0.006035999548612879 -0.6573629508407569 -0.7535499436476534
vn 0.006035999548612879 0.6573629508407569 0.7535499436476534
vn 1 0 0
vn -1 0 0
vn 0 -0.6573753005540283 -0.7535633445315004
vn 0 0.6573753005540283 0.7535633445315004
vn 0 -0.6613119756422271 0.7501109723715381
vn 0 -0.7089558568104276 0.7052528575583316
vn 0 0.6613119756422271 -0.7501109723715381
vn 0 0.7089558568104276 -0.7052528575583316
vn 0 0.6066822996222613 0.794944392599284
vn 0 0.55339197291008 0.8329209592264377
vn 0 -0.6066822996222613 -0.794944392599284
vn 0 -0.55339197291008 -0.8329209592264377
vn 0 -0.557745165882082 0.830012246858544
vn 0 0.557745165882082 -0.830012246858544
vn 0.01895600146748839 0.6572570508818851 0.753428058327012
vn -0.01895600146748839 -0.6572570508818851 -0.753428058327012
vn 0 0.4399388652676433 0.8980277249768063
vn 0 -0.4399388652676433 -0.8980277249768063
vn 0 -0.4446349399367155 0.8957118790032167
vn 0 0.4446349399367155 -0.8957118790032167
vn 0 0.3189591554120889 0.9477684617979261
vn 0 -0.3189591554120889 -0.9477684617979261
vn 0 -0.32391715384222136 0.9460854493367683
vn 0 0.32391715384222136 -0.9460854493367683
vn 0 0.1925219352805857 0.981292670122333
vn 0 -0.1925219352805857 -0.981292670122333
vn 0 -0.19765704713231683 0.9802712337506051
vn 0 0.19765704713231683 -0.9802712337506051
vn 0 0.06279098108704538 0.9980266993894131
vn 0 -0.06279098108704538 -0.9980266993894131
vn 0 -0.06801502026572445 0.9976842972695587
vn 0 0.06801502026572445 -0.9976842972695587
usemtl material_0_2
f 1/1/1 2/2/1 3/3/1
f 3/3/2 2/2/2 1/1/2
f 2/2/1 1/1/1 4/4/1
f 4/4/2 1/1/2 2/2/2
f 5/5/3 3/6/3 2/7/3
f 2/7/4 3/6/4 5/5/4
f 3/3/1 6/8/1 1/1/1
f 1/1/2 6/8/2 3/3/2
f 7/9/5 4/10/5 1/11/5
f 1/11/6 4/10/6 7/9/6
f 2/2/1 4/4/1 8/12/1
f 8/12/2 4/4/2 2/2/2
f 3/6/3 5/5/3 9/13/3
f 9/13/4 5/5/4 3/6/4
f 8/14/6 5/15/6 2/16/6
f 2/16/5 5/15/5 8/14/5
f 6/8/1 3/3/1 10/17/1
f 10/17/2 3/3/2 6/8/2
f 6/18/4 11/19/4 1/20/4
f 1/20/3 11/19/3 6/18/3
f 4/10/5 7/9/5 12/21/5
f 12/21/6 7/9/6 4/10/6
f 7/9/5 1/11/5 13/22/5
f 13/22/6 1/11/6 7/9/6
f 8/12/1 4/4/1 14/23/1
f 14/23/2 4/4/2 8/12/2
f 5/2/1 15/24/1 9/3/1
f 9/3/2 15/24/2 5/2/2
f 9/25/5 16/26/5 3/27/5
f 3/27/6 16/26/6 9/25/6
f 5/15/6 8/14/6 17/28/6
f 17/28/5 8/14/5 5/15/5
f 10/17/1 3/3/1 16/24/1
f 16/24/2 3/3/2 10/17/2
f 10/29/6 18/30/6 6/31/6
f 6/31/5 18/30/5 10/29/5
f 11/19/4 6/18/4 19/32/4
f 19/32/3 6/18/3 11/19/3
f 20/33/5 1/11/5 11/34/5
f 11/34/6 1/11/6 20/33/6
f 7/35/2 21/36/2 12/37/2
f 12/37/1 21/36/1 7/35/1
f 22/38/7 4/39/7 12/40/7
f 12/40/8 4/39/8 22/38/8
f 13/22/5 1/11/5 23/41/5
f 23/41/6 1/11/6 13/22/6
f 13/42/9 18/43/10 7/44/10
f 7/44/12 18/43/12 13/42/11
f 14/23/1 4/4/1 10/17/1
f 10/17/2 4/4/2 14/23/2
f 14/45/8 17/46/8 8/47/8
f 8/47/7 17/46/7 14/45/7
f 15/24/1 5/2/1 17/12/1
f 17/12/2 5/2/2 15/24/2
f 16/26/5 9/25/5 15/48/5
f 15/48/6 9/25/6 16/26/6
f 10/17/1 16/24/1 14/23/1
f 14/23/2 16/24/2 10/17/2
f 18/30/6 10/29/6 21/49/6
f 21/49/5 10/29/5 18/30/5
f 6/31/6 18/30/6 24/50/6
f 24/50/5 18/30/5 6/31/5
f 6/31/6 25/51/6 19/52/6
f 19/52/5 25/51/5 6/31/5
f 26/53/5 1/11/5 20/33/5
f 20/33/6 1/11/6 26/53/6
f 27/54/13 20/55/14 11/56/13
f 11/56/15 20/55/16 27/54/15
f 21/36/2 7/35/2 18/57/2
f 18/57/1 7/35/1 21/36/1
f 12/37/2 21/36/2 22/58/2
f 22/58/1 21/36/1 12/37/1
f 4/39/7 22/38/7 28/59/7
f 28/59/8 22/38/8 4/39/8
f 23/41/5 1/11/5 29/60/5
f 29/60/6 1/11/6 23/41/6
f 30/61/17 13/62/9 23/63/17
f 23/63/18 13/62/11 30/61/18
f 18/43/10 13/42/9 24/64/9
f 24/64/11 13/42/11 18/43/12
f 10/17/1 4/4/1 28/65/1
f 28/65/2 4/4/2 10/17/2
f 17/46/8 14/45/8 31/66/8
f 31/66/7 14/45/7 17/46/7
f 15/24/1 17/12/1 31/23/1
f 31/23/2 17/12/2 15/24/2
f 31/67/19 16/68/19 15/69/19
f 15/69/20 16/68/20 31/67/20
f 16/68/19 31/67/19 14/70/19
f 14/70/20 31/67/20 16/68/20
f 28/71/20 21/72/20 10/73/20
f 10/73/19 21/72/19 28/71/19
f 6/31/6 24/50/6 30/74/6
f 30/74/5 24/50/5 6/31/5
f 6/31/6 32/75/6 25/51/6
f 25/51/5 32/75/5 6/31/5
f 33/76/5 1/11/5 26/53/5
f 26/53/6 1/11/6 33/76/6
f 32/77/14 26/78/21 20/79/14
f 20/79/16 26/78/22 32/77/16
f 20/55/14 27/54/13 32/80/14
f 32/80/16 27/54/15 20/55/16
f 21/72/20 28/71/20 22/81/20
f 22/81/19 28/71/19 21/72/19
f 29/60/5 1/11/5 34/82/5
f 34/82/6 1/11/6 29/60/6
f 35/83/23 23/84/17 29/85/23
f 29/85/24 23/84/18 35/83/24
f 13/62/9 30/61/17 24/86/9
f 24/86/11 30/61/18 13/62/11
f 23/84/17 35/83/23 30/87/17
f 30/87/18 35/83/24 23/84/18
f 6/31/6 30/74/6 35/88/6
f 35/88/5 30/74/5 6/31/5
f 6/31/6 36/89/6 32/75/6
f 32/75/5 36/89/5 6/31/5
f 32/80/14 27/54/13 25/90/13
f 25/90/15 27/54/15 32/80/16
f 37/91/5 1/11/5 33/76/5
f 33/76/6 1/11/6 37/91/6
f 36/92/21 33/93/25 26/94/21
f 26/94/22 33/93/26 36/92/22
f 26/78/21 32/77/14 36/95/21
f 36/95/22 32/77/16 26/78/22
f 34/82/5 1/11/5 38/96/5
f 38/96/6 1/11/6 34/82/6
f 39/97/27 29/98/23 34/99/27
f 34/99/28 29/98/24 39/97/28
f 29/98/23 39/97/27 35/100/23
f 35/100/24 39/97/28 29/98/24
f 6/31/6 35/88/6 39/101/6
f 39/101/5 35/88/5 6/31/5
f 6/31/6 40/102/6 36/89/6
f 36/89/5 40/102/5 6/31/5
f 41/103/5 1/11/5 37/91/5
f 37/91/6 1/11/6 41/103/6
f 40/104/25 37/105/29 33/106/25
f 33/106/26 37/105/30 40/104/26
f 33/93/25 36/92/21 40/107/25
f 40/107/26 36/92/22 33/93/26
f 38/96/5 1/11/5 42/108/5
f 42/108/6 1/11/6 38/96/6
f 43/109/31 34/110/27 38/111/31
f 38/111/32 34/110/28 43/109/32
f 34/110/27 43/109/31 39/112/27
f 39/112/28 43/109/32 34/110/28
f 6/31/6 39/101/6 43/113/6
f 43/113/5 39/101/5 6/31/5
f 6/31/6 44/114/6 40/102/6
f 40/102/5 44/114/5 6/31/5
f 42/108/5 1/11/5 41/103/5
f 41/103/6 1/11/6 42/108/6
f 44/115/29 41/116/33 37/117/29
f 37/117/30 41/116/34 44/115/30
f 37/105/29 40/104/25 44/118/29
f 44/118/30 40/104/26 37/105/30
f 45/119/35 38/120/31 42/121/35
f 42/121/36 38/120/32 45/119/36
f 38/120/31 45/119/35 43/122/31
f 43/122/32 45/119/36 38/120/32
f 6/31/6 43/113/6 45/123/6
f 45/123/5 43/113/5 6/31/5
f 6/31/6 46/124/6 44/114/6
f 44/114/5 46/124/5 6/31/5
f 46/125/33 42/126/35 41/127/33
f 41/127/34 42/126/36 46/125/34
f 41/116/33 44/115/29 46/128/33
f 46/128/34 44/115/30 41/116/34
f 42/126/35 46/125/33 45/129/35
f 45/129/36 46/125/34 42/126/36
f 6/31/6 45/123/6 46/124/6
f 46/124/5 45/123/5 6/31/5
