# SSTK version 0.8.0
# 7
mtllib original-7.mtl
o #ID73
v -0.295694 0.068077 -0.672338
v -0.288031 -0.069506 -0.769828
v -0.295694 -0.069506 -0.672338
v -0.288031 0.068077 -0.769828
v -0.288031 0.068077 -0.769828
v -0.295694 0.068077 -0.672338
v -0.288031 -0.069506 -0.769828
v -0.295694 -0.069506 -0.672338
v -0.275415 -0.069506 -0.866802
v -0.275415 0.068077 -0.866802
v -0.275415 0.068077 -0.866802
v -0.275415 -0.069506 -0.866802
v -0.211409 -0.069506 0.178325
v -0.193765 -0.069506 0.174052
v -0.208491 -0.069506 0.178709
v -0.214128 -0.069506 0.177198
v -0.216463 -0.069506 0.175407
v -0.218255 -0.069506 0.173072
v -0.179245 -0.069506 0.168789
v -0.219382 -0.069506 0.170352
v -0.219766 -0.069506 0.167434
v -0.164955 -0.069506 0.162929
v -0.219382 -0.069506 0.164516
v -0.218255 -0.069506 0.161797
v -0.155203 -0.069506 0.158449
v -0.216463 -0.069506 0.159462
v -0.214128 -0.069506 0.157670
v -0.150921 -0.069506 0.156482
v -0.209018 -0.069506 0.150411
v -0.148216 -0.069506 0.155101
v -0.138360 -0.069506 0.152324
v -0.128698 -0.069506 0.148932
v -0.204450 -0.069506 0.142799
v -0.119269 -0.069506 0.144940
v -0.110109 -0.069506 0.140362
v -0.200448 -0.069506 0.134875
v -0.101256 -0.069506 0.135217
v -0.092744 -0.069506 0.129525
v -0.197034 -0.069506 0.126681
v -0.084606 -0.069506 0.123310
v -0.194226 -0.069506 0.118259
v -0.076876 -0.069506 0.116595
v -0.192038 -0.069506 0.109656
v -0.069583 -0.069506 0.109407
v -0.190483 -0.069506 0.100916
v -0.062757 -0.069506 0.101774
v -0.056424 -0.069506 0.093727
v -0.189569 -0.069506 0.092086
v -0.050610 -0.069506 0.085298
v -0.189300 -0.069506 0.083212
v -0.044800 -0.069506 0.079751
v -0.189677 -0.069506 0.074343
v -0.058913 -0.069506 0.051152
v -0.190700 -0.069506 0.065525
v -0.192363 -0.069506 0.056804
v -0.210620 -0.069506 0.003320
v -0.094973 -0.069506 -0.032386
v -0.237460 -0.069506 -0.090716
v -0.126733 -0.069506 -0.117651
v -0.259478 -0.069506 -0.185996
v -0.154112 -0.069506 -0.204423
v -0.276618 -0.069506 -0.282273
v -0.177039 -0.069506 -0.292475
v -0.288835 -0.069506 -0.379298
v -0.195454 -0.069506 -0.381581
v -0.296097 -0.069506 -0.476819
v -0.209309 -0.069506 -0.471508
v -0.218569 -0.069506 -0.562024
v -0.298385 -0.069506 -0.574584
v -0.223209 -0.069506 -0.652894
v -0.223218 -0.069506 -0.743883
v -0.218595 -0.069506 -0.834754
v -0.208997 -0.069506 -0.928750
v -0.256849 -0.069506 -0.968660
v -0.208858 -0.069506 -0.934097
v -0.209566 -0.069506 -0.939692
v -0.211110 -0.069506 -0.945115
v -0.213457 -0.069506 -0.950244
v -0.216552 -0.069506 -0.954958
v -0.220324 -0.069506 -0.959151
v -0.224686 -0.069506 -0.962726
v -0.229538 -0.069506 -0.965600
v -0.234769 -0.069506 -0.967708
v -0.240258 -0.069506 -0.969002
v -0.245880 -0.069506 -0.969451
v -0.245880 -0.069506 -0.969451
v -0.256849 -0.069506 -0.968660
v -0.240258 -0.069506 -0.969002
v -0.234769 -0.069506 -0.967708
v -0.229538 -0.069506 -0.965600
v -0.224686 -0.069506 -0.962726
v -0.220324 -0.069506 -0.959151
v -0.216552 -0.069506 -0.954958
v -0.213457 -0.069506 -0.950244
v -0.211110 -0.069506 -0.945115
v -0.209566 -0.069506 -0.939692
v -0.208858 -0.069506 -0.934097
v -0.208997 -0.069506 -0.928750
v -0.218595 -0.069506 -0.834754
v -0.223218 -0.069506 -0.743883
v -0.223209 -0.069506 -0.652894
v -0.298385 -0.069506 -0.574584
v -0.218569 -0.069506 -0.562024
v -0.296097 -0.069506 -0.476819
v -0.209309 -0.069506 -0.471508
v -0.195454 -0.069506 -0.381581
v -0.288835 -0.069506 -0.379298
v -0.177039 -0.069506 -0.292475
v -0.276618 -0.069506 -0.282273
v -0.154112 -0.069506 -0.204423
v -0.259478 -0.069506 -0.185996
v -0.126733 -0.069506 -0.117651
v -0.237460 -0.069506 -0.090716
v -0.094973 -0.069506 -0.032386
v -0.210620 -0.069506 0.003320
v -0.058913 -0.069506 0.051152
v -0.192363 -0.069506 0.056804
v -0.190700 -0.069506 0.065525
v -0.189677 -0.069506 0.074343
v -0.044800 -0.069506 0.079751
v -0.189300 -0.069506 0.083212
v -0.050610 -0.069506 0.085298
v -0.189569 -0.069506 0.092086
v -0.056424 -0.069506 0.093727
v -0.190483 -0.069506 0.100916
v -0.062757 -0.069506 0.101774
v -0.069583 -0.069506 0.109407
v -0.192038 -0.069506 0.109656
v -0.076876 -0.069506 0.116595
v -0.194226 -0.069506 0.118259
v -0.084606 -0.069506 0.123310
v -0.197034 -0.069506 0.126681
v -0.092744 -0.069506 0.129525
v -0.200448 -0.069506 0.134875
v -0.101256 -0.069506 0.135217
v -0.110109 -0.069506 0.140362
v -0.204450 -0.069506 0.142799
v -0.119269 -0.069506 0.144940
v -0.128698 -0.069506 0.148932
v -0.209018 -0.069506 0.150411
v -0.138360 -0.069506 0.152324
v -0.148216 -0.069506 0.155101
v -0.150921 -0.069506 0.156482
v -0.214128 -0.069506 0.157670
v -0.155203 -0.069506 0.158449
v -0.216463 -0.069506 0.159462
v -0.218255 -0.069506 0.161797
v -0.164955 -0.069506 0.162929
v -0.219382 -0.069506 0.164516
v -0.219766 -0.069506 0.167434
v -0.179245 -0.069506 0.168789
v -0.219382 -0.069506 0.170352
v -0.218255 -0.069506 0.173072
v -0.193765 -0.069506 0.174052
v -0.216463 -0.069506 0.175407
v -0.214128 -0.069506 0.177198
v -0.211409 -0.069506 0.178325
v -0.208491 -0.069506 0.178709
v -0.298385 0.068077 -0.574584
v -0.298385 0.068077 -0.574584
v -0.193765 0.068077 0.174052
v -0.211409 0.068077 0.178325
v -0.208491 0.068077 0.178709
v -0.214128 0.068077 0.177198
v -0.216463 0.068077 0.175407
v -0.218255 0.068077 0.173072
v -0.179245 0.068077 0.168789
v -0.219382 0.068077 0.170352
v -0.219766 0.068077 0.167434
v -0.164955 0.068077 0.162929
v -0.219382 0.068077 0.164516
v -0.218255 0.068077 0.161797
v -0.155203 0.068077 0.158449
v -0.216463 0.068077 0.159462
v -0.214128 0.068077 0.157670
v -0.150921 0.068077 0.156482
v -0.209018 0.068077 0.150411
v -0.148216 0.068077 0.155101
v -0.137165 0.068077 0.149458
v -0.204450 0.068077 0.142799
v -0.123713 0.068077 0.141871
v -0.200448 0.068077 0.134875
v -0.110586 0.068077 0.133733
v -0.197034 0.068077 0.126681
v -0.097808 0.068077 0.125058
v -0.194226 0.068077 0.118259
v -0.085400 0.068077 0.115860
v -0.192038 0.068077 0.109656
v -0.073385 0.068077 0.106157
v -0.190483 0.068077 0.100916
v -0.061781 0.068077 0.095964
v -0.189569 0.068077 0.092086
v -0.050610 0.068077 0.085298
v -0.189300 0.068077 0.083212
v -0.044800 0.068077 0.079751
v -0.189677 0.068077 0.074343
v -0.058913 0.068077 0.051152
v -0.190700 0.068077 0.065525
v -0.192363 0.068077 0.056804
v -0.210620 0.068077 0.003320
v -0.094973 0.068077 -0.032386
v -0.237460 0.068077 -0.090716
v -0.126733 0.068077 -0.117651
v -0.259478 0.068077 -0.185996
v -0.154112 0.068077 -0.204423
v -0.276618 0.068077 -0.282273
v -0.177039 0.068077 -0.292475
v -0.288835 0.068077 -0.379298
v -0.195454 0.068077 -0.381581
v -0.296097 0.068077 -0.476819
v -0.209309 0.068077 -0.471508
v -0.218569 0.068077 -0.562024
v -0.223209 0.068077 -0.652894
v -0.223218 0.068077 -0.743883
v -0.218595 0.068077 -0.834754
v -0.208997 0.068077 -0.928750
v -0.256849 0.068077 -0.968660
v -0.208858 0.068077 -0.934097
v -0.209566 0.068077 -0.939692
v -0.211110 0.068077 -0.945115
v -0.213457 0.068077 -0.950244
v -0.216552 0.068077 -0.954958
v -0.220324 0.068077 -0.959151
v -0.224686 0.068077 -0.962726
v -0.229538 0.068077 -0.965600
v -0.234769 0.068077 -0.967708
v -0.240258 0.068077 -0.969002
v -0.245880 0.068077 -0.969451
v -0.245880 0.068077 -0.969451
v -0.240258 0.068077 -0.969002
v -0.256849 0.068077 -0.968660
v -0.234769 0.068077 -0.967708
v -0.229538 0.068077 -0.965600
v -0.224686 0.068077 -0.962726
v -0.220324 0.068077 -0.959151
v -0.216552 0.068077 -0.954958
v -0.213457 0.068077 -0.950244
v -0.211110 0.068077 -0.945115
v -0.209566 0.068077 -0.939692
v -0.208858 0.068077 -0.934097
v -0.208997 0.068077 -0.928750
v -0.218595 0.068077 -0.834754
v -0.223218 0.068077 -0.743883
v -0.223209 0.068077 -0.652894
v -0.218569 0.068077 -0.562024
v -0.296097 0.068077 -0.476819
v -0.209309 0.068077 -0.471508
v -0.195454 0.068077 -0.381581
v -0.288835 0.068077 -0.379298
v -0.177039 0.068077 -0.292475
v -0.276618 0.068077 -0.282273
v -0.154112 0.068077 -0.204423
v -0.259478 0.068077 -0.185996
v -0.126733 0.068077 -0.117651
v -0.237460 0.068077 -0.090716
v -0.094973 0.068077 -0.032386
v -0.210620 0.068077 0.003320
v -0.058913 0.068077 0.051152
v -0.192363 0.068077 0.056804
v -0.190700 0.068077 0.065525
v -0.189677 0.068077 0.074343
v -0.044800 0.068077 0.079751
v -0.189300 0.068077 0.083212
v -0.050610 0.068077 0.085298
v -0.189569 0.068077 0.092086
v -0.061781 0.068077 0.095964
v -0.190483 0.068077 0.100916
v -0.073385 0.068077 0.106157
v -0.192038 0.068077 0.109656
v -0.085400 0.068077 0.115860
v -0.194226 0.068077 0.118259
v -0.097808 0.068077 0.125058
v -0.197034 0.068077 0.126681
v -0.110586 0.068077 0.133733
v -0.200448 0.068077 0.134875
v -0.123713 0.068077 0.141871
v -0.204450 0.068077 0.142799
v -0.137165 0.068077 0.149458
v -0.209018 0.068077 0.150411
v -0.148216 0.068077 0.155101
v -0.150921 0.068077 0.156482
v -0.214128 0.068077 0.157670
v -0.155203 0.068077 0.158449
v -0.216463 0.068077 0.159462
v -0.218255 0.068077 0.161797
v -0.164955 0.068077 0.162929
v -0.219382 0.068077 0.164516
v -0.219766 0.068077 0.167434
v -0.179245 0.068077 0.168789
v -0.219382 0.068077 0.170352
v -0.218255 0.068077 0.173072
v -0.193765 0.068077 0.174052
v -0.216463 0.068077 0.175407
v -0.214128 0.068077 0.177198
v -0.211409 0.068077 0.178325
v -0.208491 0.068077 0.178709
v -0.050610 0.056612 0.085298
v -0.050610 -0.058041 0.085298
v -0.050610 -0.058041 0.085298
v -0.050610 0.056612 0.085298
v -0.056424 -0.058041 0.093727
v -0.056424 -0.058041 0.093727
v -0.062757 -0.058041 0.101774
v -0.062757 -0.058041 0.101774
v -0.069583 -0.058041 0.109407
v -0.069583 -0.058041 0.109407
v -0.076876 -0.058041 0.116595
v -0.076876 -0.058041 0.116595
v -0.084606 -0.058041 0.123310
v -0.084606 -0.058041 0.123310
v -0.092744 -0.058041 0.129525
v -0.092744 -0.058041 0.129525
v -0.101256 -0.058041 0.135217
v -0.101256 -0.058041 0.135217
v -0.110109 -0.058041 0.140362
v -0.110109 -0.058041 0.140362
v -0.119269 -0.058041 0.144940
v -0.119269 -0.058041 0.144940
v -0.128698 -0.058041 0.148932
v -0.128698 -0.058041 0.148932
v -0.138360 -0.058041 0.152324
v -0.138360 -0.058041 0.152324
v -0.148216 -0.058041 0.155101
v -0.148216 -0.058041 0.155101
v -0.148216 0.056612 0.155101
v -0.148216 0.056612 0.155101
v -0.050610 0.056612 0.085298
v -0.061781 0.056612 0.095964
v -0.061781 0.056612 0.095964
v -0.050610 0.056612 0.085298
v -0.137165 0.056612 0.149458
v -0.148216 0.056612 0.155101
v -0.148216 0.056612 0.155101
v -0.137165 0.056612 0.149458
v -0.123713 0.056612 0.141871
v -0.123713 0.056612 0.141871
v -0.110586 0.056612 0.133733
v -0.110586 0.056612 0.133733
v -0.097808 0.056612 0.125058
v -0.097808 0.056612 0.125058
v -0.085400 0.056612 0.115860
v -0.085400 0.056612 0.115860
v -0.073385 0.056612 0.106157
v -0.073385 0.056612 0.106157
vt -1.020209 0.08748906
vt -0.9580233 0.08748906
vt -1.020209 1.644775e-17
vt -0.9580233 1.644775e-17
vt -1.063141 0.08748906
vt -1.000956 0.08748906
vt -1.063141 1.644775e-17
vt -1.000956 1.644775e-17
vt -1.171614 0.2443994
vt -1.171111 0.2513743
vt -1.171328 0.2408245
vt -1.170506 0.2373339
vt -1.169165 0.2340076
vt -1.167337 0.2309221
vt -1.165064 0.2281483
vt -1.162398 0.2257498
vt -1.1594 0.2237818
vt -1.156139 0.2222894
vt -1.15269 0.221307
vt -1.149132 0.2208571
vt -1.145733 0.2209452
vt -1.10634 0.2631805
vt -1.08596 0.2270485
vt -1.044674 0.271203
vt -1.028175 0.2299883
vt -0.9826802 0.2760762
vt -0.970316 0.2299828
vt -0.9205185 0.2777874
vt -0.9125318 0.2270322
vt -0.8583502 0.2763321
vt -0.8549728 0.221144
vt -0.7977881 0.2123335
vt -0.7963367 0.2717142
vt -0.741126 0.2006235
vt -0.7346386 0.2639456
vt -0.6851335 0.1860445
vt -0.6734159 0.2530464
vt -0.6299556 0.1686342
vt -0.6128274 0.239045
vt -0.5757355 0.1484377
vt -0.5530302 0.2219775
vt -0.5226138 0.1255074
vt -0.5190194 0.2103677
vt -0.5134741 0.2093107
vt -0.5078666 0.2086603
vt -0.5044275 0.1165328
vt -0.5022267 0.2084199
vt -0.5009 0.1202276
vt -0.4965841 0.208591
vt -0.49554 0.1239247
vt -0.4909691 0.2091725
vt -0.4904231 0.1279516
vt -0.4855696 0.1322924
vt -0.4854113 0.2101614
vt -0.4809987 0.1369298
vt -0.4799403 0.2115524
vt -0.4767286 0.1418456
vt -0.4745851 0.2133382
vt -0.4727761 0.1470202
vt -0.4693741 0.2155092
vt -0.4691569 0.1524331
vt -0.4658853 0.158063
vt -0.4643351 0.2180539
vt -0.4629743 0.1638875
vt -0.4604355 0.1698836
vt -0.4594948 0.2209588
vt -0.4582788 0.1760275
vt -0.4565127 0.1822948
vt -0.4556346 0.1840147
vt -0.4548789 0.2242086
vt -0.4543836 0.1867379
vt -0.4537396 0.2256934
vt -0.4522547 0.2268328
vt -0.4515348 0.1929393
vt -0.4505256 0.227549
vt -0.44867 0.2277933
vt -0.4478083 0.2020261
vt -0.4468144 0.227549
vt -0.4450852 0.2268328
vt -0.4444616 0.2112596
vt -0.4436004 0.2256934
vt -0.442461 0.2242086
vt -0.4417448 0.2224794
vt -0.4415005 0.2206238
vt -0.9747111 0.08748906
vt -0.9125259 0.08748906
vt -0.9747111 1.644775e-17
vt -0.9125259 1.644775e-17
vt 1.171614 0.2443994
vt 1.171328 0.2408245
vt 1.171111 0.2513743
vt 1.170506 0.2373339
vt 1.169165 0.2340076
vt 1.167337 0.2309221
vt 1.165064 0.2281483
vt 1.162398 0.2257498
vt 1.1594 0.2237818
vt 1.156139 0.2222894
vt 1.15269 0.221307
vt 1.149132 0.2208571
vt 1.145733 0.2209452
vt 1.10634 0.2631805
vt 1.08596 0.2270485
vt 1.044674 0.271203
vt 1.028175 0.2299883
vt 0.9826802 0.2760762
vt 0.970316 0.2299828
vt 0.9205185 0.2777874
vt 0.9125318 0.2270322
vt 0.8583502 0.2763321
vt 0.8549728 0.221144
vt 0.7977881 0.2123335
vt 0.7963367 0.2717142
vt 0.741126 0.2006235
vt 0.7346386 0.2639456
vt 0.6851335 0.1860445
vt 0.6734159 0.2530464
vt 0.6299556 0.1686342
vt 0.6128274 0.239045
vt 0.5757355 0.1484377
vt 0.5530302 0.2219775
vt 0.5226138 0.1255074
vt 0.5190194 0.2103677
vt 0.5134741 0.2093107
vt 0.5078666 0.2086603
vt 0.5044275 0.1165328
vt 0.5022267 0.2084199
vt 0.5009 0.1202276
vt 0.4965841 0.208591
vt 0.494118 0.1273312
vt 0.4909691 0.2091725
vt 0.4876362 0.1347097
vt 0.4854113 0.2101614
vt 0.4814657 0.1423506
vt 0.4799403 0.2115524
vt 0.4756172 0.1502405
vt 0.4745851 0.2133382
vt 0.4701006 0.1583661
vt 0.4693741 0.2155092
vt 0.4649255 0.1667132
vt 0.4643351 0.2180539
vt 0.4601007 0.1752677
vt 0.4594948 0.2209588
vt 0.4565127 0.1822948
vt 0.4556346 0.1840147
vt 0.4548789 0.2242086
vt 0.4543836 0.1867379
vt 0.4537396 0.2256934
vt 0.4522547 0.2268328
vt 0.4515348 0.1929393
vt 0.4505256 0.227549
vt 0.44867 0.2277933
vt 0.4478083 0.2020261
vt 0.4468144 0.227549
vt 0.4450852 0.2268328
vt 0.4444616 0.2112596
vt 0.4436004 0.2256934
vt 0.442461 0.2242086
vt 0.4417448 0.2224794
vt 0.4415005 0.2206238
vt -1.107051 0.08748906
vt -1.041213 0.08748906
vt -1.107051 1.644775e-17
vt -1.041213 1.644775e-17
vt 0.2589348 0.007290755
vt 0.2589348 0.08019831
vt 0.2589348 -5.138496e-19
vt 0.2589348 0.08748906
vt 0.2640431 1.59339e-17
vt 0.2640431 0.08748906
vt 0.3375548 0.007290755
vt 0.3440662 0.007290755
vt 0.3375548 1.983377e-17
vt 0.3440662 3.386021e-18
vt 0.3062619 0.007290755
vt 0.3127733 0.007290755
vt 0.3062619 1.545284e-17
vt 0.3127733 1.545284e-17
vt 0.2737433 0.007290755
vt 0.2802548 0.007290755
vt 0.2737433 1.554796e-17
vt 0.2802548 1.554796e-17
vt 0.2401279 1.566283e-17
vt 0.2401279 0.007290755
vt 0.2466393 1.566283e-17
vt 0.2466393 0.007290755
vt 0.2055486 1.57952e-17
vt 0.2055486 0.007290755
vt 0.21206 1.57952e-17
vt 0.21206 0.007290755
vt 0.1701424 1.594255e-17
vt 0.1701424 0.007290755
vt 0.1766539 1.594255e-17
vt 0.1766539 0.007290755
vt 0.1340496 1.610212e-17
vt 0.1340496 0.007290755
vt 0.1405611 1.610212e-17
vt 0.1405611 0.007290755
vt 0.09741312 1.627093e-17
vt 0.09741312 0.007290755
vt 0.1039246 1.627093e-17
vt 0.1039246 0.007290755
vt 0.06037795 1.644588e-17
vt 0.06037795 0.007290755
vt 0.06688938 1.644588e-17
vt 0.06688938 0.007290755
vt 0.02309079 1.662375e-17
vt 0.02309079 0.007290755
vt 0.02960222 1.662375e-17
vt 0.02960222 0.007290755
vt -0.0143007 1.680128e-17
vt -0.0143007 0.007290755
vt -0.007789274 1.680128e-17
vt -0.007789274 0.007290755
vt -0.05164846 1.644775e-17
vt -0.05164846 0.007290755
vt -0.04513703 1.644775e-17
vt -0.04513703 0.007290755
vt 0.04330762 1.634502e-17
vt 0.04330762 0.08748906
vt 0.04523871 1.634502e-17
vt 0.04523871 0.007290755
vt 0.04523871 0.08019831
vt 0.04523871 0.08748906
vt 0.01998978 1.644775e-17
vt 0.01998978 0.08748906
vt 0.02298655 1.644775e-17
vt 0.02298655 0.08748906
vt 0.0131653 1.644775e-17
vt 0.0131653 0.08748906
vt -0.01700807 1.644775e-17
vt -0.01700807 0.08748906
vt -0.007186822 1.644775e-17
vt -0.007186822 0.08748906
vt -0.04716066 1.644775e-17
vt -0.04716066 0.08748906
vt -0.03733941 1.644775e-17
vt -0.03733941 0.08748906
vt -0.07724067 1.644775e-17
vt -0.07724067 0.08748906
vt -0.06741942 1.644775e-17
vt -0.06741942 0.08748906
vt -0.2782353 1.644775e-17
vt -0.2782353 0.08748906
vt -0.2763637 1.644775e-17
vt -0.2763637 0.08748906
vt -0.3764642 1.644775e-17
vt -0.3764642 0.08748906
vt -0.3745926 1.644775e-17
vt -0.3745926 0.08748906
vt -0.4491014 1.644775e-17
vt -0.4491014 0.08748906
vt -0.4472298 1.644775e-17
vt -0.4472298 0.08748906
vt -0.4911969 0.08748906
vt -0.4893253 0.08748906
vt -0.4911969 1.644775e-17
vt -0.4893253 1.644775e-17
vt -0.4998819 0.08748906
vt -0.4980103 0.08748906
vt -0.4998819 1.644775e-17
vt -0.4980103 1.644775e-17
vt -0.4745645 0.08748906
vt -0.4726929 0.08748906
vt -0.4745645 1.644775e-17
vt -0.4726929 1.644775e-17
vt -0.4169702 0.08748906
vt -0.4150985 0.08748906
vt -0.4169702 1.644775e-17
vt -0.4150985 1.644775e-17
vt -0.3310237 0.08748906
vt -0.3291521 0.08748906
vt -0.3310237 1.644775e-17
vt -0.3291521 1.644775e-17
vt -0.2225824 0.08748906
vt -0.2207107 0.08748906
vt -0.2225824 1.644775e-17
vt -0.2207107 1.644775e-17
vt -0.09716453 0.08748906
vt -0.09716453 1.644775e-17
vt -0.09903615 0.08748906
vt -0.09903615 1.644775e-17
vt -0.2485211 0.08748906
vt -0.242876 0.08748906
vt -0.2485211 1.644775e-17
vt -0.242876 1.644775e-17
vt -0.2859274 0.08748906
vt -0.2802823 0.08748906
vt -0.2859274 1.644775e-17
vt -0.2802823 1.644775e-17
vt -0.3218303 0.08748906
vt -0.3161852 0.08748906
vt -0.3218303 1.644775e-17
vt -0.3161852 1.644775e-17
vt -0.3560391 0.08748906
vt -0.350394 0.08748906
vt -0.3560391 1.644775e-17
vt -0.350394 1.644775e-17
vt -0.3883721 0.08748906
vt -0.382727 0.08748906
vt -0.3883721 1.644775e-17
vt -0.382727 1.644775e-17
vt -0.4186576 0.08748906
vt -0.4130125 0.08748906
vt -0.4186576 1.644775e-17
vt -0.4130125 1.644775e-17
vt -0.4467349 0.08748906
vt -0.4410898 0.08748906
vt -0.4467349 1.644775e-17
vt -0.4410898 1.644775e-17
vt -0.4724547 0.08748906
vt -0.4668096 0.08748906
vt -0.4724547 1.644775e-17
vt -0.4668096 1.644775e-17
vt -0.4956805 0.08748906
vt -0.4900354 0.08748906
vt -0.4956805 1.644775e-17
vt -0.4900354 1.644775e-17
vt -0.5162889 0.08748906
vt -0.5106438 0.08748906
vt -0.5162889 1.644775e-17
vt -0.5106438 1.644775e-17
vt -0.5341706 0.08748906
vt -0.5285255 0.08748906
vt -0.5341706 1.644775e-17
vt -0.5285255 1.644775e-17
vt -0.5492305 0.08748906
vt -0.5435854 0.08748906
vt -0.5492305 1.644775e-17
vt -0.5435854 1.644775e-17
vt -0.5950877 0.08748906
vt -0.5591499 0.08748906
vt -0.5950877 1.644775e-17
vt -0.5591499 1.644775e-17
vt -0.6549023 0.08748906
vt -0.5927171 0.08748906
vt -0.6549023 1.644775e-17
vt -0.5927171 1.644775e-17
vt -0.7130995 0.08748906
vt -0.6509142 0.08748906
vt -0.7130995 1.644775e-17
vt -0.6509142 1.644775e-17
vt -0.7695283 0.08748906
vt -0.7073431 0.08748906
vt -0.7695283 1.644775e-17
vt -0.7073431 1.644775e-17
vt -0.8240426 0.08748906
vt -0.7618573 0.08748906
vt -0.8240426 1.644775e-17
vt -0.7618573 1.644775e-17
vt -0.8765008 0.08748906
vt -0.8143156 0.08748906
vt -0.8765008 1.644775e-17
vt -0.8143156 1.644775e-17
vt -0.9267671 0.08748906
vt -0.8645819 0.08748906
vt -0.9267671 1.644775e-17
vt -0.8645819 1.644775e-17
vt 0.1664922 0.08748906
vt 0.1664922 1.644775e-17
vt 0.1594992 0.08748906
vt 0.1594992 1.644775e-17
vt 0.3369171 0.08748906
vt 0.3369171 1.644775e-17
vt 0.3333309 0.08748906
vt 0.3333309 1.644775e-17
vt 0.5030515 0.08748906
vt 0.5030515 1.644775e-17
vt 0.4994652 0.08748906
vt 0.4994652 1.644775e-17
vt 0.6576727 0.08748906
vt 0.6576727 1.644775e-17
vt 0.6540864 0.08748906
vt 0.6540864 1.644775e-17
vt 0.7972293 0.08748906
vt 0.7972293 1.644775e-17
vt 0.7936431 0.08748906
vt 0.7936431 1.644775e-17
vt 0.918516 0.08748906
vt 0.918516 1.644775e-17
vt 0.9149297 0.08748906
vt 0.9149297 1.644775e-17
vt 1.015161 0.08748906
vt 1.018747 0.08748906
vt 1.015161 1.644775e-17
vt 1.018747 1.644775e-17
vt 1.092034 0.08748906
vt 1.09562 0.08748906
vt 1.092034 1.644775e-17
vt 1.09562 1.644775e-17
vt 1.143783 0.08748906
vt 1.147369 0.08748906
vt 1.143783 1.644775e-17
vt 1.147369 1.644775e-17
vt 1.16922 0.08748906
vt 1.172807 0.08748906
vt 1.16922 1.644775e-17
vt 1.172807 1.644775e-17
vt 1.167761 0.08748906
vt 1.171348 0.08748906
vt 1.167761 1.644775e-17
vt 1.171348 1.644775e-17
vt 1.139625 0.08748906
vt 1.143025 0.08748906
vt 1.139625 1.644775e-17
vt 1.143025 1.644775e-17
vt 1.057279 0.08748906
vt 1.117362 0.08748906
vt 1.057279 1.644775e-17
vt 1.117362 1.644775e-17
vt 1.015162 0.08748906
vt 1.073021 0.08748906
vt 1.015162 1.644775e-17
vt 1.073021 1.644775e-17
vt 0.9703376 0.08748906
vt 1.028197 0.08748906
vt 0.9703376 1.644775e-17
vt 1.028197 1.644775e-17
vt 0.9229224 0.08748906
vt 0.9807818 0.08748906
vt 0.9229224 1.644775e-17
vt 0.9807818 1.644775e-17
vt 0.8730392 0.08748906
vt 0.9308987 0.08748906
vt 0.8730392 1.644775e-17
vt 0.9308987 1.644775e-17
vt 0.8208174 0.08748906
vt 0.8786769 0.08748906
vt 0.8208174 1.644775e-17
vt 0.8786769 1.644775e-17
vt 0.7663924 0.08748906
vt 0.8242519 0.08748906
vt 0.7663924 1.644775e-17
vt 0.8242519 1.644775e-17
vt 0.7099053 0.08748906
vt 0.7677648 0.08748906
vt 0.7099053 1.644775e-17
vt 0.7677648 1.644775e-17
vt 0.6515025 0.08748906
vt 0.709362 0.08748906
vt 0.6515025 1.644775e-17
vt 0.709362 1.644775e-17
vt 0.5913355 0.08748906
vt 0.649195 0.08748906
vt 0.5913355 1.644775e-17
vt 0.649195 1.644775e-17
vt 0.5295603 0.08748906
vt 0.5874198 0.08748906
vt 0.5295603 1.644775e-17
vt 0.5874198 1.644775e-17
vt 0.5039164 0.08748906
vt 0.5241965 0.08748906
vt 0.5039164 1.644775e-17
vt 0.5241965 1.644775e-17
vt 0.2491135 0.08019831
vt 0.2491135 0.08748906
vt 0.05312887 0.08019831
vt 0.05312887 0.08748906
vt 0.07336711 0.08019831
vt 0.07336711 0.08748906
vt 0.08318836 0.08019831
vt 0.08318836 0.08748906
vt 0.1032921 0.08019831
vt 0.1032921 0.08748906
vt 0.1131134 0.08019831
vt 0.1131134 0.08748906
vt 0.1330312 0.08019831
vt 0.1330312 0.08748906
vt 0.1428525 0.08019831
vt 0.1428525 0.08748906
vt 0.1625333 0.08019831
vt 0.1625333 0.08748906
vt 0.1723546 0.08019831
vt 0.1723546 0.08748906
vt 0.1917478 0.08019831
vt 0.1917478 0.08748906
vt 0.2015691 0.08019831
vt 0.2015691 0.08748906
vt 0.2206244 0.08019831
vt 0.2206244 0.08748906
vt 0.2304457 0.08019831
vt 0.2304457 0.08748906
vn -0.7117470054805698 0.7014210054010579 -0.03774617029065176
vn -0.7089029037175604 -0.7014210036783245 -0.07392732038768254
vn -0.7117470054805698 -0.7014210054010579 -0.03774617029065176
vn -0.7089029037175604 0.7014210036783245 -0.07392732038768254
vn -0.7042207798184835 -0.70142097989872 -0.10991679685001109
vn -0.7042207798184835 0.70142097989872 -0.10991679685001109
vn -0.19003900159039366 -0.678874405681347 0.7092353059354307
vn 0.2286043006198217 -0.7024718019046329 0.6739981018274313
vn 0.06568415670628527 -0.661399566834293 0.7471520625342567
vn -0.36712719602691285 -0.6788743926531535 0.6358829931184107
vn -0.5191962878397118 -0.6788743840998319 0.5191962878397118
vn -0.6358829931184107 -0.6788743926531535 0.36712719602691285
vn 0.25633820923943923 -0.7024718253198527 0.6639458239312239
vn -0.7092353059354307 -0.678874405681347 0.19003900159039366
vn -0.7342544092168315 -0.6788744085216661 0
vn 0.2836318033716887 -0.7024718083506724 0.6527529077596361
vn -0.7092353059354307 -0.678874405681347 -0.19003900159039366
vn -0.6358829931184107 -0.6788743926531535 -0.36712719602691285
vn 0.2951765070431285 -0.7071068168720885 0.6425502153317205
vn -0.5191962878397118 -0.6788743840998319 -0.5191962878397118
vn -0.4831264996425565 -0.7426914994505159 -0.4636788996569449
vn 0.3104380931553353 -0.7024717845116178 0.6404385858793509
vn -0.5856025995656995 -0.7154006994694374 -0.3811448997173315
vn 0.24929919825276664 -0.7299765948839007 0.6363835955398548
vn 0.21519159192846482 -0.7000929737404932 0.6808541744621135
vn 0.25758939823853033 -0.7000929952125645 0.6659710954458999
vn -0.6118045899574297 -0.7154006882569339 -0.33748629446027395
vn 0.2989671947164305 -0.7000929876274387 0.6484507885400979
vn 0.3391610970355675 -0.7000929938808477 0.6283625945078062
vn -0.6347575850287951 -0.7154006831267707 -0.29203539311213944
vn 0.3780118992167934 -0.7000929985494703 0.6057860987448658
vn 0.4153657946639764 -0.7000929910062099 0.5808106925385778
vn -0.6543396039835083 -0.7154007043552378 -0.2450337014917235
vn 0.45107487690381665 -0.7000929641534559 0.5535352716575833
vn -0.6704467860837977 -0.7154006851507072 -0.19673069591653775
vn 0.48499758921725 -0.7000929844351234 0.5240678883486163
vn -0.6829934893139729 -0.715400688806934 -0.1473829976940648
vn 0.5169998062094133 -0.7000930084084497 0.49252510591546056
vn -0.691913115878195 -0.7154007164171944 -0.09725253223177542
vn 0.5469546919255568 -0.7000929896648457 0.45903199322351956
vn 0.5747436043177125 -0.7000930052593891 0.4237211031831688
vn -0.6971583200435845 -0.7154007205680609 -0.046605641339931086
vn 0.5193067955881304 -0.7308482937909394 0.4429234962370593
vn -0.6987012784704418 -0.7154006779558719 0.004288757867847584
vn 0.7914173360081482 -0.5950319270729447 0.13998430636904885
vn -0.6965336915308732 -0.7154006913014701 0.055160379329307035
vn 0.6365756045913875 -0.7128824051417605 -0.2942281021221599
vn -0.6906671131738849 -0.7154007136456572 0.105739102016883
vn -0.6675999055483928 -0.7232632060110079 0.17663720146802384
vn -0.6801737812594442 -0.7014209806740285 0.21300759413108702
vn 0.6507274300670177 -0.7128824329389046 -0.26144301208003734
vn -0.6901347134033342 -0.7014210136225292 0.1781085034591041
vn 0.6631920987637501 -0.712882398671123 -0.22798009957502455
vn -0.6983062952110225 -0.7014209951896618 0.14274769902103773
vn 0.6739372006622074 -0.7128824007004747 -0.19392610019055082
vn -0.7046673010537665 -0.7014210010489119 0.10701670016003385
vn 0.6829349219302666 -0.7128824228919346 -0.15936920511763134
vn -0.7092012740040196 -0.7014209742892086 0.07100823739717226
vn 0.6901619343279032 -0.7128824354579961 -0.1243991061874761
vn -0.7118963874891963 -0.7014209876732899 0.03481567938815235
vn 0.6955995171276116 -0.712882417553165 -0.08910651219405231
vn 0.699233525648659 -0.7128824261493159 -0.05358286196547864
vn -0.7127456983500615 -0.701420998376277 -0.0014671469966036942
vn 0.7010545983012751 -0.7128823982726152 -0.017920279956577384
vn 0.7010579226566124 -0.7128824230387535 0.01778876057489266
vn 0.6992435963410183 -0.7128823962696496 0.05345167972029959
vn 0.713985494155654 -0.6986715942810062 0.04563679962643884
vn -0.5383049171862836 -0.5917896188938722 -0.6000107191563444
vn 0.7224855458907391 -0.690442243855417 -0.03611293229381635
vn 0.7087310355727955 -0.6904422346548397 -0.14487870727178628
vn 0.6786980315231217 -0.6904422320685983 -0.25031681162633007
vn 0.6330763968953775 -0.6904421966140541 -0.35000549828356425
vn 0.5729139012288832 -0.6904422014809779 -0.441655100947337
vn 0.4995924233712213 -0.6904422322992854 -0.5231605244737507
vn 0.4147961201121909 -0.6904422334774251 -0.5926497287357665
vn 0.32047251034966306 -0.6904422222978389 -0.6485267209441773
vn 0.2187881058737551 -0.6904422185361471 -0.6895080185110668
vn 0.11207850383317566 -0.6904422236136837 -0.7146523244416888
vn 0.0027946761336481297 -0.6904422330186072 -0.7233821345938726
vn -0.7127456983500615 0.701420998376277 -0.0014671469966036942
vn 0.2286043006198217 0.7024718019046329 0.6739981018274313
vn -0.19003900159039366 0.678874405681347 0.7092353059354307
vn 0.06568415670628527 0.661399566834293 0.7471520625342567
vn -0.36712719602691285 0.6788743926531535 0.6358829931184107
vn -0.5191962878397118 0.6788743840998319 0.5191962878397118
vn -0.6358829931184107 0.6788743926531535 0.36712719602691285
vn 0.25633820923943923 0.7024718253198527 0.6639458239312239
vn -0.7092353059354307 0.678874405681347 0.19003900159039366
vn -0.7342544092168315 0.6788744085216661 0
vn 0.2836318033716887 0.7024718083506724 0.6527529077596361
vn -0.7092353059354307 0.678874405681347 -0.19003900159039366
vn -0.6358829931184107 0.6788743926531535 -0.36712719602691285
vn 0.2951765070431285 0.7071068168720885 0.6425502153317205
vn -0.5191962878397118 0.6788743840998319 -0.5191962878397118
vn -0.4831264996425565 0.7426914994505159 -0.4636788996569449
vn 0.3104380931553353 0.7024717845116178 0.6404385858793509
vn -0.5856025995656995 0.7154006994694374 -0.3811448997173315
vn 0.3215501064183508 0.7071068141143153 0.6297662125705462
vn 0.3367111057527666 0.7024718120018505 0.6270239107128103
vn -0.6118045899574297 0.7154006882569339 -0.33748629446027395
vn 0.3624055959705916 0.7024717921895639 0.6125320931895589
vn -0.6347575850287951 0.7154006831267707 -0.29203539311213944
vn 0.38747750086254423 0.7024718015637373 0.596987901328925
vn -0.6543396039835083 0.7154007043552378 -0.2450337014917235
vn 0.4118837035157281 0.7024718059961097 0.5804181049542924
vn -0.6704467860837977 0.7154006851507072 -0.19673069591653775
vn 0.43558231510605155 0.7024718243618145 0.5628511195197503
vn -0.6829934893139729 0.715400688806934 -0.1473829976940648
vn 0.458532602459147 0.7024718037674124 0.5443172029192166
vn -0.691913115878195 0.7154007164171944 -0.09725253223177542
vn 0.4806950899048047 0.702471785247218 0.5248481889775347
vn -0.6971583200435845 0.7154007205680609 -0.046605641339931086
vn 0.4882891988217167 0.7071067982936913 0.5114426987658454
vn -0.6987012784704418 0.7154006779558719 0.004288757867847584
vn 0.7914173360081482 0.5950319270729447 0.13998430636904885
vn -0.6965336915308732 0.7154006913014701 0.055160379329307035
vn 0.6365756045913875 0.7128824051417605 -0.2942281021221599
vn -0.6906671131738849 0.7154007136456572 0.105739102016883
vn -0.6675999055483928 0.7232632060110079 0.17663720146802384
vn -0.6801737812594442 0.7014209806740285 0.21300759413108702
vn 0.6507274300670177 0.7128824329389046 -0.26144301208003734
vn -0.6901347134033342 0.7014210136225292 0.1781085034591041
vn 0.6631920987637501 0.712882398671123 -0.22798009957502455
vn -0.6983062952110225 0.7014209951896618 0.14274769902103773
vn 0.6739372006622074 0.7128824007004747 -0.19392610019055082
vn -0.7046673010537665 0.7014210010489119 0.10701670016003385
vn 0.6829349219302666 0.7128824228919346 -0.15936920511763134
vn -0.7092012740040196 0.7014209742892086 0.07100823739717226
vn 0.6901619343279032 0.7128824354579961 -0.1243991061874761
vn -0.7118963874891963 0.7014209876732899 0.03481567938815235
vn 0.6955995171276116 0.712882417553165 -0.08910651219405231
vn 0.699233525648659 0.7128824261493159 -0.05358286196547864
vn 0.7010545983012751 0.7128823982726152 -0.017920279956577384
vn 0.7010579226566124 0.7128824230387535 0.01778876057489266
vn 0.6992435963410183 0.7128823962696496 0.05345167972029959
vn 0.713985494155654 0.6986715942810062 0.04563679962643884
vn -0.5383049171862836 0.5917896188938722 -0.6000107191563444
vn 0.7224855458907391 0.690442243855417 -0.03611293229381635
vn 0.7087310355727955 0.6904422346548397 -0.14487870727178628
vn 0.6786980315231217 0.6904422320685983 -0.25031681162633007
vn 0.6330763968953775 0.6904421966140541 -0.35000549828356425
vn 0.5729139012288832 0.6904422014809779 -0.441655100947337
vn 0.4995924233712213 0.6904422322992854 -0.5231605244737507
vn 0.4147961201121909 0.6904422334774251 -0.5926497287357665
vn 0.32047251034966306 0.6904422222978389 -0.6485267209441773
vn 0.2187881058737551 0.6904422185361471 -0.6895080185110668
vn 0.11207850383317566 0.6904422236136837 -0.7146523244416888
vn 0.0027946761336481297 0.6904422330186072 -0.7233821345938726
vn 0.6905452206888456 0 0.7232892216698612
vn 0.7381901696347952 0 0.674592672250857
vn 0.8049047821797947 0 0.5934039868623208
vn 0.7659875323762217 0 0.6428554271717606
vn 0.7240369672755427 0 0.6897611688247134
vn 0.6792191864805193 0 0.7339354853914216
vn 0.6317117653724679 0 0.775203357506919
vn 0.5817026908703101 0 0.8134014872338508
vn 0.5293901113182918 0 0.8483785181382226
vn 0.47498117616320323 0 0.8799959558376504
vn 0.4186913086179966 0 0.9081286186921704
vn 0.3607434019116568 0 0.9326651049423929
vn 0.3013669156887326 0 0.9535082496382821
vn 0.3952757951634272 0 0.91856248876052
vn 0.4547406126100551 0 0.8906239246971933
vn 0.6754071953272494 0 0.7374449948980458
vn 0.4731004857661808 0 0.8810084734937593
vn 0.5092029022072265 0 0.8606465037306186
vn 0.5444305252601995 0 0.8388059389184743
vn 0.5787228106686596 0 0.8155243150340564
vn 0.6120208318485857 0 0.7908416411541348
vn 0.6442674059327849 0 0.7648003070427211
vn 0.7089029037175604 -0.7014210036783245 0.07392732038768254
vn 0.7117470054805698 -0.7014210054010579 0.03774617029065176
vn 0.7089029037175604 0.7014210036783245 0.07392732038768254
vn 0.7117470054805698 0.7014210054010579 0.03774617029065176
vn 0.7042207798184835 -0.70142097989872 0.10991679685001109
vn 0.7042207798184835 0.70142097989872 0.10991679685001109
vn -0.0027946761336481297 0.6904422330186072 0.7233821345938726
vn 0.5383049171862836 0.5917896188938722 0.6000107191563444
vn -0.11207850383317566 0.6904422236136837 0.7146523244416888
vn -0.2187881058737551 0.6904422185361471 0.6895080185110668
vn -0.32047251034966306 0.6904422222978389 0.6485267209441773
vn -0.4147961201121909 0.6904422334774251 0.5926497287357665
vn -0.4995924233712213 0.6904422322992854 0.5231605244737507
vn -0.5729139012288832 0.6904422014809779 0.441655100947337
vn -0.6330763968953775 0.6904421966140541 0.35000549828356425
vn -0.6786980315231217 0.6904422320685983 0.25031681162633007
vn -0.7087310355727955 0.6904422346548397 0.14487870727178628
vn -0.7224855458907391 0.690442243855417 0.03611293229381635
vn -0.713985494155654 0.6986715942810062 -0.04563679962643884
vn -0.6992435963410183 0.7128823962696496 -0.05345167972029959
vn -0.7010579226566124 0.7128824230387535 -0.01778876057489266
vn -0.7010545983012751 0.7128823982726152 0.017920279956577384
vn 0.7127456983500615 0.701420998376277 0.0014671469966036942
vn -0.699233525648659 0.7128824261493159 0.05358286196547864
vn 0.7118963874891963 0.7014209876732899 -0.03481567938815235
vn -0.6955995171276116 0.712882417553165 0.08910651219405231
vn -0.6901619343279032 0.7128824354579961 0.1243991061874761
vn 0.7092012740040196 0.7014209742892086 -0.07100823739717226
vn -0.6829349219302666 0.7128824228919346 0.15936920511763134
vn 0.7046673010537665 0.7014210010489119 -0.10701670016003385
vn -0.6739372006622074 0.7128824007004747 0.19392610019055082
vn 0.6983062952110225 0.7014209951896618 -0.14274769902103773
vn -0.6631920987637501 0.712882398671123 0.22798009957502455
vn 0.6901347134033342 0.7014210136225292 -0.1781085034591041
vn -0.6507274300670177 0.7128824329389046 0.26144301208003734
vn 0.6801737812594442 0.7014209806740285 -0.21300759413108702
vn -0.6365756045913875 0.7128824051417605 0.2942281021221599
vn 0.6675999055483928 0.7232632060110079 -0.17663720146802384
vn 0.6906671131738849 0.7154007136456572 -0.105739102016883
vn 0.6965336915308732 0.7154006913014701 -0.055160379329307035
vn -0.7914173360081482 0.5950319270729447 -0.13998430636904885
vn 0.6987012784704418 0.7154006779558719 -0.004288757867847584
vn -0.5193067955881304 0.7308482937909394 -0.4429234962370593
vn 0.6971583200435845 0.7154007205680609 0.046605641339931086
vn -0.5747436043177125 0.7000930052593891 -0.4237211031831688
vn 0.691913115878195 0.7154007164171944 0.09725253223177542
vn -0.5469546919255568 0.7000929896648457 -0.45903199322351956
vn -0.5169998062094133 0.7000930084084497 -0.49252510591546056
vn 0.6829934893139729 0.715400688806934 0.1473829976940648
vn -0.48499758921725 0.7000929844351234 -0.5240678883486163
vn 0.6704467860837977 0.7154006851507072 0.19673069591653775
vn -0.45107487690381665 0.7000929641534559 -0.5535352716575833
vn 0.6543396039835083 0.7154007043552378 0.2450337014917235
vn -0.4153657946639764 0.7000929910062099 -0.5808106925385778
vn 0.6347575850287951 0.7154006831267707 0.29203539311213944
vn -0.3780118992167934 0.7000929985494703 -0.6057860987448658
vn -0.3391610970355675 0.7000929938808477 -0.6283625945078062
vn 0.6118045899574297 0.7154006882569339 0.33748629446027395
vn -0.2989671947164305 0.7000929876274387 -0.6484507885400979
vn -0.25758939823853033 0.7000929952125645 -0.6659710954458999
vn 0.5856025995656995 0.7154006994694374 0.3811448997173315
vn -0.21519159192846482 0.7000929737404932 -0.6808541744621135
vn -0.24929919825276664 0.7299765948839007 -0.6363835955398548
vn -0.3104380931553353 0.7024717845116178 -0.6404385858793509
vn 0.4831264996425565 0.7426914994505159 0.4636788996569449
vn -0.2951765070431285 0.7071068168720885 -0.6425502153317205
vn 0.5191962878397118 0.6788743840998319 0.5191962878397118
vn 0.6358829931184107 0.6788743926531535 0.36712719602691285
vn -0.2836318033716887 0.7024718083506724 -0.6527529077596361
vn 0.7092353059354307 0.678874405681347 0.19003900159039366
vn 0.7342544092168315 0.6788744085216661 0
vn -0.25633820923943923 0.7024718253198527 -0.6639458239312239
vn 0.7092353059354307 0.678874405681347 -0.19003900159039366
vn 0.6358829931184107 0.6788743926531535 -0.36712719602691285
vn -0.2286043006198217 0.7024718019046329 -0.6739981018274313
vn 0.5191962878397118 0.6788743840998319 -0.5191962878397118
vn 0.36712719602691285 0.6788743926531535 -0.6358829931184107
vn 0.19003900159039366 0.678874405681347 -0.7092353059354307
vn -0.06568415670628527 0.661399566834293 -0.7471520625342567
vn 0.7127456983500615 -0.701420998376277 0.0014671469966036942
vn -0.0027946761336481297 -0.6904422330186072 0.7233821345938726
vn -0.11207850383317566 -0.6904422236136837 0.7146523244416888
vn 0.5383049171862836 -0.5917896188938722 0.6000107191563444
vn -0.2187881058737551 -0.6904422185361471 0.6895080185110668
vn -0.32047251034966306 -0.6904422222978389 0.6485267209441773
vn -0.4147961201121909 -0.6904422334774251 0.5926497287357665
vn -0.4995924233712213 -0.6904422322992854 0.5231605244737507
vn -0.5729139012288832 -0.6904422014809779 0.441655100947337
vn -0.6330763968953775 -0.6904421966140541 0.35000549828356425
vn -0.6786980315231217 -0.6904422320685983 0.25031681162633007
vn -0.7087310355727955 -0.6904422346548397 0.14487870727178628
vn -0.7224855458907391 -0.690442243855417 0.03611293229381635
vn -0.713985494155654 -0.6986715942810062 -0.04563679962643884
vn -0.6992435963410183 -0.7128823962696496 -0.05345167972029959
vn -0.7010579226566124 -0.7128824230387535 -0.01778876057489266
vn -0.7010545983012751 -0.7128823982726152 0.017920279956577384
vn -0.699233525648659 -0.7128824261493159 0.05358286196547864
vn 0.7118963874891963 -0.7014209876732899 -0.03481567938815235
vn -0.6955995171276116 -0.712882417553165 0.08910651219405231
vn -0.6901619343279032 -0.7128824354579961 0.1243991061874761
vn 0.7092012740040196 -0.7014209742892086 -0.07100823739717226
vn -0.6829349219302666 -0.7128824228919346 0.15936920511763134
vn 0.7046673010537665 -0.7014210010489119 -0.10701670016003385
vn -0.6739372006622074 -0.7128824007004747 0.19392610019055082
vn 0.6983062952110225 -0.7014209951896618 -0.14274769902103773
vn -0.6631920987637501 -0.712882398671123 0.22798009957502455
vn 0.6901347134033342 -0.7014210136225292 -0.1781085034591041
vn -0.6507274300670177 -0.7128824329389046 0.26144301208003734
vn 0.6801737812594442 -0.7014209806740285 -0.21300759413108702
vn -0.6365756045913875 -0.7128824051417605 0.2942281021221599
vn 0.6675999055483928 -0.7232632060110079 -0.17663720146802384
vn 0.6906671131738849 -0.7154007136456572 -0.105739102016883
vn 0.6965336915308732 -0.7154006913014701 -0.055160379329307035
vn -0.7914173360081482 -0.5950319270729447 -0.13998430636904885
vn 0.6987012784704418 -0.7154006779558719 -0.004288757867847584
vn -0.4882891988217167 -0.7071067982936913 -0.5114426987658454
vn 0.6971583200435845 -0.7154007205680609 0.046605641339931086
vn -0.4806950899048047 -0.702471785247218 -0.5248481889775347
vn 0.691913115878195 -0.7154007164171944 0.09725253223177542
vn -0.458532602459147 -0.7024718037674124 -0.5443172029192166
vn 0.6829934893139729 -0.715400688806934 0.1473829976940648
vn -0.43558231510605155 -0.7024718243618145 -0.5628511195197503
vn 0.6704467860837977 -0.7154006851507072 0.19673069591653775
vn -0.4118837035157281 -0.7024718059961097 -0.5804181049542924
vn 0.6543396039835083 -0.7154007043552378 0.2450337014917235
vn -0.38747750086254423 -0.7024718015637373 -0.596987901328925
vn 0.6347575850287951 -0.7154006831267707 0.29203539311213944
vn -0.3624055959705916 -0.7024717921895639 -0.6125320931895589
vn 0.6118045899574297 -0.7154006882569339 0.33748629446027395
vn -0.3367111057527666 -0.7024718120018505 -0.6270239107128103
vn 0.5856025995656995 -0.7154006994694374 0.3811448997173315
vn -0.3215501064183508 -0.7071068141143153 -0.6297662125705462
vn -0.3104380931553353 -0.7024717845116178 -0.6404385858793509
vn 0.4831264996425565 -0.7426914994505159 0.4636788996569449
vn -0.2951765070431285 -0.7071068168720885 -0.6425502153317205
vn 0.5191962878397118 -0.6788743840998319 0.5191962878397118
vn 0.6358829931184107 -0.6788743926531535 0.36712719602691285
vn -0.2836318033716887 -0.7024718083506724 -0.6527529077596361
vn 0.7092353059354307 -0.678874405681347 0.19003900159039366
vn 0.7342544092168315 -0.6788744085216661 0
vn -0.25633820923943923 -0.7024718253198527 -0.6639458239312239
vn 0.7092353059354307 -0.678874405681347 -0.19003900159039366
vn 0.6358829931184107 -0.6788743926531535 -0.36712719602691285
vn -0.2286043006198217 -0.7024718019046329 -0.6739981018274313
vn 0.5191962878397118 -0.6788743840998319 -0.5191962878397118
vn 0.36712719602691285 -0.6788743926531535 -0.6358829931184107
vn 0.19003900159039366 -0.678874405681347 -0.7092353059354307
vn -0.06568415670628527 -0.661399566834293 -0.7471520625342567
vn -0.7381901696347952 0 -0.674592672250857
vn -0.6905452206888456 0 -0.7232892216698612
vn -0.8049047821797947 0 -0.5934039868623208
vn -0.7659875323762217 0 -0.6428554271717606
vn -0.7240369672755427 0 -0.6897611688247134
vn -0.6792191864805193 0 -0.7339354853914216
vn -0.6317117653724679 0 -0.775203357506919
vn -0.5817026908703101 0 -0.8134014872338508
vn -0.5293901113182918 0 -0.8483785181382226
vn -0.47498117616320323 0 -0.8799959558376504
vn -0.4186913086179966 0 -0.9081286186921704
vn -0.3607434019116568 0 -0.9326651049423929
vn -0.3013669156887326 0 -0.9535082496382821
vn -0.3952757951634272 0 -0.91856248876052
vn -0.4547406126100551 0 -0.8906239246971933
vn -0.6754071953272494 0 -0.7374449948980458
vn -0.4731004857661808 0 -0.8810084734937593
vn -0.5092029022072265 0 -0.8606465037306186
vn -0.5444305252601995 0 -0.8388059389184743
vn -0.5787228106686596 0 -0.8155243150340564
vn -0.6120208318485857 0 -0.7908416411541348
vn -0.6442674059327849 0 -0.7648003070427211
usemtl material_0_0
f 5/1/171 6/2/172 7/3/173
f 8/4/174 7/3/173 6/2/172
f 11/5/175 5/6/171 12/7/176
f 7/8/173 12/7/176 5/6/171
f 86/9/177 87/10/178 88/11/179
f 88/11/179 87/10/178 89/12/180
f 89/12/180 87/10/178 90/13/181
f 90/13/181 87/10/178 91/14/182
f 91/14/182 87/10/178 92/15/183
f 92/15/183 87/10/178 93/16/184
f 93/16/184 87/10/178 94/17/185
f 94/17/185 87/10/178 95/18/186
f 95/18/186 87/10/178 96/19/187
f 96/19/187 87/10/178 97/20/188
f 97/20/188 87/10/178 98/21/189
f 87/10/178 12/22/176 98/21/189
f 98/21/189 12/22/176 99/23/190
f 12/22/176 7/24/173 99/23/190
f 99/23/190 7/24/173 100/25/191
f 7/24/173 8/26/174 100/25/191
f 100/25/191 8/26/174 101/27/192
f 8/26/174 102/28/193 101/27/192
f 101/27/192 102/28/193 103/29/194
f 102/28/193 104/30/195 103/29/194
f 103/29/194 104/30/195 105/31/196
f 105/31/196 104/30/195 106/32/197
f 104/30/195 107/33/198 106/32/197
f 106/32/197 107/33/198 108/34/199
f 107/33/198 109/35/200 108/34/199
f 108/34/199 109/35/200 110/36/201
f 109/35/200 111/37/202 110/36/201
f 110/36/201 111/37/202 112/38/203
f 111/37/202 113/39/204 112/38/203
f 112/38/203 113/39/204 114/40/205
f 113/39/204 115/41/206 114/40/205
f 114/40/205 115/41/206 116/42/207
f 115/41/206 117/43/208 116/42/207
f 117/43/208 118/44/209 116/42/207
f 118/44/209 119/45/210 116/42/207
f 116/42/207 119/45/210 120/46/211
f 119/45/210 121/47/212 120/46/211
f 120/46/211 121/47/212 122/48/213
f 121/47/212 123/49/214 122/48/213
f 122/48/213 123/49/214 124/50/215
f 123/49/214 125/51/216 124/50/215
f 124/50/215 125/51/216 126/52/217
f 126/52/217 125/51/216 127/53/218
f 125/51/216 128/54/219 127/53/218
f 127/53/218 128/54/219 129/55/220
f 128/54/219 130/56/221 129/55/220
f 129/55/220 130/56/221 131/57/222
f 130/56/221 132/58/223 131/57/222
f 131/57/222 132/58/223 133/59/224
f 132/58/223 134/60/225 133/59/224
f 133/59/224 134/60/225 135/61/226
f 135/61/226 134/60/225 136/62/227
f 134/60/225 137/63/228 136/62/227
f 136/62/227 137/63/228 138/64/229
f 138/64/229 137/63/228 139/65/230
f 137/63/228 140/66/231 139/65/230
f 139/65/230 140/66/231 141/67/232
f 141/67/232 140/66/231 142/68/233
f 142/68/233 140/66/231 143/69/234
f 140/66/231 144/70/235 143/69/234
f 143/69/234 144/70/235 145/71/236
f 144/70/235 146/72/237 145/71/236
f 146/72/237 147/73/238 145/71/236
f 145/71/236 147/73/238 148/74/239
f 147/73/238 149/75/240 148/74/239
f 149/75/240 150/76/241 148/74/239
f 148/74/239 150/76/241 151/77/242
f 150/76/241 152/78/243 151/77/242
f 152/78/243 153/79/244 151/77/242
f 151/77/242 153/79/244 154/80/245
f 153/79/244 155/81/246 154/80/245
f 155/81/246 156/82/247 154/80/245
f 156/82/247 157/83/248 154/80/245
f 158/84/249 154/80/245 157/83/248
f 6/85/172 160/86/250 8/87/174
f 102/88/193 8/87/174 160/86/250
f 229/89/251 230/90/252 231/91/253
f 230/90/252 232/92/254 231/91/253
f 232/92/254 233/93/255 231/91/253
f 233/93/255 234/94/256 231/91/253
f 234/94/256 235/95/257 231/91/253
f 235/95/257 236/96/258 231/91/253
f 236/96/258 237/97/259 231/91/253
f 237/97/259 238/98/260 231/91/253
f 238/98/260 239/99/261 231/91/253
f 239/99/261 240/100/262 231/91/253
f 240/100/262 241/101/263 231/91/253
f 231/91/253 241/101/263 11/102/175
f 241/101/263 242/103/264 11/102/175
f 11/102/175 242/103/264 5/104/171
f 242/103/264 243/105/265 5/104/171
f 5/104/171 243/105/265 6/106/172
f 243/105/265 244/107/266 6/106/172
f 6/106/172 244/107/266 160/108/250
f 244/107/266 245/109/267 160/108/250
f 160/108/250 245/109/267 246/110/268
f 245/109/267 247/111/269 246/110/268
f 247/111/269 248/112/270 246/110/268
f 246/110/268 248/112/270 249/113/271
f 248/112/270 250/114/272 249/113/271
f 249/113/271 250/114/272 251/115/273
f 250/114/272 252/116/274 251/115/273
f 251/115/273 252/116/274 253/117/275
f 252/116/274 254/118/276 253/117/275
f 253/117/275 254/118/276 255/119/277
f 254/118/276 256/120/278 255/119/277
f 255/119/277 256/120/278 257/121/279
f 256/120/278 258/122/280 257/121/279
f 257/121/279 258/122/280 259/123/281
f 259/123/281 258/122/280 260/124/282
f 260/124/282 258/122/280 261/125/283
f 258/122/280 262/126/284 261/125/283
f 261/125/283 262/126/284 263/127/285
f 262/126/284 264/128/286 263/127/285
f 263/127/285 264/128/286 265/129/287
f 264/128/286 266/130/288 265/129/287
f 265/129/287 266/130/288 267/131/289
f 266/130/288 268/132/290 267/131/289
f 267/131/289 268/132/290 269/133/291
f 268/132/290 270/134/292 269/133/291
f 269/133/291 270/134/292 271/135/293
f 270/134/292 272/136/294 271/135/293
f 271/135/293 272/136/294 273/137/295
f 272/136/294 274/138/296 273/137/295
f 273/137/295 274/138/296 275/139/297
f 274/138/296 276/140/298 275/139/297
f 275/139/297 276/140/298 277/141/299
f 276/140/298 278/142/300 277/141/299
f 277/141/299 278/142/300 279/143/301
f 278/142/300 280/144/302 279/143/301
f 280/144/302 281/145/303 279/143/301
f 279/143/301 281/145/303 282/146/304
f 281/145/303 283/147/305 282/146/304
f 282/146/304 283/147/305 284/148/306
f 284/148/306 283/147/305 285/149/307
f 283/147/305 286/150/308 285/149/307
f 285/149/307 286/150/308 287/151/309
f 287/151/309 286/150/308 288/152/310
f 286/150/308 289/153/311 288/152/310
f 288/152/310 289/153/311 290/154/312
f 290/154/312 289/153/311 291/155/313
f 289/153/311 292/156/314 291/155/313
f 291/155/313 292/156/314 293/157/315
f 293/157/315 292/156/314 294/158/316
f 294/158/316 292/156/314 295/159/317
f 296/160/318 295/159/317 292/156/314
f 231/161/253 11/162/175 87/163/178
f 12/164/176 87/163/178 11/162/175
f 299/165/319 300/166/320 122/167/213
f 300/166/320 264/168/286 122/167/213
f 122/167/213 264/168/286 120/169/211
f 262/170/284 120/169/211 264/168/286
f 302/171/321 299/172/319 124/173/215
f 122/174/213 124/173/215 299/172/319
f 304/175/322 302/176/321 126/177/217
f 124/178/215 126/177/217 302/176/321
f 306/179/323 304/180/322 127/181/218
f 126/182/217 127/181/218 304/180/322
f 129/183/220 308/184/324 127/185/218
f 306/186/323 127/185/218 308/184/324
f 131/187/222 310/188/325 129/189/220
f 308/190/324 129/189/220 310/188/325
f 133/191/224 312/192/326 131/193/222
f 310/194/325 131/193/222 312/192/326
f 135/195/226 314/196/327 133/197/224
f 312/198/326 133/197/224 314/196/327
f 136/199/227 316/200/328 135/201/226
f 314/202/327 135/201/226 316/200/328
f 138/203/229 318/204/329 136/205/227
f 316/206/328 136/205/227 318/204/329
f 139/207/230 320/208/330 138/209/229
f 318/210/329 138/209/229 320/208/330
f 141/211/232 322/212/331 139/213/230
f 320/214/330 139/213/230 322/212/331
f 142/215/233 324/216/332 141/217/232
f 322/218/331 141/217/232 324/216/332
f 143/219/234 281/220/303 142/221/233
f 142/221/233 281/220/303 324/222/332
f 324/222/332 281/220/303 326/223/333
f 280/224/302 326/223/333 281/220/303
f 145/225/236 283/226/305 143/227/234
f 281/228/303 143/227/234 283/226/305
f 148/229/239 286/230/308 145/225/236
f 283/226/305 145/225/236 286/230/308
f 151/231/242 289/232/311 148/233/239
f 286/234/308 148/233/239 289/232/311
f 154/235/245 292/236/314 151/237/242
f 289/238/311 151/237/242 292/236/314
f 158/239/249 296/240/318 154/241/245
f 292/242/314 154/241/245 296/240/318
f 157/243/248 295/244/317 158/245/249
f 296/246/318 158/245/249 295/244/317
f 156/247/247 294/248/316 157/249/248
f 295/250/317 157/249/248 294/248/316
f 155/251/246 293/252/315 156/253/247
f 294/254/316 156/253/247 293/252/315
f 291/255/313 293/256/315 153/257/244
f 155/258/246 153/257/244 293/256/315
f 290/259/312 291/260/313 152/261/243
f 153/262/244 152/261/243 291/260/313
f 288/263/310 290/264/312 150/265/241
f 152/266/243 150/265/241 290/264/312
f 287/267/309 288/268/310 149/269/240
f 150/270/241 149/269/240 288/268/310
f 285/271/307 287/272/309 147/273/238
f 149/274/240 147/273/238 287/272/309
f 284/275/306 285/276/307 146/277/237
f 147/278/238 146/277/237 285/276/307
f 284/279/306 146/280/237 282/281/304
f 144/282/235 282/281/304 146/280/237
f 279/283/301 282/284/304 140/285/231
f 144/286/235 140/285/231 282/284/304
f 277/287/299 279/288/301 137/289/228
f 140/290/231 137/289/228 279/288/301
f 275/291/297 277/292/299 134/293/225
f 137/294/228 134/293/225 277/292/299
f 273/295/295 275/296/297 132/297/223
f 134/298/225 132/297/223 275/296/297
f 271/299/293 273/300/295 130/301/221
f 132/302/223 130/301/221 273/300/295
f 269/303/291 271/304/293 128/305/219
f 130/306/221 128/305/219 271/304/293
f 267/307/289 269/308/291 125/309/216
f 128/310/219 125/309/216 269/308/291
f 265/311/287 267/312/289 123/313/214
f 125/314/216 123/313/214 267/312/289
f 263/315/285 265/316/287 121/317/212
f 123/318/214 121/317/212 265/316/287
f 261/319/283 263/320/285 119/321/210
f 121/322/212 119/321/210 263/320/285
f 260/323/282 261/324/283 118/325/209
f 119/326/210 118/325/209 261/324/283
f 259/327/281 260/328/282 117/329/208
f 118/330/209 117/329/208 260/328/282
f 257/331/279 259/332/281 115/333/206
f 117/334/208 115/333/206 259/332/281
f 255/335/277 257/336/279 113/337/204
f 115/338/206 113/337/204 257/336/279
f 253/339/275 255/340/277 111/341/202
f 113/342/204 111/341/202 255/340/277
f 251/343/273 253/344/275 109/345/200
f 111/346/202 109/345/200 253/344/275
f 249/347/271 251/348/273 107/349/198
f 109/350/200 107/349/198 251/348/273
f 246/351/268 249/352/271 104/353/195
f 107/354/198 104/353/195 249/352/271
f 160/355/250 246/356/268 102/357/193
f 104/358/195 102/357/193 246/356/268
f 231/359/253 87/360/178 229/361/251
f 86/362/177 229/361/251 87/360/178
f 229/363/251 86/364/177 230/365/252
f 88/366/179 230/365/252 86/364/177
f 230/367/252 88/368/179 232/369/254
f 89/370/180 232/369/254 88/368/179
f 232/371/254 89/372/180 233/373/255
f 90/374/181 233/373/255 89/372/180
f 233/375/255 90/376/181 234/377/256
f 91/378/182 234/377/256 90/376/181
f 234/379/256 91/380/182 235/381/257
f 92/382/183 235/381/257 91/380/182
f 236/383/258 235/384/257 93/385/184
f 92/386/183 93/385/184 235/384/257
f 237/387/259 236/388/258 94/389/185
f 93/390/184 94/389/185 236/388/258
f 238/391/260 237/392/259 95/393/186
f 94/394/185 95/393/186 237/392/259
f 239/395/261 238/396/260 96/397/187
f 95/398/186 96/397/187 238/396/260
f 240/399/262 239/400/261 97/401/188
f 96/402/187 97/401/188 239/400/261
f 241/403/263 240/404/262 98/405/189
f 97/406/188 98/405/189 240/404/262
f 242/407/264 241/408/263 99/409/190
f 98/410/189 99/409/190 241/408/263
f 243/411/265 242/412/264 100/413/191
f 99/414/190 100/413/191 242/412/264
f 244/415/266 243/416/265 101/417/192
f 100/418/191 101/417/192 243/416/265
f 245/419/267 244/420/266 103/421/194
f 101/422/192 103/421/194 244/420/266
f 247/423/269 245/424/267 105/425/196
f 103/426/194 105/425/196 245/424/267
f 248/427/270 247/428/269 106/429/197
f 105/430/196 106/429/197 247/428/269
f 250/431/272 248/432/270 108/433/199
f 106/434/197 108/433/199 248/432/270
f 252/435/274 250/436/272 110/437/201
f 108/438/199 110/437/201 250/436/272
f 254/439/276 252/440/274 112/441/203
f 110/442/201 112/441/203 252/440/274
f 256/443/278 254/444/276 114/445/205
f 112/446/203 114/445/205 254/444/276
f 258/447/280 256/448/278 116/449/207
f 114/450/205 116/449/207 256/448/278
f 262/451/284 258/452/280 120/453/211
f 116/454/207 120/453/211 258/452/280
f 329/455/334 266/456/288 330/166/320
f 264/168/286 330/166/320 266/456/288
f 333/223/333 280/224/302 334/457/335
f 278/458/300 334/457/335 280/224/302
f 334/459/335 278/460/300 336/461/336
f 276/462/298 336/461/336 278/460/300
f 336/463/336 276/464/298 338/465/337
f 274/466/296 338/465/337 276/464/298
f 338/467/337 274/468/296 340/469/338
f 272/470/294 340/469/338 274/468/296
f 340/471/338 272/472/294 342/473/339
f 270/474/292 342/473/339 272/472/294
f 342/475/339 270/476/292 344/477/340
f 268/478/290 344/477/340 270/476/292
f 344/479/340 268/480/290 329/481/334
f 266/482/288 329/481/334 268/480/290
usemtl material_1_0
f 1//1 2//2 3//3
f 2//2 1//1 4//4
f 4//4 9//5 2//2
f 9//5 4//4 10//6
f 13//7 14//8 15//9
f 14//8 13//7 16//10
f 14//8 16//10 17//11
f 14//8 17//11 18//12
f 14//8 18//12 19//13
f 19//13 18//12 20//14
f 19//13 20//14 21//15
f 19//13 21//15 22//16
f 22//16 21//15 23//17
f 22//16 23//17 24//18
f 22//16 24//18 25//19
f 25//19 24//18 26//20
f 25//19 26//20 27//21
f 25//19 27//21 28//22
f 28//22 27//21 29//23
f 28//22 29//23 30//24
f 30//24 29//23 31//25
f 31//25 29//23 32//26
f 32//26 29//23 33//27
f 32//26 33//27 34//28
f 34//28 33//27 35//29
f 35//29 33//27 36//30
f 35//29 36//30 37//31
f 37//31 36//30 38//32
f 38//32 36//30 39//33
f 38//32 39//33 40//34
f 40//34 39//33 41//35
f 40//34 41//35 42//36
f 42//36 41//35 43//37
f 42//36 43//37 44//38
f 44//38 43//37 45//39
f 44//38 45//39 46//40
f 46//40 45//39 47//41
f 47//41 45//39 48//42
f 47//41 48//42 49//43
f 49//43 48//42 50//44
f 49//43 50//44 51//45
f 51//45 50//44 52//46
f 51//45 52//46 53//47
f 53//47 52//46 54//48
f 53//47 54//48 55//49
f 53//47 55//49 56//50
f 53//47 56//50 57//51
f 57//51 56//50 58//52
f 57//51 58//52 59//53
f 59//53 58//52 60//54
f 59//53 60//54 61//55
f 61//55 60//54 62//56
f 61//55 62//56 63//57
f 63//57 62//56 64//58
f 63//57 64//58 65//59
f 65//59 64//58 66//60
f 65//59 66//60 67//61
f 67//61 66//60 68//62
f 68//62 66//60 69//63
f 68//62 69//63 70//64
f 70//64 69//63 3//3
f 70//64 3//3 71//65
f 71//65 3//3 2//2
f 71//65 2//2 72//66
f 72//66 2//2 9//5
f 72//66 9//5 73//67
f 73//67 9//5 74//68
f 73//67 74//68 75//69
f 75//69 74//68 76//70
f 76//70 74//68 77//71
f 77//71 74//68 78//72
f 78//72 74//68 79//73
f 79//73 74//68 80//74
f 80//74 74//68 81//75
f 81//75 74//68 82//76
f 82//76 74//68 83//77
f 83//77 74//68 84//78
f 84//78 74//68 85//79
f 159//80 3//3 69//63
f 3//3 159//80 1//1
f 161//81 162//82 163//83
f 162//82 161//81 164//84
f 164//84 161//81 165//85
f 165//85 161//81 166//86
f 166//86 161//81 167//87
f 166//86 167//87 168//88
f 168//88 167//87 169//89
f 169//89 167//87 170//90
f 169//89 170//90 171//91
f 171//91 170//90 172//92
f 172//92 170//90 173//93
f 172//92 173//93 174//94
f 174//94 173//93 175//95
f 175//95 173//93 176//96
f 175//95 176//96 177//97
f 177//97 176//96 178//98
f 177//97 178//98 179//99
f 177//97 179//99 180//100
f 180//100 179//99 181//101
f 180//100 181//101 182//102
f 182//102 181//101 183//103
f 182//102 183//103 184//104
f 184//104 183//103 185//105
f 184//104 185//105 186//106
f 186//106 185//105 187//107
f 186//106 187//107 188//108
f 188//108 187//107 189//109
f 188//108 189//109 190//110
f 190//110 189//109 191//111
f 190//110 191//111 192//112
f 192//112 191//111 193//113
f 192//112 193//113 194//114
f 194//114 193//113 195//115
f 194//114 195//115 196//116
f 196//116 195//115 197//117
f 196//116 197//117 198//118
f 198//118 197//117 199//119
f 199//119 197//117 200//120
f 200//120 197//117 201//121
f 200//120 201//121 202//122
f 202//122 201//121 203//123
f 202//122 203//123 204//124
f 204//124 203//123 205//125
f 204//124 205//125 206//126
f 206//126 205//125 207//127
f 206//126 207//127 208//128
f 208//128 207//127 209//129
f 208//128 209//129 210//130
f 210//130 209//129 211//131
f 210//130 211//131 212//132
f 210//130 212//132 159//80
f 159//80 212//132 213//133
f 159//80 213//133 1//1
f 1//1 213//133 214//134
f 1//1 214//134 4//4
f 4//4 214//134 215//135
f 4//4 215//135 10//6
f 10//6 215//135 216//136
f 10//6 216//136 217//137
f 217//137 216//136 218//138
f 217//137 218//138 219//139
f 217//137 219//139 220//140
f 217//137 220//140 221//141
f 217//137 221//141 222//142
f 217//137 222//142 223//143
f 217//137 223//143 224//144
f 217//137 224//144 225//145
f 217//137 225//145 226//146
f 217//137 226//146 227//147
f 217//137 227//147 228//148
f 10//6 74//68 9//5
f 74//68 10//6 217//137
f 193//113 51//45 195//115
f 51//45 193//113 49//43
f 49//43 193//113 297//149
f 49//43 297//149 298//150
f 298//150 47//41 49//43
f 47//41 298//150 301//151
f 301//151 46//40 47//41
f 46//40 301//151 303//152
f 303//152 44//38 46//40
f 44//38 303//152 305//153
f 307//154 44//38 305//153
f 44//38 307//154 42//36
f 309//155 42//36 307//154
f 42//36 309//155 40//34
f 311//156 40//34 309//155
f 40//34 311//156 38//32
f 313//157 38//32 311//156
f 38//32 313//157 37//31
f 315//158 37//31 313//157
f 37//31 315//158 35//29
f 317//159 35//29 315//158
f 35//29 317//159 34//28
f 319//160 34//28 317//159
f 34//28 319//160 32//26
f 321//161 32//26 319//160
f 32//26 321//161 31//25
f 323//162 31//25 321//161
f 31//25 323//162 30//24
f 176//96 325//163 178//98
f 325//163 176//96 323//162
f 323//162 176//96 30//24
f 30//24 176//96 28//22
f 173//93 28//22 176//96
f 28//22 173//93 25//19
f 170//90 25//19 173//93
f 25//19 170//90 22//16
f 167//87 22//16 170//90
f 22//16 167//87 19//13
f 161//81 19//13 167//87
f 19//13 161//81 14//8
f 163//83 14//8 161//81
f 14//8 163//83 15//9
f 162//82 15//9 163//83
f 15//9 162//82 13//7
f 164//84 13//7 162//82
f 13//7 164//84 16//10
f 165//85 16//10 164//84
f 16//10 165//85 17//11
f 165//85 18//12 17//11
f 18//12 165//85 166//86
f 166//86 20//14 18//12
f 20//14 166//86 168//88
f 168//88 21//15 20//14
f 21//15 168//88 169//89
f 169//89 23//17 21//15
f 23//17 169//89 171//91
f 171//91 24//18 23//17
f 24//18 171//91 172//92
f 172//92 26//20 24//18
f 26//20 172//92 174//94
f 26//20 175//95 27//21
f 175//95 26//20 174//94
f 175//95 29//23 27//21
f 29//23 175//95 177//97
f 177//97 33//27 29//23
f 33//27 177//97 180//100
f 180//100 36//30 33//27
f 36//30 180//100 182//102
f 182//102 39//33 36//30
f 39//33 182//102 184//104
f 184//104 41//35 39//33
f 41//35 184//104 186//106
f 186//106 43//37 41//35
f 43//37 186//106 188//108
f 188//108 45//39 43//37
f 45//39 188//108 190//110
f 190//110 48//42 45//39
f 48//42 190//110 192//112
f 192//112 50//44 48//42
f 50//44 192//112 194//114
f 194//114 52//46 50//44
f 52//46 194//114 196//116
f 196//116 54//48 52//46
f 54//48 196//116 198//118
f 198//118 55//49 54//48
f 55//49 198//118 199//119
f 199//119 56//50 55//49
f 56//50 199//119 200//120
f 200//120 58//52 56//50
f 58//52 200//120 202//122
f 202//122 60//54 58//52
f 60//54 202//122 204//124
f 204//124 62//56 60//54
f 62//56 204//124 206//126
f 206//126 64//58 62//56
f 64//58 206//126 208//128
f 208//128 66//60 64//58
f 66//60 208//128 210//130
f 210//130 69//63 66//60
f 69//63 210//130 159//80
f 74//68 228//148 85//79
f 228//148 74//68 217//137
f 85//79 227//147 84//78
f 227//147 85//79 228//148
f 84//78 226//146 83//77
f 226//146 84//78 227//147
f 83//77 225//145 82//76
f 225//145 83//77 226//146
f 82//76 224//144 81//75
f 224//144 82//76 225//145
f 81//75 223//143 80//74
f 223//143 81//75 224//144
f 223//143 79//73 80//74
f 79//73 223//143 222//142
f 222//142 78//72 79//73
f 78//72 222//142 221//141
f 221//141 77//71 78//72
f 77//71 221//141 220//140
f 220//140 76//70 77//71
f 76//70 220//140 219//139
f 219//139 75//69 76//70
f 75//69 219//139 218//138
f 218//138 73//67 75//69
f 73//67 218//138 216//136
f 216//136 72//66 73//67
f 72//66 216//136 215//135
f 215//135 71//65 72//66
f 71//65 215//135 214//134
f 214//134 70//64 71//65
f 70//64 214//134 213//133
f 213//133 68//62 70//64
f 68//62 213//133 212//132
f 212//132 67//61 68//62
f 67//61 212//132 211//131
f 211//131 65//59 67//61
f 65//59 211//131 209//129
f 209//129 63//57 65//59
f 63//57 209//129 207//127
f 207//127 61//55 63//57
f 61//55 207//127 205//125
f 205//125 59//53 61//55
f 59//53 205//125 203//123
f 203//123 57//51 59//53
f 57//51 203//123 201//121
f 201//121 53//47 57//51
f 53//47 201//121 197//117
f 197//117 51//45 53//47
f 51//45 197//117 195//115
f 191//111 327//149 193//113
f 327//149 191//111 328//164
f 178//98 331//165 179//99
f 331//165 178//98 332//163
f 179//99 335//166 181//101
f 335//166 179//99 331//165
f 181//101 337//167 183//103
f 337//167 181//101 335//166
f 183//103 339//168 185//105
f 339//168 183//103 337//167
f 185//105 341//169 187//107
f 341//169 185//105 339//168
f 187//107 343//170 189//109
f 343//170 187//107 341//169
f 189//109 328//164 191//111
f 328//164 189//109 343//170
