# SSTK version 0.8.0
# 9
mtllib original-9.mtl
o #ID89
v 0.000874 0.033681 0.506113
v 0.012819 0.033681 0.642652
v 0.000874 0.033681 0.643697
v 0.024402 0.033681 0.639548
v 0.035269 0.033681 0.634481
v 0.045092 0.033681 0.627603
v 0.053571 0.033681 0.619124
v 0.060449 0.033681 0.609301
v 0.065517 0.033681 0.598433
v 0.068620 0.033681 0.586851
v 0.069665 0.033681 0.574905
v 0.068620 0.033681 0.562960
v 0.065517 0.033681 0.551377
v 0.060449 0.033681 0.540509
v 0.053571 0.033681 0.530687
v 0.045092 0.033681 0.522208
v 0.035269 0.033681 0.515330
v 0.024402 0.033681 0.510262
v 0.012819 0.033681 0.507159
v 0.012819 0.033681 0.507159
v 0.000874 0.033681 0.506113
v 0.024402 0.033681 0.510262
v 0.035269 0.033681 0.515330
v 0.045092 0.033681 0.522208
v 0.053571 0.033681 0.530687
v 0.060449 0.033681 0.540509
v 0.065517 0.033681 0.551377
v 0.068620 0.033681 0.562960
v 0.069665 0.033681 0.574905
v 0.068620 0.033681 0.586851
v 0.065517 0.033681 0.598433
v 0.060449 0.033681 0.609301
v 0.053571 0.033681 0.619124
v 0.045092 0.033681 0.627603
v 0.035269 0.033681 0.634481
v 0.024402 0.033681 0.639548
v 0.012819 0.033681 0.642652
v 0.000874 0.033681 0.643697
v 0.000874 0.033681 0.643697
v 0.000874 0.050322 0.629142
v 0.000874 0.033681 0.506113
v 0.000874 0.056612 0.643697
v 0.000874 0.050322 0.514490
v 0.000874 0.056612 0.506113
v 0.000874 0.050322 0.629142
v 0.000874 0.033681 0.506113
v 0.000874 0.050322 0.514490
v 0.000874 0.056612 0.506113
v 0.000874 0.056612 0.643697
v 0.000874 0.033681 0.643697
v 0.000874 -0.058041 0.506113
v 0.012819 0.033681 0.507159
v 0.012819 -0.058041 0.507159
v 0.000874 0.033681 0.506113
v 0.000874 0.033681 0.506113
v 0.000874 -0.058041 0.506113
v 0.012819 0.033681 0.507159
v 0.012819 -0.058041 0.507159
v 0.024402 0.033681 0.510262
v 0.024402 -0.058041 0.510262
v 0.024402 0.033681 0.510262
v 0.024402 -0.058041 0.510262
v 0.035269 0.033681 0.515330
v 0.035269 -0.058041 0.515330
v 0.035269 0.033681 0.515330
v 0.035269 -0.058041 0.515330
v 0.045092 0.033681 0.522208
v 0.045092 -0.058041 0.522208
v 0.045092 0.033681 0.522208
v 0.045092 -0.058041 0.522208
v 0.053571 0.033681 0.530687
v 0.053571 -0.058041 0.530687
v 0.053571 0.033681 0.530687
v 0.053571 -0.058041 0.530687
v 0.060449 -0.058041 0.540509
v 0.060449 0.033681 0.540509
v 0.060449 0.033681 0.540509
v 0.060449 -0.058041 0.540509
v 0.065517 -0.058041 0.551377
v 0.065517 0.033681 0.551377
v 0.065517 0.033681 0.551377
v 0.065517 -0.058041 0.551377
v 0.068620 -0.058041 0.562960
v 0.068620 0.033681 0.562960
v 0.068620 0.033681 0.562960
v 0.068620 -0.058041 0.562960
v 0.069665 -0.058041 0.574905
v 0.069665 0.033681 0.574905
v 0.069665 0.033681 0.574905
v 0.069665 -0.058041 0.574905
v 0.068620 -0.058041 0.586851
v 0.068620 0.033681 0.586851
v 0.068620 0.033681 0.586851
v 0.068620 -0.058041 0.586851
v 0.065517 -0.058041 0.598433
v 0.065517 0.033681 0.598433
v 0.065517 0.033681 0.598433
v 0.065517 -0.058041 0.598433
v 0.060449 -0.058041 0.609301
v 0.060449 0.033681 0.609301
v 0.060449 0.033681 0.609301
v 0.060449 -0.058041 0.609301
v 0.053571 -0.058041 0.619124
v 0.053571 0.033681 0.619124
v 0.053571 0.033681 0.619124
v 0.053571 -0.058041 0.619124
v 0.045092 0.033681 0.627603
v 0.045092 -0.058041 0.627603
v 0.045092 -0.058041 0.627603
v 0.045092 0.033681 0.627603
v 0.035269 0.033681 0.634481
v 0.035269 -0.058041 0.634481
v 0.035269 -0.058041 0.634481
v 0.035269 0.033681 0.634481
v 0.024402 0.033681 0.639548
v 0.024402 -0.058041 0.639548
v 0.024402 -0.058041 0.639548
v 0.024402 0.033681 0.639548
v 0.012819 0.033681 0.642652
v 0.012819 -0.058041 0.642652
v 0.012819 -0.058041 0.642652
v 0.012819 0.033681 0.642652
v 0.000874 0.033681 0.643697
v 0.000874 -0.058041 0.643697
v 0.000874 -0.058041 0.643697
v 0.000874 0.033681 0.643697
v 0.022324 0.056612 0.514490
v 0.000874 0.050322 0.629142
v 0.022324 0.056612 0.629142
v 0.000874 0.050322 0.514490
v 0.000874 0.050322 0.514490
v 0.022324 0.056612 0.514490
v 0.000874 0.050322 0.629142
v 0.022324 0.056612 0.629142
v 0.000874 0.056612 0.506113
v 0.000874 0.050322 0.514490
v 0.022324 0.056612 0.514490
v 0.022324 0.056612 0.514490
v 0.000874 0.050322 0.514490
v 0.000874 0.056612 0.506113
vt -0.2333042 0.08748906
vt -0.1464797 0.07989291
vt -0.1458151 0.08748906
vt -0.1484532 0.07252755
vt -0.1516758 0.0656168
vt -0.1560494 0.05937062
vt -0.1614412 0.05397881
vt -0.1676874 0.04960519
vt -0.1745981 0.04638265
vt -0.1819635 0.04440911
vt -0.1895596 0.04374453
vt -0.1971558 0.04440911
vt -0.2045211 0.04638265
vt -0.2114319 0.04960519
vt -0.2176781 0.05397881
vt -0.2230699 0.05937062
vt -0.2274435 0.0656168
vt -0.2306661 0.07252755
vt -0.2326396 0.07989291
vt -0.1458151 0.0656168
vt -0.1550704 0.07619898
vt -0.2333042 0.0656168
vt -0.1458151 0.08019831
vt -0.2279774 0.07619898
vt -0.2333042 0.08019831
vt 0.1074899 0.007290755
vt 0.09986477 0.0656168
vt 0.09986477 0.007290755
vt 0.1074899 0.0656168
vt 0.1373822 0.007290755
vt 0.129757 0.0656168
vt 0.129757 0.007290755
vt 0.1373822 0.0656168
vt 0.163216 0.007290755
vt 0.1555908 0.0656168
vt 0.1555908 0.007290755
vt 0.163216 0.0656168
vt 0.1842064 0.007290755
vt 0.1765812 0.0656168
vt 0.1765812 0.007290755
vt 0.1842064 0.0656168
vt 0.1997156 0.007290755
vt 0.1920904 0.0656168
vt 0.1920904 0.007290755
vt 0.1997156 0.0656168
vt 0.2092724 0.0656168
vt 0.2016472 0.007290755
vt 0.2092724 0.007290755
vt 0.2016472 0.0656168
vt 0.2125864 0.0656168
vt 0.2049613 0.007290755
vt 0.2125864 0.007290755
vt 0.2049613 0.0656168
vt 0.209557 0.0656168
vt 0.2019318 0.007290755
vt 0.209557 0.007290755
vt 0.2019318 0.0656168
vt 0.2002761 0.0656168
vt 0.1926509 0.007290755
vt 0.2002761 0.007290755
vt 0.1926509 0.0656168
vt 0.1850257 0.0656168
vt 0.1774005 0.007290755
vt 0.1850257 0.007290755
vt 0.1774005 0.0656168
vt 0.1642693 0.0656168
vt 0.1566441 0.007290755
vt 0.1642693 0.007290755
vt 0.1566441 0.0656168
vt 0.1386375 0.0656168
vt 0.1310123 0.007290755
vt 0.1386375 0.007290755
vt 0.1310123 0.0656168
vt 0.1089091 0.0656168
vt 0.1012839 0.007290755
vt 0.1089091 0.007290755
vt 0.1012839 0.0656168
vt 0.06836221 0.0656168
vt 0.07598738 0.007290755
vt 0.07598738 0.0656168
vt 0.06836221 0.007290755
vt 0.03324751 0.0656168
vt 0.04087268 0.007290755
vt 0.04087268 0.0656168
vt 0.03324751 0.007290755
vt -0.002993242 0.0656168
vt 0.004631932 0.007290755
vt 0.004631932 0.0656168
vt -0.002993242 0.007290755
vt -0.03925889 0.0656168
vt -0.03163371 0.007290755
vt -0.03163371 0.0656168
vt -0.03925889 0.007290755
vt -0.07444752 0.0656168
vt -0.06682234 0.007290755
vt -0.06682234 0.0656168
vt -0.07444752 0.007290755
vt -0.2279774 -0.04830142
vt -0.1550704 -0.06251606
vt -0.1550704 -0.04830142
vt -0.2279774 -0.06251606
vt -0.1663623 0.1947514
vt -0.1644246 0.1883785
vt -0.1517187 0.1947514
vn 0 -1 0
vn 0 1 0
vn -1 0 0
vn 1 0 0
vn 0.0871557398551891 0 -0.9961946983448038
vn 0.1736481912911892 0 -0.9848077506098837
vn -0.0871557398551891 0 0.9961946983448038
vn -0.1736481912911892 0 0.9848077506098837
vn 0.34202011174860136 0 -0.9396926322790203
vn -0.34202011174860136 0 0.9396926322790203
vn 0.50000000163871 0 -0.866025402838329
vn -0.50000000163871 0 0.866025402838329
vn 0.6427876252341971 0 -0.7660444300729438
vn -0.6427876252341971 0 0.7660444300729438
vn 0.7660444300729438 0 -0.6427876252341971
vn -0.7660444300729438 0 0.6427876252341971
vn 0.866025402838329 0 -0.50000000163871
vn -0.866025402838329 0 0.50000000163871
vn 0.9396926322790203 0 -0.34202011174860136
vn -0.9396926322790203 0 0.34202011174860136
vn 0.9848077506098837 0 -0.1736481912911892
vn -0.9848077506098837 0 0.1736481912911892
vn 0.9848077506098837 0 0.1736481912911892
vn -0.9848077506098837 0 -0.1736481912911892
vn 0.9396926322790203 0 0.34202011174860136
vn -0.9396926322790203 0 -0.34202011174860136
vn 0.866025402838329 0 0.50000000163871
vn -0.866025402838329 0 -0.50000000163871
vn 0.7660444300729438 0 0.6427876252341971
vn -0.7660444300729438 0 -0.6427876252341971
vn 0.6427876252341971 0 0.7660444300729438
vn -0.6427876252341971 0 -0.7660444300729438
vn 0.50000000163871 0 0.866025402838329
vn -0.50000000163871 0 -0.866025402838329
vn 0.34202011174860136 0 0.9396926322790203
vn -0.34202011174860136 0 -0.9396926322790203
vn 0.1736481912911892 0 0.9848077506098837
vn -0.1736481912911892 0 -0.9848077506098837
vn 0.0871557398551891 0 0.9961946983448038
vn -0.0871557398551891 0 -0.9961946983448038
vn -0.28135310288976373 0.959604309856048 0
vn 0.28135310288976373 -0.959604309856048 0
vn -0.22827689612780871 0.7785786867932074 0.584555290084367
vn 0.22827689612780871 -0.7785786867932074 -0.584555290084367
usemtl material_0_0
f 1/1/1 2/2/1 3/3/1
f 2/2/1 1/1/1 4/4/1
f 4/4/1 1/1/1 5/5/1
f 5/5/1 1/1/1 6/6/1
f 6/6/1 1/1/1 7/7/1
f 7/7/1 1/1/1 8/8/1
f 8/8/1 1/1/1 9/9/1
f 9/9/1 1/1/1 10/10/1
f 10/10/1 1/1/1 11/11/1
f 11/11/1 1/1/1 12/12/1
f 12/12/1 1/1/1 13/13/1
f 13/13/1 1/1/1 14/14/1
f 14/14/1 1/1/1 15/15/1
f 15/15/1 1/1/1 16/16/1
f 16/16/1 1/1/1 17/17/1
f 17/17/1 1/1/1 18/18/1
f 18/18/1 1/1/1 19/19/1
f 20/19/2 21/1/2 22/18/2
f 22/18/2 21/1/2 23/17/2
f 23/17/2 21/1/2 24/16/2
f 24/16/2 21/1/2 25/15/2
f 25/15/2 21/1/2 26/14/2
f 26/14/2 21/1/2 27/13/2
f 27/13/2 21/1/2 28/12/2
f 28/12/2 21/1/2 29/11/2
f 29/11/2 21/1/2 30/10/2
f 30/10/2 21/1/2 31/9/2
f 31/9/2 21/1/2 32/8/2
f 32/8/2 21/1/2 33/7/2
f 33/7/2 21/1/2 34/6/2
f 34/6/2 21/1/2 35/5/2
f 35/5/2 21/1/2 36/4/2
f 36/4/2 21/1/2 37/2/2
f 38/3/2 37/2/2 21/1/2
f 39/20/3 40/21/3 41/22/3
f 40/21/3 39/20/3 42/23/3
f 41/22/3 43/24/3 44/25/3
f 43/24/3 41/22/3 40/21/3
f 45/21/4 46/22/4 47/24/4
f 48/25/4 47/24/4 46/22/4
f 49/23/4 50/20/4 45/21/4
f 46/22/4 45/21/4 50/20/4
f 51/26/5 52/27/6 53/28/6
f 52/27/6 51/26/5 54/29/5
f 55/29/7 56/26/7 57/27/8
f 58/28/8 57/27/8 56/26/7
f 53/30/6 59/31/9 60/32/9
f 59/31/9 53/30/6 52/33/6
f 57/33/8 58/30/8 61/31/10
f 62/32/10 61/31/10 58/30/8
f 60/34/9 63/35/11 64/36/11
f 63/35/11 60/34/9 59/37/9
f 61/37/10 62/34/10 65/35/12
f 66/36/12 65/35/12 62/34/10
f 64/38/11 67/39/13 68/40/13
f 67/39/13 64/38/11 63/41/11
f 65/41/12 66/38/12 69/39/14
f 70/40/14 69/39/14 66/38/12
f 68/42/13 71/43/15 72/44/15
f 71/43/15 68/42/13 67/45/13
f 69/45/14 70/42/14 73/43/16
f 74/44/16 73/43/16 70/42/14
f 71/46/15 75/47/17 72/48/15
f 75/47/17 71/46/15 76/49/17
f 77/49/18 73/46/16 78/47/18
f 74/48/16 78/47/18 73/46/16
f 76/50/17 79/51/19 75/52/17
f 79/51/19 76/50/17 80/53/19
f 81/53/20 77/50/18 82/51/20
f 78/52/18 82/51/20 77/50/18
f 80/54/19 83/55/21 79/56/19
f 83/55/21 80/54/19 84/57/21
f 85/57/22 81/54/20 86/55/22
f 82/56/20 86/55/22 81/54/20
f 84/58/21 87/59/4 83/60/21
f 87/59/4 84/58/21 88/61/4
f 89/61/3 85/58/22 90/59/3
f 86/60/22 90/59/3 85/58/22
f 88/62/4 91/63/23 87/64/4
f 91/63/23 88/62/4 92/65/23
f 93/65/24 89/62/3 94/63/24
f 90/64/3 94/63/24 89/62/3
f 92/66/23 95/67/25 91/68/23
f 95/67/25 92/66/23 96/69/25
f 97/69/26 93/66/24 98/67/26
f 94/68/24 98/67/26 93/66/24
f 96/70/25 99/71/27 95/72/25
f 99/71/27 96/70/25 100/73/27
f 101/73/28 97/70/26 102/71/28
f 98/72/26 102/71/28 97/70/26
f 100/74/27 103/75/29 99/76/27
f 103/75/29 100/74/27 104/77/29
f 105/77/30 101/74/28 106/75/30
f 102/76/28 106/75/30 101/74/28
f 107/78/31 103/79/29 104/80/29
f 103/79/29 107/78/31 108/81/31
f 109/81/32 110/78/32 106/79/30
f 105/80/30 106/79/30 110/78/32
f 111/82/33 108/83/31 107/84/31
f 108/83/31 111/82/33 112/85/33
f 113/85/34 114/82/34 109/83/32
f 110/84/32 109/83/32 114/82/34
f 115/86/35 112/87/33 111/88/33
f 112/87/33 115/86/35 116/89/35
f 117/89/36 118/86/36 113/87/34
f 114/88/34 113/87/34 118/86/36
f 119/90/37 116/91/35 115/92/35
f 116/91/35 119/90/37 120/93/37
f 121/93/38 122/90/38 117/91/36
f 118/92/36 117/91/36 122/90/38
f 123/94/39 120/95/37 119/96/37
f 120/95/37 123/94/39 124/97/39
f 125/97/40 126/94/40 121/95/38
f 122/96/38 121/95/38 126/94/40
f 127/98/41 128/99/41 129/100/41
f 128/99/41 127/98/41 130/101/41
f 131/101/42 132/98/42 133/99/42
f 134/100/42 133/99/42 132/98/42
f 135/102/43 136/103/43 137/104/43
f 138/104/44 139/103/44 140/102/44
