# SSTK version 0.8.0
# 5
mtllib original-5.mtl
o #ID44
v -0.011240 0.033681 0.642666
v 0.000706 0.033681 0.506128
v 0.000706 0.033681 0.643711
v -0.022822 0.033681 0.639563
v -0.033690 0.033681 0.634495
v -0.043513 0.033681 0.627617
v -0.051992 0.033681 0.619138
v -0.058869 0.033681 0.609316
v -0.063937 0.033681 0.598448
v -0.067041 0.033681 0.586865
v -0.068086 0.033681 0.574920
v -0.067041 0.033681 0.562974
v -0.063937 0.033681 0.551392
v -0.058869 0.033681 0.540524
v -0.051992 0.033681 0.530701
v -0.043513 0.033681 0.522222
v -0.033690 0.033681 0.515344
v -0.022822 0.033681 0.510277
v -0.011240 0.033681 0.507173
v -0.011240 0.033681 0.507173
v -0.022822 0.033681 0.510277
v 0.000706 0.033681 0.506128
v -0.033690 0.033681 0.515344
v -0.043513 0.033681 0.522222
v -0.051992 0.033681 0.530701
v -0.058869 0.033681 0.540524
v -0.063937 0.033681 0.551392
v -0.067041 0.033681 0.562974
v -0.068086 0.033681 0.574920
v -0.067041 0.033681 0.586865
v -0.063937 0.033681 0.598448
v -0.058869 0.033681 0.609316
v -0.051992 0.033681 0.619138
v -0.043513 0.033681 0.627617
v -0.033690 0.033681 0.634495
v -0.022822 0.033681 0.639563
v -0.011240 0.033681 0.642666
v 0.000706 0.033681 0.643711
vt 0.1464797 0.07989291
vt 0.2333042 0.08748906
vt 0.1458151 0.08748906
vt 0.1484532 0.07252755
vt 0.1516758 0.0656168
vt 0.1560494 0.05937062
vt 0.1614412 0.05397881
vt 0.1676874 0.04960519
vt 0.1745981 0.04638265
vt 0.1819635 0.04440911
vt 0.1895596 0.04374453
vt 0.1971558 0.04440911
vt 0.2045211 0.04638265
vt 0.2114319 0.04960519
vt 0.2176781 0.05397881
vt 0.2230699 0.05937062
vt 0.2274435 0.0656168
vt 0.2306661 0.07252755
vt 0.2326396 0.07989291
vn 0 -1 0
vn 0 1 0
usemtl material_0_0
f 1/1/1 2/2/1 3/3/1
f 2/2/1 1/1/1 4/4/1
f 2/2/1 4/4/1 5/5/1
f 2/2/1 5/5/1 6/6/1
f 2/2/1 6/6/1 7/7/1
f 2/2/1 7/7/1 8/8/1
f 2/2/1 8/8/1 9/9/1
f 2/2/1 9/9/1 10/10/1
f 2/2/1 10/10/1 11/11/1
f 2/2/1 11/11/1 12/12/1
f 2/2/1 12/12/1 13/13/1
f 2/2/1 13/13/1 14/14/1
f 2/2/1 14/14/1 15/15/1
f 2/2/1 15/15/1 16/16/1
f 2/2/1 16/16/1 17/17/1
f 2/2/1 17/17/1 18/18/1
f 2/2/1 18/18/1 19/19/1
f 20/19/2 21/18/2 22/2/2
f 21/18/2 23/17/2 22/2/2
f 23/17/2 24/16/2 22/2/2
f 24/16/2 25/15/2 22/2/2
f 25/15/2 26/14/2 22/2/2
f 26/14/2 27/13/2 22/2/2
f 27/13/2 28/12/2 22/2/2
f 28/12/2 29/11/2 22/2/2
f 29/11/2 30/10/2 22/2/2
f 30/10/2 31/9/2 22/2/2
f 31/9/2 32/8/2 22/2/2
f 32/8/2 33/7/2 22/2/2
f 33/7/2 34/6/2 22/2/2
f 34/6/2 35/5/2 22/2/2
f 35/5/2 36/4/2 22/2/2
f 36/4/2 37/1/2 22/2/2
f 38/3/2 22/2/2 37/1/2
