# SSTK version 0.8.0
# 3
mtllib original-3.mtl
o #ID26
v -0.002187 0.161822 -0.059701
v 0.047736 0.129373 -0.009779
v -0.002187 0.129373 -0.059701
v 0.047736 0.161822 -0.009779
v -0.002187 0.129373 -0.059701
v -0.002187 0.129373 0.040144
v -0.052109 0.129373 -0.009779
v 0.047736 0.129373 -0.009779
v -0.002187 0.161822 -0.059701
v -0.052109 0.129373 -0.009779
v -0.052109 0.161822 -0.009779
v -0.002187 0.129373 -0.059701
v -0.002187 0.194272 -0.059701
v 0.047736 0.194272 -0.009779
v 0.047736 0.161822 -0.009779
v -0.002187 0.129373 0.040144
v 0.047736 0.129373 -0.009779
v -0.002187 0.161822 0.040144
v -0.052109 0.161822 -0.009779
v -0.002187 0.129373 0.040144
v -0.002187 0.161822 0.040144
v -0.052109 0.129373 -0.009779
v -0.002187 0.194272 -0.059701
v -0.052109 0.194272 -0.009779
v 0.051730 0.194272 -0.009779
v -0.002187 0.194272 -0.059701
v -0.002187 0.194272 -0.063695
v 0.047736 0.194272 -0.009779
v 0.047736 0.194272 -0.009779
v -0.002187 0.161822 0.040144
v 0.047736 0.161822 -0.009779
v -0.002187 0.194272 0.040144
v -0.002187 0.194272 0.040144
v -0.052109 0.161822 -0.009779
v -0.002187 0.161822 0.040144
v -0.052109 0.194272 -0.009779
v -0.052109 0.194272 -0.009779
v -0.056103 0.194272 -0.009779
v -0.002187 0.204256 -0.063695
v 0.051730 0.194272 -0.009779
v -0.002187 0.194272 -0.063695
v 0.051730 0.204256 -0.009779
v -0.002187 0.194272 0.044137
v -0.002187 0.194272 0.040144
v -0.002187 0.204256 -0.063695
v -0.056103 0.194272 -0.009779
v -0.056103 0.204256 -0.009779
v -0.002187 0.194272 -0.063695
v 0.038450 0.204256 -0.009779
v -0.002187 0.204256 -0.063695
v -0.002187 0.204256 -0.050415
v 0.051730 0.204256 -0.009779
v 0.051730 0.204256 -0.009779
v -0.002187 0.194272 0.044137
v 0.051730 0.194272 -0.009779
v -0.002187 0.204256 0.044137
v -0.056103 0.204256 -0.009779
v -0.002187 0.194272 0.044137
v -0.002187 0.204256 0.044137
v -0.056103 0.194272 -0.009779
v -0.042823 0.204256 -0.009779
v -0.056103 0.204256 -0.009779
v -0.002187 0.224225 -0.037447
v 0.038450 0.204256 -0.009779
v -0.002187 0.204256 -0.050415
v 0.025483 0.224225 -0.009779
v -0.002187 0.204256 0.030858
v -0.002187 0.204256 0.044137
v -0.002187 0.224225 -0.037447
v -0.042823 0.204256 -0.009779
v -0.029855 0.224225 -0.009779
v -0.002187 0.204256 -0.050415
v -0.002187 0.299108 -0.032743
v 0.020778 0.299108 -0.009779
v 0.025483 0.224225 -0.009779
v -0.002187 0.204256 0.030858
v 0.038450 0.204256 -0.009779
v -0.002187 0.224225 0.017890
v -0.002187 0.224225 0.017890
v -0.042823 0.204256 -0.009779
v -0.002187 0.204256 0.030858
v -0.029855 0.224225 -0.009779
v -0.002187 0.299108 -0.032743
v -0.025151 0.299108 -0.009779
v -0.002187 0.405817 -0.030746
v 0.018781 0.405817 -0.009779
v 0.020778 0.299108 -0.009779
v -0.002187 0.299108 0.013186
v -0.002187 0.299108 0.013186
v -0.025151 0.299108 -0.009779
v -0.002187 0.405817 -0.030746
v -0.023154 0.405817 -0.009779
v -0.002187 0.469468 -0.030746
v 0.018781 0.469468 -0.009779
v 0.018781 0.405817 -0.009779
v -0.002187 0.405817 0.011189
v -0.002187 0.405817 0.011189
v -0.023154 0.405817 -0.009779
v -0.002187 0.469468 -0.030746
v -0.023154 0.469468 -0.009779
v -0.002187 0.564945 -0.030746
v 0.018781 0.469468 -0.009779
v -0.002187 0.469468 -0.030746
v 0.018781 0.564945 -0.009779
v 0.018781 0.469468 -0.009779
v -0.002187 0.469468 0.011189
v -0.023154 0.469468 -0.009779
v -0.002187 0.469468 0.011189
v -0.002187 0.564945 -0.030746
v -0.023154 0.469468 -0.009779
v -0.023154 0.564945 -0.009779
v -0.002187 0.469468 -0.030746
v -0.002187 0.628596 -0.030746
v 0.018781 0.564945 -0.009779
v -0.002187 0.564945 -0.030746
v 0.018781 0.628596 -0.009779
v 0.018781 0.564945 -0.009779
v -0.002187 0.469468 0.011189
v 0.018781 0.469468 -0.009779
v -0.002187 0.564945 0.011189
v -0.002187 0.564945 0.011189
v -0.023154 0.469468 -0.009779
v -0.002187 0.469468 0.011189
v -0.023154 0.564945 -0.009779
v -0.002187 0.628596 -0.030746
v -0.023154 0.564945 -0.009779
v -0.023154 0.628596 -0.009779
v -0.002187 0.564945 -0.030746
v -0.002187 0.628596 0.011189
v -0.002187 0.628596 -0.030746
v -0.023154 0.628596 -0.009779
v 0.018781 0.628596 -0.009779
v 0.018781 0.628596 -0.009779
v -0.002187 0.564945 0.011189
v 0.018781 0.564945 -0.009779
v -0.002187 0.628596 0.011189
v -0.002187 0.628596 0.011189
v -0.023154 0.564945 -0.009779
v -0.002187 0.564945 0.011189
v -0.023154 0.628596 -0.009779
vn 0.7071048811840455 0 -0.7071086811839443
vn 0 -1 0
vn -0.7071070811864759 0 -0.7071064811864919
vn 0.7071048811840455 0 0.7071086811839443
vn -0.7071070811864759 0 0.7071064811864919
vn 0.7071048311837576 2.0749280899355073e-7 0.7071087311839296
vn -0.7071069811864987 2.0749209432239364e-7 0.7071065811865094
vn 0.7071053811851988 0 -0.7071081811851243
vn -0.707107381186277 0 -0.707106181186309
vn 0 1 0
vn 0.7071053811851988 0 0.7071081811851243
vn -0.707107381186277 0 0.707106181186309
vn 0.6829669368356658 0.25905071397184126 -0.6829706368358651
vn 0.6425943174402864 0.4173037113258025 -0.6425964174403432
vn -0.6829704191439309 0.25905080726129676 -0.6829671191438383
vn -0.6425971174391029 0.41730371132498456 -0.6425936174390077
vn -0.6829704078840876 0.25905060299043375 -0.6829672078840505
vn 0.7068051361533655 0.02909218148807688 -0.706809836153606
vn 0.7068051359477404 0.029092191479613838 -0.7068098359479795
vn 0.6829669368356658 0.25905071397184093 0.6829706368358653
vn 0.6425943174402864 0.4173037113258022 0.6425964174403435
vn -0.6829704191439309 0.2590508072612964 0.6829671191438386
vn -0.6425971174391029 0.41730371132498423 0.6425936174390079
vn -0.6829704078840876 0.2590506029904334 0.6829672078840507
vn -0.7068096861962427 0.0290921794318396 -0.7068052861963287
vn -0.7068096859906166 0.029092189423375863 -0.7068052859907038
vn 0.7070896752193601 0.006643782767162379 -0.7070926752192549
vn 0.7070896752146623 0.0066437837671182035 -0.7070926752145571
vn 0.7068050853731819 0.029092219397957482 0.7068098853730825
vn 0.7068050855788071 0.02909220940642126 0.7068098855787092
vn -0.706809585374043 0.029092219397996756 0.7068053853741298
vn -0.7070946752121139 0.006643782767095942 -0.7070876752123594
vn -0.7070946752074161 0.006643783767051767 -0.7070876752076616
vn 0.7071056811857173 1.0578049734245966e-7 -0.7071078811856588
vn 0.7070895253106624 0.006643763237817038 0.7070928253107804
vn 0.7070895253153601 0.006643762237861142 0.7070928253154782
vn -0.7070945253095289 0.006643762237804672 0.7070878253092892
vn -0.7070945253048311 0.006643763237760567 0.7070878253045914
vn -0.7071107811751234 1.057796973409153e-7 -0.7071027811753363
vn 0.7071054811853872 0 -0.7071080811853179
vn 0.7071054811853872 0 0.7071080811853179
vn -0.7071106311762363 0 0.7071029311758967
vn -0.7071106311762363 0 -0.7071029311758967
vn 0.7071053311849929 1.0578050482217632e-7 -0.7071082311851207
vn 0.7071053311849951 7.0520362953103e-8 0.7071082311851229
vn -0.707110481176767 7.051984796575801e-8 0.707103081176964
vn -0.7071104811767648 1.0577979734115707e-7 -0.7071030811769617
vn 0.7071050311843009 1.0578060450806e-7 0.7071085311844553
vn -0.7071101811782788 1.0577979702736547e-7 0.7071033811784599
usemtl material_0_0
f 1//1 2//1 3//1
f 2//1 1//1 4//1
f 5//2 6//2 7//2
f 6//2 5//2 8//2
f 9//3 10//3 11//3
f 10//3 9//3 12//3
f 13//1 4//1 1//1
f 4//1 13//1 14//1
f 15//4 16//4 17//4
f 16//4 15//4 18//4
f 19//5 20//5 21//5
f 20//5 19//5 22//5
f 23//3 11//3 24//3
f 11//3 23//3 9//3
f 25//2 26//2 27//2
f 26//2 25//2 28//2
f 29//6 30//6 31//6
f 30//6 29//6 32//6
f 33//7 34//7 35//7
f 34//7 33//7 36//7
f 27//2 37//2 38//2
f 37//2 27//2 26//2
f 39//8 40//8 41//8
f 40//8 39//8 42//8
f 28//2 43//2 44//2
f 43//2 28//2 25//2
f 37//2 43//2 38//2
f 43//2 37//2 44//2
f 45//9 46//9 47//9
f 46//9 45//9 48//9
f 49//10 50//10 51//10
f 50//10 49//10 52//10
f 53//11 54//11 55//11
f 54//11 53//11 56//11
f 57//12 58//12 59//12
f 58//12 57//12 60//12
f 61//10 50//10 62//10
f 50//10 61//10 51//10
f 63//13 64//14 65//14
f 64//14 63//13 66//13
f 52//10 67//10 68//10
f 67//10 52//10 49//10
f 68//10 61//10 62//10
f 61//10 68//10 67//10
f 69//15 70//16 71//17
f 70//16 69//15 72//16
f 73//18 66//13 63//13
f 66//13 73//18 74//19
f 75//20 76//21 77//21
f 76//21 75//20 78//20
f 79//22 80//23 81//23
f 80//23 79//22 82//24
f 83//25 71//17 84//26
f 71//17 83//25 69//15
f 85//27 74//19 73//18
f 74//19 85//27 86//28
f 87//29 78//20 75//20
f 78//20 87//29 88//30
f 89//31 82//24 79//22
f 82//24 89//31 90//31
f 91//32 84//26 92//33
f 84//26 91//32 83//25
f 93//34 86//28 85//27
f 86//28 93//34 94//34
f 95//35 88//30 87//29
f 88//30 95//35 96//36
f 97//37 90//31 89//31
f 90//31 97//37 98//38
f 99//39 92//33 100//39
f 92//33 99//39 91//32
f 101//40 102//40 103//40
f 102//40 101//40 104//40
f 105//41 96//36 95//35
f 96//36 105//41 106//41
f 107//42 97//37 108//42
f 97//37 107//42 98//38
f 109//43 110//43 111//43
f 110//43 109//43 112//43
f 113//44 114//44 115//44
f 114//44 113//44 116//44
f 117//45 118//45 119//45
f 118//45 117//45 120//45
f 121//46 122//46 123//46
f 122//46 121//46 124//46
f 125//47 126//47 127//47
f 126//47 125//47 128//47
f 129//10 130//10 131//10
f 130//10 129//10 132//10
f 133//48 134//48 135//48
f 134//48 133//48 136//48
f 137//49 138//49 139//49
f 138//49 137//49 140//49
