# SSTK version 0.8.0
# 6
mtllib original-6.mtl
o #ID46
v -0.002187 0.825543 0.492942
v -0.032140 0.853455 0.534106
v -0.032140 0.855143 0.488304
v -0.002187 0.824305 0.527307
v -0.002187 0.809329 0.559731
v -0.032140 0.833538 0.577400
v -0.002187 0.882627 0.540963
v -0.032140 0.855143 0.488304
v -0.032140 0.853455 0.534106
v -0.002187 0.884736 0.483729
v -0.002187 0.804285 0.372020
v -0.032140 0.833784 0.366819
v 0.027767 0.855143 0.488304
v -0.002187 0.824305 0.527307
v -0.002187 0.825543 0.492942
v 0.027767 0.853455 0.534106
v -0.002187 0.809329 0.559731
v 0.027767 0.833538 0.577400
v -0.002187 0.781608 0.584619
v -0.032140 0.796585 0.610559
v -0.032140 0.833538 0.577400
v -0.002187 0.857739 0.595064
v 0.027767 0.853455 0.534106
v -0.002187 0.884736 0.483729
v -0.002187 0.882627 0.540963
v 0.027767 0.855143 0.488304
v -0.032140 0.833784 0.366819
v -0.002187 0.863282 0.361617
v -0.002187 0.783307 0.253043
v -0.032140 0.812805 0.247841
v -0.002187 0.804285 0.372020
v 0.027767 0.833784 0.366819
v -0.002187 0.781608 0.584619
v 0.027767 0.796585 0.610559
v 0.027767 0.833538 0.577400
v -0.002187 0.857739 0.595064
v -0.002187 0.729727 0.614572
v -0.032140 0.744704 0.640513
v -0.032140 0.796585 0.610559
v -0.002187 0.811561 0.636500
v 0.027767 0.833784 0.366819
v -0.002187 0.863282 0.361617
v -0.032140 0.812805 0.247841
v -0.002187 0.842303 0.242640
v -0.032140 0.812805 0.247841
v -0.002187 0.762328 0.134066
v -0.002187 0.783307 0.253043
v -0.032140 0.791826 0.128864
v -0.002187 0.783307 0.253043
v 0.027767 0.812805 0.247841
v 0.027767 0.796585 0.610559
v -0.002187 0.811561 0.636500
v -0.002187 0.729727 0.614572
v 0.027767 0.744704 0.640513
v -0.032140 0.744704 0.640513
v -0.002187 0.759680 0.666453
v -0.002187 0.729727 0.614572
v -0.002187 0.759680 0.666453
v -0.032140 0.744704 0.640513
v 0.027767 0.744704 0.640513
v 0.027767 0.812805 0.247841
v -0.002187 0.842303 0.242640
v -0.002187 0.842303 0.242640
v -0.032140 0.791826 0.128864
v -0.032140 0.812805 0.247841
v -0.002187 0.821324 0.123663
v -0.032140 0.791826 0.128864
v -0.002187 0.741349 0.015089
v -0.002187 0.762328 0.134066
v -0.032140 0.770847 0.009887
v -0.002187 0.762328 0.134066
v 0.027767 0.812805 0.247841
v -0.002187 0.783307 0.253043
v 0.027767 0.791826 0.128864
v 0.027767 0.744704 0.640513
v -0.002187 0.759680 0.666453
v 0.027767 0.791826 0.128864
v -0.002187 0.842303 0.242640
v 0.027767 0.812805 0.247841
v -0.002187 0.821324 0.123663
v -0.002187 0.821324 0.123663
v -0.032140 0.770847 0.009887
v -0.032140 0.791826 0.128864
v -0.002187 0.800346 0.004686
v -0.032140 0.770847 0.009887
v 0.027767 0.770847 0.009887
v -0.002187 0.741349 0.015089
v -0.002187 0.800346 0.004686
v -0.002187 0.741349 0.015089
v 0.027767 0.791826 0.128864
v -0.002187 0.762328 0.134066
v 0.027767 0.770847 0.009887
v 0.027767 0.770847 0.009887
v -0.002187 0.821324 0.123663
v 0.027767 0.791826 0.128864
v -0.002187 0.800346 0.004686
vt -0.1852379 0.7654736
vt -0.1435894 0.8047292
vt -0.1887092 0.807093
vt -0.1513855 0.7637201
vt -0.2595211 0.9662267
vt -0.2478854 0.9090713
vt -0.220271 0.940412
vt -0.2772811 0.9284496
vt -0.1091936 1.352428
vt -0.1621746 1.31378
vt -0.1170553 1.311407
vt -0.1655748 1.355394
vt -0.1124251 0.8162164
vt -0.2203381 0.7463569
vt -0.1028821 0.7755574
vt -0.2304277 0.7868779
vt 0.1600849 1.355693
vt 0.1227613 1.31232
vt 0.1566137 1.314074
vt 0.1149652 1.353329
vt -0.05438014 1.368269
vt -0.0427445 1.425424
vt -0.08199453 1.399609
vt -0.02498451 1.387647
vt -0.2849529 1.195125
vt -0.2971619 1.136866
vt -0.2589339 1.15367
vt -0.3166907 1.167968
vt 0.03710865 1.428007
vt 0.05857249 1.364422
vt 0.08616908 1.395769
vt 0.01931179 1.39022
vt 0.1459063 0.7629087
vt 0.1944257 0.8068956
vt 0.1380445 0.8039299
vt 0.1910255 0.7652819
vt -0.2431419 1.344387
vt -0.3516629 1.274386
vt -0.2336603 1.303725
vt -0.3617527 1.314907
vt -0.2302299 0.7868821
vt -0.3356828 0.717549
vt -0.2201263 0.7463646
vt -0.3457864 0.7580666
vt 0.3516471 1.274515
vt 0.2437341 1.344374
vt 0.2341911 1.303715
vt 0.3617368 1.315036
vt -0.1687357 1.429329
vt -0.1809447 1.487588
vt -0.2069637 1.446133
vt -0.1492069 1.460431
vt 0.2432418 0.9051157
vt 0.2647056 0.9687008
vt 0.2156452 0.9364627
vt 0.2825025 0.9309143
vt -0.2742592 1.272692
vt -0.2905992 1.202235
vt -0.2519385 1.218018
vt -0.3129199 1.256909
vt 0.1769734 1.492294
vt 0.171255 1.423689
vt 0.209484 1.44049
vt 0.1452383 1.465145
vt 0.2203514 0.7461456
vt 0.1118303 0.8161458
vt 0.1023487 0.7754844
vt 0.2304411 0.7866666
vt -0.3619135 1.314961
vt -0.4673664 1.245627
vt -0.3518098 1.274443
vt -0.47747 1.286145
vt -0.4512392 0.6887334
vt -0.4613428 0.729251
vt 0.4673664 1.245627
vt 0.3619135 1.314961
vt 0.3518099 1.274443
vt 0.47747 1.286145
vt 0.2947161 1.131259
vt 0.2889976 1.199865
vt 0.256487 1.148061
vt 0.3207328 1.172716
vt -0.2132779 1.407941
vt -0.2296178 1.478399
vt -0.2519385 1.423724
vt -0.1909572 1.462616
vt 0.2296178 1.478399
vt 0.2132779 1.407941
vt 0.2519385 1.423724
vt 0.1909571 1.462616
vt 0.3848423 0.64698
vt 0.3848423 0.7060351
vt 0.3553147 0.6765076
vt 0.4143698 0.6765076
vt 0.3356828 0.717549
vt 0.2302299 0.7868821
vt 0.2201263 0.7463646
vt 0.3457864 0.7580665
vt -0.5829228 1.216812
vt -0.5930265 1.257329
vt -0.4613428 0.7292527
vt -0.5667957 0.6599194
vt -0.4512392 0.6887351
vt -0.5768993 0.7004371
vt 0.5829228 1.216812
vt 0.5930264 1.257329
vt 0.2905992 1.202235
vt 0.2742593 1.272692
vt 0.2519385 1.218018
vt 0.3129199 1.256909
vt 0.4512392 0.6887336
vt 0.3457864 0.7580667
vt 0.3356828 0.7175492
vt 0.4613429 0.7292511
vt -0.6984793 1.187996
vt -0.7085829 1.228514
vt -0.3553147 1.513849
vt -0.4143698 1.513849
vt -0.3848423 1.484321
vt -0.3848423 1.543376
vt 0.6984794 1.187997
vt 0.5930265 1.25733
vt 0.5829229 1.216813
vt 0.708583 1.228515
vt 0.5667957 0.659918
vt 0.5768993 0.7004355
vn -0.7056228275209135 -0.7071214275793625 0.04555998177694394
vn -0.7071347141475135 -0.687854213761772 -0.16375920327630028
vn -0.7058840941561269 -0.7064626941513368 0.051362509574779905
vn -0.7071335103234598 -0.6877079100398651 -0.16437770239975436
vn -0.7070962896310163 -0.5688324916585407 -0.420052893840271
vn -0.7070973098267753 -0.5692309079107982 -0.4195111058300907
vn -0.7072664149760554 0.6877204145621774 0.16375240346738532
vn -0.7056403391382472 0.7071080392196529 -0.04549651252345783
vn -0.7072658041574604 0.68762880404203 0.16413930096484625
vn -0.7058874846557901 0.7064723846430758 -0.051182308887425795
vn -0.7071152213676294 -0.6963871210434472 0.12260930370501152
vn 0.7058841451118852 -0.7064626451488563 0.05136248328249098
vn 0.7071335103234598 -0.6877079100398651 -0.16437770239975436
vn 0.7056228783735159 -0.7071213783275887 0.045559958603642446
vn 0.7071347141475135 -0.687854213761772 -0.16375920327630028
vn 0.7070962896310163 -0.5688324916585407 -0.420052893840271
vn 0.7070973098267753 -0.5692309079107982 -0.4195111058300907
vn -0.7050287082558192 -0.4193629049106997 -0.5718997066968914
vn -0.7053870275073965 -0.4135628161273681 -0.5756691224488943
vn -0.707193409177316 0.5688560073820984 0.41985750544853084
vn -0.7071949095703626 0.5692302077033069 0.419347505674967
vn 0.7072658041574604 0.68762880404203 0.16413930096484625
vn 0.7058874850170795 0.7064723850046647 -0.05118229891362229
vn 0.7072664149760554 0.6877204145621774 0.16375240346738532
vn 0.7056402898839337 0.7071080898628913 -0.04549648934776171
vn -0.7070627191612266 0.6964418188734028 -0.12260140332246787
vn -0.7071065804352203 -0.6963644807324413 0.12278759660261629
vn 0.7071152800363186 -0.6963870803392033 0.12260919653842717
vn 0.7071153206090248 -0.6963870202963462 0.12260930357347381
vn 0.7050287082558192 -0.4193629049106997 -0.5718997066968914
vn 0.7053870275073965 -0.4135628161273681 -0.5756691224488943
vn 0.707193409177316 0.5688560073820984 0.41985750544853084
vn 0.7071949095703626 0.5692302077033069 0.419347505674967
vn -0.7071067121917254 -0.3535527060958514 -0.6123729105583532
vn -0.7049966199222143 0.41935301185032703 0.5719465161624054
vn -0.7053574980266812 0.4135566988430274 0.575709698389386
vn 0.7070626199121811 0.6964419196130827 -0.12260140345268039
vn 0.7070626112434906 0.6964419110746034 -0.12260150194957095
vn -0.7071066709932334 0.6963643714339015 -0.12278769496303138
vn -0.7071066209932145 -0.6963644206742904 0.12278770364543114
vn 0.7071066709932334 -0.6963643714339015 0.12278769496303138
vn 0.7049966199222143 0.41935301185032703 0.5719465161624054
vn 0.7053574980266812 0.4135566988430274 0.575709698389386
vn 0.7071067121917254 -0.3535527060958514 -0.6123729105583532
vn -0.7071067121917254 0.3535527060958514 0.6123729105583532
vn 0 -0.8660254028383291 0.5000000016387098
vn 0.7071066209932145 0.6963644206742904 -0.12278770364543114
vn -0.7071074967915316 -0.6963634968402821 0.1227878994428553
vn 0.7071066209932145 -0.6963644206742904 0.12278770364543114
vn 0.7071067121917254 0.3535527060958514 0.6123729105583532
vn 0.7071066709932334 0.6963643714339015 -0.12278769496303138
vn 0 -0.17364720434376293 -0.9848079246348475
vn 0.7071074967915316 -0.6963634968402821 0.1227878994428553
usemtl material_0_0
f 1/1/1 2/2/2 3/3/3
f 2/2/2 1/1/1 4/4/4
f 2/5/2 5/6/5 6/7/6
f 5/6/5 2/5/2 4/8/4
f 7/9/7 8/10/8 9/11/9
f 8/10/8 7/9/7 10/12/10
f 3/13/3 11/14/11 1/15/1
f 11/14/11 3/13/3 12/16/11
f 13/17/12 14/18/13 15/19/14
f 14/18/13 13/17/12 16/20/15
f 17/21/16 16/22/15 18/23/17
f 16/22/15 17/21/16 14/24/13
f 6/25/6 19/26/18 20/27/19
f 19/26/18 6/25/6 5/28/5
f 7/29/7 21/30/20 22/31/21
f 21/30/20 7/29/7 9/32/9
f 23/33/22 24/34/23 25/35/24
f 24/34/23 23/33/22 26/36/25
f 10/37/10 27/38/26 8/39/8
f 27/38/26 10/37/10 28/40/26
f 12/41/11 29/42/27 11/43/11
f 29/42/27 12/41/11 30/44/27
f 31/45/28 13/46/12 15/47/14
f 13/46/12 31/45/28 32/48/29
f 33/49/30 18/50/17 34/51/31
f 18/50/17 33/49/30 17/52/16
f 35/53/32 25/54/24 36/55/33
f 25/54/24 35/53/32 23/56/22
f 20/57/19 37/58/34 38/59/34
f 37/58/34 20/57/19 19/60/18
f 22/61/21 39/62/35 40/63/36
f 39/62/35 22/61/21 21/64/20
f 41/65/37 24/66/23 26/67/25
f 24/66/23 41/65/37 42/68/38
f 28/69/26 43/70/39 27/71/26
f 43/70/39 28/69/26 44/72/39
f 45/44/40 46/73/40 47/42/40
f 46/73/40 45/44/40 48/74/40
f 49/75/41 32/76/29 31/77/28
f 32/76/29 49/75/41 50/78/41
f 51/79/42 36/80/33 52/81/43
f 36/80/33 51/79/42 35/82/32
f 53/83/44 34/84/31 54/85/44
f 34/84/31 53/83/44 33/86/30
f 40/87/36 55/88/45 56/89/45
f 55/88/45 40/87/36 39/90/35
f 57/91/46 58/92/46 59/93/46
f 58/92/46 57/91/46 60/94/46
f 61/95/47 42/96/38 41/97/37
f 42/96/38 61/95/47 62/98/47
f 63/72/39 64/99/39 65/70/39
f 64/99/39 63/72/39 66/100/39
f 67/101/48 68/102/48 69/103/48
f 68/102/48 67/101/48 70/104/48
f 71/105/49 72/78/49 73/75/49
f 72/78/49 71/105/49 74/106/49
f 75/107/50 52/108/43 76/109/50
f 52/108/43 75/107/50 51/110/42
f 77/111/51 78/112/51 79/113/51
f 78/112/51 77/111/51 80/114/51
f 81/100/39 82/115/39 83/99/39
f 82/115/39 81/100/39 84/116/39
f 85/117/52 86/118/52 87/119/52
f 86/118/52 85/117/52 88/120/52
f 89/121/53 90/122/53 91/123/53
f 90/122/53 89/121/53 92/124/53
f 93/125/51 94/114/51 95/111/51
f 94/114/51 93/125/51 96/126/51
