# SSTK version 0.8.0
# 4
mtllib original-4.mtl
o #ID34
v -0.002187 0.319077 -0.060942
v 0.048977 0.265550 -0.009779
v -0.002187 0.265550 -0.060942
v 0.048977 0.319077 -0.009779
v -0.002187 0.265550 -0.060942
v -0.002186 0.265550 0.041385
v -0.053350 0.265550 -0.009779
v 0.048977 0.265550 -0.009779
v -0.053350 0.319077 -0.009779
v -0.002187 0.265550 -0.060942
v -0.053350 0.265550 -0.009779
v -0.002187 0.319077 -0.060942
v 0.037994 0.319077 -0.009779
v -0.002187 0.319077 -0.060942
v -0.002187 0.319077 -0.049959
v 0.048977 0.319077 -0.009779
v 0.048977 0.265550 -0.009779
v -0.002186 0.319077 0.041385
v -0.002186 0.265550 0.041385
v 0.048977 0.319077 -0.009779
v -0.002186 0.319077 0.041385
v -0.053350 0.265550 -0.009779
v -0.002186 0.265550 0.041385
v -0.053350 0.319077 -0.009779
v -0.042367 0.319077 -0.009779
v -0.053350 0.319077 -0.009779
v -0.002187 0.537737 -0.049959
v 0.037994 0.319077 -0.009779
v -0.002187 0.319077 -0.049959
v 0.037994 0.537737 -0.009779
v -0.002186 0.319077 0.030402
v -0.002186 0.319077 0.041385
v -0.042367 0.537737 -0.009779
v -0.002187 0.319077 -0.049959
v -0.042367 0.319077 -0.009779
v -0.002187 0.537737 -0.049959
v 0.030263 0.537737 -0.009779
v -0.002187 0.537737 -0.049959
v -0.002187 0.537737 -0.042228
v 0.037994 0.537737 -0.009779
v 0.037994 0.319077 -0.009779
v -0.002187 0.537737 0.030402
v -0.002186 0.319077 0.030402
v 0.037994 0.537737 -0.009779
v -0.042367 0.537737 -0.009779
v -0.002186 0.319077 0.030402
v -0.002187 0.537737 0.030402
v -0.042367 0.319077 -0.009779
v -0.034636 0.537737 -0.009779
v -0.042367 0.537737 -0.009779
v 0.030263 0.537737 -0.009779
v -0.002186 0.628596 -0.042228
v 0.030263 0.628596 -0.009779
v -0.002187 0.537737 -0.042228
v -0.002187 0.537737 0.022671
v -0.002187 0.537737 0.030402
v -0.034636 0.628596 -0.009779
v -0.002187 0.537737 -0.042228
v -0.034636 0.537737 -0.009779
v -0.002186 0.628596 -0.042228
v -0.002187 0.628596 0.022671
v -0.002186 0.628596 -0.042228
v -0.034636 0.628596 -0.009779
v 0.030263 0.628596 -0.009779
v 0.030263 0.628596 -0.009779
v -0.002187 0.537737 0.022671
v 0.030263 0.537737 -0.009779
v -0.002187 0.628596 0.022671
v -0.034636 0.628596 -0.009779
v -0.002187 0.537737 0.022671
v -0.002187 0.628596 0.022671
v -0.034636 0.537737 -0.009779
vn 0.707105331184997 0 -0.7071082311851248
vn 0 -1 0
vn -0.707107881185657 -1.257856964961534e-7 -0.7071056811857155
vn 0 1 0
vn 0.7071078311858142 0 0.7071057311857215
vn -0.7071052811849908 1.2578609649601137e-7 0.707108281184911
vn 0.70710558118556 6.15845585183872e-8 -0.707107981185496
vn -0.7071084811844573 -6.158430820428617e-8 -0.7071050811845478
vn 0.7071072811862917 4.310915883731169e-7 0.7071062811863184
vn -0.7071071311864106 -4.3109141916996123e-7 0.7071064311863797
vn 0.7071086311838285 -0.0000010374640455956513 -0.7071049311836654
vn -0.7071047811833355 0.0000011115609705774193 -0.7071087811832291
vn 0.7071065811865167 -1.482085962137283e-7 0.7071069811865061
vn -0.707107081186474 7.410426787134805e-8 0.70710648118649
usemtl material_0_0
f 1//1 2//1 3//1
f 2//1 1//1 4//1
f 5//2 6//2 7//2
f 6//2 5//2 8//2
f 9//3 10//3 11//3
f 10//3 9//3 12//3
f 13//4 14//4 15//4
f 14//4 13//4 16//4
f 17//5 18//5 19//5
f 18//5 17//5 20//5
f 21//6 22//6 23//6
f 22//6 21//6 24//6
f 25//4 14//4 26//4
f 14//4 25//4 15//4
f 27//7 28//7 29//7
f 28//7 27//7 30//7
f 16//4 31//4 32//4
f 31//4 16//4 13//4
f 32//4 25//4 26//4
f 25//4 32//4 31//4
f 33//8 34//8 35//8
f 34//8 33//8 36//8
f 37//4 38//4 39//4
f 38//4 37//4 40//4
f 41//9 42//9 43//9
f 42//9 41//9 44//9
f 45//10 46//10 47//10
f 46//10 45//10 48//10
f 49//4 38//4 50//4
f 38//4 49//4 39//4
f 51//11 52//11 53//11
f 52//11 51//11 54//11
f 40//4 55//4 56//4
f 55//4 40//4 37//4
f 56//4 49//4 50//4
f 49//4 56//4 55//4
f 57//12 58//12 59//12
f 58//12 57//12 60//12
f 61//4 62//4 63//4
f 62//4 61//4 64//4
f 65//13 66//13 67//13
f 66//13 65//13 68//13
f 69//14 70//14 71//14
f 70//14 69//14 72//14
