# SSTK version 0.8.0
# 9
mtllib original-9.mtl
o #ID70
v -0.029644 -0.562293 -0.009779
v -0.002186 -0.603854 0.017679
v -0.002186 -0.575274 0.017679
v -0.029644 -0.590008 -0.009779
v -0.029644 -0.479149 -0.009779
v -0.002186 -0.575274 0.017679
v -0.002186 -0.489534 0.017679
v -0.029644 -0.562293 -0.009779
v -0.002186 -0.575273 -0.037236
v -0.029644 -0.590008 -0.009779
v -0.029644 -0.562293 -0.009779
v -0.002186 -0.603854 -0.037236
v 0.025271 -0.590008 -0.009779
v -0.002186 -0.603854 0.017679
v -0.029644 -0.590008 -0.009779
v 0.025271 -0.590008 -0.009779
v -0.002186 -0.575274 0.017679
v -0.002186 -0.603854 0.017679
v 0.025271 -0.562293 -0.009779
v -0.002186 -0.575274 0.017679
v 0.025271 -0.479149 -0.009779
v -0.002186 -0.489534 0.017679
v 0.025271 -0.562293 -0.009779
v -0.002186 -0.375214 0.017679
v -0.029644 -0.479149 -0.009779
v -0.002186 -0.489534 0.017679
v -0.029644 -0.368290 -0.009779
v -0.029644 -0.562293 -0.009779
v -0.002186 -0.489533 -0.037236
v -0.002186 -0.575273 -0.037236
v -0.029644 -0.479149 -0.009779
v -0.002186 -0.603854 -0.037236
v 0.025271 -0.562293 -0.009779
v 0.025271 -0.590008 -0.009779
v -0.002186 -0.575273 -0.037236
v 0.025271 -0.590008 -0.009779
v -0.029644 -0.590008 -0.009779
v -0.002186 -0.603854 -0.037236
v -0.002186 -0.489533 -0.037236
v 0.025271 -0.562293 -0.009779
v -0.002186 -0.575273 -0.037236
v 0.025271 -0.479149 -0.009779
v 0.025271 -0.479149 -0.009779
v -0.002186 -0.375214 0.017679
v -0.002186 -0.489534 0.017679
v 0.025271 -0.368290 -0.009779
v -0.029644 -0.368290 -0.009779
v -0.002186 -0.489533 -0.037236
v -0.029644 -0.479149 -0.009779
v -0.002186 -0.375214 -0.037236
v -0.029644 -0.257432 -0.009779
v -0.002186 -0.375214 0.017679
v -0.002186 -0.260894 0.017679
v -0.029644 -0.368290 -0.009779
v -0.002186 -0.489533 -0.037236
v 0.025271 -0.368290 -0.009779
v 0.025271 -0.479149 -0.009779
v -0.002186 -0.375214 -0.037236
v -0.002186 -0.375214 0.017679
v 0.025271 -0.257432 -0.009779
v -0.002186 -0.260894 0.017679
v 0.025271 -0.368290 -0.009779
v -0.029644 -0.368290 -0.009779
v -0.002186 -0.260893 -0.037236
v -0.002186 -0.375214 -0.037236
v -0.029644 -0.257432 -0.009779
v -0.029644 -0.146573 -0.009779
v -0.002186 -0.260894 0.017679
v -0.002186 -0.146573 0.017679
v -0.029644 -0.257432 -0.009779
v -0.002186 -0.260893 -0.037236
v 0.025271 -0.368290 -0.009779
v -0.002186 -0.375214 -0.037236
v 0.025271 -0.257432 -0.009779
v -0.002186 -0.260894 0.017679
v 0.025271 -0.146573 -0.009779
v -0.002186 -0.146573 0.017679
v 0.025271 -0.257432 -0.009779
v -0.029644 -0.257432 -0.009779
v -0.002186 -0.146573 -0.037236
v -0.002186 -0.260893 -0.037236
v -0.029644 -0.146573 -0.009779
v -0.002186 -0.146573 0.017679
v -0.002186 -0.146573 -0.037236
v -0.029644 -0.146573 -0.009779
v 0.025271 -0.146573 -0.009779
v -0.002186 -0.146573 -0.037236
v 0.025271 -0.257432 -0.009779
v -0.002186 -0.260893 -0.037236
v 0.025271 -0.146573 -0.009779
vt -0.2183848 0.10889
vt -0.1801064 0.06792035
vt -0.1801064 0.09609399
vt -0.2183848 0.08156945
vt -0.2183848 0.1908519
vt -0.1801064 0.09609387
vt -0.1801064 0.1806149
vt -0.2183849 0.1088899
vt -0.7626343 0.09609408
vt -0.7243559 0.08156924
vt -0.7243559 0.1088898
vt -0.7626343 0.06792028
vt -0.4119094 0.6319485
vt -0.3848424 0.6016349
vt -0.3577755 0.6319485
vt 0.7626342 0.08156945
vt 0.7243558 0.09609399
vt 0.7243558 0.06792035
vt 0.7626342 0.10889
vt 0.7243558 0.09609396
vt 0.7626342 0.1908519
vt 0.7243558 0.180615
vt -0.1801064 0.2933102
vt -0.2183847 0.1908522
vt -0.1801063 0.1806153
vt -0.2183848 0.3001349
vt -0.7243558 0.10889
vt -0.7626342 0.1806153
vt -0.7626342 0.09609425
vt -0.7243558 0.1908519
vt 0.2183851 0.06791976
vt 0.1801067 0.1088893
vt 0.1801067 0.08156871
vt 0.2183851 0.09609355
vt 0.4119094 -0.5584952
vt 0.3577755 -0.5584952
vt 0.3848424 -0.5888088
vt 0.2183848 0.1806152
vt 0.1801064 0.1088899
vt 0.2183848 0.09609417
vt 0.1801064 0.1908518
vt 0.7626342 0.190852
vt 0.7243558 0.29331
vt 0.7243558 0.1806151
vt 0.7626342 0.3001347
vt -0.7243558 0.3001347
vt -0.7626342 0.1806154
vt -0.7243558 0.190852
vt -0.7626342 0.2933102
vt -0.2183848 0.4094171
vt -0.1801064 0.2933098
vt -0.1801064 0.4060047
vt -0.2183849 0.3001345
vt 0.2183849 0.1806156
vt 0.1801065 0.3001349
vt 0.1801064 0.1908522
vt 0.2183849 0.2933104
vt 0.7243558 0.2933099
vt 0.7626342 0.4094171
vt 0.7243558 0.4060048
vt 0.7626342 0.3001346
vt -0.7243558 0.3001346
vt -0.7626342 0.4060049
vt -0.7626342 0.2933101
vt -0.7243558 0.4094171
vt -0.2183848 0.5186996
vt -0.1801064 0.5186996
vt 0.2183848 0.4060049
vt 0.1801064 0.3001345
vt 0.2183848 0.29331
vt 0.1801064 0.4094171
vt 0.7626342 0.5186997
vt 0.7243558 0.5186997
vt -0.7243556 0.4094171
vt -0.762634 0.5186996
vt -0.7626341 0.4060049
vt -0.7243556 0.5186996
vt 0.3848424 0.6395513
vt 0.3848424 0.6936851
vt 0.3577755 0.6666183
vt 0.4119094 0.6666183
vt 0.2183842 0.5186994
vt 0.1801059 0.4094169
vt 0.2183843 0.4060047
vt 0.1801059 0.5186994
vn -0.7071067811865476 0 0.7071067811865476
vn -0.707106831186539 -1.594332071887189e-7 0.7071067311865346
vn -0.7071070311861808 9.71304842995345e-7 -0.7071065311861586
vn 0 -0.8928960241383683 -0.4502629121723157
vn 0.7071067811865476 0 0.7071067811865476
vn 0.707106831186539 -1.594332071887189e-7 0.7071067311865346
vn -0.7071067311864979 3.5872451566431004e-7 0.7071068311865024
vn -0.7071067311865346 1.5943320718871892e-7 -0.707106831186539
vn 0.7071070311861808 9.71304842995345e-7 -0.7071065311861586
vn 0 -0.8928985411560789 0.45025792075359
vn 0.7071067311865346 1.5943320718871892e-7 -0.707106831186539
vn 0.7071067311864979 3.5872451566431004e-7 0.7071068311865024
vn -0.7071068311865024 -3.587247156643189e-7 -0.7071067311864979
vn -0.7071067811865425 -1.1957489697557002e-7 0.7071067811865425
vn 0.7071068311865024 -3.587247156643189e-7 -0.7071067311864979
vn 0.7071067811865425 -1.1957489697557002e-7 0.7071067811865425
vn -0.7071067811865425 1.1957489697557002e-7 -0.7071067811865425
vn 0.7071067811865425 1.1957489697557002e-7 -0.7071067811865425
vn -0.7071062811863377 3.6240129051475943e-7 -0.707107281186311
vn 0 1 0
vn 0.7071062811863377 3.6240129051475943e-7 -0.707107281186311
usemtl material_0_0
f 1/1/1 2/2/1 3/3/1
f 2/2/1 1/1/1 4/4/1
f 5/5/2 6/6/2 7/7/2
f 6/6/2 5/5/2 8/8/2
f 9/9/3 10/10/3 11/11/3
f 10/10/3 9/9/3 12/12/3
f 13/13/4 14/14/4 15/15/4
f 16/16/5 17/17/5 18/18/5
f 17/17/5 16/16/5 19/19/5
f 20/20/6 21/21/6 22/22/6
f 21/21/6 20/20/6 23/19/6
f 24/23/7 25/24/7 26/25/7
f 25/24/7 24/23/7 27/26/7
f 28/27/8 29/28/8 30/29/8
f 29/28/8 28/27/8 31/30/8
f 32/31/9 33/32/9 34/33/9
f 33/32/9 32/31/9 35/34/9
f 36/35/10 37/36/10 38/37/10
f 39/38/11 40/39/11 41/40/11
f 40/39/11 39/38/11 42/41/11
f 43/42/12 44/43/12 45/44/12
f 44/43/12 43/42/12 46/45/12
f 47/46/13 48/47/13 49/48/13
f 48/47/13 47/46/13 50/49/13
f 51/50/14 52/51/14 53/52/14
f 52/51/14 51/50/14 54/53/14
f 55/54/15 56/55/15 57/56/15
f 56/55/15 55/54/15 58/57/15
f 59/58/16 60/59/16 61/60/16
f 60/59/16 59/58/16 62/61/16
f 63/62/17 64/63/17 65/64/17
f 64/63/17 63/62/17 66/65/17
f 67/66/14 68/52/14 69/67/14
f 68/52/14 67/66/14 70/50/14
f 71/68/18 72/69/18 73/70/18
f 72/69/18 71/68/18 74/71/18
f 75/60/16 76/72/16 77/73/16
f 76/72/16 75/60/16 78/59/16
f 79/74/19 80/75/19 81/76/19
f 80/75/19 79/74/19 82/77/19
f 83/78/20 84/79/20 85/80/20
f 84/79/20 83/78/20 86/81/20
f 87/82/21 88/83/21 89/84/21
f 88/83/21 87/82/21 90/85/21
