# SSTK version 0.8.0
# 7
mtllib original-7.mtl
o #ID54
v -0.278236 0.346135 -0.285828
v -0.002187 0.251775 -0.400171
v -0.278236 0.251775 -0.285828
v -0.002187 0.346135 -0.400171
v -0.392579 0.251775 -0.009779
v -0.392579 0.346135 -0.009779
v -0.278236 0.450504 -0.285828
v -0.002187 0.450504 -0.400171
v 0.273863 0.251775 -0.285828
v 0.273863 0.346135 -0.285828
v -0.002187 0.251775 -0.400171
v 0.388206 0.251775 -0.009779
v -0.278236 0.251775 -0.285828
v 0.273863 0.251775 -0.285828
v -0.278236 0.251775 0.266271
v -0.278236 0.346135 0.266271
v -0.392579 0.450504 -0.009779
v 0.273863 0.251775 0.266271
v -0.392579 0.251775 -0.009779
v -0.161568 0.450473 -0.169160
v -0.002187 0.450504 -0.400171
v -0.278236 0.450504 -0.285828
v -0.002187 0.450473 -0.235178
v 0.273863 0.450504 -0.285828
v 0.388206 0.346135 -0.009779
v 0.388206 0.251775 -0.009779
v -0.002186 0.346135 0.380614
v -0.002186 0.251775 0.380614
v -0.278236 0.450504 0.266271
v -0.278236 0.251775 0.266271
v -0.002186 0.251775 0.380614
v -0.227586 0.450473 -0.009779
v -0.392579 0.450504 -0.009779
v 0.273863 0.346135 0.266271
v 0.273863 0.251775 0.266271
v -0.002187 0.450473 -0.009779
v 0.157195 0.450473 -0.169160
v 0.273863 0.450504 -0.285828
v 0.388206 0.450504 -0.009779
v -0.002186 0.450504 0.380614
v -0.278236 0.450504 0.266271
v -0.161568 0.450473 0.149603
v 0.273863 0.450504 0.266271
v 0.223213 0.450473 -0.009779
v 0.388206 0.450504 -0.009779
v -0.002186 0.450504 0.380614
v -0.002186 0.450473 0.215621
v 0.273863 0.450504 0.266271
v 0.157195 0.450473 0.149603
vt -0.4633791 1.004404
vt -0.7579247 0.9113845
vt -0.4633791 0.9113845
vt -0.7579247 1.004404
vt -0.9104207 1.004404
vt -0.615875 0.9113846
vt -0.615875 1.004404
vt -0.9104207 0.9113846
vt -0.4633792 1.107289
vt -0.4633792 1.004404
vt -0.7579247 1.107289
vt 0.04682822 1.004404
vt -0.2477176 0.9113844
vt 0.04682822 0.9113844
vt -0.2477176 1.004404
vt -0.3848423 1.051461
vt -0.7696849 0.6666183
vt -0.1127177 0.938743
vt -0.6569672 0.9387431
vt -0.3213294 0.9113846
vt -0.3213294 1.004404
vt -0.9104207 1.107289
vt -0.615875 1.107289
vt -0.6569672 0.3944936
vt 0 0.6666183
vt 0.2276414 0.8239403
vt 0.3847567 1.051667
vt 0.1126321 0.9389495
vt 0.3847567 0.8890197
vt 0.04682829 1.107289
vt -0.2477175 1.004404
vt 0.04682829 1.004404
vt -0.2477175 1.107289
vt 0.6158754 0.9113846
vt 0.3213296 1.004404
vt 0.3213296 0.9113846
vt 0.6158754 1.004404
vt 0.2477173 1.004404
vt -0.04682856 0.9113848
vt 0.2477173 0.9113848
vt -0.04682856 1.004404
vt -0.3213294 1.107289
vt -0.1127177 0.3944935
vt -0.3848426 0.2817757
vt 0.162441 0.6667038
vt 0.1125112 0.9388286
vt -0.0002065337 0.6667038
vt 0.2275204 0.8238193
vt 0.9104206 0.9113846
vt 0.615875 1.004404
vt 0.6158749 0.9113846
vt 0.9104206 1.004404
vt 0.3848423 0.8888132
vt 0.2277269 0.8237338
vt 0.3848423 0.6666183
vt 0.5420435 0.8239403
vt 0.3849278 1.051667
vt 0.3849278 0.8890197
vt 0.6570527 0.9389496
vt 0.6158753 1.004404
vt 0.3213296 1.107289
vt 0.6158753 1.107289
vt 0.7579247 1.004404
vt 0.4633791 0.9113847
vt 0.7579247 0.9113847
vt 0.4633792 1.004404
vt 0.2477173 1.107289
vt -0.04682846 1.004404
vt 0.2477174 1.004404
vt -0.04682846 1.107289
vt 0.1125112 0.394408
vt 0.162441 0.6665327
vt -0.0002065337 0.6665327
vt 0.2275204 0.5094172
vt 0.1626476 0.6666183
vt 0.9104206 1.107289
vt 0.6158749 1.107289
vt 0.5419579 0.8237338
vt 0.6072438 0.6667038
vt 0.6571737 0.9388286
vt 0.5421645 0.8238193
vt 0.7698914 0.6667038
vt 0.7579247 1.107289
vt 0.4633791 1.004404
vt 0.4633792 1.107289
vt 0.384757 0.2815693
vt 0.2276414 0.5092963
vt 0.1126321 0.394287
vt 0.384757 0.4442169
vt 0.2277269 0.5095028
vt 0.6571737 0.394408
vt 0.6072438 0.6665327
vt 0.5421645 0.5094173
vt 0.7698914 0.6665327
vt 0.6070373 0.6666183
vt 0.6570527 0.394287
vt 0.3849281 0.4442169
vt 0.3849281 0.2815693
vt 0.5420435 0.5092963
vt 0.3848426 0.4444234
vt 0.5419579 0.5095028
vn -0.707106981186512 7.135386825854803e-8 -0.7071065811865227
vn -3.128935999999783e-7 2.0181930022203062e-7 -1
vn -0.7071068811865306 1.4270779636008854e-7 -0.707106681186536
vn -3.128935999999831e-7 1.0090960022203917e-7 -1
vn -1 4.179811999999996e-8 1.2195319999999999e-8
vn -1 2.0899059999999997e-8 6.0976600000000035e-9
vn -0.7071069311865382 0 -0.7071066311865251
vn -3.128935999999847e-7 0 -1
vn 0.707106681186536 1.427077963600886e-7 -0.7071068811865306
vn 0.7071067811865457 7.135388825855041e-8 -0.7071067811865457
vn 0 -1 0
vn -0.7071068311865335 2.018193087441134e-7 0.707106731186529
vn -0.7071067811865345 1.9214349473077132e-7 0.7071067811865345
vn -1 0 0
vn 0.00008243187943987464 0.999999993204991 0.00008243180944009715
vn 0 0.9999999826047722 0.00018652199675562935
vn 0.00013189099770572675 0.9999999826047777 0.00013189089770595052
vn 0 0.9999999932049948 0.00011657619920808616
vn 0.7071067311865435 0 -0.7071068311865479
vn 1 2.2902979999999878e-8 9.146488999999959e-8
vn 1 8.359622999999929e-8 9.75625499999992e-8
vn 2.834515999999671e-7 3.8912479977791027e-7 1
vn 2.8345159999995256e-7 5.045481997778709e-7 1
vn -0.7071067811865357 1.8246769498820845e-7 0.7071067811865357
vn 0.00011657629920786209 0.9999999932049832 0
vn 0.0001865219967554073 0.9999999826047722 0
vn 0.7071070311865004 1.9898520861910535e-7 0.7071065311864783
vn 0.707106981186472 3.445269906763889e-7 0.7071065811864826
vn 0 1 0
vn -0.00008243184943987477 0.9999999932049901 0.00008243184944009682
vn -0.00013189089770572848 0.9999999826047777 0.0001318909977059488
vn 1 -3.7790269999999864e-8 8.536723999999963e-8
vn 2.83451599999978e-7 2.737014997779342e-7 1
vn 0.00013189089770572848 0.9999999826047777 -0.0001318909977055047
vn 0.0000824318494398747 0.9999999932049894 -0.0000824318594396526
vn 0.7071068811865368 5.3443548421058305e-8 0.7071066811865421
vn -0.00011657629920786209 0.9999999932049832 0
vn -0.0001865219967554073 0.9999999826047722 0
vn 0 0.9999999826047722 -0.00018652199675518526
vn 0 0.9999999932049832 -0.00011657629920764005
vn -0.00013189099770572502 0.9999999826047646 -0.00013189099770550297
vn -0.00008243187943987444 0.9999999932049886 -0.00008243183943965266
usemtl material_0_0
f 1/1/1 2/2/2 3/3/3
f 2/2/2 1/1/1 4/4/4
f 1/5/1 5/6/5 6/7/6
f 5/6/5 1/5/1 3/8/3
f 7/9/7 4/4/4 1/10/1
f 4/4/4 7/9/7 8/11/8
f 4/12/4 9/13/9 2/14/2
f 9/13/9 4/12/4 10/15/10
f 11/16/11 12/17/11 13/18/11
f 12/17/11 11/16/11 14/19/11
f 6/7/6 15/20/12 16/21/13
f 15/20/12 6/7/6 5/6/5
f 7/22/7 6/7/6 17/23/14
f 6/7/6 7/22/7 1/5/1
f 13/18/11 18/24/11 19/25/11
f 18/24/11 13/18/11 12/17/11
f 20/26/15 21/27/16 22/28/17
f 21/27/16 20/26/15 23/29/18
f 8/30/8 10/31/10 4/32/4
f 10/31/10 8/30/8 24/33/19
f 9/34/9 25/35/20 26/36/21
f 25/35/20 9/34/9 10/37/10
f 27/38/22 15/39/12 28/40/23
f 15/39/12 27/38/22 16/41/13
f 17/23/14 16/21/13 29/42/24
f 16/21/13 17/23/14 6/7/6
f 18/24/11 30/43/11 19/25/11
f 30/43/11 18/24/11 31/44/11
f 32/45/25 22/46/17 33/47/26
f 22/46/17 32/45/25 20/48/15
f 26/49/21 34/50/27 35/51/28
f 34/50/27 26/49/21 25/52/20
f 23/53/18 20/54/15 36/55/29
f 37/56/30 21/57/16 23/58/18
f 21/57/16 37/56/30 38/59/31
f 10/60/10 39/61/32 25/35/20
f 39/61/32 10/60/10 24/62/19
f 34/63/27 28/64/23 35/65/28
f 28/64/23 34/63/27 27/66/22
f 40/67/33 16/68/13 27/69/22
f 16/68/13 40/67/33 29/70/24
f 41/71/34 32/72/25 33/73/26
f 32/72/25 41/71/34 42/74/35
f 36/55/29 20/54/15 32/75/25
f 34/50/27 39/76/32 43/77/36
f 39/76/32 34/50/27 25/52/20
f 37/78/30 23/53/18 36/55/29
f 44/79/37 38/80/31 37/81/30
f 38/80/31 44/79/37 45/82/38
f 43/83/36 27/84/22 34/63/27
f 27/84/22 43/83/36 40/85/33
f 46/86/39 42/87/35 41/88/34
f 42/87/35 46/86/39 47/89/40
f 36/55/29 32/75/25 42/90/35
f 48/91/41 44/92/37 49/93/42
f 44/92/37 48/91/41 45/94/38
f 44/95/37 37/78/30 36/55/29
f 48/96/41 47/97/40 46/98/39
f 47/97/40 48/96/41 49/99/42
f 47/100/40 36/55/29 42/90/35
f 44/95/37 36/55/29 49/101/42
f 49/101/42 36/55/29 47/100/40
