# SSTK version 0.8.0
# 2
mtllib original-2.mtl
o #ID13
v -0.058667 0.458801 -0.066259
v -0.094543 0.444366 -0.009779
v -0.082062 0.458801 -0.009779
v -0.067492 0.444366 -0.075084
v -0.058667 0.458801 0.046702
v -0.067492 0.444366 0.055527
v -0.058667 0.627198 -0.066259
v -0.082062 0.627198 -0.009779
v -0.002187 0.444366 -0.102135
v -0.002187 0.458801 -0.089654
v 0.090170 0.444366 -0.009779
v -0.094543 0.444366 -0.009779
v -0.067492 0.444366 -0.075084
v 0.063119 0.444366 0.055527
v -0.067492 0.444366 0.055527
v -0.002187 0.458801 0.070097
v -0.002187 0.444366 0.082578
v -0.058667 0.627198 0.046702
v -0.058667 0.627198 -0.066259
v -0.082062 0.627198 -0.009779
v -0.058667 0.627198 0.046702
v -0.002187 0.627198 -0.089654
v 0.063119 0.444366 -0.075084
v -0.002187 0.444366 -0.102135
v 0.063119 0.444366 -0.075084
v 0.054294 0.458801 -0.066259
v -0.002187 0.444366 0.082578
v -0.002187 0.627198 0.070097
v 0.054294 0.458801 0.046702
v 0.063119 0.444366 0.055527
v -0.002187 0.627198 0.070097
v -0.002187 0.627198 -0.089654
v 0.054294 0.627198 -0.066259
v 0.077689 0.458801 -0.009779
v 0.090170 0.444366 -0.009779
v 0.054294 0.627198 0.046702
v 0.054294 0.627198 0.046702
v 0.054294 0.627198 -0.066259
v 0.077689 0.627198 -0.009779
v 0.077689 0.627198 -0.009779
vt -0.7932805 0.8888385
vt -0.728307 0.8706261
vt -0.7330153 0.8888385
vt -0.7979887 0.8706261
vt -0.4384677 1.207268
vt -0.5034411 1.189056
vt -0.4337594 1.189056
vt -0.4987329 1.207268
vt -0.7932805 1.281471
vt -0.7330153 1.115468
vt -0.7330153 1.281471
vt -0.7932805 1.115468
vt -0.5805201 0.5336908
vt -0.6454932 0.5154783
vt -0.5758119 0.5154783
vt -0.640785 0.5336908
vt -0.4758856 0.6666183
vt -0.293799 0.6666183
vt -0.3204652 0.7309956
vt -0.4492197 0.6022409
vt -0.3204652 0.6022409
vt 0.1305758 1.302442
vt 0.06560271 1.284229
vt 0.135284 1.284229
vt 0.07031087 1.302442
vt -0.4987327 1.281471
vt -0.4384675 1.115468
vt -0.4384675 1.281471
vt -0.4987327 1.115468
vt 0.3291648 0.722296
vt 0.3061021 0.6666183
vt 0.3291648 0.6109406
vt -0.5805203 1.281471
vt -0.6407852 1.115468
vt -0.5805203 1.115468
vt -0.6407852 1.281471
vt -0.4492197 0.7309956
vt -0.3848423 0.7576616
vt -0.07031192 0.3498605
vt -0.1352853 0.331648
vt -0.06560372 0.331648
vt -0.1305771 0.3498605
vt -0.3848423 0.575575
vt 0.1305755 1.281471
vt 0.07031059 1.115468
vt 0.1305755 1.115468
vt 0.07031059 1.281471
vt 0.6407841 1.118612
vt 0.5758108 1.1004
vt 0.6454923 1.1004
vt 0.580519 1.118612
vt 0.3848423 0.5878781
vt 0.3848423 0.7453584
vt -0.07031171 1.281471
vt -0.1305769 1.115468
vt -0.07031171 1.115468
vt -0.1305769 1.281471
vt 0.5034435 0.4268241
vt 0.4384701 0.4450365
vt 0.4337619 0.4268241
vt 0.4987352 0.4450365
vt 0.7979884 0.7452505
vt 0.7330151 0.7634629
vt 0.7283068 0.7452505
vt 0.7932802 0.7634629
vt 0.6407842 1.281471
vt 0.5805191 1.115468
vt 0.6407842 1.115468
vt 0.5805191 1.281471
vt 0.44052 0.6109406
vt 0.44052 0.722296
vt 0.4987353 1.115468
vt 0.4384702 1.281471
vt 0.4384702 1.115468
vt 0.4987353 1.281471
vt 0.7932802 1.115468
vt 0.7330151 1.281471
vt 0.7330151 1.115468
vt 0.7932802 1.281471
vt 0.4635824 0.6666183
vn -0.6539633881730853 0.38034519312146503 -0.6539643881730672
vn -0.756465314506535 0.6540338125422333 0
vn -0.9248441879177988 0.3803461950311422 0
vn -0.5349013160811825 0.654033219662744 -0.5349029160812304
vn -0.6539633881730853 0.3803451931214647 0.6539643881730675
vn -0.5349013160811825 0.6540332196627437 0.5349029160812306
vn -0.7071060811862198 0 -0.7071074811861825
vn -1 0 0
vn -5.432542215470098e-7 0.6540340259408525 -0.7564651300035614
vn -9.090375226988144e-7 0.3803461094973043 -0.9248442230935101
vn 0 -1 0
vn -9.090375226988144e-7 0.38034610949730385 0.9248442230935103
vn -5.432542215470099e-7 0.6540340259408521 0.7564651300035619
vn -0.7071060811862198 0 0.7071074811861825
vn 0 1 0
vn -9.536773999995664e-7 0 -1
vn 0.534901512831659 0.6540337156895006 -0.5349021128316732
vn 0.6539641100012891 0.38034580581675415 -0.6539633100012767
vn -9.536773999995664e-7 0 1
vn 0.6539641100012891 0.3803458058167538 0.6539633100012769
vn 0.534901512831659 0.6540337156895004 0.5349021128316734
vn 0.7071070311865144 0 -0.7071065311864922
vn 0.9248445623674975 0.38034528452351296 0
vn 0.7564658680147137 0.6540331723458266 0
vn 0.7071070311865144 0 0.7071065311864922
vn 1 0 0
usemtl material_0_0
f 1/1/1 2/2/2 3/3/3
f 2/2/2 1/1/1 4/4/4
f 5/5/5 2/6/2 6/7/6
f 2/6/2 5/5/5 3/8/3
f 7/9/7 3/10/3 8/11/8
f 3/10/3 7/9/7 1/12/1
f 1/13/1 9/14/9 4/15/4
f 9/14/9 1/13/1 10/16/10
f 11/17/11 12/18/11 13/19/11
f 14/20/11 15/21/11 12/18/11
f 16/22/12 6/23/6 17/24/13
f 6/23/6 16/22/12 5/25/5
f 8/26/8 5/27/5 18/28/14
f 5/27/5 8/26/8 3/29/3
f 19/30/15 20/31/15 21/32/15
f 7/33/7 10/34/10 1/35/1
f 10/34/10 7/33/7 22/36/16
f 23/37/11 13/19/11 24/38/11
f 10/39/10 25/40/17 9/41/9
f 25/40/17 10/39/10 26/42/18
f 11/17/11 13/19/11 23/37/11
f 11/17/11 14/20/11 12/18/11
f 14/20/11 27/43/11 15/21/11
f 28/44/19 5/45/5 16/46/12
f 5/45/5 28/44/19 18/47/14
f 29/48/20 17/49/13 30/50/21
f 17/49/13 29/48/20 16/51/12
f 31/52/15 19/30/15 21/32/15
f 19/30/15 31/52/15 32/53/15
f 22/54/16 26/55/18 10/56/10
f 26/55/18 22/54/16 33/57/22
f 25/58/17 34/59/23 35/60/24
f 34/59/23 25/58/17 26/61/18
f 35/62/24 29/63/20 30/64/21
f 29/63/20 35/62/24 34/65/23
f 36/66/25 16/67/12 29/68/20
f 16/67/12 36/66/25 28/69/19
f 37/70/15 32/53/15 31/52/15
f 32/53/15 37/70/15 38/71/15
f 26/72/18 39/73/26 34/74/23
f 39/73/26 26/72/18 33/75/22
f 34/76/23 36/77/25 29/78/20
f 36/77/25 34/76/23 39/79/26
f 40/80/15 38/71/15 37/70/15
