# SSTK version 0.8.0
# 1
mtllib original-1.mtl
o #ID5
v 0.264298 0.434173 -0.275841
v 0.374444 -0.672754 -0.009925
v 0.374444 0.434173 -0.009925
v 0.264298 -0.672754 -0.275841
v 0.264298 -0.672754 -0.275841
v 0.264298 0.434173 -0.275841
v 0.374444 -0.672754 -0.009925
v 0.374444 0.434173 -0.009925
v 0.374444 -0.672754 -0.009925
v 0.264298 -0.672754 -0.275841
v -0.267535 -0.672754 -0.275841
v -0.267535 -0.672754 -0.275841
v 0.264298 -0.672754 -0.275841
v 0.374444 -0.672754 -0.009925
v 0.264298 -0.672754 0.255992
v 0.264298 0.434173 0.255992
v 0.264298 -0.672754 0.255992
v 0.264298 0.434173 0.255992
v 0.374444 0.434173 -0.009925
v -0.001619 0.434173 -0.385987
v 0.264298 0.434173 -0.275841
v 0.264298 0.434173 -0.275841
v -0.001619 0.434173 -0.385987
v 0.374444 0.434173 -0.009925
v -0.001619 -0.672754 -0.385987
v -0.001619 0.434173 -0.385987
v -0.001619 0.434173 -0.385987
v -0.001619 -0.672754 -0.385987
v -0.377682 -0.672754 -0.009924
v -0.377682 -0.672754 -0.009924
v -0.001619 -0.672754 -0.385987
v -0.001619 -0.672754 -0.385987
v 0.264298 -0.672754 0.255992
v 0.264298 -0.672754 0.255992
v -0.001619 0.434173 0.366138
v -0.001619 -0.672754 0.366138
v -0.001619 0.434173 0.366138
v -0.001619 -0.672754 0.366138
v 0.264298 0.434173 0.255992
v -0.267535 0.434173 -0.275841
v -0.267535 0.434173 -0.275841
v 0.264298 0.434173 0.255992
v -0.267535 -0.672754 -0.275841
v -0.267535 0.434173 -0.275841
v -0.267535 0.434173 -0.275841
v -0.267535 -0.672754 -0.275841
v -0.377682 0.434173 -0.009924
v -0.377682 -0.672754 -0.009924
v -0.377682 0.434173 -0.009924
v -0.377682 -0.672754 -0.009924
v -0.267535 -0.672754 0.255992
v -0.267535 -0.672754 0.255992
v -0.001619 -0.672754 0.366138
v -0.001619 -0.672754 0.366138
v -0.267535 0.434173 0.255992
v -0.267535 -0.672754 0.255992
v -0.267535 0.434173 0.255992
v -0.267535 -0.672754 0.255992
v -0.001619 0.434173 0.366138
v -0.377682 0.434173 -0.009924
v -0.377682 0.434173 -0.009924
v -0.001619 0.434173 0.366138
v -0.267535 0.434173 0.255992
v -0.267535 0.434173 0.255992
vn -0.7071067311865433 1.7204250601774514e-8 0.7071068311865478
vn -1 0 2.5320029999999994e-8
vn 0.7071067311865433 -1.7204250601774514e-8 -0.7071068311865478
vn 1 0 -2.5320029999999994e-8
vn 0 1 0
vn 0 -1 0
vn -0.7071066811865431 -1.7204249385250172e-8 -0.7071068811865378
vn 0.7071066811865431 1.7204249385250172e-8 0.7071068811865378
vn 0 3.440849977795538e-8 1
vn 0 -3.440849977795538e-8 -1
vn 2.0256029999999575e-7 -3.440849977795467e-8 -1
vn -2.0256029999999575e-7 3.440849977795467e-8 1
vn 0.7071067311865433 1.7204250601774514e-8 0.7071068311865478
vn -0.7071067311865433 -1.7204250601774514e-8 -0.7071068311865478
vn 1 0 -5.14343599999932e-7
vn -1 0 5.14343599999932e-7
vn 0.7071064811864917 -1.720424938524875e-8 -0.7071070811864757
vn -0.7071064811864917 1.720424938524875e-8 0.7071070811864757
usemtl material_0_0
f 1//1 2//2 3//2
f 2//2 1//1 4//1
f 5//3 6//3 7//4
f 8//4 7//4 6//3
f 9//5 10//5 11//5
f 12//6 13//6 14//6
f 3//2 15//7 16//7
f 15//7 3//2 2//2
f 7//4 8//4 17//8
f 18//8 17//8 8//4
f 19//6 20//6 21//6
f 22//5 23//5 24//5
f 1//1 25//9 4//1
f 25//9 1//1 26//9
f 27//10 6//3 28//10
f 5//3 28//10 6//3
f 9//5 11//5 29//5
f 30//6 12//6 14//6
f 10//5 31//5 11//5
f 12//6 32//6 13//6
f 9//5 29//5 33//5
f 34//6 30//6 14//6
f 35//11 15//7 36//11
f 15//7 35//11 16//7
f 18//8 37//12 17//8
f 38//12 17//8 37//12
f 19//6 39//6 40//6
f 41//5 42//5 24//5
f 19//6 40//6 20//6
f 23//5 41//5 24//5
f 26//9 43//13 25//9
f 43//13 26//9 44//13
f 45//14 27//10 46//14
f 28//10 46//14 27//10
f 43//13 47//15 48//15
f 47//15 43//13 44//13
f 45//14 46//14 49//16
f 50//16 49//16 46//14
f 33//5 29//5 51//5
f 52//6 30//6 34//6
f 33//5 51//5 53//5
f 54//6 52//6 34//6
f 55//17 36//11 56//17
f 36//11 55//17 35//11
f 37//12 57//18 38//12
f 58//18 38//12 57//18
f 39//6 59//6 60//6
f 61//5 62//5 42//5
f 39//6 60//6 40//6
f 41//5 61//5 42//5
f 48//15 55//17 56//17
f 55//17 48//15 47//15
f 49//16 50//16 57//18
f 58//18 57//18 50//16
f 59//6 63//6 60//6
f 61//5 64//5 62//5
