# SSTK version 0.8.0
# 15
mtllib original-15.mtl
o mesh3/mesh3-geometry/material_1#mesh3-geometry
v 0.013830 0.568190 0.121520
v 0.013176 0.568190 0.147549
v 0.013830 0.663635 0.121520
v -0.010911 0.568190 0.120898
v -0.011565 0.568190 0.146927
v 0.013830 0.568190 0.121520
v 0.013830 0.663635 0.121520
v 0.013176 0.568190 0.147549
v 0.012522 0.663635 0.173578
v 0.013176 0.568190 0.147549
v 0.013830 0.568190 0.121520
v -0.011565 0.568190 0.146927
v -0.010911 0.568190 0.120898
v -0.012220 0.663635 0.172957
v -0.011565 0.568190 0.146927
v -0.010911 0.663635 0.120898
v -0.012220 0.663635 0.172957
v -0.010911 0.568190 0.120898
v 0.013176 0.568190 0.147549
v 0.013176 0.026066 0.147549
v 0.012522 0.663635 0.173578
v 0.013830 0.663635 0.121520
v 0.012522 0.663635 0.173578
v 0.029162 0.689183 0.120285
v -0.011565 0.568190 0.146927
v -0.011565 0.026066 0.146927
v 0.013176 0.568190 0.147549
v -0.011565 0.568190 0.146927
v -0.012220 0.663635 0.172957
v -0.011565 0.026066 0.146927
v -0.012220 0.663635 0.172957
v -0.010911 0.663635 0.120898
v -0.022821 0.689183 0.118419
v 0.012522 0.663635 0.173578
v 0.013176 0.026066 0.147549
v 0.012522 -0.004631 0.173578
v 0.013176 0.026066 0.147549
v 0.013176 0.568190 0.147549
v -0.011565 0.026066 0.146927
v 0.012522 0.663635 0.173578
v 0.012522 -0.004631 0.173578
v 0.005280 0.663701 0.173396
v 0.012522 0.663635 0.173578
v 0.007162 0.666845 0.173444
v 0.029162 0.689183 0.120285
v 0.012522 0.663635 0.173578
v 0.010640 0.660491 0.173531
v 0.007162 0.666845 0.173444
v -0.011565 0.026066 0.146927
v -0.012220 0.663635 0.172957
v -0.011565 -0.004631 0.146927
v -0.022821 0.689183 0.118419
v -0.015874 0.692439 0.118594
v -0.012220 0.663635 0.172957
v -0.012220 0.663635 0.172957
v 0.005280 0.663701 0.173396
v -0.012220 -0.004631 0.172957
v -0.012220 0.663635 0.172957
v -0.005273 0.666891 0.173131
v 0.005280 0.663701 0.173396
v 0.013176 0.026066 0.147549
v 0.013633 0.018820 0.129379
v 0.012522 -0.004631 0.173578
v 0.013176 0.026066 0.147549
v -0.011565 0.026066 0.146927
v 0.013633 0.018820 0.129379
v -0.012220 -0.004631 0.172957
v 0.005280 0.663701 0.173396
v 0.012522 -0.004631 0.173578
v 0.023802 0.692393 0.120151
v 0.029162 0.689183 0.120285
v 0.007162 0.666845 0.173444
v 0.005280 0.663701 0.173396
v 0.007162 0.666845 0.173444
v 0.010640 0.660491 0.173531
v 0.007162 0.666845 0.173444
v 0.008471 0.666845 0.121386
v 0.023802 0.692393 0.120151
v 0.003340 0.685702 0.122135
v 0.008471 0.666845 0.121386
v 0.007162 0.666845 0.173444
v -0.012220 -0.004631 0.172957
v -0.011565 -0.004631 0.146927
v -0.012220 0.663635 0.172957
v -0.011109 0.018820 0.128757
v -0.011565 0.026066 0.146927
v -0.011565 -0.004631 0.146927
v -0.005273 0.666891 0.173131
v -0.012220 0.663635 0.172957
v -0.015874 0.692439 0.118594
v 0.007162 0.666845 0.173444
v 0.005280 0.663701 0.173396
v -0.005273 0.666891 0.173131
v 0.007162 0.666845 0.173444
v 0.005280 0.663701 0.173396
v -0.005273 0.666891 0.173131
v 0.013176 -0.004631 0.147549
v 0.012522 -0.004631 0.173578
v 0.013633 0.018820 0.129379
v -0.011109 0.018820 0.128757
v 0.013633 0.018820 0.129379
v -0.011565 0.026066 0.146927
v 0.012522 -0.004631 0.173578
v 0.013176 -0.004631 0.147549
v -0.012220 -0.004631 0.172957
v 0.003340 0.685702 0.122135
v 0.007162 0.666845 0.173444
v -0.005273 0.666891 0.173131
v -0.011565 -0.004631 0.146927
v -0.012220 -0.004631 0.172957
v 0.013176 -0.004631 0.147549
v -0.011565 -0.004631 0.146927
v 0.013176 -0.004631 0.147549
v -0.011109 0.018820 0.128757
v -0.015874 0.692439 0.118594
v -0.003964 0.666891 0.121073
v -0.005273 0.666891 0.173131
v -0.002368 0.663482 0.121113
v -0.003676 0.663482 0.173171
v -0.003964 0.666891 0.121073
v 0.013633 0.018820 0.129379
v -0.011109 0.018820 0.128757
v 0.013176 -0.004631 0.147549
v 0.003340 0.685702 0.122135
v -0.005273 0.666891 0.173131
v -0.003995 0.666891 0.122298
v -0.005273 0.666891 0.173131
v -0.003964 0.666891 0.121073
v -0.003676 0.663482 0.173171
v 0.013830 0.663635 0.121520
v 0.013176 0.568190 0.147549
v 0.013830 0.568190 0.121520
v 0.013830 0.568190 0.121520
v -0.011565 0.568190 0.146927
v -0.010911 0.568190 0.120898
v 0.012522 0.663635 0.173578
v 0.013176 0.568190 0.147549
v 0.013830 0.663635 0.121520
v -0.011565 0.568190 0.146927
v 0.013830 0.568190 0.121520
v 0.013176 0.568190 0.147549
v -0.011565 0.568190 0.146927
v -0.012220 0.663635 0.172957
v -0.010911 0.568190 0.120898
v -0.010911 0.568190 0.120898
v -0.012220 0.663635 0.172957
v -0.010911 0.663635 0.120898
v 0.012522 0.663635 0.173578
v 0.013176 0.026066 0.147549
v 0.013176 0.568190 0.147549
v 0.029162 0.689183 0.120285
v 0.012522 0.663635 0.173578
v 0.013830 0.663635 0.121520
v 0.013176 0.568190 0.147549
v -0.011565 0.026066 0.146927
v -0.011565 0.568190 0.146927
v -0.011565 0.026066 0.146927
v -0.012220 0.663635 0.172957
v -0.011565 0.568190 0.146927
v -0.022821 0.689183 0.118419
v -0.010911 0.663635 0.120898
v -0.012220 0.663635 0.172957
v 0.012522 -0.004631 0.173578
v 0.013176 0.026066 0.147549
v 0.012522 0.663635 0.173578
v -0.011565 0.026066 0.146927
v 0.013176 0.568190 0.147549
v 0.013176 0.026066 0.147549
v 0.005280 0.663701 0.173396
v 0.012522 -0.004631 0.173578
v 0.012522 0.663635 0.173578
v 0.029162 0.689183 0.120285
v 0.007162 0.666845 0.173444
v 0.012522 0.663635 0.173578
v 0.007162 0.666845 0.173444
v 0.010640 0.660491 0.173531
v 0.012522 0.663635 0.173578
v -0.011565 -0.004631 0.146927
v -0.012220 0.663635 0.172957
v -0.011565 0.026066 0.146927
v -0.012220 0.663635 0.172957
v -0.015874 0.692439 0.118594
v -0.022821 0.689183 0.118419
v -0.012220 -0.004631 0.172957
v 0.005280 0.663701 0.173396
v -0.012220 0.663635 0.172957
v 0.005280 0.663701 0.173396
v -0.005273 0.666891 0.173131
v -0.012220 0.663635 0.172957
v 0.012522 -0.004631 0.173578
v 0.013633 0.018820 0.129379
v 0.013176 0.026066 0.147549
v 0.013633 0.018820 0.129379
v -0.011565 0.026066 0.146927
v 0.013176 0.026066 0.147549
v 0.012522 -0.004631 0.173578
v 0.005280 0.663701 0.173396
v -0.012220 -0.004631 0.172957
v 0.007162 0.666845 0.173444
v 0.029162 0.689183 0.120285
v 0.023802 0.692393 0.120151
v 0.010640 0.660491 0.173531
v 0.007162 0.666845 0.173444
v 0.005280 0.663701 0.173396
v 0.023802 0.692393 0.120151
v 0.008471 0.666845 0.121386
v 0.007162 0.666845 0.173444
v 0.007162 0.666845 0.173444
v 0.008471 0.666845 0.121386
v 0.003340 0.685702 0.122135
v -0.012220 0.663635 0.172957
v -0.011565 -0.004631 0.146927
v -0.012220 -0.004631 0.172957
v -0.011565 -0.004631 0.146927
v -0.011565 0.026066 0.146927
v -0.011109 0.018820 0.128757
v -0.015874 0.692439 0.118594
v -0.012220 0.663635 0.172957
v -0.005273 0.666891 0.173131
v -0.005273 0.666891 0.173131
v 0.005280 0.663701 0.173396
v 0.007162 0.666845 0.173444
v 0.013633 0.018820 0.129379
v 0.012522 -0.004631 0.173578
v 0.013176 -0.004631 0.147549
v -0.011565 0.026066 0.146927
v 0.013633 0.018820 0.129379
v -0.011109 0.018820 0.128757
v -0.012220 -0.004631 0.172957
v 0.013176 -0.004631 0.147549
v 0.012522 -0.004631 0.173578
v -0.005273 0.666891 0.173131
v 0.007162 0.666845 0.173444
v 0.003340 0.685702 0.122135
v 0.013176 -0.004631 0.147549
v -0.012220 -0.004631 0.172957
v -0.011565 -0.004631 0.146927
v -0.011109 0.018820 0.128757
v 0.013176 -0.004631 0.147549
v -0.011565 -0.004631 0.146927
v -0.005273 0.666891 0.173131
v -0.003964 0.666891 0.121073
v -0.015874 0.692439 0.118594
v -0.003964 0.666891 0.121073
v -0.003676 0.663482 0.173171
v -0.002368 0.663482 0.121113
v 0.013176 -0.004631 0.147549
v -0.011109 0.018820 0.128757
v 0.013633 0.018820 0.129379
v -0.003995 0.666891 0.122298
v -0.005273 0.666891 0.173131
v 0.003340 0.685702 0.122135
v -0.003676 0.663482 0.173171
v -0.003964 0.666891 0.121073
v -0.005273 0.666891 0.173131
vn -0.9996842162687722 0 -0.02512902192864541
vn 0 1 0
vn 0.9996842162687722 0 0.02512902192864541
vn -0.8577198209545713 0.5136651177890468 -0.021560508074322395
vn -0.025129021928645353 0 0.9996842162687722
vn 0.9052745786489236 0.42421706782601565 0.022755584306083987
vn 0.025129021928645353 0 -0.9996842162687722
vn -0.4368860966287555 -0.7503372879733541 -0.49610935573649645
vn 0.3878463653741866 -0.8034269407376456 -0.4517525293376682
vn -0.009304699647512822 -0.9289165036045327 0.37017232729581434
vn 0.8577198209545713 -0.5136651177890468 0.021560508074322395
vn -0.9648821891468976 -0.2615609586771388 -0.024253370136674265
vn 0.005237944257372152 -0.9384798019525366 -0.345294403758712
vn -0.019861378301325387 0.6125929685975714 0.7901489609414077
vn -0.9052745786489236 -0.42421706782601565 -0.022755584306083987
vn 0.931491455656915 -0.3630088775114604 0.023414159947162578
vn 0 -1 0
vn 0.4368860966287555 0.7503372879733541 0.49610935573649645
vn -0.3878463653741866 0.8034269407376456 0.4517525293376682
vn 0.009304699647512822 0.9289165036045327 -0.37017232729581434
vn 0.9648821891468976 0.2615609586771388 0.024253370136674265
vn -0.005237944257372152 0.9384798019525366 0.345294403758712
vn 0.019861378301325387 -0.6125929685975714 -0.7901489609414077
vn -0.931491455656915 0.3630088775114604 -0.023414159947162578
usemtl material_0_0
f 1//1 2//1 3//1
f 4//2 5//2 6//2
f 7//1 8//1 9//1
f 10//2 11//2 12//2
f 13//3 14//3 15//3
f 16//3 17//3 18//3
f 19//1 20//1 21//1
f 22//4 23//4 24//4
f 25//5 26//5 27//5
f 28//3 29//3 30//3
f 31//6 32//6 33//6
f 34//1 35//1 36//1
f 37//5 38//5 39//5
f 40//7 41//7 42//7
f 43//8 44//8 45//8
f 46//7 47//7 48//7
f 49//3 50//3 51//3
f 52//9 53//9 54//9
f 55//7 56//7 57//7
f 58//7 59//7 60//7
f 61//1 62//1 63//1
f 64//10 65//10 66//10
f 67//7 68//7 69//7
f 70//8 71//8 72//8
f 73//7 74//7 75//7
f 76//11 77//11 78//11
f 79//12 80//12 81//12
f 82//3 83//3 84//3
f 85//3 86//3 87//3
f 88//9 89//9 90//9
f 91//7 92//7 93//7
f 94//7 95//7 96//7
f 97//1 98//1 99//1
f 100//10 101//10 102//10
f 103//2 104//2 105//2
f 106//13 107//13 108//13
f 109//2 110//2 111//2
f 112//14 113//14 114//14
f 115//15 116//15 117//15
f 118//15 119//15 120//15
f 121//14 122//14 123//14
f 124//16 125//16 126//16
f 127//15 128//15 129//15
usemtl material_1_0
f 130//3 131//3 132//3
f 133//17 134//17 135//17
f 136//3 137//3 138//3
f 139//17 140//17 141//17
f 142//1 143//1 144//1
f 145//1 146//1 147//1
f 148//3 149//3 150//3
f 151//11 152//11 153//11
f 154//7 155//7 156//7
f 157//1 158//1 159//1
f 160//15 161//15 162//15
f 163//3 164//3 165//3
f 166//7 167//7 168//7
f 169//5 170//5 171//5
f 172//18 173//18 174//18
f 175//5 176//5 177//5
f 178//1 179//1 180//1
f 181//19 182//19 183//19
f 184//5 185//5 186//5
f 187//5 188//5 189//5
f 190//3 191//3 192//3
f 193//20 194//20 195//20
f 196//5 197//5 198//5
f 199//18 200//18 201//18
f 202//5 203//5 204//5
f 205//4 206//4 207//4
f 208//21 209//21 210//21
f 211//1 212//1 213//1
f 214//1 215//1 216//1
f 217//19 218//19 219//19
f 220//5 221//5 222//5
f 223//3 224//3 225//3
f 226//20 227//20 228//20
f 229//17 230//17 231//17
f 232//22 233//22 234//22
f 235//17 236//17 237//17
f 238//23 239//23 240//23
f 241//6 242//6 243//6
f 244//6 245//6 246//6
f 247//23 248//23 249//23
f 250//24 251//24 252//24
f 253//6 254//6 255//6
