# SSTK version 0.8.0
# 12
mtllib original-12.mtl
o mesh1/mesh1-geometry/material_2#mesh1-geometry
v -0.009358 -0.560609 0.123909
v 0.029162 0.689183 0.120285
v 0.024564 -0.560609 0.121834
v -0.002897 0.499865 0.122653
v 0.029162 0.689183 0.120285
v -0.009358 -0.560609 0.123909
v 0.024564 -0.560609 0.121834
v 0.029162 0.689183 0.120285
v 0.059100 0.689183 0.109904
v 0.024564 -0.560609 0.121834
v 0.059100 0.689183 0.109904
v 0.056794 -0.560609 0.111050
v -0.022821 0.689183 0.118419
v -0.009358 -0.560609 0.123909
v -0.042661 -0.560609 0.117133
v -0.002573 0.607318 0.122590
v 0.029162 0.689183 0.120285
v -0.002897 0.499865 0.122653
v -0.002897 0.499865 0.122653
v -0.009358 -0.560609 0.123909
v -0.003491 0.499865 0.122768
v 0.056794 -0.560609 0.111050
v 0.059100 0.689183 0.109904
v 0.085331 0.689183 0.092127
v 0.056794 -0.560609 0.111050
v 0.085331 0.689183 0.092127
v 0.085134 -0.560609 0.092292
v -0.022821 0.689183 0.118419
v -0.003491 0.499865 0.122768
v -0.009358 -0.560609 0.123909
v -0.022821 0.689183 0.118419
v -0.042661 -0.560609 0.117133
v -0.035747 0.689183 0.115789
v -0.066161 0.689183 0.100625
v -0.042661 -0.560609 0.117133
v -0.073076 -0.560609 0.101969
v 0.029162 0.689183 0.120285
v -0.002573 0.607318 0.122590
v -0.002443 0.689183 0.122565
v -0.002897 0.607318 0.122653
v -0.002573 0.607318 0.122590
v -0.002897 0.499865 0.122653
v 0.085134 -0.560609 0.092292
v 0.085331 0.689183 0.092127
v 0.087622 0.689183 0.089480
v 0.085134 -0.560609 0.092292
v 0.107653 0.689183 0.066839
v 0.107653 -0.560609 0.066839
v -0.022821 0.689183 0.118419
v -0.002897 0.607318 0.122653
v -0.003491 0.499865 0.122768
v -0.042661 -0.560609 0.117133
v -0.066161 0.689183 0.100625
v -0.035747 0.689183 0.115789
v -0.073076 -0.560609 0.101969
v -0.091615 0.689183 0.078105
v -0.066161 0.689183 0.100625
v -0.091615 0.689183 0.078105
v -0.073076 -0.560609 0.101969
v -0.098530 -0.560609 0.079449
v -0.002573 0.665790 0.122590
v -0.002443 0.689183 0.122565
v -0.002573 0.607318 0.122590
v 0.030010 0.689183 0.118329
v 0.039163 0.741258 0.063212
v 0.061436 0.689183 0.107333
v 0.107653 0.689183 0.066839
v 0.085134 -0.560609 0.092292
v 0.087622 0.689183 0.089480
v 0.107653 0.689183 0.066839
v 0.122818 -0.560609 0.036424
v 0.107653 -0.560609 0.066839
v -0.022821 0.689183 0.118419
v -0.002573 0.665790 0.122590
v -0.002897 0.607318 0.122653
v -0.066161 0.689183 0.100625
v -0.091615 0.689183 0.078105
v -0.091135 0.689183 0.078464
v -0.110373 0.689183 0.049765
v -0.098530 -0.560609 0.079449
v -0.117287 -0.560609 0.051109
v -0.098530 -0.560609 0.079449
v -0.110373 0.689183 0.049765
v -0.091615 0.689183 0.078105
v -0.002573 0.665790 0.122590
v -0.022821 0.689183 0.118419
v -0.002443 0.689183 0.122565
v -0.003491 0.665790 0.122768
v -0.002897 0.607318 0.122653
v -0.003491 0.607318 0.122768
v 0.039163 0.741258 0.063212
v 0.030010 0.689183 0.118329
v 0.019916 0.741258 0.069947
v 0.039163 0.741258 0.063212
v 0.087622 0.689183 0.089480
v 0.061436 0.689183 0.107333
v -0.003190 0.689183 0.120817
v 0.019916 0.741258 0.069947
v 0.030010 0.689183 0.118329
v 0.122818 -0.560609 0.036424
v 0.107653 0.689183 0.066839
v 0.122818 0.689183 0.036424
v 0.122818 0.689183 0.036424
v 0.129593 -0.560609 0.003120
v 0.122818 -0.560609 0.036424
v -0.002897 0.607318 0.122653
v -0.003491 0.665790 0.122768
v -0.002573 0.665790 0.122590
v -0.035903 0.689183 0.114627
v -0.000418 0.741258 0.071470
v -0.003190 0.689183 0.120817
v -0.122155 0.689183 0.019152
v -0.117287 -0.560609 0.051109
v -0.128071 -0.560609 0.018880
v -0.110373 0.689183 0.049765
v -0.117287 -0.560609 0.051109
v -0.122155 0.689183 0.019152
v 0.087622 0.689183 0.089480
v 0.039163 0.741258 0.063212
v 0.088945 0.689183 0.088578
v 0.019916 0.741258 0.069947
v -0.003190 0.689183 0.120817
v -0.000418 0.741258 0.071470
v 0.129593 0.689183 0.003120
v 0.127518 -0.560609 -0.030801
v 0.129593 -0.560609 0.003120
v 0.129593 -0.560609 0.003120
v 0.122818 0.689183 0.036424
v 0.129593 0.689183 0.003120
v -0.065900 0.689183 0.100181
v -0.020454 0.741258 0.067679
v -0.035903 0.689183 0.114627
v -0.000418 0.741258 0.071470
v -0.035903 0.689183 0.114627
v -0.020454 0.741258 0.067679
v -0.091135 0.689183 0.078464
v -0.038826 0.741258 0.058832
v -0.065900 0.689183 0.100181
v -0.125611 0.689183 -0.013467
v -0.128071 -0.560609 0.018880
v -0.130146 -0.560609 -0.015042
v -0.122155 0.689183 0.019152
v -0.128071 -0.560609 0.018880
v -0.125611 0.689183 -0.013467
v 0.088945 0.689183 0.088578
v 0.039163 0.741258 0.063212
v 0.056011 0.741258 0.051725
v 0.127518 0.689183 -0.030801
v 0.116735 -0.560609 -0.063031
v 0.127518 -0.560609 -0.030801
v 0.127518 -0.560609 -0.030801
v 0.129593 0.689183 0.003120
v 0.127518 0.689183 -0.030801
v -0.020454 0.741258 0.067679
v -0.065900 0.689183 0.100181
v -0.038826 0.741258 0.058832
v -0.038826 0.741258 0.058832
v -0.091135 0.689183 0.078464
v -0.054282 0.741258 0.045530
v -0.120340 0.689183 -0.045957
v -0.130146 -0.560609 -0.015042
v -0.123370 -0.560609 -0.048345
v -0.125611 0.689183 -0.013467
v -0.130146 -0.560609 -0.015042
v -0.120340 0.689183 -0.045957
v 0.056011 0.741258 0.051725
v 0.107653 0.689183 0.066839
v 0.088945 0.689183 0.088578
v 0.116735 0.689183 -0.063031
v 0.097977 -0.560609 -0.091371
v 0.116735 -0.560609 -0.063031
v 0.116735 -0.560609 -0.063031
v 0.127518 0.689183 -0.030801
v 0.116735 0.689183 -0.063031
v -0.109890 0.689183 0.050955
v -0.054282 0.741258 0.045530
v -0.091135 0.689183 0.078464
v -0.105176 0.689183 -0.076371
v -0.123370 -0.560609 -0.048345
v -0.108206 -0.560609 -0.078760
v -0.123370 -0.560609 -0.048345
v -0.105176 0.689183 -0.076371
v -0.120340 0.689183 -0.045957
v -0.120340 0.689183 -0.045957
v -0.125611 0.689183 -0.013467
v -0.121068 0.689183 -0.042651
v 0.107653 0.689183 0.066839
v 0.056011 0.741258 0.051725
v 0.110662 0.689183 0.063343
v 0.097977 0.689183 -0.091371
v 0.072523 -0.560609 -0.113890
v 0.097977 -0.560609 -0.091371
v 0.097977 -0.560609 -0.091371
v 0.116735 0.689183 -0.063031
v 0.097977 0.689183 -0.091371
v -0.054282 0.741258 0.045530
v -0.109890 0.689183 0.050955
v -0.065769 0.741258 0.028682
v -0.085687 -0.560609 -0.104214
v -0.105176 0.689183 -0.076371
v -0.108206 -0.560609 -0.078760
v 0.110662 0.689183 0.063343
v 0.056011 0.741258 0.051725
v 0.069312 0.741258 0.036269
v 0.072523 -0.560609 -0.113890
v 0.042108 0.689183 -0.129055
v 0.042108 -0.560609 -0.129055
v 0.072523 -0.560609 -0.113890
v 0.097977 0.689183 -0.091371
v 0.072523 0.689183 -0.113890
v -0.109890 0.689183 0.050955
v -0.072504 0.741258 0.009435
v -0.065769 0.741258 0.028682
v -0.057347 -0.560609 -0.122972
v -0.082656 0.689183 -0.101825
v -0.085687 -0.560609 -0.104214
v -0.105176 0.689183 -0.076371
v -0.085687 -0.560609 -0.104214
v -0.082656 0.689183 -0.101825
v -0.102738 0.689183 -0.076380
v -0.061389 0.741258 -0.049307
v -0.121068 0.689183 -0.042651
v 0.069312 0.741258 0.036269
v 0.125108 0.689183 0.033346
v 0.110662 0.689183 0.063343
v 0.042108 0.689183 -0.129055
v 0.072523 -0.560609 -0.113890
v 0.072523 0.689183 -0.113890
v 0.011835 0.689183 -0.133441
v 0.042108 -0.560609 -0.129055
v 0.042108 0.689183 -0.129055
v 0.008805 -0.560609 -0.135830
v 0.042108 -0.560609 -0.129055
v 0.011835 0.689183 -0.133441
v 0.072523 0.689183 -0.113890
v 0.097977 0.689183 -0.091371
v 0.072636 0.689183 -0.113790
v -0.110373 0.689183 0.049765
v -0.072504 0.741258 0.009435
v -0.109890 0.689183 0.050955
v -0.025117 -0.560609 -0.133755
v -0.054316 0.689183 -0.120583
v -0.057347 -0.560609 -0.122972
v -0.082656 0.689183 -0.101825
v -0.057347 -0.560609 -0.122972
v -0.054316 0.689183 -0.120583
v -0.048088 0.741258 -0.064763
v -0.102738 0.689183 -0.076380
v -0.081021 0.689183 -0.101616
v -0.102738 0.689183 -0.076380
v -0.048088 0.741258 -0.064763
v -0.061389 0.741258 -0.049307
v -0.121068 0.689183 -0.042651
v -0.061389 0.741258 -0.049307
v -0.070236 0.741258 -0.030935
v 0.125108 0.689183 0.033346
v 0.069312 0.741258 0.036269
v 0.078160 0.741258 0.017897
v -0.022087 0.689183 -0.131367
v 0.008805 -0.560609 -0.135830
v 0.011835 0.689183 -0.133441
v 0.008805 -0.560609 -0.135830
v -0.022087 0.689183 -0.131367
v -0.025117 -0.560609 -0.133755
v 0.072636 0.689183 -0.113790
v 0.043827 0.689183 -0.127664
v 0.072523 0.689183 -0.113890
v -0.072504 0.741258 0.009435
v -0.110373 0.689183 0.049765
v -0.120886 0.689183 0.019530
v -0.054316 0.689183 -0.120583
v -0.025117 -0.560609 -0.133755
v -0.022087 0.689183 -0.131367
v -0.081021 0.689183 -0.101616
v -0.031239 0.741258 -0.076250
v -0.048088 0.741258 -0.064763
v -0.121068 0.689183 -0.042651
v -0.070236 0.741258 -0.030935
v -0.123374 0.689183 -0.013671
v 0.078160 0.741258 0.017897
v 0.131298 0.689183 0.000633
v 0.125108 0.689183 0.033346
v 0.072636 0.689183 -0.113790
v 0.028378 0.741258 -0.080717
v 0.043827 0.689183 -0.127664
v -0.120886 0.689183 0.019530
v -0.074028 0.741258 -0.010899
v -0.072504 0.741258 0.009435
v -0.031239 0.741258 -0.076250
v -0.081021 0.689183 -0.101616
v -0.053512 0.689183 -0.120371
v -0.070236 0.741258 -0.030935
v -0.074028 0.741258 -0.010899
v -0.123374 0.689183 -0.013671
v 0.131298 0.689183 0.000633
v 0.078160 0.741258 0.017897
v 0.081951 0.741258 -0.002138
v 0.073823 0.689183 -0.113219
v 0.028378 0.741258 -0.080717
v 0.072636 0.689183 -0.113790
v 0.008342 0.741258 -0.084508
v 0.043827 0.689183 -0.127664
v 0.028378 0.741258 -0.080717
v -0.074028 0.741258 -0.010899
v -0.120886 0.689183 0.019530
v -0.123374 0.689183 -0.013671
v -0.022087 0.689183 -0.131367
v -0.031239 0.741258 -0.076250
v -0.053512 0.689183 -0.120371
v 0.081951 0.741258 -0.002138
v 0.128810 0.689183 -0.032567
v 0.131298 0.689183 0.000633
v 0.028378 0.741258 -0.080717
v 0.073823 0.689183 -0.113219
v 0.046750 0.741258 -0.071869
v 0.043827 0.689183 -0.127664
v 0.008342 0.741258 -0.084508
v 0.011114 0.689183 -0.133854
v -0.031239 0.741258 -0.076250
v -0.022087 0.689183 -0.131367
v -0.011992 0.741258 -0.082984
v 0.128810 0.689183 -0.032567
v 0.081951 0.741258 -0.002138
v 0.080427 0.741258 -0.022473
v 0.099059 0.689183 -0.091501
v 0.046750 0.741258 -0.071869
v 0.073823 0.689183 -0.113219
v 0.008342 0.741258 -0.084508
v -0.022087 0.689183 -0.131367
v 0.011114 0.689183 -0.133854
v -0.022087 0.689183 -0.131367
v 0.008342 0.741258 -0.084508
v -0.011992 0.741258 -0.082984
v 0.080427 0.741258 -0.022473
v 0.117814 0.689183 -0.063993
v 0.128810 0.689183 -0.032567
v 0.046750 0.741258 -0.071869
v 0.099059 0.689183 -0.091501
v 0.062206 0.741258 -0.058568
v 0.117814 0.689183 -0.063993
v 0.080427 0.741258 -0.022473
v 0.073692 0.741258 -0.041720
v 0.117814 0.689183 -0.063993
v 0.062206 0.741258 -0.058568
v 0.099059 0.689183 -0.091501
v 0.062206 0.741258 -0.058568
v 0.117814 0.689183 -0.063993
v 0.073692 0.741258 -0.041720
v 0.024564 -0.560609 0.121834
v 0.029162 0.689183 0.120285
v -0.009358 -0.560609 0.123909
v -0.009358 -0.560609 0.123909
v 0.029162 0.689183 0.120285
v -0.002897 0.499865 0.122653
v 0.059100 0.689183 0.109904
v 0.029162 0.689183 0.120285
v 0.024564 -0.560609 0.121834
v 0.056794 -0.560609 0.111050
v 0.059100 0.689183 0.109904
v 0.024564 -0.560609 0.121834
v -0.042661 -0.560609 0.117133
v -0.009358 -0.560609 0.123909
v -0.022821 0.689183 0.118419
v -0.002897 0.499865 0.122653
v 0.029162 0.689183 0.120285
v -0.002573 0.607318 0.122590
v -0.003491 0.499865 0.122768
v -0.009358 -0.560609 0.123909
v -0.002897 0.499865 0.122653
v 0.085331 0.689183 0.092127
v 0.059100 0.689183 0.109904
v 0.056794 -0.560609 0.111050
v 0.085134 -0.560609 0.092292
v 0.085331 0.689183 0.092127
v 0.056794 -0.560609 0.111050
v -0.009358 -0.560609 0.123909
v -0.003491 0.499865 0.122768
v -0.022821 0.689183 0.118419
v -0.035747 0.689183 0.115789
v -0.042661 -0.560609 0.117133
v -0.022821 0.689183 0.118419
v -0.073076 -0.560609 0.101969
v -0.042661 -0.560609 0.117133
v -0.066161 0.689183 0.100625
v -0.002443 0.689183 0.122565
v -0.002573 0.607318 0.122590
v 0.029162 0.689183 0.120285
v -0.002897 0.499865 0.122653
v -0.002573 0.607318 0.122590
v -0.002897 0.607318 0.122653
v 0.087622 0.689183 0.089480
v 0.085331 0.689183 0.092127
v 0.085134 -0.560609 0.092292
v 0.107653 -0.560609 0.066839
v 0.107653 0.689183 0.066839
v 0.085134 -0.560609 0.092292
v -0.003491 0.499865 0.122768
v -0.002897 0.607318 0.122653
v -0.022821 0.689183 0.118419
v -0.035747 0.689183 0.115789
v -0.066161 0.689183 0.100625
v -0.042661 -0.560609 0.117133
v -0.066161 0.689183 0.100625
v -0.091615 0.689183 0.078105
v -0.073076 -0.560609 0.101969
v -0.098530 -0.560609 0.079449
v -0.073076 -0.560609 0.101969
v -0.091615 0.689183 0.078105
v -0.002573 0.607318 0.122590
v -0.002443 0.689183 0.122565
v -0.002573 0.665790 0.122590
v 0.061436 0.689183 0.107333
v 0.039163 0.741258 0.063212
v 0.030010 0.689183 0.118329
v 0.087622 0.689183 0.089480
v 0.085134 -0.560609 0.092292
v 0.107653 0.689183 0.066839
v 0.107653 -0.560609 0.066839
v 0.122818 -0.560609 0.036424
v 0.107653 0.689183 0.066839
v -0.002897 0.607318 0.122653
v -0.002573 0.665790 0.122590
v -0.022821 0.689183 0.118419
v -0.091135 0.689183 0.078464
v -0.091615 0.689183 0.078105
v -0.066161 0.689183 0.100625
v -0.117287 -0.560609 0.051109
v -0.098530 -0.560609 0.079449
v -0.110373 0.689183 0.049765
v -0.091615 0.689183 0.078105
v -0.110373 0.689183 0.049765
v -0.098530 -0.560609 0.079449
v -0.002443 0.689183 0.122565
v -0.022821 0.689183 0.118419
v -0.002573 0.665790 0.122590
v -0.003491 0.607318 0.122768
v -0.002897 0.607318 0.122653
v -0.003491 0.665790 0.122768
v 0.019916 0.741258 0.069947
v 0.030010 0.689183 0.118329
v 0.039163 0.741258 0.063212
v 0.061436 0.689183 0.107333
v 0.087622 0.689183 0.089480
v 0.039163 0.741258 0.063212
v 0.030010 0.689183 0.118329
v 0.019916 0.741258 0.069947
v -0.003190 0.689183 0.120817
v 0.122818 0.689183 0.036424
v 0.107653 0.689183 0.066839
v 0.122818 -0.560609 0.036424
v 0.122818 -0.560609 0.036424
v 0.129593 -0.560609 0.003120
v 0.122818 0.689183 0.036424
v -0.002573 0.665790 0.122590
v -0.003491 0.665790 0.122768
v -0.002897 0.607318 0.122653
v -0.003190 0.689183 0.120817
v -0.000418 0.741258 0.071470
v -0.035903 0.689183 0.114627
v -0.128071 -0.560609 0.018880
v -0.117287 -0.560609 0.051109
v -0.122155 0.689183 0.019152
v -0.122155 0.689183 0.019152
v -0.117287 -0.560609 0.051109
v -0.110373 0.689183 0.049765
v 0.088945 0.689183 0.088578
v 0.039163 0.741258 0.063212
v 0.087622 0.689183 0.089480
v -0.000418 0.741258 0.071470
v -0.003190 0.689183 0.120817
v 0.019916 0.741258 0.069947
v 0.129593 -0.560609 0.003120
v 0.127518 -0.560609 -0.030801
v 0.129593 0.689183 0.003120
v 0.129593 0.689183 0.003120
v 0.122818 0.689183 0.036424
v 0.129593 -0.560609 0.003120
v -0.035903 0.689183 0.114627
v -0.020454 0.741258 0.067679
v -0.065900 0.689183 0.100181
v -0.020454 0.741258 0.067679
v -0.035903 0.689183 0.114627
v -0.000418 0.741258 0.071470
v -0.065900 0.689183 0.100181
v -0.038826 0.741258 0.058832
v -0.091135 0.689183 0.078464
v -0.130146 -0.560609 -0.015042
v -0.128071 -0.560609 0.018880
v -0.125611 0.689183 -0.013467
v -0.125611 0.689183 -0.013467
v -0.128071 -0.560609 0.018880
v -0.122155 0.689183 0.019152
v 0.056011 0.741258 0.051725
v 0.039163 0.741258 0.063212
v 0.088945 0.689183 0.088578
v 0.127518 -0.560609 -0.030801
v 0.116735 -0.560609 -0.063031
v 0.127518 0.689183 -0.030801
v 0.127518 0.689183 -0.030801
v 0.129593 0.689183 0.003120
v 0.127518 -0.560609 -0.030801
v -0.038826 0.741258 0.058832
v -0.065900 0.689183 0.100181
v -0.020454 0.741258 0.067679
v -0.054282 0.741258 0.045530
v -0.091135 0.689183 0.078464
v -0.038826 0.741258 0.058832
v -0.123370 -0.560609 -0.048345
v -0.130146 -0.560609 -0.015042
v -0.120340 0.689183 -0.045957
v -0.120340 0.689183 -0.045957
v -0.130146 -0.560609 -0.015042
v -0.125611 0.689183 -0.013467
v 0.088945 0.689183 0.088578
v 0.107653 0.689183 0.066839
v 0.056011 0.741258 0.051725
v 0.116735 -0.560609 -0.063031
v 0.097977 -0.560609 -0.091371
v 0.116735 0.689183 -0.063031
v 0.116735 0.689183 -0.063031
v 0.127518 0.689183 -0.030801
v 0.116735 -0.560609 -0.063031
v -0.091135 0.689183 0.078464
v -0.054282 0.741258 0.045530
v -0.109890 0.689183 0.050955
v -0.108206 -0.560609 -0.078760
v -0.123370 -0.560609 -0.048345
v -0.105176 0.689183 -0.076371
v -0.120340 0.689183 -0.045957
v -0.105176 0.689183 -0.076371
v -0.123370 -0.560609 -0.048345
v -0.121068 0.689183 -0.042651
v -0.125611 0.689183 -0.013467
v -0.120340 0.689183 -0.045957
v 0.110662 0.689183 0.063343
v 0.056011 0.741258 0.051725
v 0.107653 0.689183 0.066839
v 0.097977 -0.560609 -0.091371
v 0.072523 -0.560609 -0.113890
v 0.097977 0.689183 -0.091371
v 0.097977 0.689183 -0.091371
v 0.116735 0.689183 -0.063031
v 0.097977 -0.560609 -0.091371
v -0.065769 0.741258 0.028682
v -0.109890 0.689183 0.050955
v -0.054282 0.741258 0.045530
v -0.108206 -0.560609 -0.078760
v -0.105176 0.689183 -0.076371
v -0.085687 -0.560609 -0.104214
v 0.069312 0.741258 0.036269
v 0.056011 0.741258 0.051725
v 0.110662 0.689183 0.063343
v 0.042108 -0.560609 -0.129055
v 0.042108 0.689183 -0.129055
v 0.072523 -0.560609 -0.113890
v 0.072523 0.689183 -0.113890
v 0.097977 0.689183 -0.091371
v 0.072523 -0.560609 -0.113890
v -0.065769 0.741258 0.028682
v -0.072504 0.741258 0.009435
v -0.109890 0.689183 0.050955
v -0.085687 -0.560609 -0.104214
v -0.082656 0.689183 -0.101825
v -0.057347 -0.560609 -0.122972
v -0.082656 0.689183 -0.101825
v -0.085687 -0.560609 -0.104214
v -0.105176 0.689183 -0.076371
v -0.121068 0.689183 -0.042651
v -0.061389 0.741258 -0.049307
v -0.102738 0.689183 -0.076380
v 0.110662 0.689183 0.063343
v 0.125108 0.689183 0.033346
v 0.069312 0.741258 0.036269
v 0.072523 0.689183 -0.113890
v 0.072523 -0.560609 -0.113890
v 0.042108 0.689183 -0.129055
v 0.042108 0.689183 -0.129055
v 0.042108 -0.560609 -0.129055
v 0.011835 0.689183 -0.133441
v 0.011835 0.689183 -0.133441
v 0.042108 -0.560609 -0.129055
v 0.008805 -0.560609 -0.135830
v 0.072636 0.689183 -0.113790
v 0.097977 0.689183 -0.091371
v 0.072523 0.689183 -0.113890
v -0.109890 0.689183 0.050955
v -0.072504 0.741258 0.009435
v -0.110373 0.689183 0.049765
v -0.057347 -0.560609 -0.122972
v -0.054316 0.689183 -0.120583
v -0.025117 -0.560609 -0.133755
v -0.054316 0.689183 -0.120583
v -0.057347 -0.560609 -0.122972
v -0.082656 0.689183 -0.101825
v -0.081021 0.689183 -0.101616
v -0.102738 0.689183 -0.076380
v -0.048088 0.741258 -0.064763
v -0.061389 0.741258 -0.049307
v -0.048088 0.741258 -0.064763
v -0.102738 0.689183 -0.076380
v -0.070236 0.741258 -0.030935
v -0.061389 0.741258 -0.049307
v -0.121068 0.689183 -0.042651
v 0.078160 0.741258 0.017897
v 0.069312 0.741258 0.036269
v 0.125108 0.689183 0.033346
v 0.011835 0.689183 -0.133441
v 0.008805 -0.560609 -0.135830
v -0.022087 0.689183 -0.131367
v -0.025117 -0.560609 -0.133755
v -0.022087 0.689183 -0.131367
v 0.008805 -0.560609 -0.135830
v 0.072523 0.689183 -0.113890
v 0.043827 0.689183 -0.127664
v 0.072636 0.689183 -0.113790
v -0.120886 0.689183 0.019530
v -0.110373 0.689183 0.049765
v -0.072504 0.741258 0.009435
v -0.022087 0.689183 -0.131367
v -0.025117 -0.560609 -0.133755
v -0.054316 0.689183 -0.120583
v -0.048088 0.741258 -0.064763
v -0.031239 0.741258 -0.076250
v -0.081021 0.689183 -0.101616
v -0.123374 0.689183 -0.013671
v -0.070236 0.741258 -0.030935
v -0.121068 0.689183 -0.042651
v 0.125108 0.689183 0.033346
v 0.131298 0.689183 0.000633
v 0.078160 0.741258 0.017897
v 0.043827 0.689183 -0.127664
v 0.028378 0.741258 -0.080717
v 0.072636 0.689183 -0.113790
v -0.072504 0.741258 0.009435
v -0.074028 0.741258 -0.010899
v -0.120886 0.689183 0.019530
v -0.053512 0.689183 -0.120371
v -0.081021 0.689183 -0.101616
v -0.031239 0.741258 -0.076250
v -0.123374 0.689183 -0.013671
v -0.074028 0.741258 -0.010899
v -0.070236 0.741258 -0.030935
v 0.081951 0.741258 -0.002138
v 0.078160 0.741258 0.017897
v 0.131298 0.689183 0.000633
v 0.072636 0.689183 -0.113790
v 0.028378 0.741258 -0.080717
v 0.073823 0.689183 -0.113219
v 0.028378 0.741258 -0.080717
v 0.043827 0.689183 -0.127664
v 0.008342 0.741258 -0.084508
v -0.123374 0.689183 -0.013671
v -0.120886 0.689183 0.019530
v -0.074028 0.741258 -0.010899
v -0.053512 0.689183 -0.120371
v -0.031239 0.741258 -0.076250
v -0.022087 0.689183 -0.131367
v 0.131298 0.689183 0.000633
v 0.128810 0.689183 -0.032567
v 0.081951 0.741258 -0.002138
v 0.046750 0.741258 -0.071869
v 0.073823 0.689183 -0.113219
v 0.028378 0.741258 -0.080717
v 0.011114 0.689183 -0.133854
v 0.008342 0.741258 -0.084508
v 0.043827 0.689183 -0.127664
v -0.011992 0.741258 -0.082984
v -0.022087 0.689183 -0.131367
v -0.031239 0.741258 -0.076250
v 0.080427 0.741258 -0.022473
v 0.081951 0.741258 -0.002138
v 0.128810 0.689183 -0.032567
v 0.073823 0.689183 -0.113219
v 0.046750 0.741258 -0.071869
v 0.099059 0.689183 -0.091501
v 0.011114 0.689183 -0.133854
v -0.022087 0.689183 -0.131367
v 0.008342 0.741258 -0.084508
v -0.011992 0.741258 -0.082984
v 0.008342 0.741258 -0.084508
v -0.022087 0.689183 -0.131367
v 0.128810 0.689183 -0.032567
v 0.117814 0.689183 -0.063993
v 0.080427 0.741258 -0.022473
v 0.062206 0.741258 -0.058568
v 0.099059 0.689183 -0.091501
v 0.046750 0.741258 -0.071869
v 0.073692 0.741258 -0.041720
v 0.080427 0.741258 -0.022473
v 0.117814 0.689183 -0.063993
v 0.099059 0.689183 -0.091501
v 0.062206 0.741258 -0.058568
v 0.117814 0.689183 -0.063993
v 0.073692 0.741258 -0.041720
v 0.117814 0.689183 -0.063993
v 0.062206 0.741258 -0.058568
vn -0.06622179013420956 -0.0008499998498871887 -0.9978045660407032
vn -0.1545855146788286 -0.0005599997766859658 -0.9879792533508646
vn -0.23720920888804486 -0.0004239998863887386 -0.9714584970253768
vn -0.07139268827945852 -0.000688000317255968 -0.9974480491312796
vn -0.4051912028979239 0.000009000000763454075 -0.914231966742103
vn -0.48055863434100193 -0.000011000002954521906 -0.8769625983126709
vn 0.19936803664466 -0.002157000270336409 -0.9799223098359824
vn 0.3255668402679081 -0.0028179999908947155 -0.9455148287541669
vn -0.628005526337817 0.00009600001204410515 -0.7782088727797695
vn -0.6911578364314986 0.000002999999582343421 -0.7227038433067379
vn 0.5593566786499451 -0.003991998086984767 -0.8289174687512477
vn -0.7525584912386896 0.00001600000749090483 -0.6585254110575741
vn -0.8290375725550417 0 -0.559192903470747
vn 0.7548336738790963 -0.00488700308366763 -0.6558980423656153
vn -0.14814359093122004 -0.6884082736820436 -0.7100334676563577
vn -0.32686581774064927 -0.6884081184429803 -0.6474974900758551
vn -0.9455185051502041 0 -0.32556835905616466
vn 0.6629177396931417 -0.004483998660052338 -0.7486788124130086
vn 0.8888069844870287 -0.005410001894805905 -0.45824979673380467
vn 0.9110984544397505 -0.005092001809551105 -0.41215734596761644
vn -0.19080899537654467 0 -0.981627183447664
vn -0.4102443724264749 -0.6852910996352549 -0.6017272335976751
vn 0.04067480000559934 -0.6884079589272546 -0.7241823269937728
vn -0.9975640553500844 0 -0.06975640094997757
vn 0.2267202379578681 -0.6884082647384918 -0.6889789508686506
vn 0.9649657383294481 -0.004916997546905582 -0.2623298438710828
vn 0.9867316320140695 -0.004243999029155322 -0.16230426628739977
vn -0.48331309849395754 -0.68840808618679 -0.5408352389562013
vn -0.9816271834476642 0 0.19080899537654467
vn 0.3973166562462626 -0.6884080922357806 -0.6068226867986911
vn 0.5408352389562012 -0.68840808618679 -0.48331309849395754
vn 0.9468738875838045 -0.3215989147854421 -0.001994748294546529
vn 0.9949661175681325 -0.0033840011166701043 0.10015474740540153
vn -0.8987940782879419 0 0.43837108120236357
vn 0.9114688514995759 -0.3215250254871696 0.2566051260819223
vn 0.9455145658533005 -0.002914999218896743 0.325566749743887
vn -0.5520038697055615 -0.6852912679853818 -0.47504484614936454
vn -0.7547094382593548 0 0.6560591923007016
vn 0.6475398562331786 -0.6884891034041858 -0.3266112200816357
vn 0.8290336428032986 -0.0030790017379908937 0.5591902528197271
vn 0 -1 0
vn -0.6068226867986911 -0.6884080922357806 -0.39731665624626267
vn -0.559192903470747 0 0.8290375725550417
vn 0.6560563766153112 -0.0030330007484801434 0.7547057914239487
vn -0.2985826915055781 0 0.9543837678488067
vn -0.2655407411405485 -0.00046799988142265294 0.9640995258637145
vn 0.7100428903978745 -0.6884557653588308 -0.1478774930123533
vn 0.4383694353199242 -0.00278100026970065 0.8987905786192859
vn 0.5969430770206035 -0.6882980222998423 0.4121950937302625
vn 0.6136708389748822 -0.6928090789815458 0.378713191574583
vn 0.6695748407417195 -0.7029027267374893 0.2399943528308606
vn -0.6889789508686506 -0.6884082647384918 -0.22672023795786814
vn -0.17145590392252666 -0.0006950003592140628 0.9851915498950498
vn -0.1993675478793236 -0.0013899995214938154 0.9799237974219811
vn -0.6626201501573525 0 0.7489556305986672
vn 0.6874572936172992 -0.6854197811909715 -0.24000456871588727
vn 0.19080847342505397 -0.0023390006876813927 0.9816244982400264
vn 0.48331309849395754 -0.68840808618679 0.5408352389562013
vn 0.6936565871284939 -0.7003431705813147 0.16840422368029181
vn 0.06104834924631985 -0.0020559995984708096 0.9981326925414027
vn -0.3157608857895502 -0.6853494141251211 0.6561945165602587
vn -0.2266036870335437 -0.6884298715627329 0.6889957046041164
vn 0.32686581774064927 -0.6884081184429803 0.6474974900758551
vn 0.7188623027601848 -0.6936343335732008 0.04591732743513889
vn -0.7241823269937728 -0.6884079589272546 -0.040674800005599365
vn 0.7241823269937728 -0.6884079589272546 0.040674800005599365
vn -0.3972054869921325 -0.6884447916214115 0.6068538291818668
vn -0.04067480000559934 -0.6884079589272546 0.7241823269937728
vn 0.14814359093122004 -0.6884082736820436 0.7100334676563577
vn -0.7100334676563577 -0.6884082736820436 0.14814359093121998
vn -0.5408352389562012 -0.68840808618679 0.48331309849395754
vn -0.6474974900758551 -0.6884081184429803 0.32686581774064927
vn 0.23720920888804486 0.0004239998863887386 0.9714584970253768
vn 0.1545855146788286 0.0005599997766859658 0.9879792533508646
vn 0.06622179013420956 0.0008499998498871887 0.9978045660407032
vn 0.07139268827945852 0.000688000317255968 0.9974480491312796
vn 0.4051912028979239 -0.000009000000763454075 0.914231966742103
vn 0.48055863434100193 0.000011000002954521906 0.8769625983126709
vn -0.3255668402679081 0.0028179999908947155 0.9455148287541669
vn -0.19936803664466 0.002157000270336409 0.9799223098359824
vn 0.628005526337817 -0.00009600001204410515 0.7782088727797695
vn 0.6911578364314986 -0.000002999999582343421 0.7227038433067379
vn -0.5593566786499451 0.003991998086984767 0.8289174687512477
vn 0.7525584912386896 -0.00001600000749090483 0.6585254110575741
vn 0.8290375725550417 0 0.559192903470747
vn -0.7548336738790963 0.00488700308366763 0.6558980423656153
vn 0.32686581774064927 0.6884081184429803 0.6474974900758551
vn 0.14814359093122004 0.6884082736820436 0.7100334676563577
vn 0.9455185051502041 0 0.32556835905616466
vn -0.6629177396931417 0.004483998660052338 0.7486788124130086
vn -0.9110984544397505 0.005092001809551105 0.41215734596761644
vn -0.8888069844870287 0.005410001894805905 0.45824979673380467
vn 0.19080899537654467 0 0.981627183447664
vn 0.4102443724264749 0.6852910996352549 0.6017272335976751
vn -0.04067480000559934 0.6884079589272546 0.7241823269937728
vn 0.9975640553500844 0 0.06975640094997757
vn -0.2267202379578681 0.6884082647384918 0.6889789508686506
vn -0.9867316320140695 0.004243999029155322 0.16230426628739977
vn -0.9649657383294481 0.004916997546905582 0.2623298438710828
vn 0.48331309849395754 0.68840808618679 0.5408352389562013
vn 0.9816271834476642 0 -0.19080899537654467
vn -0.3973166562462626 0.6884080922357806 0.6068226867986911
vn -0.5408352389562012 0.68840808618679 0.48331309849395754
vn -0.9949661175681325 0.0033840011166701043 -0.10015474740540153
vn -0.9468738875838045 0.3215989147854421 0.001994748294546529
vn 0.8987940782879419 0 -0.43837108120236357
vn -0.9455145658533005 0.002914999218896743 -0.325566749743887
vn -0.9114688514995759 0.3215250254871696 -0.2566051260819223
vn 0.5520038697055615 0.6852912679853818 0.47504484614936454
vn 0.7547094382593548 0 -0.6560591923007016
vn -0.6475398562331786 0.6884891034041858 0.3266112200816357
vn -0.8290336428032986 0.0030790017379908937 -0.5591902528197271
vn 0 1 0
vn 0.6068226867986911 0.6884080922357806 0.39731665624626267
vn 0.559192903470747 0 -0.8290375725550417
vn -0.6560563766153112 0.0030330007484801434 -0.7547057914239487
vn 0.2655407411405485 0.00046799988142265294 -0.9640995258637145
vn 0.2985826915055781 0 -0.9543837678488067
vn -0.7100428903978745 0.6884557653588308 0.1478774930123533
vn -0.4383694353199242 0.00278100026970065 -0.8987905786192859
vn -0.6695748407417195 0.7029027267374893 -0.2399943528308606
vn -0.6136708389748822 0.6928090789815458 -0.378713191574583
vn -0.5969430770206035 0.6882980222998423 -0.4121950937302625
vn 0.6889789508686506 0.6884082647384918 0.22672023795786814
vn 0.17145590392252666 0.0006950003592140628 -0.9851915498950498
vn 0.1993675478793236 0.0013899995214938154 -0.9799237974219811
vn 0.6626201501573525 0 -0.7489556305986672
vn -0.6874572936172992 0.6854197811909715 0.24000456871588727
vn -0.19080847342505397 0.0023390006876813927 -0.9816244982400264
vn -0.48331309849395754 0.68840808618679 -0.5408352389562013
vn -0.6936565871284939 0.7003431705813147 -0.16840422368029181
vn -0.06104834924631985 0.0020559995984708096 -0.9981326925414027
vn 0.3157608857895502 0.6853494141251211 -0.6561945165602587
vn 0.2266036870335437 0.6884298715627329 -0.6889957046041164
vn -0.32686581774064927 0.6884081184429803 -0.6474974900758551
vn -0.7188623027601848 0.6936343335732008 -0.04591732743513889
vn 0.7241823269937728 0.6884079589272546 0.040674800005599365
vn -0.7241823269937728 0.6884079589272546 -0.040674800005599365
vn 0.3972054869921325 0.6884447916214115 -0.6068538291818668
vn 0.04067480000559934 0.6884079589272546 -0.7241823269937728
vn -0.14814359093122004 0.6884082736820436 -0.7100334676563577
vn 0.7100334676563577 0.6884082736820436 -0.14814359093121998
vn 0.5408352389562012 0.68840808618679 -0.48331309849395754
vn 0.6474974900758551 0.6884081184429803 -0.32686581774064927
usemtl material_0_0
f 1//1 2//2 3//3
f 4//4 5//2 6//1
f 7//3 8//2 9//5
f 10//3 11//5 12//6
f 13//7 14//7 15//8
f 16//4 17//2 18//4
f 19//4 20//1 21//4
f 22//6 23//5 24//9
f 25//6 26//9 27//10
f 28//7 29//7 30//7
f 31//7 32//8 33//8
f 34//11 35//8 36//11
f 37//2 38//4 39//4
f 40//4 41//4 42//4
f 43//10 44//9 45//12
f 46//10 47//13 48//13
f 49//7 50//7 51//7
f 52//8 53//11 54//8
f 55//11 56//14 57//11
f 58//14 59//11 60//14
f 61//4 62//4 63//4
f 64//15 65//16 66//16
f 67//13 68//10 69//12
f 70//13 71//17 72//13
f 73//7 74//7 75//7
f 76//11 77//14 78//18
f 79//19 80//14 81//20
f 82//14 83//19 84//14
f 85//7 86//7 87//7
f 88//21 89//21 90//21
f 91//16 92//15 93//15
f 94//16 95//22 96//16
f 97//23 98//15 99//15
f 100//17 101//13 102//17
f 103//17 104//24 105//17
f 106//21 107//21 108//21
f 109//25 110//23 111//23
f 112//26 113//20 114//27
f 115//19 116//20 117//26
f 118//22 119//16 120//28
f 121//15 122//23 123//23
f 124//24 125//29 126//24
f 127//24 128//17 129//24
f 130//30 131//25 132//25
f 133//23 134//25 135//25
f 136//31 137//30 138//30
f 139//32 140//27 141//33
f 142//26 143//27 144//32
f 145//28 146//16 147//28
f 148//29 149//34 150//29
f 151//29 152//24 153//29
f 154//25 155//30 156//30
f 157//30 158//31 159//31
f 160//35 161//33 162//36
f 163//32 164//33 165//35
f 166//28 167//37 168//28
f 169//34 170//38 171//34
f 172//34 173//29 174//34
f 175//39 176//31 177//31
f 178//40 179//36 180//40
f 181//36 182//40 183//35
f 184//35 185//32 186//41
f 187//37 188//28 189//42
f 190//38 191//43 192//38
f 193//38 194//34 195//38
f 196//31 197//39 198//39
f 199//44 200//40 201//40
f 202//42 203//28 204//42
f 205//43 206//45 207//46
f 208//43 209//38 210//43
f 211//39 212//47 213//39
f 214//48 215//44 216//44
f 217//40 218//44 219//44
f 220//49 221//50 222//51
f 223//42 224//52 225//42
f 226//45 227//43 228//43
f 229//53 230//46 231//45
f 232//54 233//46 234//53
f 235//43 236//38 237//55
f 238//56 239//47 240//39
f 241//57 242//48 243//48
f 244//44 245//48 246//48
f 247//58 248//49 249//58
f 250//49 251//58 252//50
f 253//51 254//50 255//59
f 256//52 257//42 258//52
f 259//57 260//60 261//60
f 262//60 263//57 264//57
f 265//61 266//62 267//61
f 268//47 269//56 270//47
f 271//48 272//57 273//57
f 274//58 275//63 276//58
f 277//51 278//59 279//64
f 280//52 281//65 282//52
f 283//61 284//62 285//62
f 286//47 287//66 288//47
f 289//63 290//58 291//63
f 292//59 293//66 294//64
f 295//65 296//52 297//65
f 298//67 299//62 300//61
f 301//68 302//62 303//62
f 304//66 305//47 306//64
f 307//69 308//63 309//63
f 310//65 311//70 312//65
f 313//62 314//67 315//67
f 316//62 317//68 318//68
f 319//63 320//69 321//69
f 322//70 323//65 324//70
f 325//71 326//67 327//67
f 328//68 329//69 330//68
f 331//69 332//68 333//69
f 334//70 335//72 336//70
f 337//67 338//71 339//71
f 340//72 341//70 342//72
f 343//72 344//71 345//71
f 346//71 347//72 348//72
usemtl material_1_0
f 349//73 350//74 351//75
f 352//75 353//74 354//76
f 355//77 356//74 357//73
f 358//78 359//77 360//73
f 361//79 362//80 363//80
f 364//76 365//74 366//76
f 367//76 368//75 369//76
f 370//81 371//77 372//78
f 373//82 374//81 375//78
f 376//80 377//80 378//80
f 379//79 380//79 381//80
f 382//83 383//79 384//83
f 385//76 386//76 387//74
f 388//76 389//76 390//76
f 391//84 392//81 393//82
f 394//85 395//85 396//82
f 397//80 398//80 399//80
f 400//79 401//83 402//79
f 403//83 404//86 405//83
f 406//86 407//83 408//86
f 409//76 410//76 411//76
f 412//87 413//87 414//88
f 415//84 416//82 417//85
f 418//85 419//89 420//85
f 421//80 422//80 423//80
f 424//90 425//86 426//83
f 427//91 428//86 429//92
f 430//86 431//92 432//86
f 433//80 434//80 435//80
f 436//93 437//93 438//93
f 439//88 440//88 441//87
f 442//87 443//94 444//87
f 445//88 446//88 447//95
f 448//89 449//85 450//89
f 451//89 452//96 453//89
f 454//93 455//93 456//93
f 457//95 458//95 459//97
f 460//98 461//91 462//99
f 463//99 464//91 465//92
f 466//100 467//87 468//94
f 469//95 470//95 471//88
f 472//96 473//101 474//96
f 475//96 476//89 477//96
f 478//97 479//97 480//102
f 481//97 482//97 483//95
f 484//102 485//102 486//103
f 487//104 488//98 489//105
f 490//105 491//98 492//99
f 493//100 494//87 495//100
f 496//101 497//106 498//101
f 499//101 500//96 501//101
f 502//102 503//102 504//97
f 505//103 506//103 507//102
f 508//107 509//104 510//108
f 511//108 512//104 513//105
f 514//100 515//109 516//100
f 517//106 518//110 519//106
f 520//106 521//101 522//106
f 523//103 524//103 525//111
f 526//112 527//107 528//112
f 529//108 530//112 531//107
f 532//113 533//105 534//108
f 535//114 536//100 537//109
f 538//110 539//115 540//110
f 541//110 542//106 543//110
f 544//111 545//111 546//103
f 547//112 548//112 549//116
f 550//114 551//100 552//114
f 553//117 554//118 555//115
f 556//115 557//110 558//115
f 559//111 560//119 561//111
f 562//116 563//116 564//120
f 565//116 566//116 567//112
f 568//121 569//122 570//123
f 571//114 572//124 573//114
f 574//115 575//115 576//118
f 577//118 578//117 579//125
f 580//125 581//117 582//126
f 583//127 584//110 585//115
f 586//111 587//119 588//128
f 589//120 590//120 591//129
f 592//120 593//120 594//116
f 595//130 596//123 597//130
f 598//122 599//130 600//123
f 601//131 602//122 603//121
f 604//124 605//114 606//124
f 607//132 608//132 609//129
f 610//129 611//129 612//132
f 613//133 614//134 615//133
f 616//119 617//128 618//119
f 619//129 620//129 621//120
f 622//130 623//135 624//130
f 625//136 626//131 627//121
f 628//124 629//137 630//124
f 631//134 632//134 633//133
f 634//119 635//138 636//119
f 637//135 638//130 639//135
f 640//136 641//138 642//131
f 643//137 644//124 645//137
f 646//133 647//134 648//139
f 649//134 650//134 651//140
f 652//136 653//119 654//138
f 655//135 656//135 657//141
f 658//137 659//142 660//137
f 661//139 662//139 663//134
f 664//140 665//140 666//134
f 667//141 668//141 669//135
f 670//142 671//137 672//142
f 673//139 674//139 675//143
f 676//140 677//141 678//140
f 679//141 680//140 681//141
f 682//142 683//144 684//142
f 685//143 686//143 687//139
f 688//144 689//142 690//144
f 691//143 692//143 693//144
f 694//144 695//144 696//143
