# SSTK version 0.8.0
# 8
mtllib original-8.mtl
o mesh1/mesh1-geometry/material_0/component_3#mesh1-geometry
v -0.102738 0.689183 -0.076380
v -0.120340 0.689183 -0.045957
v -0.105176 0.689183 -0.076371
v -0.105176 0.689183 -0.076371
v -0.120340 0.689183 -0.045957
v -0.102738 0.689183 -0.076380
v -0.121068 0.689183 -0.042651
v -0.123141 0.689183 -0.014902
v -0.125611 0.689183 -0.013467
v -0.125611 0.689183 -0.013467
v -0.123141 0.689183 -0.014902
v -0.121068 0.689183 -0.042651
v -0.120340 0.689183 -0.045957
v -0.102738 0.689183 -0.076380
v -0.121068 0.689183 -0.042651
v -0.121068 0.689183 -0.042651
v -0.102738 0.689183 -0.076380
v -0.120340 0.689183 -0.045957
v -0.102738 0.689183 -0.076380
v -0.105176 0.689183 -0.076371
v -0.081021 0.689183 -0.101616
v -0.081021 0.689183 -0.101616
v -0.105176 0.689183 -0.076371
v -0.102738 0.689183 -0.076380
v -0.081021 0.689183 -0.101616
v -0.105176 0.689183 -0.076371
v -0.082656 0.689183 -0.101825
v -0.082656 0.689183 -0.101825
v -0.105176 0.689183 -0.076371
v -0.081021 0.689183 -0.101616
v -0.053512 0.689183 -0.120371
v -0.082656 0.689183 -0.101825
v -0.054316 0.689183 -0.120583
v -0.054316 0.689183 -0.120583
v -0.082656 0.689183 -0.101825
v -0.053512 0.689183 -0.120371
v -0.081021 0.689183 -0.101616
v -0.082656 0.689183 -0.101825
v -0.053512 0.689183 -0.120371
v -0.053512 0.689183 -0.120371
v -0.082656 0.689183 -0.101825
v -0.081021 0.689183 -0.101616
v -0.053512 0.689183 -0.120371
v -0.054316 0.689183 -0.120583
v -0.022087 0.689183 -0.131367
v -0.022087 0.689183 -0.131367
v -0.054316 0.689183 -0.120583
v -0.053512 0.689183 -0.120371
vn 0 -1 0
vn 0 1 0
usemtl material_0_0
f 1//1 2//1 3//1
f 4//2 5//2 6//2
f 7//1 8//1 9//1
f 10//2 11//2 12//2
f 13//1 14//1 15//1
f 16//2 17//2 18//2
f 19//1 20//1 21//1
f 22//2 23//2 24//2
f 25//1 26//1 27//1
f 28//2 29//2 30//2
f 31//1 32//1 33//1
f 34//2 35//2 36//2
f 37//1 38//1 39//1
f 40//2 41//2 42//2
f 43//1 44//1 45//1
f 46//2 47//2 48//2
