# SSTK version 0.8.0
# 6
mtllib original-6.mtl
o mesh1/mesh1-geometry/material_0/component_1#mesh1-geometry
v -0.003491 0.499865 0.122768
v -0.002897 0.607318 0.122653
v -0.002897 0.499865 0.122653
v -0.002897 0.499865 0.122653
v -0.002897 0.607318 0.122653
v -0.003491 0.499865 0.122768
v -0.003491 0.607318 0.122768
v -0.002897 0.607318 0.122653
v -0.003491 0.499865 0.122768
v -0.003491 0.499865 0.122768
v -0.002897 0.607318 0.122653
v -0.003491 0.607318 0.122768
vn -0.19080899537654467 0 -0.981627183447664
vn 0.19080899537654467 0 0.981627183447664
usemtl material_0_0
f 1//1 2//1 3//1
f 4//2 5//2 6//2
f 7//1 8//1 9//1
f 10//2 11//2 12//2
