# SSTK version 0.8.0
# 13
mtllib original-13.mtl
o mesh1/mesh1-geometry/material_3#mesh1-geometry
v 0.003835 0.819370 0.066386
v 0.040305 0.819370 0.056682
v 0.022709 0.819370 0.063934
v 0.040305 0.819370 0.056682
v 0.036359 0.819370 0.052923
v 0.055423 0.819370 0.045122
v 0.040305 0.819370 0.056682
v 0.003835 0.819370 0.066386
v -0.015029 0.819370 0.063869
v 0.036359 0.819370 0.052923
v 0.040305 0.819370 0.056682
v 0.019871 0.819370 0.059282
v 0.055423 0.819370 0.045122
v 0.036359 0.819370 0.052923
v 0.050640 0.819370 0.042512
v 0.055423 0.819370 0.045122
v 0.050640 0.819370 0.042512
v 0.067036 0.819370 0.030043
v 0.040305 0.819370 0.056682
v -0.015029 0.819370 0.063869
v 0.019871 0.819370 0.059282
v 0.019871 0.819370 0.059282
v 0.036359 0.812080 0.052923
v 0.036359 0.819370 0.052923
v 0.036359 0.819370 0.052923
v 0.050640 0.812080 0.042512
v 0.050640 0.819370 0.042512
v 0.067036 0.819370 0.030043
v 0.050640 0.819370 0.042512
v 0.061739 0.819370 0.028761
v -0.015161 0.819370 0.058421
v -0.015029 0.819370 0.063869
v -0.032600 0.819370 0.056555
v -0.031317 0.819370 0.051259
v -0.032600 0.819370 0.056555
v -0.047679 0.819370 0.044943
v -0.045069 0.819370 0.040159
v -0.047679 0.819370 0.044943
v -0.059239 0.819370 0.029824
v -0.055480 0.819370 0.025878
v -0.059239 0.819370 0.029824
v -0.066491 0.819370 0.012228
v -0.061839 0.819370 0.009390
v -0.066491 0.819370 0.012228
v -0.068942 0.819370 -0.006645
v 0.067036 0.819370 0.030043
v 0.061739 0.819370 0.028761
v 0.074349 0.819370 0.012472
v 0.019871 0.819370 0.059282
v -0.015029 0.819370 0.063869
v 0.002298 0.819370 0.061158
v 0.036359 0.812080 0.052923
v 0.019871 0.819370 0.059282
v 0.019871 0.812080 0.059282
v 0.050640 0.812080 0.042512
v 0.036359 0.819370 0.052923
v 0.036359 0.812080 0.052923
v 0.061739 0.812080 0.028761
v 0.050640 0.819370 0.042512
v 0.050640 0.812080 0.042512
v 0.050640 0.819370 0.042512
v 0.061739 0.812080 0.028761
v 0.061739 0.819370 0.028761
v 0.002298 0.819370 0.061158
v -0.015029 0.819370 0.063869
v -0.015161 0.819370 0.058421
v -0.015161 0.819370 0.058421
v -0.032600 0.819370 0.056555
v -0.031317 0.819370 0.051259
v -0.031317 0.819370 0.051259
v -0.047679 0.819370 0.044943
v -0.045069 0.819370 0.040159
v -0.045069 0.819370 0.040159
v -0.059239 0.819370 0.029824
v -0.055480 0.819370 0.025878
v -0.055480 0.819370 0.025878
v -0.066491 0.819370 0.012228
v -0.061839 0.819370 0.009390
v -0.061839 0.819370 0.009390
v -0.068942 0.819370 -0.006645
v -0.063715 0.819370 -0.008183
v 0.074349 0.819370 0.012472
v 0.061739 0.819370 0.028761
v 0.068902 0.819370 0.012604
v 0.002298 0.819370 0.061158
v 0.019871 0.812080 0.059282
v 0.019871 0.819370 0.059282
v 0.002298 0.812080 0.061158
v 0.036359 0.812080 0.052923
v 0.019871 0.812080 0.059282
v 0.036359 0.812080 0.052923
v 0.034864 0.812080 0.050179
v 0.050640 0.812080 0.042512
v 0.050640 0.812080 0.042512
v 0.048485 0.812080 0.040249
v 0.061739 0.812080 0.028761
v 0.061739 0.812080 0.028761
v 0.068902 0.819370 0.012604
v 0.061739 0.819370 0.028761
v -0.015161 0.819370 0.058421
v 0.002298 0.812080 0.061158
v 0.002298 0.819370 0.061158
v -0.031317 0.819370 0.051259
v -0.015161 0.812080 0.058421
v -0.015161 0.819370 0.058421
v -0.063715 0.819370 -0.008183
v -0.068942 0.819370 -0.006645
v -0.066426 0.819370 -0.025510
v -0.045069 0.812080 0.040159
v -0.031317 0.819370 0.051259
v -0.045069 0.819370 0.040159
v -0.055480 0.812080 0.025878
v -0.045069 0.819370 0.040159
v -0.055480 0.819370 0.025878
v -0.061839 0.812080 0.009390
v -0.055480 0.819370 0.025878
v -0.061839 0.819370 0.009390
v -0.063715 0.812080 -0.008183
v -0.061839 0.819370 0.009390
v -0.063715 0.819370 -0.008183
v 0.074349 0.819370 0.012472
v 0.068902 0.819370 0.012604
v 0.076866 0.819370 -0.006392
v 0.019871 0.812080 0.059282
v 0.002298 0.819370 0.061158
v 0.002298 0.812080 0.061158
v 0.036359 0.812080 0.052923
v 0.002298 0.812080 0.061158
v 0.019136 0.812080 0.056246
v 0.034864 0.812080 0.050179
v 0.036359 0.812080 0.052923
v 0.019136 0.812080 0.056246
v 0.050640 0.812080 0.042512
v 0.034864 0.812080 0.050179
v 0.048485 0.812080 0.040249
v 0.061739 0.812080 0.028761
v 0.048485 0.812080 0.040249
v 0.059073 0.812080 0.027132
v 0.068902 0.819370 0.012604
v 0.061739 0.812080 0.028761
v 0.068902 0.812080 0.012604
v 0.002298 0.812080 0.061158
v -0.015161 0.819370 0.058421
v -0.015161 0.812080 0.058421
v -0.015161 0.812080 0.058421
v -0.031317 0.819370 0.051259
v -0.031317 0.812080 0.051259
v -0.053816 0.819370 -0.041798
v -0.066426 0.819370 -0.025510
v -0.059112 0.819370 -0.043080
v -0.063715 0.819370 -0.008183
v -0.066426 0.819370 -0.025510
v -0.060978 0.819370 -0.025642
v -0.031317 0.819370 0.051259
v -0.045069 0.812080 0.040159
v -0.031317 0.812080 0.051259
v -0.045069 0.819370 0.040159
v -0.055480 0.812080 0.025878
v -0.045069 0.812080 0.040159
v -0.055480 0.819370 0.025878
v -0.061839 0.812080 0.009390
v -0.055480 0.812080 0.025878
v -0.061839 0.819370 0.009390
v -0.063715 0.812080 -0.008183
v -0.061839 0.812080 0.009390
v -0.063715 0.819370 -0.008183
v -0.060978 0.812080 -0.025642
v -0.063715 0.812080 -0.008183
v 0.076866 0.819370 -0.006392
v 0.068902 0.819370 0.012604
v 0.071638 0.819370 -0.004855
v 0.019136 0.812080 0.056246
v 0.002298 0.812080 0.061158
v 0.002375 0.812080 0.058034
v 0.019136 0.812080 0.056246
v 0.034864 0.814163 0.050179
v 0.034864 0.812080 0.050179
v 0.034864 0.812080 0.050179
v 0.048485 0.814163 0.040249
v 0.048485 0.812080 0.040249
v 0.048485 0.812080 0.040249
v 0.059073 0.814163 0.027132
v 0.059073 0.812080 0.027132
v 0.061739 0.812080 0.028761
v 0.059073 0.812080 0.027132
v 0.068902 0.812080 0.012604
v 0.068902 0.812080 0.012604
v 0.071638 0.819370 -0.004855
v 0.068902 0.819370 0.012604
v 0.002375 0.812080 0.058034
v 0.002298 0.812080 0.061158
v -0.015161 0.812080 0.058421
v -0.014279 0.812080 0.055424
v -0.015161 0.812080 0.058421
v -0.031317 0.812080 0.051259
v -0.060978 0.819370 -0.025642
v -0.066426 0.819370 -0.025510
v -0.053816 0.819370 -0.041798
v -0.053816 0.819370 -0.041798
v -0.059112 0.819370 -0.043080
v -0.042716 0.819370 -0.055550
v -0.060978 0.812080 -0.025642
v -0.063715 0.819370 -0.008183
v -0.060978 0.819370 -0.025642
v -0.029689 0.812080 0.048592
v -0.031317 0.812080 0.051259
v -0.045069 0.812080 0.040159
v -0.042806 0.812080 0.038005
v -0.045069 0.812080 0.040159
v -0.055480 0.812080 0.025878
v -0.052737 0.812080 0.024383
v -0.055480 0.812080 0.025878
v -0.061839 0.812080 0.009390
v -0.058802 0.812080 0.008656
v -0.061839 0.812080 0.009390
v -0.063715 0.812080 -0.008183
v -0.057981 0.812080 -0.024759
v -0.063715 0.812080 -0.008183
v -0.060978 0.812080 -0.025642
v -0.042716 0.819370 -0.055550
v -0.059112 0.819370 -0.043080
v -0.047500 0.819370 -0.058159
v -0.028435 0.819370 -0.065960
v -0.047500 0.819370 -0.058159
v -0.032381 0.819370 -0.069719
v 0.076866 0.819370 -0.006392
v 0.071638 0.819370 -0.004855
v 0.069763 0.819370 -0.022428
v 0.076866 0.819370 -0.006392
v 0.069763 0.819370 -0.022428
v 0.074414 0.819370 -0.025266
v 0.002375 0.812080 0.058034
v 0.019136 0.814163 0.056246
v 0.019136 0.812080 0.056246
v 0.034864 0.814163 0.050179
v 0.019136 0.812080 0.056246
v 0.019136 0.814163 0.056246
v 0.048485 0.814163 0.040249
v 0.034864 0.812080 0.050179
v 0.034864 0.814163 0.050179
v 0.059073 0.814163 0.027132
v 0.048485 0.812080 0.040249
v 0.048485 0.814163 0.040249
v 0.059073 0.814163 0.027132
v 0.065905 0.812080 0.011722
v 0.059073 0.812080 0.027132
v 0.068902 0.812080 0.012604
v 0.059073 0.812080 0.027132
v 0.065905 0.812080 0.011722
v 0.071638 0.819370 -0.004855
v 0.068902 0.812080 0.012604
v 0.071638 0.812080 -0.004855
v 0.002375 0.812080 0.058034
v -0.015161 0.812080 0.058421
v -0.014279 0.812080 0.055424
v -0.014279 0.812080 0.055424
v -0.031317 0.812080 0.051259
v -0.029689 0.812080 0.048592
v -0.053816 0.812080 -0.041798
v -0.060978 0.819370 -0.025642
v -0.053816 0.819370 -0.041798
v -0.042716 0.819370 -0.055550
v -0.053816 0.812080 -0.041798
v -0.053816 0.819370 -0.041798
v -0.060978 0.819370 -0.025642
v -0.053816 0.812080 -0.041798
v -0.060978 0.812080 -0.025642
v -0.029689 0.812080 0.048592
v -0.045069 0.812080 0.040159
v -0.042806 0.812080 0.038005
v -0.042806 0.812080 0.038005
v -0.055480 0.812080 0.025878
v -0.052737 0.812080 0.024383
v -0.052737 0.812080 0.024383
v -0.061839 0.812080 0.009390
v -0.058802 0.812080 0.008656
v -0.058802 0.812080 0.008656
v -0.063715 0.812080 -0.008183
v -0.060591 0.812080 -0.008106
v -0.060591 0.812080 -0.008106
v -0.063715 0.812080 -0.008183
v -0.057981 0.812080 -0.024759
v -0.057981 0.812080 -0.024759
v -0.060978 0.812080 -0.025642
v -0.051149 0.812080 -0.040170
v 0.004088 0.819370 -0.079423
v -0.032381 0.819370 -0.069719
v -0.014785 0.819370 -0.076972
v -0.042716 0.819370 -0.055550
v -0.047500 0.819370 -0.058159
v -0.028435 0.819370 -0.065960
v -0.028435 0.819370 -0.065960
v -0.032381 0.819370 -0.069719
v -0.011947 0.819370 -0.072320
v 0.071638 0.812080 -0.004855
v 0.069763 0.819370 -0.022428
v 0.071638 0.819370 -0.004855
v 0.074414 0.819370 -0.025266
v 0.069763 0.819370 -0.022428
v 0.063403 0.819370 -0.038916
v 0.019136 0.814163 0.056246
v 0.002375 0.812080 0.058034
v 0.002375 0.814163 0.058034
v 0.002375 0.814163 0.058034
v 0.034864 0.814163 0.050179
v 0.019136 0.814163 0.056246
v 0.034864 0.814163 0.050179
v -0.014279 0.814163 0.055424
v 0.048485 0.814163 0.040249
v 0.048485 0.814163 0.040249
v -0.029689 0.814163 0.048592
v 0.059073 0.814163 0.027132
v 0.065905 0.812080 0.011722
v 0.059073 0.814163 0.027132
v 0.065905 0.814163 0.011722
v 0.068902 0.812080 0.012604
v 0.065905 0.812080 0.011722
v 0.071638 0.812080 -0.004855
v -0.014279 0.812080 0.055424
v 0.002375 0.814163 0.058034
v 0.002375 0.812080 0.058034
v -0.029689 0.812080 0.048592
v -0.014279 0.814163 0.055424
v -0.014279 0.812080 0.055424
v -0.053816 0.812080 -0.041798
v -0.042716 0.819370 -0.055550
v -0.042716 0.812080 -0.055550
v -0.051149 0.812080 -0.040170
v -0.060978 0.812080 -0.025642
v -0.053816 0.812080 -0.041798
v -0.042806 0.814163 0.038005
v -0.029689 0.812080 0.048592
v -0.042806 0.812080 0.038005
v -0.052737 0.814163 0.024383
v -0.042806 0.812080 0.038005
v -0.052737 0.812080 0.024383
v -0.058802 0.814163 0.008656
v -0.052737 0.812080 0.024383
v -0.058802 0.812080 0.008656
v -0.060591 0.814163 -0.008106
v -0.058802 0.812080 0.008656
v -0.060591 0.812080 -0.008106
v -0.057981 0.814163 -0.024759
v -0.060591 0.812080 -0.008106
v -0.057981 0.812080 -0.024759
v -0.051149 0.814163 -0.040170
v -0.057981 0.812080 -0.024759
v -0.051149 0.812080 -0.040170
v 0.004088 0.819370 -0.079423
v -0.011947 0.819370 -0.072320
v -0.032381 0.819370 -0.069719
v -0.028435 0.819370 -0.065960
v -0.042716 0.812080 -0.055550
v -0.042716 0.819370 -0.055550
v -0.011947 0.819370 -0.072320
v -0.028435 0.812080 -0.065960
v -0.028435 0.819370 -0.065960
v 0.069763 0.819370 -0.022428
v 0.071638 0.812080 -0.004855
v 0.069763 0.812080 -0.022428
v 0.069763 0.812080 -0.022428
v 0.063403 0.819370 -0.038916
v 0.069763 0.819370 -0.022428
v 0.074414 0.819370 -0.025266
v 0.063403 0.819370 -0.038916
v 0.067162 0.819370 -0.042862
v 0.034864 0.814163 0.050179
v 0.002375 0.814163 0.058034
v -0.014279 0.814163 0.055424
v 0.048485 0.814163 0.040249
v -0.014279 0.814163 0.055424
v -0.029689 0.814163 0.048592
v 0.059073 0.814163 0.027132
v -0.029689 0.814163 0.048592
v -0.042806 0.814163 0.038005
v 0.059073 0.814163 0.027132
v -0.042806 0.814163 0.038005
v 0.065905 0.814163 0.011722
v 0.065905 0.814163 0.011722
v 0.068515 0.812080 -0.004932
v 0.065905 0.812080 0.011722
v 0.071638 0.812080 -0.004855
v 0.065905 0.812080 0.011722
v 0.068515 0.812080 -0.004932
v 0.022953 0.819370 -0.076906
v 0.005626 0.819370 -0.074196
v 0.004088 0.819370 -0.079423
v 0.002375 0.814163 0.058034
v -0.014279 0.812080 0.055424
v -0.014279 0.814163 0.055424
v -0.014279 0.814163 0.055424
v -0.029689 0.812080 0.048592
v -0.029689 0.814163 0.048592
v -0.040562 0.812080 -0.053287
v -0.053816 0.812080 -0.041798
v -0.042716 0.812080 -0.055550
v -0.051149 0.812080 -0.040170
v -0.053816 0.812080 -0.041798
v -0.040562 0.812080 -0.053287
v -0.029689 0.812080 0.048592
v -0.042806 0.814163 0.038005
v -0.029689 0.814163 0.048592
v -0.042806 0.812080 0.038005
v -0.052737 0.814163 0.024383
v -0.042806 0.814163 0.038005
v -0.052737 0.812080 0.024383
v -0.058802 0.814163 0.008656
v -0.052737 0.814163 0.024383
v -0.058802 0.812080 0.008656
v -0.060591 0.814163 -0.008106
v -0.058802 0.814163 0.008656
v -0.060591 0.812080 -0.008106
v -0.057981 0.814163 -0.024759
v -0.060591 0.814163 -0.008106
v -0.057981 0.812080 -0.024759
v -0.051149 0.814163 -0.040170
v -0.057981 0.814163 -0.024759
v -0.040562 0.812080 -0.053287
v -0.051149 0.814163 -0.040170
v -0.051149 0.812080 -0.040170
v 0.004088 0.819370 -0.079423
v 0.005626 0.819370 -0.074196
v -0.011947 0.819370 -0.072320
v -0.042716 0.812080 -0.055550
v -0.028435 0.819370 -0.065960
v -0.028435 0.812080 -0.065960
v -0.028435 0.812080 -0.065960
v -0.011947 0.819370 -0.072320
v -0.011947 0.812080 -0.072320
v 0.071638 0.812080 -0.004855
v 0.068515 0.812080 -0.004932
v 0.069763 0.812080 -0.022428
v 0.063403 0.819370 -0.038916
v 0.069763 0.812080 -0.022428
v 0.063403 0.812080 -0.038916
v 0.067162 0.819370 -0.042862
v 0.063403 0.819370 -0.038916
v 0.052993 0.819370 -0.053197
v 0.065905 0.814163 0.011722
v -0.042806 0.814163 0.038005
v -0.052737 0.814163 0.024383
v 0.068515 0.812080 -0.004932
v 0.065905 0.814163 0.011722
v 0.068515 0.814163 -0.004932
v 0.040523 0.819370 -0.069593
v 0.023085 0.819370 -0.071459
v 0.022953 0.819370 -0.076906
v 0.022953 0.819370 -0.076906
v 0.023085 0.819370 -0.071459
v 0.005626 0.819370 -0.074196
v -0.040562 0.812080 -0.053287
v -0.042716 0.812080 -0.055550
v -0.026940 0.812080 -0.063217
v 0.068515 0.814163 -0.004932
v -0.052737 0.814163 0.024383
v -0.058802 0.814163 0.008656
v 0.066726 0.814163 -0.021693
v -0.058802 0.814163 0.008656
v -0.060591 0.814163 -0.008106
v 0.060660 0.814163 -0.037421
v -0.060591 0.814163 -0.008106
v -0.057981 0.814163 -0.024759
v 0.050730 0.814163 -0.051042
v -0.057981 0.814163 -0.024759
v -0.051149 0.814163 -0.040170
v -0.051149 0.814163 -0.040170
v -0.040562 0.812080 -0.053287
v -0.040562 0.814163 -0.053287
v 0.005626 0.819370 -0.074196
v -0.011947 0.812080 -0.072320
v -0.011947 0.819370 -0.072320
v -0.026940 0.812080 -0.063217
v -0.042716 0.812080 -0.055550
v -0.028435 0.812080 -0.065960
v 0.005626 0.812080 -0.074196
v -0.028435 0.812080 -0.065960
v -0.011947 0.812080 -0.072320
v 0.069763 0.812080 -0.022428
v 0.068515 0.812080 -0.004932
v 0.066726 0.812080 -0.021693
v 0.069763 0.812080 -0.022428
v 0.060660 0.812080 -0.037421
v 0.063403 0.812080 -0.038916
v 0.063403 0.812080 -0.038916
v 0.052993 0.819370 -0.053197
v 0.063403 0.819370 -0.038916
v 0.067162 0.819370 -0.042862
v 0.052993 0.819370 -0.053197
v 0.055603 0.819370 -0.057981
v 0.065905 0.814163 0.011722
v -0.052737 0.814163 0.024383
v 0.068515 0.814163 -0.004932
v 0.068515 0.814163 -0.004932
v 0.066726 0.812080 -0.021693
v 0.068515 0.812080 -0.004932
v 0.055603 0.819370 -0.057981
v 0.039241 0.819370 -0.064296
v 0.040523 0.819370 -0.069593
v 0.040523 0.819370 -0.069593
v 0.039241 0.819370 -0.064296
v 0.023085 0.819370 -0.071459
v 0.023085 0.819370 -0.071459
v 0.005626 0.812080 -0.074196
v 0.005626 0.819370 -0.074196
v -0.026940 0.812080 -0.063217
v -0.040562 0.814163 -0.053287
v -0.040562 0.812080 -0.053287
v 0.068515 0.814163 -0.004932
v -0.058802 0.814163 0.008656
v 0.066726 0.814163 -0.021693
v 0.066726 0.814163 -0.021693
v -0.060591 0.814163 -0.008106
v 0.060660 0.814163 -0.037421
v 0.060660 0.814163 -0.037421
v -0.057981 0.814163 -0.024759
v 0.050730 0.814163 -0.051042
v 0.050730 0.814163 -0.051042
v -0.051149 0.814163 -0.040170
v 0.037613 0.814163 -0.061630
v 0.037613 0.814163 -0.061630
v -0.051149 0.814163 -0.040170
v -0.040562 0.814163 -0.053287
v -0.011947 0.812080 -0.072320
v 0.005626 0.819370 -0.074196
v 0.005626 0.812080 -0.074196
v -0.026940 0.812080 -0.063217
v -0.028435 0.812080 -0.065960
v -0.011213 0.812080 -0.069283
v 0.005626 0.812080 -0.074196
v -0.011213 0.812080 -0.069283
v -0.028435 0.812080 -0.065960
v 0.069763 0.812080 -0.022428
v 0.066726 0.812080 -0.021693
v 0.060660 0.812080 -0.037421
v 0.063403 0.812080 -0.038916
v 0.060660 0.812080 -0.037421
v 0.050730 0.812080 -0.051042
v 0.052993 0.819370 -0.053197
v 0.063403 0.812080 -0.038916
v 0.052993 0.812080 -0.053197
v 0.055603 0.819370 -0.057981
v 0.052993 0.819370 -0.053197
v 0.039241 0.819370 -0.064296
v 0.066726 0.812080 -0.021693
v 0.068515 0.814163 -0.004932
v 0.066726 0.814163 -0.021693
v 0.039241 0.819370 -0.064296
v 0.023085 0.812080 -0.071459
v 0.023085 0.819370 -0.071459
v 0.005626 0.812080 -0.074196
v 0.023085 0.819370 -0.071459
v 0.023085 0.812080 -0.071459
v -0.040562 0.814163 -0.053287
v -0.026940 0.812080 -0.063217
v -0.026940 0.814163 -0.063217
v 0.060660 0.812080 -0.037421
v 0.066726 0.814163 -0.021693
v 0.060660 0.814163 -0.037421
v 0.050730 0.812080 -0.051042
v 0.060660 0.814163 -0.037421
v 0.050730 0.814163 -0.051042
v 0.037613 0.812080 -0.061630
v 0.050730 0.814163 -0.051042
v 0.037613 0.814163 -0.061630
v 0.037613 0.814163 -0.061630
v -0.040562 0.814163 -0.053287
v 0.022202 0.814163 -0.068462
v -0.011213 0.812080 -0.069283
v -0.026940 0.814163 -0.063217
v -0.026940 0.812080 -0.063217
v 0.005626 0.812080 -0.074196
v 0.005549 0.812080 -0.071072
v -0.011213 0.812080 -0.069283
v 0.066726 0.814163 -0.021693
v 0.060660 0.812080 -0.037421
v 0.066726 0.812080 -0.021693
v 0.060660 0.814163 -0.037421
v 0.050730 0.812080 -0.051042
v 0.060660 0.812080 -0.037421
v 0.063403 0.812080 -0.038916
v 0.050730 0.812080 -0.051042
v 0.052993 0.812080 -0.053197
v 0.052993 0.812080 -0.053197
v 0.039241 0.819370 -0.064296
v 0.052993 0.819370 -0.053197
v 0.023085 0.812080 -0.071459
v 0.039241 0.819370 -0.064296
v 0.039241 0.812080 -0.064296
v 0.023085 0.812080 -0.071459
v 0.005549 0.812080 -0.071072
v 0.005626 0.812080 -0.074196
v 0.022202 0.814163 -0.068462
v -0.040562 0.814163 -0.053287
v -0.026940 0.814163 -0.063217
v 0.050730 0.814163 -0.051042
v 0.037613 0.812080 -0.061630
v 0.050730 0.812080 -0.051042
v 0.022202 0.814163 -0.068462
v 0.037613 0.812080 -0.061630
v 0.037613 0.814163 -0.061630
v -0.026940 0.814163 -0.063217
v -0.011213 0.812080 -0.069283
v -0.011213 0.814163 -0.069283
v 0.005549 0.812080 -0.071072
v -0.011213 0.814163 -0.069283
v -0.011213 0.812080 -0.069283
v 0.052993 0.812080 -0.053197
v 0.050730 0.812080 -0.051042
v 0.037613 0.812080 -0.061630
v 0.039241 0.819370 -0.064296
v 0.052993 0.812080 -0.053197
v 0.039241 0.812080 -0.064296
v 0.039241 0.812080 -0.064296
v 0.022202 0.812080 -0.068462
v 0.023085 0.812080 -0.071459
v 0.023085 0.812080 -0.071459
v 0.022202 0.812080 -0.068462
v 0.005549 0.812080 -0.071072
v 0.022202 0.814163 -0.068462
v -0.026940 0.814163 -0.063217
v 0.005549 0.814163 -0.071072
v 0.037613 0.812080 -0.061630
v 0.022202 0.814163 -0.068462
v 0.022202 0.812080 -0.068462
v 0.005549 0.814163 -0.071072
v -0.026940 0.814163 -0.063217
v -0.011213 0.814163 -0.069283
v -0.011213 0.814163 -0.069283
v 0.005549 0.812080 -0.071072
v 0.005549 0.814163 -0.071072
v 0.052993 0.812080 -0.053197
v 0.037613 0.812080 -0.061630
v 0.039241 0.812080 -0.064296
v 0.039241 0.812080 -0.064296
v 0.037613 0.812080 -0.061630
v 0.022202 0.812080 -0.068462
v 0.022202 0.812080 -0.068462
v 0.005549 0.814163 -0.071072
v 0.005549 0.812080 -0.071072
v 0.005549 0.814163 -0.071072
v 0.022202 0.812080 -0.068462
v 0.022202 0.814163 -0.068462
v 0.022709 0.819370 0.063934
v 0.040305 0.819370 0.056682
v 0.003835 0.819370 0.066386
v 0.055423 0.819370 0.045122
v 0.036359 0.819370 0.052923
v 0.040305 0.819370 0.056682
v -0.015029 0.819370 0.063869
v 0.003835 0.819370 0.066386
v 0.040305 0.819370 0.056682
v 0.019871 0.819370 0.059282
v 0.040305 0.819370 0.056682
v 0.036359 0.819370 0.052923
v 0.050640 0.819370 0.042512
v 0.036359 0.819370 0.052923
v 0.055423 0.819370 0.045122
v 0.067036 0.819370 0.030043
v 0.050640 0.819370 0.042512
v 0.055423 0.819370 0.045122
v 0.019871 0.819370 0.059282
v -0.015029 0.819370 0.063869
v 0.040305 0.819370 0.056682
v 0.036359 0.819370 0.052923
v 0.036359 0.812080 0.052923
v 0.019871 0.819370 0.059282
v 0.050640 0.819370 0.042512
v 0.050640 0.812080 0.042512
v 0.036359 0.819370 0.052923
v 0.061739 0.819370 0.028761
v 0.050640 0.819370 0.042512
v 0.067036 0.819370 0.030043
v -0.032600 0.819370 0.056555
v -0.015029 0.819370 0.063869
v -0.015161 0.819370 0.058421
v -0.047679 0.819370 0.044943
v -0.032600 0.819370 0.056555
v -0.031317 0.819370 0.051259
v -0.059239 0.819370 0.029824
v -0.047679 0.819370 0.044943
v -0.045069 0.819370 0.040159
v -0.066491 0.819370 0.012228
v -0.059239 0.819370 0.029824
v -0.055480 0.819370 0.025878
v -0.068942 0.819370 -0.006645
v -0.066491 0.819370 0.012228
v -0.061839 0.819370 0.009390
v 0.074349 0.819370 0.012472
v 0.061739 0.819370 0.028761
v 0.067036 0.819370 0.030043
v 0.002298 0.819370 0.061158
v -0.015029 0.819370 0.063869
v 0.019871 0.819370 0.059282
v 0.019871 0.812080 0.059282
v 0.019871 0.819370 0.059282
v 0.036359 0.812080 0.052923
v 0.036359 0.812080 0.052923
v 0.036359 0.819370 0.052923
v 0.050640 0.812080 0.042512
v 0.050640 0.812080 0.042512
v 0.050640 0.819370 0.042512
v 0.061739 0.812080 0.028761
v 0.061739 0.819370 0.028761
v 0.061739 0.812080 0.028761
v 0.050640 0.819370 0.042512
v -0.015161 0.819370 0.058421
v -0.015029 0.819370 0.063869
v 0.002298 0.819370 0.061158
v -0.031317 0.819370 0.051259
v -0.032600 0.819370 0.056555
v -0.015161 0.819370 0.058421
v -0.045069 0.819370 0.040159
v -0.047679 0.819370 0.044943
v -0.031317 0.819370 0.051259
v -0.055480 0.819370 0.025878
v -0.059239 0.819370 0.029824
v -0.045069 0.819370 0.040159
v -0.061839 0.819370 0.009390
v -0.066491 0.819370 0.012228
v -0.055480 0.819370 0.025878
v -0.063715 0.819370 -0.008183
v -0.068942 0.819370 -0.006645
v -0.061839 0.819370 0.009390
v 0.068902 0.819370 0.012604
v 0.061739 0.819370 0.028761
v 0.074349 0.819370 0.012472
v 0.019871 0.819370 0.059282
v 0.019871 0.812080 0.059282
v 0.002298 0.819370 0.061158
v 0.019871 0.812080 0.059282
v 0.036359 0.812080 0.052923
v 0.002298 0.812080 0.061158
v 0.050640 0.812080 0.042512
v 0.034864 0.812080 0.050179
v 0.036359 0.812080 0.052923
v 0.061739 0.812080 0.028761
v 0.048485 0.812080 0.040249
v 0.050640 0.812080 0.042512
v 0.061739 0.819370 0.028761
v 0.068902 0.819370 0.012604
v 0.061739 0.812080 0.028761
v 0.002298 0.819370 0.061158
v 0.002298 0.812080 0.061158
v -0.015161 0.819370 0.058421
v -0.015161 0.819370 0.058421
v -0.015161 0.812080 0.058421
v -0.031317 0.819370 0.051259
v -0.066426 0.819370 -0.025510
v -0.068942 0.819370 -0.006645
v -0.063715 0.819370 -0.008183
v -0.045069 0.819370 0.040159
v -0.031317 0.819370 0.051259
v -0.045069 0.812080 0.040159
v -0.055480 0.819370 0.025878
v -0.045069 0.819370 0.040159
v -0.055480 0.812080 0.025878
v -0.061839 0.819370 0.009390
v -0.055480 0.819370 0.025878
v -0.061839 0.812080 0.009390
v -0.063715 0.819370 -0.008183
v -0.061839 0.819370 0.009390
v -0.063715 0.812080 -0.008183
v 0.076866 0.819370 -0.006392
v 0.068902 0.819370 0.012604
v 0.074349 0.819370 0.012472
v 0.002298 0.812080 0.061158
v 0.002298 0.819370 0.061158
v 0.019871 0.812080 0.059282
v 0.019136 0.812080 0.056246
v 0.002298 0.812080 0.061158
v 0.036359 0.812080 0.052923
v 0.019136 0.812080 0.056246
v 0.036359 0.812080 0.052923
v 0.034864 0.812080 0.050179
v 0.048485 0.812080 0.040249
v 0.034864 0.812080 0.050179
v 0.050640 0.812080 0.042512
v 0.059073 0.812080 0.027132
v 0.048485 0.812080 0.040249
v 0.061739 0.812080 0.028761
v 0.068902 0.812080 0.012604
v 0.061739 0.812080 0.028761
v 0.068902 0.819370 0.012604
v -0.015161 0.812080 0.058421
v -0.015161 0.819370 0.058421
v 0.002298 0.812080 0.061158
v -0.031317 0.812080 0.051259
v -0.031317 0.819370 0.051259
v -0.015161 0.812080 0.058421
v -0.059112 0.819370 -0.043080
v -0.066426 0.819370 -0.025510
v -0.053816 0.819370 -0.041798
v -0.060978 0.819370 -0.025642
v -0.066426 0.819370 -0.025510
v -0.063715 0.819370 -0.008183
v -0.031317 0.812080 0.051259
v -0.045069 0.812080 0.040159
v -0.031317 0.819370 0.051259
v -0.045069 0.812080 0.040159
v -0.055480 0.812080 0.025878
v -0.045069 0.819370 0.040159
v -0.055480 0.812080 0.025878
v -0.061839 0.812080 0.009390
v -0.055480 0.819370 0.025878
v -0.061839 0.812080 0.009390
v -0.063715 0.812080 -0.008183
v -0.061839 0.819370 0.009390
v -0.063715 0.812080 -0.008183
v -0.060978 0.812080 -0.025642
v -0.063715 0.819370 -0.008183
v 0.071638 0.819370 -0.004855
v 0.068902 0.819370 0.012604
v 0.076866 0.819370 -0.006392
v 0.002375 0.812080 0.058034
v 0.002298 0.812080 0.061158
v 0.019136 0.812080 0.056246
v 0.034864 0.812080 0.050179
v 0.034864 0.814163 0.050179
v 0.019136 0.812080 0.056246
v 0.048485 0.812080 0.040249
v 0.048485 0.814163 0.040249
v 0.034864 0.812080 0.050179
v 0.059073 0.812080 0.027132
v 0.059073 0.814163 0.027132
v 0.048485 0.812080 0.040249
v 0.068902 0.812080 0.012604
v 0.059073 0.812080 0.027132
v 0.061739 0.812080 0.028761
v 0.068902 0.819370 0.012604
v 0.071638 0.819370 -0.004855
v 0.068902 0.812080 0.012604
v -0.015161 0.812080 0.058421
v 0.002298 0.812080 0.061158
v 0.002375 0.812080 0.058034
v -0.031317 0.812080 0.051259
v -0.015161 0.812080 0.058421
v -0.014279 0.812080 0.055424
v -0.053816 0.819370 -0.041798
v -0.066426 0.819370 -0.025510
v -0.060978 0.819370 -0.025642
v -0.042716 0.819370 -0.055550
v -0.059112 0.819370 -0.043080
v -0.053816 0.819370 -0.041798
v -0.060978 0.819370 -0.025642
v -0.063715 0.819370 -0.008183
v -0.060978 0.812080 -0.025642
v -0.045069 0.812080 0.040159
v -0.031317 0.812080 0.051259
v -0.029689 0.812080 0.048592
v -0.055480 0.812080 0.025878
v -0.045069 0.812080 0.040159
v -0.042806 0.812080 0.038005
v -0.061839 0.812080 0.009390
v -0.055480 0.812080 0.025878
v -0.052737 0.812080 0.024383
v -0.063715 0.812080 -0.008183
v -0.061839 0.812080 0.009390
v -0.058802 0.812080 0.008656
v -0.060978 0.812080 -0.025642
v -0.063715 0.812080 -0.008183
v -0.057981 0.812080 -0.024759
v -0.047500 0.819370 -0.058159
v -0.059112 0.819370 -0.043080
v -0.042716 0.819370 -0.055550
v -0.032381 0.819370 -0.069719
v -0.047500 0.819370 -0.058159
v -0.028435 0.819370 -0.065960
v 0.069763 0.819370 -0.022428
v 0.071638 0.819370 -0.004855
v 0.076866 0.819370 -0.006392
v 0.074414 0.819370 -0.025266
v 0.069763 0.819370 -0.022428
v 0.076866 0.819370 -0.006392
v 0.019136 0.812080 0.056246
v 0.019136 0.814163 0.056246
v 0.002375 0.812080 0.058034
v 0.019136 0.814163 0.056246
v 0.019136 0.812080 0.056246
v 0.034864 0.814163 0.050179
v 0.034864 0.814163 0.050179
v 0.034864 0.812080 0.050179
v 0.048485 0.814163 0.040249
v 0.048485 0.814163 0.040249
v 0.048485 0.812080 0.040249
v 0.059073 0.814163 0.027132
v 0.059073 0.812080 0.027132
v 0.065905 0.812080 0.011722
v 0.059073 0.814163 0.027132
v 0.065905 0.812080 0.011722
v 0.059073 0.812080 0.027132
v 0.068902 0.812080 0.012604
v 0.071638 0.812080 -0.004855
v 0.068902 0.812080 0.012604
v 0.071638 0.819370 -0.004855
v -0.014279 0.812080 0.055424
v -0.015161 0.812080 0.058421
v 0.002375 0.812080 0.058034
v -0.029689 0.812080 0.048592
v -0.031317 0.812080 0.051259
v -0.014279 0.812080 0.055424
v -0.053816 0.819370 -0.041798
v -0.060978 0.819370 -0.025642
v -0.053816 0.812080 -0.041798
v -0.053816 0.819370 -0.041798
v -0.053816 0.812080 -0.041798
v -0.042716 0.819370 -0.055550
v -0.060978 0.812080 -0.025642
v -0.053816 0.812080 -0.041798
v -0.060978 0.819370 -0.025642
v -0.042806 0.812080 0.038005
v -0.045069 0.812080 0.040159
v -0.029689 0.812080 0.048592
v -0.052737 0.812080 0.024383
v -0.055480 0.812080 0.025878
v -0.042806 0.812080 0.038005
v -0.058802 0.812080 0.008656
v -0.061839 0.812080 0.009390
v -0.052737 0.812080 0.024383
v -0.060591 0.812080 -0.008106
v -0.063715 0.812080 -0.008183
v -0.058802 0.812080 0.008656
v -0.057981 0.812080 -0.024759
v -0.063715 0.812080 -0.008183
v -0.060591 0.812080 -0.008106
v -0.051149 0.812080 -0.040170
v -0.060978 0.812080 -0.025642
v -0.057981 0.812080 -0.024759
v -0.014785 0.819370 -0.076972
v -0.032381 0.819370 -0.069719
v 0.004088 0.819370 -0.079423
v -0.028435 0.819370 -0.065960
v -0.047500 0.819370 -0.058159
v -0.042716 0.819370 -0.055550
v -0.011947 0.819370 -0.072320
v -0.032381 0.819370 -0.069719
v -0.028435 0.819370 -0.065960
v 0.071638 0.819370 -0.004855
v 0.069763 0.819370 -0.022428
v 0.071638 0.812080 -0.004855
v 0.063403 0.819370 -0.038916
v 0.069763 0.819370 -0.022428
v 0.074414 0.819370 -0.025266
v 0.002375 0.814163 0.058034
v 0.002375 0.812080 0.058034
v 0.019136 0.814163 0.056246
v 0.019136 0.814163 0.056246
v 0.034864 0.814163 0.050179
v 0.002375 0.814163 0.058034
v 0.048485 0.814163 0.040249
v -0.014279 0.814163 0.055424
v 0.034864 0.814163 0.050179
v 0.059073 0.814163 0.027132
v -0.029689 0.814163 0.048592
v 0.048485 0.814163 0.040249
v 0.065905 0.814163 0.011722
v 0.059073 0.814163 0.027132
v 0.065905 0.812080 0.011722
v 0.071638 0.812080 -0.004855
v 0.065905 0.812080 0.011722
v 0.068902 0.812080 0.012604
v 0.002375 0.812080 0.058034
v 0.002375 0.814163 0.058034
v -0.014279 0.812080 0.055424
v -0.014279 0.812080 0.055424
v -0.014279 0.814163 0.055424
v -0.029689 0.812080 0.048592
v -0.042716 0.812080 -0.055550
v -0.042716 0.819370 -0.055550
v -0.053816 0.812080 -0.041798
v -0.053816 0.812080 -0.041798
v -0.060978 0.812080 -0.025642
v -0.051149 0.812080 -0.040170
v -0.042806 0.812080 0.038005
v -0.029689 0.812080 0.048592
v -0.042806 0.814163 0.038005
v -0.052737 0.812080 0.024383
v -0.042806 0.812080 0.038005
v -0.052737 0.814163 0.024383
v -0.058802 0.812080 0.008656
v -0.052737 0.812080 0.024383
v -0.058802 0.814163 0.008656
v -0.060591 0.812080 -0.008106
v -0.058802 0.812080 0.008656
v -0.060591 0.814163 -0.008106
v -0.057981 0.812080 -0.024759
v -0.060591 0.812080 -0.008106
v -0.057981 0.814163 -0.024759
v -0.051149 0.812080 -0.040170
v -0.057981 0.812080 -0.024759
v -0.051149 0.814163 -0.040170
v -0.032381 0.819370 -0.069719
v -0.011947 0.819370 -0.072320
v 0.004088 0.819370 -0.079423
v -0.042716 0.819370 -0.055550
v -0.042716 0.812080 -0.055550
v -0.028435 0.819370 -0.065960
v -0.028435 0.819370 -0.065960
v -0.028435 0.812080 -0.065960
v -0.011947 0.819370 -0.072320
v 0.069763 0.812080 -0.022428
v 0.071638 0.812080 -0.004855
v 0.069763 0.819370 -0.022428
v 0.069763 0.819370 -0.022428
v 0.063403 0.819370 -0.038916
v 0.069763 0.812080 -0.022428
v 0.067162 0.819370 -0.042862
v 0.063403 0.819370 -0.038916
v 0.074414 0.819370 -0.025266
v -0.014279 0.814163 0.055424
v 0.002375 0.814163 0.058034
v 0.034864 0.814163 0.050179
v -0.029689 0.814163 0.048592
v -0.014279 0.814163 0.055424
v 0.048485 0.814163 0.040249
v -0.042806 0.814163 0.038005
v -0.029689 0.814163 0.048592
v 0.059073 0.814163 0.027132
v 0.065905 0.814163 0.011722
v -0.042806 0.814163 0.038005
v 0.059073 0.814163 0.027132
v 0.065905 0.812080 0.011722
v 0.068515 0.812080 -0.004932
v 0.065905 0.814163 0.011722
v 0.068515 0.812080 -0.004932
v 0.065905 0.812080 0.011722
v 0.071638 0.812080 -0.004855
v 0.004088 0.819370 -0.079423
v 0.005626 0.819370 -0.074196
v 0.022953 0.819370 -0.076906
v -0.014279 0.814163 0.055424
v -0.014279 0.812080 0.055424
v 0.002375 0.814163 0.058034
v -0.029689 0.814163 0.048592
v -0.029689 0.812080 0.048592
v -0.014279 0.814163 0.055424
v -0.042716 0.812080 -0.055550
v -0.053816 0.812080 -0.041798
v -0.040562 0.812080 -0.053287
v -0.040562 0.812080 -0.053287
v -0.053816 0.812080 -0.041798
v -0.051149 0.812080 -0.040170
v -0.029689 0.814163 0.048592
v -0.042806 0.814163 0.038005
v -0.029689 0.812080 0.048592
v -0.042806 0.814163 0.038005
v -0.052737 0.814163 0.024383
v -0.042806 0.812080 0.038005
v -0.052737 0.814163 0.024383
v -0.058802 0.814163 0.008656
v -0.052737 0.812080 0.024383
v -0.058802 0.814163 0.008656
v -0.060591 0.814163 -0.008106
v -0.058802 0.812080 0.008656
v -0.060591 0.814163 -0.008106
v -0.057981 0.814163 -0.024759
v -0.060591 0.812080 -0.008106
v -0.057981 0.814163 -0.024759
v -0.051149 0.814163 -0.040170
v -0.057981 0.812080 -0.024759
v -0.051149 0.812080 -0.040170
v -0.051149 0.814163 -0.040170
v -0.040562 0.812080 -0.053287
v -0.011947 0.819370 -0.072320
v 0.005626 0.819370 -0.074196
v 0.004088 0.819370 -0.079423
v -0.028435 0.812080 -0.065960
v -0.028435 0.819370 -0.065960
v -0.042716 0.812080 -0.055550
v -0.011947 0.812080 -0.072320
v -0.011947 0.819370 -0.072320
v -0.028435 0.812080 -0.065960
v 0.069763 0.812080 -0.022428
v 0.068515 0.812080 -0.004932
v 0.071638 0.812080 -0.004855
v 0.063403 0.812080 -0.038916
v 0.069763 0.812080 -0.022428
v 0.063403 0.819370 -0.038916
v 0.052993 0.819370 -0.053197
v 0.063403 0.819370 -0.038916
v 0.067162 0.819370 -0.042862
v -0.052737 0.814163 0.024383
v -0.042806 0.814163 0.038005
v 0.065905 0.814163 0.011722
v 0.068515 0.814163 -0.004932
v 0.065905 0.814163 0.011722
v 0.068515 0.812080 -0.004932
v 0.022953 0.819370 -0.076906
v 0.023085 0.819370 -0.071459
v 0.040523 0.819370 -0.069593
v 0.005626 0.819370 -0.074196
v 0.023085 0.819370 -0.071459
v 0.022953 0.819370 -0.076906
v -0.026940 0.812080 -0.063217
v -0.042716 0.812080 -0.055550
v -0.040562 0.812080 -0.053287
v -0.058802 0.814163 0.008656
v -0.052737 0.814163 0.024383
v 0.068515 0.814163 -0.004932
v -0.060591 0.814163 -0.008106
v -0.058802 0.814163 0.008656
v 0.066726 0.814163 -0.021693
v -0.057981 0.814163 -0.024759
v -0.060591 0.814163 -0.008106
v 0.060660 0.814163 -0.037421
v -0.051149 0.814163 -0.040170
v -0.057981 0.814163 -0.024759
v 0.050730 0.814163 -0.051042
v -0.040562 0.814163 -0.053287
v -0.040562 0.812080 -0.053287
v -0.051149 0.814163 -0.040170
v -0.011947 0.819370 -0.072320
v -0.011947 0.812080 -0.072320
v 0.005626 0.819370 -0.074196
v -0.028435 0.812080 -0.065960
v -0.042716 0.812080 -0.055550
v -0.026940 0.812080 -0.063217
v -0.011947 0.812080 -0.072320
v -0.028435 0.812080 -0.065960
v 0.005626 0.812080 -0.074196
v 0.066726 0.812080 -0.021693
v 0.068515 0.812080 -0.004932
v 0.069763 0.812080 -0.022428
v 0.063403 0.812080 -0.038916
v 0.060660 0.812080 -0.037421
v 0.069763 0.812080 -0.022428
v 0.063403 0.819370 -0.038916
v 0.052993 0.819370 -0.053197
v 0.063403 0.812080 -0.038916
v 0.055603 0.819370 -0.057981
v 0.052993 0.819370 -0.053197
v 0.067162 0.819370 -0.042862
v 0.068515 0.814163 -0.004932
v -0.052737 0.814163 0.024383
v 0.065905 0.814163 0.011722
v 0.068515 0.812080 -0.004932
v 0.066726 0.812080 -0.021693
v 0.068515 0.814163 -0.004932
v 0.040523 0.819370 -0.069593
v 0.039241 0.819370 -0.064296
v 0.055603 0.819370 -0.057981
v 0.023085 0.819370 -0.071459
v 0.039241 0.819370 -0.064296
v 0.040523 0.819370 -0.069593
v 0.005626 0.819370 -0.074196
v 0.005626 0.812080 -0.074196
v 0.023085 0.819370 -0.071459
v -0.040562 0.812080 -0.053287
v -0.040562 0.814163 -0.053287
v -0.026940 0.812080 -0.063217
v 0.066726 0.814163 -0.021693
v -0.058802 0.814163 0.008656
v 0.068515 0.814163 -0.004932
v 0.060660 0.814163 -0.037421
v -0.060591 0.814163 -0.008106
v 0.066726 0.814163 -0.021693
v 0.050730 0.814163 -0.051042
v -0.057981 0.814163 -0.024759
v 0.060660 0.814163 -0.037421
v 0.037613 0.814163 -0.061630
v -0.051149 0.814163 -0.040170
v 0.050730 0.814163 -0.051042
v -0.040562 0.814163 -0.053287
v -0.051149 0.814163 -0.040170
v 0.037613 0.814163 -0.061630
v 0.005626 0.812080 -0.074196
v 0.005626 0.819370 -0.074196
v -0.011947 0.812080 -0.072320
v -0.011213 0.812080 -0.069283
v -0.028435 0.812080 -0.065960
v -0.026940 0.812080 -0.063217
v -0.028435 0.812080 -0.065960
v -0.011213 0.812080 -0.069283
v 0.005626 0.812080 -0.074196
v 0.060660 0.812080 -0.037421
v 0.066726 0.812080 -0.021693
v 0.069763 0.812080 -0.022428
v 0.050730 0.812080 -0.051042
v 0.060660 0.812080 -0.037421
v 0.063403 0.812080 -0.038916
v 0.052993 0.812080 -0.053197
v 0.063403 0.812080 -0.038916
v 0.052993 0.819370 -0.053197
v 0.039241 0.819370 -0.064296
v 0.052993 0.819370 -0.053197
v 0.055603 0.819370 -0.057981
v 0.066726 0.814163 -0.021693
v 0.068515 0.814163 -0.004932
v 0.066726 0.812080 -0.021693
v 0.023085 0.819370 -0.071459
v 0.023085 0.812080 -0.071459
v 0.039241 0.819370 -0.064296
v 0.023085 0.812080 -0.071459
v 0.023085 0.819370 -0.071459
v 0.005626 0.812080 -0.074196
v -0.026940 0.814163 -0.063217
v -0.026940 0.812080 -0.063217
v -0.040562 0.814163 -0.053287
v 0.060660 0.814163 -0.037421
v 0.066726 0.814163 -0.021693
v 0.060660 0.812080 -0.037421
v 0.050730 0.814163 -0.051042
v 0.060660 0.814163 -0.037421
v 0.050730 0.812080 -0.051042
v 0.037613 0.814163 -0.061630
v 0.050730 0.814163 -0.051042
v 0.037613 0.812080 -0.061630
v 0.022202 0.814163 -0.068462
v -0.040562 0.814163 -0.053287
v 0.037613 0.814163 -0.061630
v -0.026940 0.812080 -0.063217
v -0.026940 0.814163 -0.063217
v -0.011213 0.812080 -0.069283
v -0.011213 0.812080 -0.069283
v 0.005549 0.812080 -0.071072
v 0.005626 0.812080 -0.074196
v 0.066726 0.812080 -0.021693
v 0.060660 0.812080 -0.037421
v 0.066726 0.814163 -0.021693
v 0.060660 0.812080 -0.037421
v 0.050730 0.812080 -0.051042
v 0.060660 0.814163 -0.037421
v 0.052993 0.812080 -0.053197
v 0.050730 0.812080 -0.051042
v 0.063403 0.812080 -0.038916
v 0.052993 0.819370 -0.053197
v 0.039241 0.819370 -0.064296
v 0.052993 0.812080 -0.053197
v 0.039241 0.812080 -0.064296
v 0.039241 0.819370 -0.064296
v 0.023085 0.812080 -0.071459
v 0.005626 0.812080 -0.074196
v 0.005549 0.812080 -0.071072
v 0.023085 0.812080 -0.071459
v -0.026940 0.814163 -0.063217
v -0.040562 0.814163 -0.053287
v 0.022202 0.814163 -0.068462
v 0.050730 0.812080 -0.051042
v 0.037613 0.812080 -0.061630
v 0.050730 0.814163 -0.051042
v 0.037613 0.814163 -0.061630
v 0.037613 0.812080 -0.061630
v 0.022202 0.814163 -0.068462
v -0.011213 0.814163 -0.069283
v -0.011213 0.812080 -0.069283
v -0.026940 0.814163 -0.063217
v -0.011213 0.812080 -0.069283
v -0.011213 0.814163 -0.069283
v 0.005549 0.812080 -0.071072
v 0.037613 0.812080 -0.061630
v 0.050730 0.812080 -0.051042
v 0.052993 0.812080 -0.053197
v 0.039241 0.812080 -0.064296
v 0.052993 0.812080 -0.053197
v 0.039241 0.819370 -0.064296
v 0.023085 0.812080 -0.071459
v 0.022202 0.812080 -0.068462
v 0.039241 0.812080 -0.064296
v 0.005549 0.812080 -0.071072
v 0.022202 0.812080 -0.068462
v 0.023085 0.812080 -0.071459
v 0.005549 0.814163 -0.071072
v -0.026940 0.814163 -0.063217
v 0.022202 0.814163 -0.068462
v 0.022202 0.812080 -0.068462
v 0.022202 0.814163 -0.068462
v 0.037613 0.812080 -0.061630
v -0.011213 0.814163 -0.069283
v -0.026940 0.814163 -0.063217
v 0.005549 0.814163 -0.071072
v 0.005549 0.814163 -0.071072
v 0.005549 0.812080 -0.071072
v -0.011213 0.814163 -0.069283
v 0.039241 0.812080 -0.064296
v 0.037613 0.812080 -0.061630
v 0.052993 0.812080 -0.053197
v 0.022202 0.812080 -0.068462
v 0.037613 0.812080 -0.061630
v 0.039241 0.812080 -0.064296
v 0.005549 0.812080 -0.071072
v 0.005549 0.814163 -0.071072
v 0.022202 0.812080 -0.068462
v 0.022202 0.814163 -0.068462
v 0.022202 0.812080 -0.068462
v 0.005549 0.814163 -0.071072
vn 0 -1 0
vn 0.23499910863537507 0 0.9719955858647605
vn 0.47856301939182566 0 0.8780532082229294
vn 0.6895133371839167 0 0.7242729857211979
vn 0.8534740984948244 0 0.5211352638216364
vn -0.024579177935174203 0 0.9996978863696927
vn 0.9592725659976906 0 0.2824821129278922
vn -0.2824821129278921 0 0.9592725659976906
vn -0.5211352638216364 0 0.8534740984948245
vn -0.7242729857211979 0 0.6895133371839167
vn -0.8780532082229295 0 0.4785630193918258
vn -0.9719955858647605 0 0.23499910863537501
vn -0.9996978863696927 0 -0.024579177935174258
vn -0.9592725659976906 0 -0.2824821129278922
vn -0.23499910863537507 0 -0.9719955858647605
vn -0.47856301939182566 0 -0.8780532082229294
vn -0.6895133371839167 0 -0.7242729857211979
vn -0.8534740984948244 0 -0.5211352638216364
vn 0.9996978863696927 0 0.024579177935174258
vn 0.024579177935174203 0 -0.9996978863696927
vn 0.9719955858647605 0 -0.23499910863537501
vn 0.2824821129278921 0 -0.9592725659976906
vn 0.5211352638216364 0 -0.8534740984948245
vn 0.7242729857211979 0 -0.6895133371839167
vn 0.8780532082229295 0 -0.4785630193918258
vn 0 1 0
usemtl material_0_0
f 1//1 2//1 3//1
f 4//1 5//1 6//1
f 7//1 8//1 9//1
f 10//1 11//1 12//1
f 13//1 14//1 15//1
f 16//1 17//1 18//1
f 19//1 20//1 21//1
f 22//2 23//3 24//3
f 25//3 26//4 27//4
f 28//1 29//1 30//1
f 31//1 32//1 33//1
f 34//1 35//1 36//1
f 37//1 38//1 39//1
f 40//1 41//1 42//1
f 43//1 44//1 45//1
f 46//1 47//1 48//1
f 49//1 50//1 51//1
f 52//3 53//2 54//2
f 55//4 56//3 57//3
f 58//5 59//4 60//4
f 61//4 62//5 63//5
f 64//1 65//1 66//1
f 67//1 68//1 69//1
f 70//1 71//1 72//1
f 73//1 74//1 75//1
f 76//1 77//1 78//1
f 79//1 80//1 81//1
f 82//1 83//1 84//1
f 85//6 86//2 87//2
f 88//1 89//1 90//1
f 91//1 92//1 93//1
f 94//1 95//1 96//1
f 97//5 98//7 99//5
f 100//8 101//6 102//6
f 103//9 104//8 105//8
f 106//1 107//1 108//1
f 109//10 110//9 111//10
f 112//11 113//10 114//11
f 115//12 116//11 117//12
f 118//13 119//12 120//13
f 121//1 122//1 123//1
f 124//2 125//6 126//6
f 127//1 128//1 129//1
f 130//1 131//1 132//1
f 133//1 134//1 135//1
f 136//1 137//1 138//1
f 139//7 140//5 141//7
f 142//6 143//8 144//8
f 145//8 146//9 147//9
f 148//1 149//1 150//1
f 151//1 152//1 153//1
f 154//9 155//10 156//9
f 157//10 158//11 159//10
f 160//11 161//12 162//11
f 163//12 164//13 165//12
f 166//13 167//14 168//13
f 169//1 170//1 171//1
f 172//1 173//1 174//1
f 175//15 176//16 177//16
f 178//16 179//17 180//17
f 181//17 182//18 183//18
f 184//1 185//1 186//1
f 187//7 188//19 189//7
f 190//1 191//1 192//1
f 193//1 194//1 195//1
f 196//1 197//1 198//1
f 199//1 200//1 201//1
f 202//14 203//13 204//14
f 205//1 206//1 207//1
f 208//1 209//1 210//1
f 211//1 212//1 213//1
f 214//1 215//1 216//1
f 217//1 218//1 219//1
f 220//1 221//1 222//1
f 223//1 224//1 225//1
f 226//1 227//1 228//1
f 229//1 230//1 231//1
f 232//20 233//15 234//15
f 235//16 236//15 237//15
f 238//17 239//16 240//16
f 241//18 242//17 243//17
f 244//18 245//14 246//18
f 247//1 248//1 249//1
f 250//19 251//7 252//19
f 253//1 254//1 255//1
f 256//1 257//1 258//1
f 259//18 260//14 261//18
f 262//17 263//18 264//18
f 265//14 266//18 267//14
f 268//1 269//1 270//1
f 271//1 272//1 273//1
f 274//1 275//1 276//1
f 277//1 278//1 279//1
f 280//1 281//1 282//1
f 283//1 284//1 285//1
f 286//1 287//1 288//1
f 289//1 290//1 291//1
f 292//1 293//1 294//1
f 295//19 296//21 297//19
f 298//1 299//1 300//1
f 301//15 302//20 303//20
f 304//1 305//1 306//1
f 307//1 308//1 309//1
f 310//1 311//1 312//1
f 313//14 314//18 315//14
f 316//1 317//1 318//1
f 319//22 320//20 321//20
f 322//23 323//22 324//22
f 325//18 326//17 327//17
f 328//1 329//1 330//1
f 331//24 332//23 333//24
f 334//25 335//24 336//25
f 337//21 338//25 339//21
f 340//19 341//21 342//19
f 343//7 344//19 345//7
f 346//5 347//7 348//5
f 349//1 350//1 351//1
f 352//16 353//17 354//17
f 355//15 356//16 357//16
f 358//21 359//19 360//21
f 361//21 362//25 363//21
f 364//1 365//1 366//1
f 367//1 368//1 369//1
f 370//1 371//1 372//1
f 373//1 374//1 375//1
f 376//1 377//1 378//1
f 379//14 380//13 381//14
f 382//1 383//1 384//1
f 385//1 386//1 387//1
f 388//20 389//22 390//22
f 391//22 392//23 393//23
f 394//1 395//1 396//1
f 397//1 398//1 399//1
f 400//23 401//24 402//23
f 403//24 404//25 405//24
f 406//25 407//21 408//25
f 409//21 410//19 411//21
f 412//19 413//7 414//19
f 415//7 416//5 417//7
f 418//4 419//5 420//5
f 421//1 422//1 423//1
f 424//17 425//16 426//16
f 427//16 428//15 429//15
f 430//1 431//1 432//1
f 433//25 434//21 435//25
f 436//1 437//1 438//1
f 439//1 440//1 441//1
f 442//13 443//14 444//13
f 445//1 446//1 447//1
f 448//1 449//1 450//1
f 451//1 452//1 453//1
f 454//1 455//1 456//1
f 457//1 458//1 459//1
f 460//1 461//1 462//1
f 463//1 464//1 465//1
f 466//5 467//4 468//4
f 469//20 470//15 471//15
f 472//1 473//1 474//1
f 475//1 476//1 477//1
f 478//1 479//1 480//1
f 481//1 482//1 483//1
f 484//25 485//24 486//25
f 487//1 488//1 489//1
f 490//1 491//1 492//1
f 493//13 494//12 495//13
f 496//1 497//1 498//1
f 499//1 500//1 501//1
f 502//22 503//20 504//20
f 505//3 506//4 507//4
f 508//1 509//1 510//1
f 511//1 512//1 513//1
f 514//1 515//1 516//1
f 517//1 518//1 519//1
f 520//1 521//1 522//1
f 523//15 524//20 525//20
f 526//1 527//1 528//1
f 529//1 530//1 531//1
f 532//1 533//1 534//1
f 535//1 536//1 537//1
f 538//24 539//25 540//24
f 541//1 542//1 543//1
f 544//12 545//13 546//12
f 547//23 548//22 549//22
f 550//20 551//22 552//22
f 553//4 554//3 555//3
f 556//11 557//12 558//11
f 559//10 560//11 561//10
f 562//9 563//10 564//9
f 565//1 566//1 567//1
f 568//2 569//3 570//3
f 571//1 572//1 573//1
f 574//12 575//11 576//12
f 577//11 578//10 579//11
f 580//1 581//1 582//1
f 583//24 584//23 585//24
f 586//22 587//23 588//23
f 589//1 590//1 591//1
f 592//1 593//1 594//1
f 595//10 596//9 597//10
f 598//8 599//9 600//9
f 601//3 602//2 603//2
f 604//6 605//2 606//2
f 607//1 608//1 609//1
f 610//23 611//24 612//23
f 613//1 614//1 615//1
f 616//1 617//1 618//1
f 619//1 620//1 621//1
f 622//9 623//8 624//8
f 625//1 626//1 627//1
f 628//2 629//6 630//6
f 631//1 632//1 633//1
f 634//1 635//1 636//1
f 637//8 638//6 639//6
f 640//6 641//8 642//8
usemtl material_1_0
f 643//26 644//26 645//26
f 646//26 647//26 648//26
f 649//26 650//26 651//26
f 652//26 653//26 654//26
f 655//26 656//26 657//26
f 658//26 659//26 660//26
f 661//26 662//26 663//26
f 664//16 665//16 666//15
f 667//17 668//17 669//16
f 670//26 671//26 672//26
f 673//26 674//26 675//26
f 676//26 677//26 678//26
f 679//26 680//26 681//26
f 682//26 683//26 684//26
f 685//26 686//26 687//26
f 688//26 689//26 690//26
f 691//26 692//26 693//26
f 694//15 695//15 696//16
f 697//16 698//16 699//17
f 700//17 701//17 702//18
f 703//18 704//18 705//17
f 706//26 707//26 708//26
f 709//26 710//26 711//26
f 712//26 713//26 714//26
f 715//26 716//26 717//26
f 718//26 719//26 720//26
f 721//26 722//26 723//26
f 724//26 725//26 726//26
f 727//15 728//15 729//20
f 730//26 731//26 732//26
f 733//26 734//26 735//26
f 736//26 737//26 738//26
f 739//18 740//14 741//18
f 742//20 743//20 744//22
f 745//22 746//22 747//23
f 748//26 749//26 750//26
f 751//24 752//23 753//24
f 754//25 755//24 756//25
f 757//21 758//25 759//21
f 760//19 761//21 762//19
f 763//26 764//26 765//26
f 766//20 767//20 768//15
f 769//26 770//26 771//26
f 772//26 773//26 774//26
f 775//26 776//26 777//26
f 778//26 779//26 780//26
f 781//14 782//18 783//14
f 784//22 785//22 786//20
f 787//23 788//23 789//22
f 790//26 791//26 792//26
f 793//26 794//26 795//26
f 796//23 797//24 798//23
f 799//24 800//25 801//24
f 802//25 803//21 804//25
f 805//21 806//19 807//21
f 808//19 809//7 810//19
f 811//26 812//26 813//26
f 814//26 815//26 816//26
f 817//3 818//3 819//2
f 820//4 821//4 822//3
f 823//5 824//5 825//4
f 826//26 827//26 828//26
f 829//14 830//13 831//14
f 832//26 833//26 834//26
f 835//26 836//26 837//26
f 838//26 839//26 840//26
f 841//26 842//26 843//26
f 844//7 845//19 846//7
f 847//26 848//26 849//26
f 850//26 851//26 852//26
f 853//26 854//26 855//26
f 856//26 857//26 858//26
f 859//26 860//26 861//26
f 862//26 863//26 864//26
f 865//26 866//26 867//26
f 868//26 869//26 870//26
f 871//26 872//26 873//26
f 874//2 875//2 876//6
f 877//2 878//2 879//3
f 880//3 881//3 882//4
f 883//4 884//4 885//5
f 886//5 887//7 888//5
f 889//26 890//26 891//26
f 892//13 893//14 894//13
f 895//26 896//26 897//26
f 898//26 899//26 900//26
f 901//5 902//7 903//5
f 904//5 905//5 906//4
f 907//7 908//5 909//7
f 910//26 911//26 912//26
f 913//26 914//26 915//26
f 916//26 917//26 918//26
f 919//26 920//26 921//26
f 922//26 923//26 924//26
f 925//26 926//26 927//26
f 928//26 929//26 930//26
f 931//26 932//26 933//26
f 934//26 935//26 936//26
f 937//13 938//12 939//13
f 940//26 941//26 942//26
f 943//6 944//6 945//2
f 946//26 947//26 948//26
f 949//26 950//26 951//26
f 952//26 953//26 954//26
f 955//7 956//5 957//7
f 958//26 959//26 960//26
f 961//6 962//6 963//8
f 964//8 965//8 966//9
f 967//4 968//4 969//5
f 970//26 971//26 972//26
f 973//10 974//9 975//10
f 976//11 977//10 978//11
f 979//12 980//11 981//12
f 982//13 983//12 984//13
f 985//14 986//13 987//14
f 988//18 989//14 990//18
f 991//26 992//26 993//26
f 994//4 995//4 996//3
f 997//3 998//3 999//2
f 1000//12 1001//13 1002//12
f 1003//12 1004//11 1005//12
f 1006//26 1007//26 1008//26
f 1009//26 1010//26 1011//26
f 1012//26 1013//26 1014//26
f 1015//26 1016//26 1017//26
f 1018//26 1019//26 1020//26
f 1021//7 1022//19 1023//7
f 1024//26 1025//26 1026//26
f 1027//26 1028//26 1029//26
f 1030//8 1031//8 1032//6
f 1033//9 1034//9 1035//8
f 1036//26 1037//26 1038//26
f 1039//26 1040//26 1041//26
f 1042//9 1043//10 1044//9
f 1045//10 1046//11 1047//10
f 1048//11 1049//12 1050//11
f 1051//12 1052//13 1053//12
f 1054//13 1055//14 1056//13
f 1057//14 1058//18 1059//14
f 1060//18 1061//18 1062//17
f 1063//26 1064//26 1065//26
f 1066//3 1067//3 1068//4
f 1069//2 1070//2 1071//3
f 1072//26 1073//26 1074//26
f 1075//11 1076//12 1077//11
f 1078//26 1079//26 1080//26
f 1081//26 1082//26 1083//26
f 1084//19 1085//7 1086//19
f 1087//26 1088//26 1089//26
f 1090//26 1091//26 1092//26
f 1093//26 1094//26 1095//26
f 1096//26 1097//26 1098//26
f 1099//26 1100//26 1101//26
f 1102//26 1103//26 1104//26
f 1105//26 1106//26 1107//26
f 1108//17 1109//17 1110//18
f 1111//2 1112//2 1113//6
f 1114//26 1115//26 1116//26
f 1117//26 1118//26 1119//26
f 1120//26 1121//26 1122//26
f 1123//26 1124//26 1125//26
f 1126//11 1127//10 1128//11
f 1129//26 1130//26 1131//26
f 1132//26 1133//26 1134//26
f 1135//19 1136//21 1137//19
f 1138//26 1139//26 1140//26
f 1141//26 1142//26 1143//26
f 1144//6 1145//6 1146//8
f 1147//17 1148//17 1149//16
f 1150//26 1151//26 1152//26
f 1153//26 1154//26 1155//26
f 1156//26 1157//26 1158//26
f 1159//26 1160//26 1161//26
f 1162//26 1163//26 1164//26
f 1165//6 1166//6 1167//2
f 1168//26 1169//26 1170//26
f 1171//26 1172//26 1173//26
f 1174//26 1175//26 1176//26
f 1177//26 1178//26 1179//26
f 1180//10 1181//11 1182//10
f 1183//26 1184//26 1185//26
f 1186//21 1187//19 1188//21
f 1189//8 1190//8 1191//9
f 1192//8 1193//8 1194//6
f 1195//16 1196//16 1197//17
f 1198//25 1199//21 1200//25
f 1201//24 1202//25 1203//24
f 1204//23 1205//24 1206//23
f 1207//26 1208//26 1209//26
f 1210//16 1211//16 1212//15
f 1213//26 1214//26 1215//26
f 1216//21 1217//25 1218//21
f 1219//25 1220//24 1221//25
f 1222//26 1223//26 1224//26
f 1225//10 1226//9 1227//10
f 1228//9 1229//9 1230//8
f 1231//26 1232//26 1233//26
f 1234//26 1235//26 1236//26
f 1237//24 1238//23 1239//24
f 1240//23 1241//23 1242//22
f 1243//15 1244//15 1245//16
f 1246//15 1247//15 1248//20
f 1249//26 1250//26 1251//26
f 1252//9 1253//10 1254//9
f 1255//26 1256//26 1257//26
f 1258//26 1259//26 1260//26
f 1261//26 1262//26 1263//26
f 1264//22 1265//22 1266//23
f 1267//26 1268//26 1269//26
f 1270//20 1271//20 1272//15
f 1273//26 1274//26 1275//26
f 1276//26 1277//26 1278//26
f 1279//20 1280//20 1281//22
f 1282//22 1283//22 1284//20
