# SSTK version 0.8.0
# 11
mtllib original-11.mtl
o mesh1/mesh1-geometry/material_1/component_1#mesh1-geometry
v 0.022709 0.689183 0.063934
v 0.040305 0.819370 0.056682
v 0.040305 0.689183 0.056682
v 0.003835 0.689183 0.066386
v 0.022709 0.819370 0.063934
v 0.022709 0.689183 0.063934
v 0.040305 0.819370 0.056682
v 0.022709 0.689183 0.063934
v 0.022709 0.819370 0.063934
v 0.055423 0.819370 0.045122
v 0.040305 0.689183 0.056682
v 0.040305 0.819370 0.056682
v 0.040305 0.689183 0.056682
v 0.055423 0.819370 0.045122
v 0.055423 0.689183 0.045122
v 0.022709 0.819370 0.063934
v 0.003835 0.689183 0.066386
v 0.003835 0.819370 0.066386
v -0.015029 0.689183 0.063869
v 0.003835 0.819370 0.066386
v 0.003835 0.689183 0.066386
v 0.055423 0.689183 0.045122
v 0.067036 0.819370 0.030043
v 0.067036 0.689183 0.030043
v 0.067036 0.819370 0.030043
v 0.055423 0.689183 0.045122
v 0.055423 0.819370 0.045122
v -0.032600 0.689183 0.056555
v -0.015029 0.819370 0.063869
v -0.015029 0.689183 0.063869
v 0.003835 0.819370 0.066386
v -0.015029 0.689183 0.063869
v -0.015029 0.819370 0.063869
v -0.047679 0.819370 0.044943
v -0.032600 0.689183 0.056555
v -0.047679 0.689183 0.044943
v -0.059239 0.819370 0.029824
v -0.047679 0.689183 0.044943
v -0.059239 0.689183 0.029824
v -0.066491 0.819370 0.012228
v -0.059239 0.689183 0.029824
v -0.066491 0.689183 0.012228
v 0.067036 0.819370 0.030043
v 0.074349 0.689183 0.012472
v 0.067036 0.689183 0.030043
v -0.015029 0.819370 0.063869
v -0.032600 0.689183 0.056555
v -0.032600 0.819370 0.056555
v -0.032600 0.689183 0.056555
v -0.047679 0.819370 0.044943
v -0.032600 0.819370 0.056555
v -0.047679 0.689183 0.044943
v -0.059239 0.819370 0.029824
v -0.047679 0.819370 0.044943
v -0.059239 0.689183 0.029824
v -0.066491 0.819370 0.012228
v -0.059239 0.819370 0.029824
v -0.066491 0.689183 0.012228
v -0.068942 0.819370 -0.006645
v -0.066491 0.819370 0.012228
v 0.074349 0.689183 0.012472
v 0.067036 0.819370 0.030043
v 0.074349 0.819370 0.012472
v -0.068942 0.819370 -0.006645
v -0.066491 0.689183 0.012228
v -0.068942 0.689183 -0.006645
v 0.074349 0.819370 0.012472
v 0.076866 0.689183 -0.006392
v 0.074349 0.689183 0.012472
v -0.066426 0.819370 -0.025510
v -0.068942 0.689183 -0.006645
v -0.066426 0.689183 -0.025510
v -0.068942 0.689183 -0.006645
v -0.066426 0.819370 -0.025510
v -0.068942 0.819370 -0.006645
v 0.076866 0.689183 -0.006392
v 0.074349 0.819370 0.012472
v 0.076866 0.819370 -0.006392
v -0.066426 0.689183 -0.025510
v -0.059112 0.819370 -0.043080
v -0.066426 0.819370 -0.025510
v -0.047500 0.689183 -0.058159
v -0.059112 0.819370 -0.043080
v -0.059112 0.689183 -0.043080
v -0.032381 0.689183 -0.069719
v -0.047500 0.819370 -0.058159
v -0.047500 0.689183 -0.058159
v -0.059112 0.819370 -0.043080
v -0.066426 0.689183 -0.025510
v -0.059112 0.689183 -0.043080
v 0.076866 0.819370 -0.006392
v 0.074414 0.689183 -0.025266
v 0.076866 0.689183 -0.006392
v -0.014785 0.689183 -0.076972
v -0.032381 0.819370 -0.069719
v -0.032381 0.689183 -0.069719
v -0.059112 0.819370 -0.043080
v -0.047500 0.689183 -0.058159
v -0.047500 0.819370 -0.058159
v -0.047500 0.819370 -0.058159
v -0.032381 0.689183 -0.069719
v -0.032381 0.819370 -0.069719
v 0.074414 0.689183 -0.025266
v 0.076866 0.819370 -0.006392
v 0.074414 0.819370 -0.025266
v -0.032381 0.819370 -0.069719
v -0.014785 0.689183 -0.076972
v -0.014785 0.819370 -0.076972
v 0.074414 0.819370 -0.025266
v 0.067162 0.689183 -0.042862
v 0.074414 0.689183 -0.025266
v 0.022953 0.689183 -0.076906
v 0.004088 0.819370 -0.079423
v 0.004088 0.689183 -0.079423
v 0.004088 0.689183 -0.079423
v -0.014785 0.819370 -0.076972
v -0.014785 0.689183 -0.076972
v 0.067162 0.689183 -0.042862
v 0.074414 0.819370 -0.025266
v 0.067162 0.819370 -0.042862
v 0.040523 0.689183 -0.069593
v 0.022953 0.819370 -0.076906
v 0.022953 0.689183 -0.076906
v 0.004088 0.819370 -0.079423
v 0.022953 0.689183 -0.076906
v 0.022953 0.819370 -0.076906
v -0.014785 0.819370 -0.076972
v 0.004088 0.689183 -0.079423
v 0.004088 0.819370 -0.079423
v 0.067162 0.819370 -0.042862
v 0.055603 0.689183 -0.057981
v 0.067162 0.689183 -0.042862
v 0.055603 0.819370 -0.057981
v 0.040523 0.689183 -0.069593
v 0.055603 0.689183 -0.057981
v 0.022953 0.819370 -0.076906
v 0.040523 0.689183 -0.069593
v 0.040523 0.819370 -0.069593
v 0.055603 0.689183 -0.057981
v 0.067162 0.819370 -0.042862
v 0.055603 0.819370 -0.057981
v 0.040523 0.689183 -0.069593
v 0.055603 0.819370 -0.057981
v 0.040523 0.819370 -0.069593
v 0.040305 0.689183 0.056682
v 0.040305 0.819370 0.056682
v 0.022709 0.689183 0.063934
v 0.022709 0.689183 0.063934
v 0.022709 0.819370 0.063934
v 0.003835 0.689183 0.066386
v 0.022709 0.819370 0.063934
v 0.022709 0.689183 0.063934
v 0.040305 0.819370 0.056682
v 0.040305 0.819370 0.056682
v 0.040305 0.689183 0.056682
v 0.055423 0.819370 0.045122
v 0.055423 0.689183 0.045122
v 0.055423 0.819370 0.045122
v 0.040305 0.689183 0.056682
v 0.003835 0.819370 0.066386
v 0.003835 0.689183 0.066386
v 0.022709 0.819370 0.063934
v 0.003835 0.689183 0.066386
v 0.003835 0.819370 0.066386
v -0.015029 0.689183 0.063869
v 0.067036 0.689183 0.030043
v 0.067036 0.819370 0.030043
v 0.055423 0.689183 0.045122
v 0.055423 0.819370 0.045122
v 0.055423 0.689183 0.045122
v 0.067036 0.819370 0.030043
v -0.015029 0.689183 0.063869
v -0.015029 0.819370 0.063869
v -0.032600 0.689183 0.056555
v -0.015029 0.819370 0.063869
v -0.015029 0.689183 0.063869
v 0.003835 0.819370 0.066386
v -0.047679 0.689183 0.044943
v -0.032600 0.689183 0.056555
v -0.047679 0.819370 0.044943
v -0.059239 0.689183 0.029824
v -0.047679 0.689183 0.044943
v -0.059239 0.819370 0.029824
v -0.066491 0.689183 0.012228
v -0.059239 0.689183 0.029824
v -0.066491 0.819370 0.012228
v 0.067036 0.689183 0.030043
v 0.074349 0.689183 0.012472
v 0.067036 0.819370 0.030043
v -0.032600 0.819370 0.056555
v -0.032600 0.689183 0.056555
v -0.015029 0.819370 0.063869
v -0.032600 0.819370 0.056555
v -0.047679 0.819370 0.044943
v -0.032600 0.689183 0.056555
v -0.047679 0.819370 0.044943
v -0.059239 0.819370 0.029824
v -0.047679 0.689183 0.044943
v -0.059239 0.819370 0.029824
v -0.066491 0.819370 0.012228
v -0.059239 0.689183 0.029824
v -0.066491 0.819370 0.012228
v -0.068942 0.819370 -0.006645
v -0.066491 0.689183 0.012228
v 0.074349 0.819370 0.012472
v 0.067036 0.819370 0.030043
v 0.074349 0.689183 0.012472
v -0.068942 0.689183 -0.006645
v -0.066491 0.689183 0.012228
v -0.068942 0.819370 -0.006645
v 0.074349 0.689183 0.012472
v 0.076866 0.689183 -0.006392
v 0.074349 0.819370 0.012472
v -0.066426 0.689183 -0.025510
v -0.068942 0.689183 -0.006645
v -0.066426 0.819370 -0.025510
v -0.068942 0.819370 -0.006645
v -0.066426 0.819370 -0.025510
v -0.068942 0.689183 -0.006645
v 0.076866 0.819370 -0.006392
v 0.074349 0.819370 0.012472
v 0.076866 0.689183 -0.006392
v -0.066426 0.819370 -0.025510
v -0.059112 0.819370 -0.043080
v -0.066426 0.689183 -0.025510
v -0.059112 0.689183 -0.043080
v -0.059112 0.819370 -0.043080
v -0.047500 0.689183 -0.058159
v -0.047500 0.689183 -0.058159
v -0.047500 0.819370 -0.058159
v -0.032381 0.689183 -0.069719
v -0.059112 0.689183 -0.043080
v -0.066426 0.689183 -0.025510
v -0.059112 0.819370 -0.043080
v 0.076866 0.689183 -0.006392
v 0.074414 0.689183 -0.025266
v 0.076866 0.819370 -0.006392
v -0.032381 0.689183 -0.069719
v -0.032381 0.819370 -0.069719
v -0.014785 0.689183 -0.076972
v -0.047500 0.819370 -0.058159
v -0.047500 0.689183 -0.058159
v -0.059112 0.819370 -0.043080
v -0.032381 0.819370 -0.069719
v -0.032381 0.689183 -0.069719
v -0.047500 0.819370 -0.058159
v 0.074414 0.819370 -0.025266
v 0.076866 0.819370 -0.006392
v 0.074414 0.689183 -0.025266
v -0.014785 0.819370 -0.076972
v -0.014785 0.689183 -0.076972
v -0.032381 0.819370 -0.069719
v 0.074414 0.689183 -0.025266
v 0.067162 0.689183 -0.042862
v 0.074414 0.819370 -0.025266
v 0.004088 0.689183 -0.079423
v 0.004088 0.819370 -0.079423
v 0.022953 0.689183 -0.076906
v -0.014785 0.689183 -0.076972
v -0.014785 0.819370 -0.076972
v 0.004088 0.689183 -0.079423
v 0.067162 0.819370 -0.042862
v 0.074414 0.819370 -0.025266
v 0.067162 0.689183 -0.042862
v 0.022953 0.689183 -0.076906
v 0.022953 0.819370 -0.076906
v 0.040523 0.689183 -0.069593
v 0.022953 0.819370 -0.076906
v 0.022953 0.689183 -0.076906
v 0.004088 0.819370 -0.079423
v 0.004088 0.819370 -0.079423
v 0.004088 0.689183 -0.079423
v -0.014785 0.819370 -0.076972
v 0.067162 0.689183 -0.042862
v 0.055603 0.689183 -0.057981
v 0.067162 0.819370 -0.042862
v 0.055603 0.689183 -0.057981
v 0.040523 0.689183 -0.069593
v 0.055603 0.819370 -0.057981
v 0.040523 0.819370 -0.069593
v 0.040523 0.689183 -0.069593
v 0.022953 0.819370 -0.076906
v 0.055603 0.819370 -0.057981
v 0.067162 0.819370 -0.042862
v 0.055603 0.689183 -0.057981
v 0.040523 0.819370 -0.069593
v 0.055603 0.819370 -0.057981
v 0.040523 0.689183 -0.069593
vn -0.25714416461308387 0 -0.9663730535385593
vn -0.4984973615804749 0 -0.866891216068836
vn 0.0017341263407479402 0 -0.9999984964017866
vn -0.7058798637421126 0 -0.7083315734621863
vn 0.26049338484665086 0 -0.9654756322409875
vn -0.8651570396485141 0 -0.5015010436146862
vn 0.5015010436146863 0 -0.8651570396485142
vn 0.7083315734621863 0 -0.7058798637421126
vn 0.866891216068836 0 -0.49849736158047486
vn 0.9663730535385593 0 -0.25714416461308376
vn -0.9654756322409875 0 -0.2604933848466509
vn 0.9999984964017866 0 0.0017341263407479957
vn -0.9999984964017866 0 -0.0017341263407479957
vn 0.9654756322409875 0 0.2604933848466509
vn 0.8651570396485141 0 0.5015010436146862
vn 0.7058798637421126 0 0.7083315734621863
vn 0.4984973615804749 0 0.866891216068836
vn -0.9663730535385593 0 0.25714416461308376
vn 0.25714416461308387 0 0.9663730535385593
vn -0.866891216068836 0 0.49849736158047486
vn -0.26049338484665086 0 0.9654756322409875
vn -0.0017341263407479402 0 0.9999984964017866
vn -0.5015010436146863 0 0.8651570396485142
vn -0.7083315734621863 0 0.7058798637421126
usemtl material_0_0
f 1//1 2//2 3//2
f 4//3 5//1 6//1
f 7//2 8//1 9//1
f 10//4 11//2 12//2
f 13//2 14//4 15//4
f 16//1 17//3 18//3
f 19//5 20//3 21//3
f 22//4 23//6 24//6
f 25//6 26//4 27//4
f 28//7 29//5 30//5
f 31//3 32//5 33//5
f 34//8 35//7 36//8
f 37//9 38//8 39//9
f 40//10 41//9 42//10
f 43//6 44//11 45//6
f 46//5 47//7 48//7
f 49//7 50//8 51//7
f 52//8 53//9 54//8
f 55//9 56//10 57//9
f 58//10 59//12 60//10
f 61//11 62//6 63//11
f 64//12 65//10 66//12
f 67//11 68//13 69//11
f 70//14 71//12 72//14
f 73//12 74//14 75//12
f 76//13 77//11 78//13
f 79//14 80//15 81//14
f 82//16 83//15 84//15
f 85//17 86//16 87//16
f 88//15 89//14 90//15
f 91//13 92//18 93//13
f 94//19 95//17 96//17
f 97//15 98//16 99//16
f 100//16 101//17 102//17
f 103//18 104//13 105//18
f 106//17 107//19 108//19
f 109//18 110//20 111//18
f 112//21 113//22 114//22
f 115//22 116//19 117//19
f 118//20 119//18 120//20
f 121//23 122//21 123//21
f 124//22 125//21 126//21
f 127//19 128//22 129//22
f 130//20 131//24 132//20
f 133//24 134//23 135//24
f 136//21 137//23 138//23
f 139//24 140//20 141//24
f 142//23 143//24 144//23
usemtl material_1_0
f 145//17 146//17 147//19
f 148//19 149//19 150//22
f 151//19 152//19 153//17
f 154//17 155//17 156//16
f 157//16 158//16 159//17
f 160//22 161//22 162//19
f 163//22 164//22 165//21
f 166//15 167//15 168//16
f 169//16 170//16 171//15
f 172//21 173//21 174//23
f 175//21 176//21 177//22
f 178//24 179//23 180//24
f 181//20 182//24 183//20
f 184//18 185//20 186//18
f 187//15 188//14 189//15
f 190//23 191//23 192//21
f 193//23 194//24 195//23
f 196//24 197//20 198//24
f 199//20 200//18 201//20
f 202//18 203//13 204//18
f 205//14 206//15 207//14
f 208//13 209//18 210//13
f 211//14 212//12 213//14
f 214//11 215//13 216//11
f 217//13 218//11 219//13
f 220//12 221//14 222//12
f 223//11 224//6 225//11
f 226//6 227//6 228//4
f 229//4 230//4 231//2
f 232//6 233//11 234//6
f 235//12 236//10 237//12
f 238//2 239//2 240//1
f 241//4 242//4 243//6
f 244//2 245//2 246//4
f 247//10 248//12 249//10
f 250//1 251//1 252//2
f 253//10 254//9 255//10
f 256//3 257//3 258//5
f 259//1 260//1 261//3
f 262//9 263//10 264//9
f 265//5 266//5 267//7
f 268//5 269//5 270//3
f 271//3 272//3 273//1
f 274//9 275//8 276//9
f 277//8 278//7 279//8
f 280//7 281//7 282//5
f 283//8 284//9 285//8
f 286//7 287//8 288//7
