# SSTK version 0.8.0
# 4
mtllib original-4.mtl
o mesh4/mesh4-geometry#mesh4-geometry
v -0.000567 -1.047766 -0.001805
v 0.001550 -1.047766 -0.002216
v 0.000518 -1.047766 -0.001871
v -0.001633 -1.047766 -0.002022
v 0.000518 -0.157405 -0.001871
v -0.000567 -0.157405 -0.001805
v -0.001633 -0.157405 -0.002022
v 0.002457 -1.047766 -0.002817
v 0.001550 -0.157405 -0.002216
v -0.002606 -0.157405 -0.002507
v -0.002606 -1.047766 -0.002507
v 0.000518 0.701827 -0.001871
v -0.000567 0.701827 -0.001805
v 0.002457 -0.157405 -0.002817
v -0.001633 0.701827 -0.002022
v 0.003177 -0.157405 -0.003631
v -0.002606 0.701827 -0.002507
v 0.003177 -1.047766 -0.003631
v 0.001550 0.701827 -0.002216
v -0.003421 -1.047766 -0.003228
v 0.003663 -0.157405 -0.004605
v -0.003421 -0.157405 -0.003228
v 0.002457 0.701827 -0.002817
v 0.003177 0.701827 -0.003631
v 0.003663 0.701827 -0.004605
v -0.003421 0.701827 -0.003228
v 0.003663 -1.047766 -0.004605
v -0.004021 -1.047766 -0.004135
v 0.003879 0.701827 -0.005670
v 0.003879 -0.157405 -0.005670
v -0.004021 -0.157405 -0.004135
v -0.004021 0.701827 -0.004135
v 0.003879 -1.047766 -0.005670
v -0.004366 -1.047766 -0.005166
v 0.003813 0.701827 -0.006756
v 0.003813 -0.157405 -0.006756
v -0.004366 -0.157405 -0.005166
v -0.004366 0.701827 -0.005166
v 0.003813 -1.047766 -0.006756
v -0.004432 -1.047766 -0.006251
v 0.003468 0.701827 -0.007787
v 0.003468 -0.157405 -0.007787
v -0.004432 -0.157405 -0.006251
v -0.004432 0.701827 -0.006251
v 0.003468 -1.047766 -0.007787
v -0.004215 -1.047766 -0.007317
v 0.002868 0.701827 -0.008694
v 0.002868 -0.157405 -0.008694
v -0.004215 -0.157405 -0.007317
v -0.004215 0.701827 -0.007317
v 0.002868 -1.047766 -0.008694
v -0.003730 -1.047766 -0.008290
v 0.002053 0.701827 -0.009415
v 0.002053 -0.157405 -0.009415
v -0.003730 -0.157405 -0.008290
v -0.003730 0.701827 -0.008290
v 0.002053 -1.047766 -0.009415
v -0.003010 -0.157405 -0.009105
v 0.001080 -0.157405 -0.009900
v -0.003010 0.701827 -0.009105
v -0.003010 -1.047766 -0.009105
v 0.001080 -1.047766 -0.009900
v 0.001080 0.701827 -0.009900
v -0.002103 -0.157405 -0.009705
v 0.000014 -0.157405 -0.010117
v -0.002103 0.701827 -0.009705
v 0.000014 -1.047766 -0.010117
v 0.000014 0.701827 -0.010117
v -0.002103 -1.047766 -0.009705
v -0.001071 -0.157405 -0.010050
v -0.001071 0.701827 -0.010050
v -0.001071 -1.047766 -0.010050
vn 0 -1 0
vn 0 1 0
vn 0.43837106722299707 0 0.8987940851061329
vn 0.19080899537654467 0 0.981627183447664
vn -0.19080899537654467 0 -0.981627183447664
vn -0.43837106722299707 0 -0.8987940851061329
vn -0.06975638543439526 0 0.9975640564350383
vn 0.06975638543439526 0 -0.9975640564350383
vn -0.3255683453500605 0 0.9455185098695973
vn 0.3255683453500605 0 -0.9455185098695973
vn -0.5591929034707471 0 0.8290375725550417
vn 0.5591929034707471 0 -0.8290375725550417
vn 0.6560591813605391 0 0.754709447769497
vn -0.6560591813605391 0 -0.754709447769497
vn -0.7547094477694971 0 0.6560591813605391
vn 0.7547094477694971 0 -0.6560591813605391
vn 0.8290375725550416 0 0.5591929034707471
vn -0.8290375725550416 0 -0.5591929034707471
vn 0.9455185098695973 0 0.32556834535006063
vn -0.9455185098695973 0 -0.32556834535006063
vn -0.898794085106133 0 0.4383710672229972
vn 0.898794085106133 0 -0.4383710672229972
vn 0.9975640564350382 0 0.0697563854343953
vn -0.9975640564350382 0 -0.0697563854343953
vn -0.9816271834476642 0 0.19080899537654467
vn 0.9816271834476642 0 -0.19080899537654467
usemtl material_0_0
f 1//1 2//1 3//1
f 2//1 1//1 4//1
f 3//2 2//2 1//2
f 4//2 1//2 2//2
f 2//3 5//4 3//4
f 3//5 5//5 2//6
f 3//4 6//7 1//7
f 1//8 6//8 3//5
f 1//7 7//9 4//9
f 4//10 7//10 1//8
f 2//1 4//1 8//1
f 8//2 4//2 2//2
f 5//4 2//3 9//3
f 9//6 2//6 5//5
f 6//7 3//4 5//4
f 5//5 3//5 6//8
f 7//9 1//7 6//7
f 6//8 1//8 7//10
f 10//11 4//9 7//9
f 7//10 4//10 10//12
f 8//1 4//1 11//1
f 11//2 4//2 8//2
f 8//13 9//3 2//3
f 2//6 9//6 8//14
f 9//2 6//2 5//2
f 5//1 6//1 9//1
f 9//3 12//4 5//4
f 5//5 12//5 9//6
f 5//4 13//7 6//7
f 6//8 13//8 5//5
f 6//2 14//2 7//2
f 7//1 14//1 6//1
f 6//7 15//9 7//9
f 7//10 15//10 6//8
f 4//9 10//11 11//11
f 11//12 10//12 4//10
f 7//2 16//2 10//2
f 10//1 16//1 7//1
f 7//9 17//11 10//11
f 10//12 17//12 7//10
f 8//1 11//1 18//1
f 18//2 11//2 8//2
f 9//3 8//13 14//13
f 14//14 8//14 9//6
f 6//2 9//2 14//2
f 14//1 9//1 6//1
f 12//4 9//3 19//3
f 19//6 9//6 12//5
f 13//7 5//4 12//4
f 12//5 5//5 13//8
f 15//9 6//7 13//7
f 13//8 6//8 15//10
f 7//2 14//2 16//2
f 16//1 14//1 7//1
f 17//11 7//9 15//9
f 15//10 7//10 17//12
f 10//11 20//15 11//11
f 11//12 20//16 10//12
f 10//2 16//2 21//2
f 21//1 16//1 10//1
f 17//11 22//15 10//11
f 10//12 22//16 17//12
f 18//1 11//1 20//1
f 20//2 11//2 18//2
f 18//17 14//13 8//13
f 8//14 14//14 18//18
f 14//13 19//3 9//3
f 9//6 19//6 14//14
f 19//2 13//2 12//2
f 12//1 13//1 19//1
f 13//2 23//2 15//2
f 15//1 23//1 13//1
f 14//13 18//17 16//17
f 16//18 18//18 14//14
f 16//17 23//13 14//13
f 14//14 23//14 16//18
f 15//2 24//2 17//2
f 17//1 24//1 15//1
f 20//15 10//11 22//15
f 22//16 10//12 20//16
f 18//17 21//19 16//17
f 16//18 21//20 18//18
f 25//19 16//17 21//19
f 21//20 16//18 25//20
f 10//2 21//2 22//2
f 22//1 21//1 10//1
f 22//15 17//11 26//15
f 26//16 17//12 22//16
f 18//1 20//1 27//1
f 27//2 20//2 18//2
f 19//3 14//13 23//13
f 23//14 14//14 19//6
f 13//2 19//2 23//2
f 23//1 19//1 13//1
f 15//2 23//2 24//2
f 24//1 23//1 15//1
f 23//13 16//17 24//17
f 24//18 16//18 23//14
f 17//2 24//2 25//2
f 25//1 24//1 17//1
f 22//15 28//21 20//15
f 20//16 28//22 22//16
f 21//19 18//17 27//19
f 27//20 18//18 21//20
f 16//17 25//19 24//17
f 24//18 25//20 16//18
f 21//19 29//23 25//19
f 25//20 29//24 21//20
f 22//2 21//2 30//2
f 30//1 21//1 22//1
f 17//2 25//2 26//2
f 26//1 25//1 17//1
f 26//15 31//21 22//15
f 22//16 31//22 26//16
f 27//1 20//1 28//1
f 28//2 20//2 27//2
f 28//21 22//15 31//21
f 31//22 22//16 28//22
f 27//19 30//23 21//19
f 21//20 30//24 27//20
f 29//23 21//19 30//23
f 30//24 21//20 29//24
f 26//2 25//2 29//2
f 29//1 25//1 26//1
f 22//2 30//2 31//2
f 31//1 30//1 22//1
f 31//21 26//15 32//21
f 32//22 26//16 31//22
f 27//1 28//1 33//1
f 33//2 28//2 27//2
f 31//21 34//25 28//21
f 28//22 34//26 31//22
f 30//23 27//19 33//23
f 33//24 27//20 30//24
f 30//23 35//26 29//23
f 29//24 35//25 30//24
f 26//2 29//2 32//2
f 32//1 29//1 26//1
f 31//2 30//2 36//2
f 36//1 30//1 31//1
f 32//21 37//25 31//21
f 31//22 37//26 32//22
f 33//1 28//1 34//1
f 34//2 28//2 33//2
f 34//25 31//21 37//25
f 37//26 31//22 34//26
f 33//23 36//26 30//23
f 30//24 36//25 33//24
f 35//26 30//23 36//26
f 36//25 30//24 35//25
f 32//2 29//2 35//2
f 35//1 29//1 32//1
f 31//2 36//2 37//2
f 37//1 36//1 31//1
f 37//25 32//21 38//25
f 38//26 32//22 37//26
f 33//1 34//1 39//1
f 39//2 34//2 33//2
f 37//25 40//24 34//25
f 34//26 40//23 37//26
f 36//26 33//23 39//26
f 39//25 33//24 36//25
f 36//26 41//22 35//26
f 35//25 41//21 36//25
f 32//2 35//2 38//2
f 38//1 35//1 32//1
f 37//2 36//2 42//2
f 42//1 36//1 37//1
f 38//25 43//24 37//25
f 37//26 43//23 38//26
f 39//1 34//1 40//1
f 40//2 34//2 39//2
f 40//24 37//25 43//24
f 43//23 37//26 40//23
f 39//26 42//22 36//26
f 36//25 42//21 39//25
f 41//22 36//26 42//22
f 42//21 36//25 41//21
f 38//2 35//2 41//2
f 41//1 35//1 38//1
f 37//2 42//2 43//2
f 43//1 42//1 37//1
f 43//24 38//25 44//24
f 44//23 38//26 43//23
f 39//1 40//1 45//1
f 45//2 40//2 39//2
f 43//24 46//20 40//24
f 40//23 46//19 43//23
f 42//22 39//26 45//22
f 45//21 39//25 42//21
f 42//22 47//16 41//22
f 41//21 47//15 42//21
f 38//2 41//2 44//2
f 44//1 41//1 38//1
f 43//2 42//2 48//2
f 48//1 42//1 43//1
f 44//24 49//20 43//24
f 43//23 49//19 44//23
f 45//1 40//1 46//1
f 46//2 40//2 45//2
f 46//20 43//24 49//20
f 49//19 43//23 46//19
f 45//22 48//16 42//22
f 42//21 48//15 45//21
f 47//16 42//22 48//16
f 48//15 42//21 47//15
f 44//2 41//2 47//2
f 47//1 41//1 44//1
f 43//2 48//2 49//2
f 49//1 48//1 43//1
f 49//20 44//24 50//20
f 50//19 44//23 49//19
f 45//1 46//1 51//1
f 51//2 46//2 45//2
f 49//20 52//18 46//20
f 46//19 52//17 49//19
f 48//16 45//22 51//16
f 51//15 45//21 48//15
f 48//16 53//12 47//16
f 47//15 53//11 48//15
f 44//2 47//2 50//2
f 50//1 47//1 44//1
f 49//2 48//2 54//2
f 54//1 48//1 49//1
f 50//20 55//18 49//20
f 49//19 55//17 50//19
f 51//1 46//1 52//1
f 52//2 46//2 51//2
f 52//18 49//20 55//18
f 55//17 49//19 52//17
f 51//16 54//12 48//16
f 48//15 54//11 51//15
f 53//12 48//16 54//12
f 54//11 48//15 53//11
f 50//2 47//2 53//2
f 53//1 47//1 50//1
f 49//2 54//2 55//2
f 55//1 54//1 49//1
f 55//18 50//20 56//18
f 56//17 50//19 55//17
f 51//1 52//1 57//1
f 57//2 52//2 51//2
f 58//14 52//18 55//18
f 55//17 52//17 58//13
f 54//12 51//16 57//12
f 57//11 51//15 54//11
f 59//10 53//12 54//12
f 54//11 53//11 59//9
f 50//2 53//2 56//2
f 56//1 53//1 50//1
f 55//2 54//2 59//2
f 59//1 54//1 55//1
f 60//14 55//18 56//18
f 56//17 55//17 60//13
f 57//1 52//1 61//1
f 61//2 52//2 57//2
f 52//18 58//14 61//14
f 61//13 58//13 52//17
f 55//2 59//2 58//2
f 58//1 59//1 55//1
f 55//18 60//14 58//14
f 58//13 60//13 55//17
f 62//10 54//12 57//12
f 57//11 54//11 62//9
f 53//12 59//10 63//10
f 63//9 59//9 53//11
f 54//12 62//10 59//10
f 59//9 62//9 54//11
f 56//2 53//2 63//2
f 63//1 53//1 56//1
f 56//2 63//2 60//2
f 60//1 63//1 56//1
f 57//1 61//1 62//1
f 62//2 61//2 57//2
f 64//6 61//14 58//14
f 58//13 61//13 64//3
f 58//2 59//2 65//2
f 65//1 59//1 58//1
f 66//6 58//14 60//14
f 60//13 58//13 66//3
f 65//8 63//10 59//10
f 59//9 63//9 65//7
f 67//8 59//10 62//10
f 62//9 59//9 67//7
f 60//2 63//2 68//2
f 68//1 63//1 60//1
f 62//1 61//1 69//1
f 69//2 61//2 62//2
f 61//14 64//6 69//6
f 69//3 64//3 61//13
f 58//2 65//2 64//2
f 64//1 65//1 58//1
f 58//14 66//6 64//6
f 64//3 66//3 58//13
f 59//10 67//8 65//8
f 65//7 67//7 59//9
f 60//2 68//2 66//2
f 66//1 68//1 60//1
f 63//10 65//8 68//8
f 68//7 65//7 63//9
f 62//1 69//1 67//1
f 67//2 69//2 62//2
f 70//5 69//6 64//6
f 64//3 69//3 70//4
f 64//2 65//2 70//2
f 70//1 65//1 64//1
f 71//5 64//6 66//6
f 66//3 64//3 71//4
f 72//5 65//8 67//8
f 67//7 65//7 72//4
f 66//2 68//2 71//2
f 71//1 68//1 66//1
f 70//5 68//8 65//8
f 65//7 68//7 70//4
f 67//1 69//1 72//1
f 72//2 69//2 67//2
f 69//6 70//5 72//5
f 72//4 70//4 69//3
f 64//6 71//5 70//5
f 70//4 71//4 64//3
f 65//8 72//5 70//5
f 70//4 72//4 65//7
f 68//8 70//5 71//5
f 71//4 70//4 68//7
