# SSTK version 0.8.0
# 5
mtllib original-5.mtl
o mesh1/mesh1-geometry/material_0/component_0#mesh1-geometry
v 0.030010 0.689183 0.118329
v 0.059100 0.689183 0.109904
v 0.029162 0.689183 0.120285
v 0.029162 0.689183 0.120285
v 0.059100 0.689183 0.109904
v 0.030010 0.689183 0.118329
v 0.059100 0.689183 0.109904
v 0.030010 0.689183 0.118329
v 0.061436 0.689183 0.107333
v 0.061436 0.689183 0.107333
v 0.030010 0.689183 0.118329
v 0.059100 0.689183 0.109904
v -0.002443 0.689183 0.122565
v 0.030010 0.689183 0.118329
v 0.029162 0.689183 0.120285
v 0.029162 0.689183 0.120285
v 0.030010 0.689183 0.118329
v -0.002443 0.689183 0.122565
v 0.059100 0.689183 0.109904
v 0.061436 0.689183 0.107333
v 0.085331 0.689183 0.092127
v 0.085331 0.689183 0.092127
v 0.061436 0.689183 0.107333
v 0.059100 0.689183 0.109904
v -0.035903 0.689183 0.114627
v -0.022821 0.689183 0.118419
v -0.035747 0.689183 0.115789
v -0.035747 0.689183 0.115789
v -0.022821 0.689183 0.118419
v -0.035903 0.689183 0.114627
v 0.030010 0.689183 0.118329
v -0.002443 0.689183 0.122565
v -0.003190 0.689183 0.120817
v -0.003190 0.689183 0.120817
v -0.002443 0.689183 0.122565
v 0.030010 0.689183 0.118329
v 0.085331 0.689183 0.092127
v 0.061436 0.689183 0.107333
v 0.087622 0.689183 0.089480
v 0.087622 0.689183 0.089480
v 0.061436 0.689183 0.107333
v 0.085331 0.689183 0.092127
v -0.035903 0.689183 0.114627
v -0.035747 0.689183 0.115789
v -0.066161 0.689183 0.100625
v -0.066161 0.689183 0.100625
v -0.035747 0.689183 0.115789
v -0.035903 0.689183 0.114627
v -0.003190 0.689183 0.120817
v -0.022821 0.689183 0.118419
v -0.035903 0.689183 0.114627
v -0.035903 0.689183 0.114627
v -0.022821 0.689183 0.118419
v -0.003190 0.689183 0.120817
v -0.003190 0.689183 0.120817
v -0.002443 0.689183 0.122565
v -0.022821 0.689183 0.118419
v -0.022821 0.689183 0.118419
v -0.002443 0.689183 0.122565
v -0.003190 0.689183 0.120817
v -0.035903 0.689183 0.114627
v -0.066161 0.689183 0.100625
v -0.065900 0.689183 0.100181
v -0.065900 0.689183 0.100181
v -0.066161 0.689183 0.100625
v -0.035903 0.689183 0.114627
v -0.099451 0.689183 0.066266
v -0.091135 0.689183 0.078464
v -0.091615 0.689183 0.078105
v -0.091615 0.689183 0.078105
v -0.091135 0.689183 0.078464
v -0.099451 0.689183 0.066266
v -0.065900 0.689183 0.100181
v -0.066161 0.689183 0.100625
v -0.091135 0.689183 0.078464
v -0.091135 0.689183 0.078464
v -0.066161 0.689183 0.100625
v -0.065900 0.689183 0.100181
vn 0 -1 0
vn 0 1 0
usemtl material_0_0
f 1//1 2//1 3//1
f 4//2 5//2 6//2
f 7//1 8//1 9//1
f 10//2 11//2 12//2
f 13//1 14//1 15//1
f 16//2 17//2 18//2
f 19//1 20//1 21//1
f 22//2 23//2 24//2
f 25//1 26//1 27//1
f 28//2 29//2 30//2
f 31//1 32//1 33//1
f 34//2 35//2 36//2
f 37//1 38//1 39//1
f 40//2 41//2 42//2
f 43//1 44//1 45//1
f 46//2 47//2 48//2
f 49//1 50//1 51//1
f 52//2 53//2 54//2
f 55//1 56//1 57//1
f 58//2 59//2 60//2
f 61//1 62//1 63//1
f 64//2 65//2 66//2
f 67//1 68//1 69//1
f 70//2 71//2 72//2
f 73//1 74//1 75//1
f 76//2 77//2 78//2
