# SSTK version 0.8.0
# 10
mtllib original-10.mtl
o mesh1/mesh1-geometry/material_1/component_0#mesh1-geometry
v -0.009358 -0.560609 0.123909
v 0.024564 -0.560609 0.121834
v -0.000277 -1.055318 -0.005961
v -0.000277 -1.055318 -0.005961
v 0.024564 -0.560609 0.121834
v 0.056794 -0.560609 0.111050
v -0.042661 -0.560609 0.117133
v -0.009358 -0.560609 0.123909
v -0.000277 -1.055318 -0.005961
v -0.000277 -1.055318 -0.005961
v 0.056794 -0.560609 0.111050
v 0.085134 -0.560609 0.092292
v -0.073076 -0.560609 0.101969
v -0.042661 -0.560609 0.117133
v -0.000277 -1.055318 -0.005961
v -0.000277 -1.055318 -0.005961
v 0.085134 -0.560609 0.092292
v 0.107653 -0.560609 0.066839
v -0.073076 -0.560609 0.101969
v -0.000277 -1.055318 -0.005961
v -0.098530 -0.560609 0.079449
v 0.122818 -0.560609 0.036424
v -0.000277 -1.055318 -0.005961
v 0.107653 -0.560609 0.066839
v -0.098530 -0.560609 0.079449
v -0.000277 -1.055318 -0.005961
v -0.117287 -0.560609 0.051109
v 0.129593 -0.560609 0.003120
v -0.000277 -1.055318 -0.005961
v 0.122818 -0.560609 0.036424
v -0.117287 -0.560609 0.051109
v -0.000277 -1.055318 -0.005961
v -0.128071 -0.560609 0.018880
v 0.127518 -0.560609 -0.030801
v -0.000277 -1.055318 -0.005961
v 0.129593 -0.560609 0.003120
v -0.128071 -0.560609 0.018880
v -0.000277 -1.055318 -0.005961
v -0.130146 -0.560609 -0.015042
v 0.116735 -0.560609 -0.063031
v -0.000277 -1.055318 -0.005961
v 0.127518 -0.560609 -0.030801
v -0.130146 -0.560609 -0.015042
v -0.000277 -1.055318 -0.005961
v -0.123370 -0.560609 -0.048345
v 0.097977 -0.560609 -0.091371
v -0.000277 -1.055318 -0.005961
v 0.116735 -0.560609 -0.063031
v -0.123370 -0.560609 -0.048345
v -0.000277 -1.055318 -0.005961
v -0.108206 -0.560609 -0.078760
v 0.072523 -0.560609 -0.113890
v -0.000277 -1.055318 -0.005961
v 0.097977 -0.560609 -0.091371
v -0.108206 -0.560609 -0.078760
v -0.000277 -1.055318 -0.005961
v -0.085687 -0.560609 -0.104214
v -0.000277 -1.055318 -0.005961
v 0.072523 -0.560609 -0.113890
v 0.042108 -0.560609 -0.129055
v -0.085687 -0.560609 -0.104214
v -0.000277 -1.055318 -0.005961
v -0.057347 -0.560609 -0.122972
v -0.000277 -1.055318 -0.005961
v 0.042108 -0.560609 -0.129055
v 0.008805 -0.560609 -0.135830
v -0.057347 -0.560609 -0.122972
v -0.000277 -1.055318 -0.005961
v -0.025117 -0.560609 -0.133755
v -0.000277 -1.055318 -0.005961
v 0.008805 -0.560609 -0.135830
v -0.025117 -0.560609 -0.133755
v -0.000277 -1.055318 -0.005961
v 0.024564 -0.560609 0.121834
v -0.009358 -0.560609 0.123909
v 0.056794 -0.560609 0.111050
v 0.024564 -0.560609 0.121834
v -0.000277 -1.055318 -0.005961
v -0.000277 -1.055318 -0.005961
v -0.009358 -0.560609 0.123909
v -0.042661 -0.560609 0.117133
v 0.085134 -0.560609 0.092292
v 0.056794 -0.560609 0.111050
v -0.000277 -1.055318 -0.005961
v -0.000277 -1.055318 -0.005961
v -0.042661 -0.560609 0.117133
v -0.073076 -0.560609 0.101969
v 0.107653 -0.560609 0.066839
v 0.085134 -0.560609 0.092292
v -0.000277 -1.055318 -0.005961
v -0.098530 -0.560609 0.079449
v -0.000277 -1.055318 -0.005961
v -0.073076 -0.560609 0.101969
v 0.107653 -0.560609 0.066839
v -0.000277 -1.055318 -0.005961
v 0.122818 -0.560609 0.036424
v -0.117287 -0.560609 0.051109
v -0.000277 -1.055318 -0.005961
v -0.098530 -0.560609 0.079449
v 0.122818 -0.560609 0.036424
v -0.000277 -1.055318 -0.005961
v 0.129593 -0.560609 0.003120
v -0.128071 -0.560609 0.018880
v -0.000277 -1.055318 -0.005961
v -0.117287 -0.560609 0.051109
v 0.129593 -0.560609 0.003120
v -0.000277 -1.055318 -0.005961
v 0.127518 -0.560609 -0.030801
v -0.130146 -0.560609 -0.015042
v -0.000277 -1.055318 -0.005961
v -0.128071 -0.560609 0.018880
v 0.127518 -0.560609 -0.030801
v -0.000277 -1.055318 -0.005961
v 0.116735 -0.560609 -0.063031
v -0.123370 -0.560609 -0.048345
v -0.000277 -1.055318 -0.005961
v -0.130146 -0.560609 -0.015042
v 0.116735 -0.560609 -0.063031
v -0.000277 -1.055318 -0.005961
v 0.097977 -0.560609 -0.091371
v -0.108206 -0.560609 -0.078760
v -0.000277 -1.055318 -0.005961
v -0.123370 -0.560609 -0.048345
v 0.097977 -0.560609 -0.091371
v -0.000277 -1.055318 -0.005961
v 0.072523 -0.560609 -0.113890
v -0.085687 -0.560609 -0.104214
v -0.000277 -1.055318 -0.005961
v -0.108206 -0.560609 -0.078760
v 0.042108 -0.560609 -0.129055
v 0.072523 -0.560609 -0.113890
v -0.000277 -1.055318 -0.005961
v -0.057347 -0.560609 -0.122972
v -0.000277 -1.055318 -0.005961
v -0.085687 -0.560609 -0.104214
v 0.008805 -0.560609 -0.135830
v 0.042108 -0.560609 -0.129055
v -0.000277 -1.055318 -0.005961
v -0.025117 -0.560609 -0.133755
v -0.000277 -1.055318 -0.005961
v -0.057347 -0.560609 -0.122972
v -0.025117 -0.560609 -0.133755
v 0.008805 -0.560609 -0.135830
v -0.000277 -1.055318 -0.005961
vn 0.06745948924303309 0.25449309499889633 -0.9647188615907496
vn -0.18452654065017718 0.2544929061361752 -0.9493067557549785
vn 0 1 0
vn -0.4239373956080494 0.25449309499889633 -0.8692009832040845
vn 0.31484851574339745 0.2544930763144597 -0.9143870549401836
vn -0.6344578801463455 0.2544930763144597 -0.7298605842407222
vn 0.54078126251611 0.25449299924701596 -0.8017411923094263
vn -0.8017411923094263 0.2544929992470159 -0.54078126251611
vn 0.7298605842407222 0.2544930763144597 -0.6344578801463454
vn -0.9143870549401836 0.2544930763144597 -0.31484851574339756
vn 0.8692009832040845 0.25449309499889633 -0.42393739560804927
vn -0.9647188615907496 0.25449309499889633 -0.06745948924303315
vn 0.9493067557549785 0.2544929061361752 -0.18452654065017712
vn -0.9493067557549785 0.2544929061361752 0.18452654065017712
vn 0.9647188615907496 0.25449309499889633 0.06745948924303315
vn -0.8692009832040845 0.25449309499889633 0.42393739560804927
vn 0.9143870549401836 0.2544930763144597 0.31484851574339756
vn -0.7298605842407222 0.2544930763144597 0.6344578801463454
vn 0.8017411923094263 0.2544929992470159 0.54078126251611
vn -0.54078126251611 0.25449299924701596 0.8017411923094263
vn 0.6344578801463455 0.2544930763144597 0.7298605842407222
vn -0.31484851574339745 0.2544930763144597 0.9143870549401836
vn 0.4239373956080494 0.25449309499889633 0.8692009832040845
vn -0.06745948924303309 0.25449309499889633 0.9647188615907496
vn 0.18452654065017718 0.2544929061361752 0.9493067557549785
vn 0 -1 0
vn 0.18452654065017718 -0.2544929061361752 0.9493067557549785
vn -0.06745948924303309 -0.25449309499889633 0.9647188615907496
vn 0.4239373956080494 -0.25449309499889633 0.8692009832040845
vn -0.31484851574339745 -0.2544930763144597 0.9143870549401836
vn 0.6344578801463455 -0.2544930763144597 0.7298605842407222
vn -0.54078126251611 -0.25449299924701596 0.8017411923094263
vn 0.8017411923094263 -0.2544929992470159 0.54078126251611
vn -0.7298605842407222 -0.2544930763144597 0.6344578801463454
vn 0.9143870549401836 -0.2544930763144597 0.31484851574339756
vn -0.8692009832040845 -0.25449309499889633 0.42393739560804927
vn 0.9647188615907496 -0.25449309499889633 0.06745948924303315
vn -0.9493067557549785 -0.2544929061361752 0.18452654065017712
vn 0.9493067557549785 -0.2544929061361752 -0.18452654065017712
vn -0.9647188615907496 -0.25449309499889633 -0.06745948924303315
vn 0.8692009832040845 -0.25449309499889633 -0.42393739560804927
vn -0.9143870549401836 -0.2544930763144597 -0.31484851574339756
vn 0.7298605842407222 -0.2544930763144597 -0.6344578801463454
vn -0.8017411923094263 -0.2544929992470159 -0.54078126251611
vn 0.54078126251611 -0.25449299924701596 -0.8017411923094263
vn -0.6344578801463455 -0.2544930763144597 -0.7298605842407222
vn 0.31484851574339745 -0.2544930763144597 -0.9143870549401836
vn -0.4239373956080494 -0.25449309499889633 -0.8692009832040845
vn 0.06745948924303309 -0.25449309499889633 -0.9647188615907496
vn -0.18452654065017718 -0.2544929061361752 -0.9493067557549785
usemtl material_0_0
f 1//1 2//2 3//3
f 4//3 5//2 6//4
f 7//5 8//1 9//3
f 10//3 11//4 12//6
f 13//7 14//5 15//3
f 16//3 17//6 18//8
f 19//7 20//3 21//9
f 22//10 23//3 24//8
f 25//9 26//3 27//11
f 28//12 29//3 30//10
f 31//11 32//3 33//13
f 34//14 35//3 36//12
f 37//13 38//3 39//15
f 40//16 41//3 42//14
f 43//15 44//3 45//17
f 46//18 47//3 48//16
f 49//17 50//3 51//19
f 52//20 53//3 54//18
f 55//19 56//3 57//21
f 58//3 59//20 60//22
f 61//21 62//3 63//23
f 64//3 65//22 66//24
f 67//23 68//3 69//25
f 70//3 71//24 72//25
usemtl material_1_0
f 73//26 74//27 75//28
f 76//29 77//27 78//26
f 79//26 80//28 81//30
f 82//31 83//29 84//26
f 85//26 86//30 87//32
f 88//33 89//31 90//26
f 91//34 92//26 93//32
f 94//33 95//26 96//35
f 97//36 98//26 99//34
f 100//35 101//26 102//37
f 103//38 104//26 105//36
f 106//37 107//26 108//39
f 109//40 110//26 111//38
f 112//39 113//26 114//41
f 115//42 116//26 117//40
f 118//41 119//26 120//43
f 121//44 122//26 123//42
f 124//43 125//26 126//45
f 127//46 128//26 129//44
f 130//47 131//45 132//26
f 133//48 134//26 135//46
f 136//49 137//47 138//26
f 139//50 140//26 141//48
f 142//50 143//49 144//26
