# SSTK version 0.8.0
# 9
mtllib original-9.mtl
o mesh1/mesh1-geometry/material_0/component_4#mesh1-geometry
v 0.043827 0.689183 -0.127664
v 0.042108 0.689183 -0.129055
v 0.072523 0.689183 -0.113890
v 0.072523 0.689183 -0.113890
v 0.042108 0.689183 -0.129055
v 0.043827 0.689183 -0.127664
v 0.042108 0.689183 -0.129055
v 0.043827 0.689183 -0.127664
v 0.018075 0.689183 -0.132537
v 0.018075 0.689183 -0.132537
v 0.043827 0.689183 -0.127664
v 0.042108 0.689183 -0.129055
vn 0 -1 0
vn 0 1 0
usemtl material_0_0
f 1//1 2//1 3//1
f 4//2 5//2 6//2
f 7//1 8//1 9//1
f 10//2 11//2 12//2
