# SSTK version 0.8.0
# 14
mtllib original-14.mtl
o mesh3/mesh3-geometry/material_0#mesh3-geometry
v -0.010911 0.568190 0.120898
v 0.013830 0.663635 0.121520
v 0.013830 0.568190 0.121520
v 0.013830 0.663635 0.121520
v -0.010911 0.568190 0.120898
v 0.006589 0.663701 0.121338
v 0.013830 0.568190 0.121520
v 0.013830 0.663635 0.121520
v -0.010911 0.568190 0.120898
v 0.006589 0.663701 0.121338
v -0.010911 0.568190 0.120898
v 0.013830 0.663635 0.121520
v 0.006589 0.663701 0.121338
v -0.010911 0.568190 0.120898
v -0.010911 0.663635 0.120898
v -0.010911 0.663635 0.120898
v -0.010911 0.568190 0.120898
v 0.006589 0.663701 0.121338
v -0.010911 0.663635 0.120898
v 0.013830 0.663635 0.121520
v 0.006589 0.663701 0.121338
v 0.006589 0.663701 0.121338
v 0.013830 0.663635 0.121520
v -0.010911 0.663635 0.120898
v -0.012220 0.663635 0.172957
v 0.013830 0.663635 0.121520
v -0.010911 0.663635 0.120898
v -0.010911 0.663635 0.120898
v 0.013830 0.663635 0.121520
v -0.012220 0.663635 0.172957
v 0.013830 0.663635 0.121520
v 0.005280 0.663701 0.173396
v 0.012522 0.663635 0.173578
v 0.012522 0.663635 0.173578
v 0.005280 0.663701 0.173396
v 0.013830 0.663635 0.121520
v 0.010640 0.660491 0.173531
v 0.013830 0.663635 0.121520
v 0.012522 0.663635 0.173578
v 0.012522 0.663635 0.173578
v 0.013830 0.663635 0.121520
v 0.010640 0.660491 0.173531
v 0.013830 0.663635 0.121520
v 0.007162 0.666845 0.173444
v 0.012522 0.663635 0.173578
v 0.012522 0.663635 0.173578
v 0.007162 0.666845 0.173444
v 0.013830 0.663635 0.121520
v -0.009315 0.660227 0.120938
v -0.012220 0.663635 0.172957
v -0.010911 0.663635 0.120898
v -0.010911 0.663635 0.120898
v -0.012220 0.663635 0.172957
v -0.009315 0.660227 0.120938
v 0.005280 0.663701 0.173396
v 0.013830 0.663635 0.121520
v -0.012220 0.663635 0.172957
v -0.012220 0.663635 0.172957
v 0.013830 0.663635 0.121520
v 0.005280 0.663701 0.173396
v 0.013830 0.663635 0.121520
v 0.023802 0.692393 0.120151
v 0.029162 0.689183 0.120285
v 0.029162 0.689183 0.120285
v 0.023802 0.692393 0.120151
v 0.013830 0.663635 0.121520
v 0.013830 0.663635 0.121520
v 0.010640 0.660491 0.173531
v 0.011948 0.660491 0.121473
v 0.011948 0.660491 0.121473
v 0.010640 0.660491 0.173531
v 0.013830 0.663635 0.121520
v 0.007162 0.666845 0.173444
v 0.013830 0.663635 0.121520
v 0.008471 0.666845 0.121386
v 0.008471 0.666845 0.121386
v 0.013830 0.663635 0.121520
v 0.007162 0.666845 0.173444
v -0.015874 0.692439 0.118594
v -0.010911 0.663635 0.120898
v -0.022821 0.689183 0.118419
v -0.022821 0.689183 0.118419
v -0.010911 0.663635 0.120898
v -0.015874 0.692439 0.118594
v -0.012220 0.663635 0.172957
v -0.009315 0.660227 0.120938
v -0.010624 0.660227 0.172997
v -0.010624 0.660227 0.172997
v -0.009315 0.660227 0.120938
v -0.012220 0.663635 0.172957
v -0.003964 0.666891 0.121073
v -0.009315 0.660227 0.120938
v -0.010911 0.663635 0.120898
v -0.010911 0.663635 0.120898
v -0.009315 0.660227 0.120938
v -0.003964 0.666891 0.121073
v 0.023802 0.692393 0.120151
v 0.013830 0.663635 0.121520
v 0.008471 0.666845 0.121386
v 0.008471 0.666845 0.121386
v 0.013830 0.663635 0.121520
v 0.023802 0.692393 0.120151
v 0.005280 0.663701 0.173396
v 0.011948 0.660491 0.121473
v 0.010640 0.660491 0.173531
v 0.010640 0.660491 0.173531
v 0.011948 0.660491 0.121473
v 0.005280 0.663701 0.173396
v 0.011948 0.660491 0.121473
v 0.008471 0.666845 0.121386
v 0.013830 0.663635 0.121520
v 0.013830 0.663635 0.121520
v 0.008471 0.666845 0.121386
v 0.011948 0.660491 0.121473
v 0.006589 0.663701 0.121338
v 0.007162 0.666845 0.173444
v 0.008471 0.666845 0.121386
v 0.008471 0.666845 0.121386
v 0.007162 0.666845 0.173444
v 0.006589 0.663701 0.121338
v 0.008471 0.666845 0.121386
v -0.005273 0.666891 0.173131
v 0.007162 0.666845 0.173444
v 0.007162 0.666845 0.173444
v -0.005273 0.666891 0.173131
v 0.008471 0.666845 0.121386
v -0.010911 0.663635 0.120898
v -0.015874 0.692439 0.118594
v -0.003964 0.666891 0.121073
v -0.003964 0.666891 0.121073
v -0.015874 0.692439 0.118594
v -0.010911 0.663635 0.120898
v -0.002368 0.663482 0.121113
v -0.010624 0.660227 0.172997
v -0.009315 0.660227 0.120938
v -0.009315 0.660227 0.120938
v -0.010624 0.660227 0.172997
v -0.002368 0.663482 0.121113
v -0.009315 0.660227 0.120938
v -0.003964 0.666891 0.121073
v -0.002368 0.663482 0.121113
v -0.002368 0.663482 0.121113
v -0.003964 0.666891 0.121073
v -0.009315 0.660227 0.120938
v -0.005273 0.666891 0.173131
v 0.005280 0.663701 0.173396
v 0.007162 0.666845 0.173444
v 0.005280 0.663701 0.173396
v -0.005273 0.666891 0.173131
v -0.003763 0.663667 0.173169
v -0.003763 0.663667 0.173169
v -0.005273 0.666891 0.173131
v 0.005280 0.663701 0.173396
v 0.011948 0.660491 0.121473
v 0.005280 0.663701 0.173396
v 0.006589 0.663701 0.121338
v 0.006589 0.663701 0.121338
v 0.005280 0.663701 0.173396
v 0.011948 0.660491 0.121473
v 0.008471 0.666845 0.121386
v 0.011948 0.660491 0.121473
v 0.006589 0.663701 0.121338
v 0.006589 0.663701 0.121338
v 0.011948 0.660491 0.121473
v 0.008471 0.666845 0.121386
v 0.007162 0.666845 0.173444
v 0.006589 0.663701 0.121338
v 0.005280 0.663701 0.173396
v 0.005280 0.663701 0.173396
v 0.006589 0.663701 0.121338
v 0.007162 0.666845 0.173444
v -0.005273 0.666891 0.173131
v 0.008471 0.666845 0.121386
v -0.003995 0.666891 0.122298
v -0.003995 0.666891 0.122298
v 0.008471 0.666845 0.121386
v -0.005273 0.666891 0.173131
v -0.003995 0.666891 0.122298
v 0.008471 0.666845 0.121386
v 0.003340 0.685702 0.122135
v 0.003340 0.685702 0.122135
v 0.008471 0.666845 0.121386
v -0.003995 0.666891 0.122298
v -0.010624 0.660227 0.172997
v -0.002368 0.663482 0.121113
v -0.003676 0.663482 0.173171
v -0.003676 0.663482 0.173171
v -0.002368 0.663482 0.121113
v -0.010624 0.660227 0.172997
vn 0.025129021928645353 0 -0.9996842162687722
vn -0.025129021928645353 0 0.9996842162687722
vn -0.0006900471071781687 0.9999997617615785 -0.000017657180874480687
vn 0.0006900471071781687 -0.9999997617615785 0.000017657180874480687
vn 0.8577198209545713 -0.5136651177890468 0.021560508074322395
vn -0.8577198209545713 0.5136651177890468 -0.021560508074322395
vn 0.5135032247696136 0.857990570972296 0.012908070105217993
vn -0.5135032247696136 -0.857990570972296 -0.012908070105217993
vn -0.9052745786489236 -0.42421706782601565 -0.022755584306083987
vn 0.9052745786489236 0.42421706782601565 0.022755584306083987
vn -0.002797411871154029 -0.04659898754489146 -0.9989097601118001
vn 0.002797411871154029 0.04659898754489146 0.9989097601118001
vn 0.057713906566163486 -0.0697410375955528 -0.9958942176074563
vn -0.057713906566163486 0.0697410375955528 0.9958942176074563
vn 0.0036649653742306053 0.9999932797239294 0.0000923893110172637
vn -0.0036649653742306053 -0.9999932797239294 -0.0000923893110172637
vn 0.4240837239852373 -0.9055602474825044 0.010659888847381916
vn -0.4240837239852373 0.9055602474825044 -0.010659888847381916
vn 0.07294345902059042 -0.019773999616014035 0.9971400306503081
vn -0.07294345902059042 0.019773999616014035 -0.9971400306503081
usemtl material_0_0
f 1//1 2//1 3//1
f 4//1 5//1 6//1
f 7//2 8//2 9//2
f 10//2 11//2 12//2
f 13//1 14//1 15//1
f 16//2 17//2 18//2
f 19//3 20//3 21//3
f 22//4 23//4 24//4
f 25//3 26//3 27//3
f 28//4 29//4 30//4
f 31//3 32//3 33//3
f 34//4 35//4 36//4
f 37//5 38//5 39//5
f 40//6 41//6 42//6
f 43//7 44//7 45//7
f 46//8 47//8 48//8
f 49//9 50//9 51//9
f 52//10 53//10 54//10
f 55//3 56//3 57//3
f 58//4 59//4 60//4
f 61//11 62//11 63//11
f 64//12 65//12 66//12
f 67//5 68//5 69//5
f 70//6 71//6 72//6
f 73//7 74//7 75//7
f 76//8 77//8 78//8
f 79//13 80//13 81//13
f 82//14 83//14 84//14
f 85//9 86//9 87//9
f 88//10 89//10 90//10
f 91//1 92//1 93//1
f 94//2 95//2 96//2
f 97//11 98//11 99//11
f 100//12 101//12 102//12
f 103//8 104//8 105//8
f 106//7 107//7 108//7
f 109//1 110//1 111//1
f 112//2 113//2 114//2
f 115//6 116//6 117//6
f 118//5 119//5 120//5
f 121//15 122//15 123//15
f 124//16 125//16 126//16
f 127//13 128//13 129//13
f 130//14 131//14 132//14
f 133//17 134//17 135//17
f 136//18 137//18 138//18
f 139//1 140//1 141//1
f 142//2 143//2 144//2
f 145//2 146//2 147//2
f 148//2 149//2 150//2
f 151//1 152//1 153//1
f 154//8 155//8 156//8
f 157//7 158//7 159//7
f 160//1 161//1 162//1
f 163//2 164//2 165//2
f 166//6 167//6 168//6
f 169//5 170//5 171//5
f 172//15 173//15 174//15
f 175//16 176//16 177//16
f 178//19 179//19 180//19
f 181//20 182//20 183//20
f 184//17 185//17 186//17
f 187//18 188//18 189//18
