# SSTK version 0.8.0
# 7
mtllib original-7.mtl
o mesh1/mesh1-geometry/material_0/component_2#mesh1-geometry
v 0.019916 0.741258 0.069947
v 0.039163 0.689183 0.063212
v 0.039163 0.741258 0.063212
v 0.039163 0.741258 0.063212
v 0.039163 0.689183 0.063212
v 0.019916 0.741258 0.069947
v 0.039163 0.689183 0.063212
v 0.019916 0.741258 0.069947
v 0.019916 0.689183 0.069947
v 0.019916 0.689183 0.069947
v 0.019916 0.741258 0.069947
v 0.039163 0.689183 0.063212
v 0.056011 0.689183 0.051725
v 0.039163 0.741258 0.063212
v 0.039163 0.689183 0.063212
v 0.039163 0.689183 0.063212
v 0.039163 0.741258 0.063212
v 0.056011 0.689183 0.051725
v -0.000418 0.741258 0.071470
v 0.019916 0.689183 0.069947
v 0.019916 0.741258 0.069947
v 0.019916 0.741258 0.069947
v 0.019916 0.689183 0.069947
v -0.000418 0.741258 0.071470
v -0.020454 0.741258 0.067679
v -0.000418 0.689183 0.071470
v -0.000418 0.741258 0.071470
v -0.000418 0.741258 0.071470
v -0.000418 0.689183 0.071470
v -0.020454 0.741258 0.067679
v -0.000418 0.689183 0.071470
v 0.039163 0.689183 0.063212
v 0.019916 0.689183 0.069947
v 0.019916 0.689183 0.069947
v 0.039163 0.689183 0.063212
v -0.000418 0.689183 0.071470
v 0.039163 0.741258 0.063212
v 0.056011 0.689183 0.051725
v 0.056011 0.741258 0.051725
v 0.056011 0.741258 0.051725
v 0.056011 0.689183 0.051725
v 0.039163 0.741258 0.063212
v 0.022709 0.689183 0.063934
v 0.056011 0.689183 0.051725
v 0.039163 0.689183 0.063212
v 0.039163 0.689183 0.063212
v 0.056011 0.689183 0.051725
v 0.022709 0.689183 0.063934
v 0.019916 0.689183 0.069947
v -0.000418 0.741258 0.071470
v -0.000418 0.689183 0.071470
v -0.000418 0.689183 0.071470
v -0.000418 0.741258 0.071470
v 0.019916 0.689183 0.069947
v -0.038826 0.741258 0.058832
v -0.020454 0.689183 0.067679
v -0.020454 0.741258 0.067679
v -0.020454 0.741258 0.067679
v -0.020454 0.689183 0.067679
v -0.038826 0.741258 0.058832
v -0.000418 0.689183 0.071470
v -0.020454 0.741258 0.067679
v -0.020454 0.689183 0.067679
v -0.020454 0.689183 0.067679
v -0.020454 0.741258 0.067679
v -0.000418 0.689183 0.071470
v -0.054282 0.689183 0.045530
v -0.038826 0.741258 0.058832
v -0.054282 0.741258 0.045530
v -0.054282 0.741258 0.045530
v -0.038826 0.741258 0.058832
v -0.054282 0.689183 0.045530
v 0.039163 0.689183 0.063212
v -0.000418 0.689183 0.071470
v 0.003835 0.689183 0.066386
v 0.003835 0.689183 0.066386
v -0.000418 0.689183 0.071470
v 0.039163 0.689183 0.063212
v 0.069312 0.689183 0.036269
v 0.056011 0.741258 0.051725
v 0.056011 0.689183 0.051725
v 0.056011 0.689183 0.051725
v 0.056011 0.741258 0.051725
v 0.069312 0.689183 0.036269
v 0.056011 0.689183 0.051725
v 0.022709 0.689183 0.063934
v 0.040305 0.689183 0.056682
v 0.040305 0.689183 0.056682
v 0.022709 0.689183 0.063934
v 0.056011 0.689183 0.051725
v 0.039163 0.689183 0.063212
v 0.003835 0.689183 0.066386
v 0.022709 0.689183 0.063934
v 0.022709 0.689183 0.063934
v 0.003835 0.689183 0.066386
v 0.039163 0.689183 0.063212
v -0.020454 0.689183 0.067679
v -0.038826 0.741258 0.058832
v -0.038826 0.689183 0.058832
v -0.038826 0.689183 0.058832
v -0.038826 0.741258 0.058832
v -0.020454 0.689183 0.067679
v 0.003835 0.689183 0.066386
v -0.000418 0.689183 0.071470
v -0.020454 0.689183 0.067679
v -0.020454 0.689183 0.067679
v -0.000418 0.689183 0.071470
v 0.003835 0.689183 0.066386
v -0.038826 0.741258 0.058832
v -0.054282 0.689183 0.045530
v -0.038826 0.689183 0.058832
v -0.038826 0.689183 0.058832
v -0.054282 0.689183 0.045530
v -0.038826 0.741258 0.058832
v -0.054282 0.741258 0.045530
v -0.065769 0.689183 0.028682
v -0.054282 0.689183 0.045530
v -0.054282 0.689183 0.045530
v -0.065769 0.689183 0.028682
v -0.054282 0.741258 0.045530
v 0.056011 0.741258 0.051725
v 0.069312 0.689183 0.036269
v 0.069312 0.741258 0.036269
v 0.069312 0.741258 0.036269
v 0.069312 0.689183 0.036269
v 0.056011 0.741258 0.051725
v 0.056011 0.689183 0.051725
v 0.055423 0.689183 0.045122
v 0.069312 0.689183 0.036269
v 0.069312 0.689183 0.036269
v 0.055423 0.689183 0.045122
v 0.056011 0.689183 0.051725
v 0.056011 0.689183 0.051725
v 0.040305 0.689183 0.056682
v 0.055423 0.689183 0.045122
v 0.055423 0.689183 0.045122
v 0.040305 0.689183 0.056682
v 0.056011 0.689183 0.051725
v -0.015029 0.689183 0.063869
v -0.020454 0.689183 0.067679
v -0.038826 0.689183 0.058832
v -0.038826 0.689183 0.058832
v -0.020454 0.689183 0.067679
v -0.015029 0.689183 0.063869
v 0.003835 0.689183 0.066386
v -0.020454 0.689183 0.067679
v -0.015029 0.689183 0.063869
v -0.015029 0.689183 0.063869
v -0.020454 0.689183 0.067679
v 0.003835 0.689183 0.066386
v -0.065769 0.689183 0.028682
v -0.054282 0.741258 0.045530
v -0.065769 0.741258 0.028682
v -0.065769 0.741258 0.028682
v -0.054282 0.741258 0.045530
v -0.065769 0.689183 0.028682
v -0.032600 0.689183 0.056555
v -0.038826 0.689183 0.058832
v -0.054282 0.689183 0.045530
v -0.054282 0.689183 0.045530
v -0.038826 0.689183 0.058832
v -0.032600 0.689183 0.056555
v -0.059239 0.689183 0.029824
v -0.054282 0.689183 0.045530
v -0.065769 0.689183 0.028682
v -0.065769 0.689183 0.028682
v -0.054282 0.689183 0.045530
v -0.059239 0.689183 0.029824
v 0.069312 0.689183 0.036269
v 0.078160 0.741258 0.017897
v 0.069312 0.741258 0.036269
v 0.069312 0.741258 0.036269
v 0.078160 0.741258 0.017897
v 0.069312 0.689183 0.036269
v 0.069312 0.689183 0.036269
v 0.055423 0.689183 0.045122
v 0.067036 0.689183 0.030043
v 0.067036 0.689183 0.030043
v 0.055423 0.689183 0.045122
v 0.069312 0.689183 0.036269
v -0.015029 0.689183 0.063869
v -0.038826 0.689183 0.058832
v -0.032600 0.689183 0.056555
v -0.032600 0.689183 0.056555
v -0.038826 0.689183 0.058832
v -0.015029 0.689183 0.063869
v -0.072504 0.689183 0.009435
v -0.065769 0.741258 0.028682
v -0.072504 0.741258 0.009435
v -0.072504 0.741258 0.009435
v -0.065769 0.741258 0.028682
v -0.072504 0.689183 0.009435
v -0.065769 0.741258 0.028682
v -0.072504 0.689183 0.009435
v -0.065769 0.689183 0.028682
v -0.065769 0.689183 0.028682
v -0.072504 0.689183 0.009435
v -0.065769 0.741258 0.028682
v -0.032600 0.689183 0.056555
v -0.054282 0.689183 0.045530
v -0.047679 0.689183 0.044943
v -0.047679 0.689183 0.044943
v -0.054282 0.689183 0.045530
v -0.032600 0.689183 0.056555
v -0.047679 0.689183 0.044943
v -0.054282 0.689183 0.045530
v -0.059239 0.689183 0.029824
v -0.059239 0.689183 0.029824
v -0.054282 0.689183 0.045530
v -0.047679 0.689183 0.044943
v -0.059239 0.689183 0.029824
v -0.065769 0.689183 0.028682
v -0.066491 0.689183 0.012228
v -0.066491 0.689183 0.012228
v -0.065769 0.689183 0.028682
v -0.059239 0.689183 0.029824
v 0.078160 0.741258 0.017897
v 0.069312 0.689183 0.036269
v 0.078160 0.689183 0.017897
v 0.078160 0.689183 0.017897
v 0.069312 0.689183 0.036269
v 0.078160 0.741258 0.017897
v 0.069312 0.689183 0.036269
v 0.067036 0.689183 0.030043
v 0.078160 0.689183 0.017897
v 0.078160 0.689183 0.017897
v 0.067036 0.689183 0.030043
v 0.069312 0.689183 0.036269
v -0.072504 0.741258 0.009435
v -0.074028 0.689183 -0.010899
v -0.072504 0.689183 0.009435
v -0.072504 0.689183 0.009435
v -0.074028 0.689183 -0.010899
v -0.072504 0.741258 0.009435
v -0.066491 0.689183 0.012228
v -0.065769 0.689183 0.028682
v -0.072504 0.689183 0.009435
v -0.072504 0.689183 0.009435
v -0.065769 0.689183 0.028682
v -0.066491 0.689183 0.012228
v -0.048088 0.741258 -0.064763
v -0.061389 0.689183 -0.049307
v -0.061389 0.741258 -0.049307
v -0.061389 0.741258 -0.049307
v -0.061389 0.689183 -0.049307
v -0.048088 0.741258 -0.064763
v -0.061389 0.689183 -0.049307
v -0.070236 0.741258 -0.030935
v -0.061389 0.741258 -0.049307
v -0.061389 0.741258 -0.049307
v -0.070236 0.741258 -0.030935
v -0.061389 0.689183 -0.049307
v 0.078160 0.689183 0.017897
v 0.081951 0.741258 -0.002138
v 0.078160 0.741258 0.017897
v 0.078160 0.741258 0.017897
v 0.081951 0.741258 -0.002138
v 0.078160 0.689183 0.017897
v 0.078160 0.689183 0.017897
v 0.067036 0.689183 0.030043
v 0.074349 0.689183 0.012472
v 0.074349 0.689183 0.012472
v 0.067036 0.689183 0.030043
v 0.078160 0.689183 0.017897
v -0.074028 0.689183 -0.010899
v -0.072504 0.741258 0.009435
v -0.074028 0.741258 -0.010899
v -0.074028 0.741258 -0.010899
v -0.072504 0.741258 0.009435
v -0.074028 0.689183 -0.010899
v -0.068942 0.689183 -0.006645
v -0.072504 0.689183 0.009435
v -0.074028 0.689183 -0.010899
v -0.074028 0.689183 -0.010899
v -0.072504 0.689183 0.009435
v -0.068942 0.689183 -0.006645
v -0.066491 0.689183 0.012228
v -0.072504 0.689183 0.009435
v -0.068942 0.689183 -0.006645
v -0.068942 0.689183 -0.006645
v -0.072504 0.689183 0.009435
v -0.066491 0.689183 0.012228
v -0.031239 0.741258 -0.076250
v -0.048088 0.689183 -0.064763
v -0.048088 0.741258 -0.064763
v -0.048088 0.741258 -0.064763
v -0.048088 0.689183 -0.064763
v -0.031239 0.741258 -0.076250
v -0.061389 0.689183 -0.049307
v -0.048088 0.741258 -0.064763
v -0.048088 0.689183 -0.064763
v -0.048088 0.689183 -0.064763
v -0.048088 0.741258 -0.064763
v -0.061389 0.689183 -0.049307
v -0.070236 0.741258 -0.030935
v -0.061389 0.689183 -0.049307
v -0.070236 0.689183 -0.030935
v -0.070236 0.689183 -0.030935
v -0.061389 0.689183 -0.049307
v -0.070236 0.741258 -0.030935
v 0.081951 0.741258 -0.002138
v 0.078160 0.689183 0.017897
v 0.081951 0.689183 -0.002138
v 0.081951 0.689183 -0.002138
v 0.078160 0.689183 0.017897
v 0.081951 0.741258 -0.002138
v 0.078160 0.689183 0.017897
v 0.074349 0.689183 0.012472
v 0.081951 0.689183 -0.002138
v 0.081951 0.689183 -0.002138
v 0.074349 0.689183 0.012472
v 0.078160 0.689183 0.017897
v -0.074028 0.741258 -0.010899
v -0.070236 0.689183 -0.030935
v -0.074028 0.689183 -0.010899
v -0.074028 0.689183 -0.010899
v -0.070236 0.689183 -0.030935
v -0.074028 0.741258 -0.010899
v -0.068942 0.689183 -0.006645
v -0.074028 0.689183 -0.010899
v -0.066426 0.689183 -0.025510
v -0.066426 0.689183 -0.025510
v -0.074028 0.689183 -0.010899
v -0.068942 0.689183 -0.006645
v -0.048088 0.689183 -0.064763
v -0.031239 0.741258 -0.076250
v -0.031239 0.689183 -0.076250
v -0.031239 0.689183 -0.076250
v -0.031239 0.741258 -0.076250
v -0.048088 0.689183 -0.064763
v -0.047500 0.689183 -0.058159
v -0.061389 0.689183 -0.049307
v -0.048088 0.689183 -0.064763
v -0.048088 0.689183 -0.064763
v -0.061389 0.689183 -0.049307
v -0.047500 0.689183 -0.058159
v -0.059112 0.689183 -0.043080
v -0.070236 0.689183 -0.030935
v -0.061389 0.689183 -0.049307
v -0.061389 0.689183 -0.049307
v -0.070236 0.689183 -0.030935
v -0.059112 0.689183 -0.043080
v -0.070236 0.689183 -0.030935
v -0.074028 0.741258 -0.010899
v -0.070236 0.741258 -0.030935
v -0.070236 0.741258 -0.030935
v -0.074028 0.741258 -0.010899
v -0.070236 0.689183 -0.030935
v 0.081951 0.689183 -0.002138
v 0.080427 0.741258 -0.022473
v 0.081951 0.741258 -0.002138
v 0.081951 0.741258 -0.002138
v 0.080427 0.741258 -0.022473
v 0.081951 0.689183 -0.002138
v 0.081951 0.689183 -0.002138
v 0.074349 0.689183 0.012472
v 0.076866 0.689183 -0.006392
v 0.076866 0.689183 -0.006392
v 0.074349 0.689183 0.012472
v 0.081951 0.689183 -0.002138
v 0.028378 0.741258 -0.080717
v 0.008342 0.689183 -0.084508
v 0.008342 0.741258 -0.084508
v 0.008342 0.741258 -0.084508
v 0.008342 0.689183 -0.084508
v 0.028378 0.741258 -0.080717
v -0.066426 0.689183 -0.025510
v -0.074028 0.689183 -0.010899
v -0.070236 0.689183 -0.030935
v -0.070236 0.689183 -0.030935
v -0.074028 0.689183 -0.010899
v -0.066426 0.689183 -0.025510
v -0.011992 0.741258 -0.082984
v -0.031239 0.689183 -0.076250
v -0.031239 0.741258 -0.076250
v -0.031239 0.741258 -0.076250
v -0.031239 0.689183 -0.076250
v -0.011992 0.741258 -0.082984
v -0.032381 0.689183 -0.069719
v -0.048088 0.689183 -0.064763
v -0.031239 0.689183 -0.076250
v -0.031239 0.689183 -0.076250
v -0.048088 0.689183 -0.064763
v -0.032381 0.689183 -0.069719
v -0.059112 0.689183 -0.043080
v -0.061389 0.689183 -0.049307
v -0.047500 0.689183 -0.058159
v -0.047500 0.689183 -0.058159
v -0.061389 0.689183 -0.049307
v -0.059112 0.689183 -0.043080
v -0.047500 0.689183 -0.058159
v -0.048088 0.689183 -0.064763
v -0.032381 0.689183 -0.069719
v -0.032381 0.689183 -0.069719
v -0.048088 0.689183 -0.064763
v -0.047500 0.689183 -0.058159
v -0.066426 0.689183 -0.025510
v -0.070236 0.689183 -0.030935
v -0.059112 0.689183 -0.043080
v -0.059112 0.689183 -0.043080
v -0.070236 0.689183 -0.030935
v -0.066426 0.689183 -0.025510
v 0.080427 0.741258 -0.022473
v 0.081951 0.689183 -0.002138
v 0.080427 0.689183 -0.022473
v 0.080427 0.689183 -0.022473
v 0.081951 0.689183 -0.002138
v 0.080427 0.741258 -0.022473
v 0.081951 0.689183 -0.002138
v 0.076866 0.689183 -0.006392
v 0.080427 0.689183 -0.022473
v 0.080427 0.689183 -0.022473
v 0.076866 0.689183 -0.006392
v 0.081951 0.689183 -0.002138
v 0.046750 0.741258 -0.071869
v 0.028378 0.689183 -0.080717
v 0.028378 0.741258 -0.080717
v 0.028378 0.741258 -0.080717
v 0.028378 0.689183 -0.080717
v 0.046750 0.741258 -0.071869
v 0.008342 0.689183 -0.084508
v 0.028378 0.741258 -0.080717
v 0.028378 0.689183 -0.080717
v 0.028378 0.689183 -0.080717
v 0.028378 0.741258 -0.080717
v 0.008342 0.689183 -0.084508
v -0.011992 0.689183 -0.082984
v 0.008342 0.741258 -0.084508
v 0.008342 0.689183 -0.084508
v 0.008342 0.689183 -0.084508
v 0.008342 0.741258 -0.084508
v -0.011992 0.689183 -0.082984
v -0.031239 0.689183 -0.076250
v -0.011992 0.741258 -0.082984
v -0.011992 0.689183 -0.082984
v -0.011992 0.689183 -0.082984
v -0.011992 0.741258 -0.082984
v -0.031239 0.689183 -0.076250
v -0.032381 0.689183 -0.069719
v -0.031239 0.689183 -0.076250
v -0.014785 0.689183 -0.076972
v -0.014785 0.689183 -0.076972
v -0.031239 0.689183 -0.076250
v -0.032381 0.689183 -0.069719
v 0.080427 0.689183 -0.022473
v 0.073692 0.741258 -0.041720
v 0.080427 0.741258 -0.022473
v 0.080427 0.741258 -0.022473
v 0.073692 0.741258 -0.041720
v 0.080427 0.689183 -0.022473
v 0.080427 0.689183 -0.022473
v 0.076866 0.689183 -0.006392
v 0.074414 0.689183 -0.025266
v 0.074414 0.689183 -0.025266
v 0.076866 0.689183 -0.006392
v 0.080427 0.689183 -0.022473
v 0.028378 0.689183 -0.080717
v 0.046750 0.741258 -0.071869
v 0.046750 0.689183 -0.071869
v 0.046750 0.689183 -0.071869
v 0.046750 0.741258 -0.071869
v 0.028378 0.689183 -0.080717
v 0.028378 0.689183 -0.080717
v 0.004088 0.689183 -0.079423
v 0.008342 0.689183 -0.084508
v 0.008342 0.689183 -0.084508
v 0.004088 0.689183 -0.079423
v 0.028378 0.689183 -0.080717
v 0.008342 0.741258 -0.084508
v -0.011992 0.689183 -0.082984
v -0.011992 0.741258 -0.082984
v -0.011992 0.741258 -0.082984
v -0.011992 0.689183 -0.082984
v 0.008342 0.741258 -0.084508
v 0.008342 0.689183 -0.084508
v -0.031239 0.689183 -0.076250
v -0.011992 0.689183 -0.082984
v -0.011992 0.689183 -0.082984
v -0.031239 0.689183 -0.076250
v 0.008342 0.689183 -0.084508
v 0.008342 0.689183 -0.084508
v -0.014785 0.689183 -0.076972
v -0.031239 0.689183 -0.076250
v -0.031239 0.689183 -0.076250
v -0.014785 0.689183 -0.076972
v 0.008342 0.689183 -0.084508
v 0.073692 0.741258 -0.041720
v 0.080427 0.689183 -0.022473
v 0.073692 0.689183 -0.041720
v 0.073692 0.689183 -0.041720
v 0.080427 0.689183 -0.022473
v 0.073692 0.741258 -0.041720
v 0.080427 0.689183 -0.022473
v 0.074414 0.689183 -0.025266
v 0.073692 0.689183 -0.041720
v 0.073692 0.689183 -0.041720
v 0.074414 0.689183 -0.025266
v 0.080427 0.689183 -0.022473
v 0.062206 0.689183 -0.058568
v 0.046750 0.741258 -0.071869
v 0.062206 0.741258 -0.058568
v 0.062206 0.741258 -0.058568
v 0.046750 0.741258 -0.071869
v 0.062206 0.689183 -0.058568
v 0.046750 0.741258 -0.071869
v 0.062206 0.689183 -0.058568
v 0.046750 0.689183 -0.071869
v 0.046750 0.689183 -0.071869
v 0.062206 0.689183 -0.058568
v 0.046750 0.741258 -0.071869
v 0.046750 0.689183 -0.071869
v 0.022953 0.689183 -0.076906
v 0.028378 0.689183 -0.080717
v 0.028378 0.689183 -0.080717
v 0.022953 0.689183 -0.076906
v 0.046750 0.689183 -0.071869
v 0.028378 0.689183 -0.080717
v 0.022953 0.689183 -0.076906
v 0.004088 0.689183 -0.079423
v 0.004088 0.689183 -0.079423
v 0.022953 0.689183 -0.076906
v 0.028378 0.689183 -0.080717
v 0.008342 0.689183 -0.084508
v 0.004088 0.689183 -0.079423
v -0.014785 0.689183 -0.076972
v -0.014785 0.689183 -0.076972
v 0.004088 0.689183 -0.079423
v 0.008342 0.689183 -0.084508
v 0.073692 0.689183 -0.041720
v 0.062206 0.741258 -0.058568
v 0.073692 0.741258 -0.041720
v 0.073692 0.741258 -0.041720
v 0.062206 0.741258 -0.058568
v 0.073692 0.689183 -0.041720
v 0.073692 0.689183 -0.041720
v 0.074414 0.689183 -0.025266
v 0.067162 0.689183 -0.042862
v 0.067162 0.689183 -0.042862
v 0.074414 0.689183 -0.025266
v 0.073692 0.689183 -0.041720
v 0.062206 0.741258 -0.058568
v 0.073692 0.689183 -0.041720
v 0.062206 0.689183 -0.058568
v 0.062206 0.689183 -0.058568
v 0.073692 0.689183 -0.041720
v 0.062206 0.741258 -0.058568
v 0.062206 0.689183 -0.058568
v 0.055603 0.689183 -0.057981
v 0.046750 0.689183 -0.071869
v 0.046750 0.689183 -0.071869
v 0.055603 0.689183 -0.057981
v 0.062206 0.689183 -0.058568
v 0.046750 0.689183 -0.071869
v 0.040523 0.689183 -0.069593
v 0.022953 0.689183 -0.076906
v 0.022953 0.689183 -0.076906
v 0.040523 0.689183 -0.069593
v 0.046750 0.689183 -0.071869
v 0.073692 0.689183 -0.041720
v 0.067162 0.689183 -0.042862
v 0.062206 0.689183 -0.058568
v 0.062206 0.689183 -0.058568
v 0.067162 0.689183 -0.042862
v 0.073692 0.689183 -0.041720
v 0.062206 0.689183 -0.058568
v 0.067162 0.689183 -0.042862
v 0.055603 0.689183 -0.057981
v 0.055603 0.689183 -0.057981
v 0.067162 0.689183 -0.042862
v 0.062206 0.689183 -0.058568
v 0.046750 0.689183 -0.071869
v 0.055603 0.689183 -0.057981
v 0.040523 0.689183 -0.069593
v 0.040523 0.689183 -0.069593
v 0.055603 0.689183 -0.057981
v 0.046750 0.689183 -0.071869
vn 0.20424525502283658 0 0.9789197494180288
vn 0.4506481605434153 0 0.8927016497121735
vn -0.4506481605434153 0 -0.8927016497121735
vn -0.20424525502283658 0 -0.9789197494180288
vn 0.6663409735045529 0 0.7456471732857335
vn -0.6663409735045529 0 -0.7456471732857335
vn -0.056077661148306555 0 0.9984264098671146
vn 0.056077661148306555 0 -0.9984264098671146
vn -0.31257889528095556 0 0.949891801325255
vn 0.31257889528095556 0 -0.949891801325255
vn 0 -1 0
vn 0 1 0
vn -0.5477777081732185 0 0.8366239193499646
vn 0.5477777081732185 0 -0.8366239193499646
vn -0.7456471732857336 0 0.6663409735045529
vn 0.7456471732857336 0 -0.6663409735045529
vn 0.8366239193499647 0 0.5477777081732185
vn -0.8366239193499647 0 -0.5477777081732185
vn -0.8927016497121735 0 0.4506481605434153
vn 0.8927016497121735 0 -0.4506481605434153
vn 0.949891801325255 0 0.31257889528095556
vn -0.949891801325255 0 -0.31257889528095556
vn -0.9789197494180288 0 0.20424525502283652
vn 0.9789197494180288 0 -0.20424525502283652
vn -0.9984264098671147 0 -0.05607766114830661
vn 0.9984264098671147 0 0.05607766114830661
usemtl material_0_0
f 1//1 2//2 3//2
f 4//3 5//3 6//4
f 7//2 8//1 9//1
f 10//4 11//4 12//3
f 13//5 14//2 15//2
f 16//3 17//3 18//6
f 19//7 20//1 21//1
f 22//4 23//4 24//8
f 25//9 26//7 27//7
f 28//8 29//8 30//10
f 31//11 32//11 33//11
f 34//12 35//12 36//12
f 37//2 38//5 39//5
f 40//6 41//6 42//3
f 43//11 44//11 45//11
f 46//12 47//12 48//12
f 49//1 50//7 51//7
f 52//8 53//8 54//4
f 55//13 56//9 57//9
f 58//10 59//10 60//14
f 61//7 62//9 63//9
f 64//10 65//10 66//8
f 67//15 68//13 69//15
f 70//16 71//14 72//16
f 73//11 74//11 75//11
f 76//12 77//12 78//12
f 79//17 80//5 81//5
f 82//6 83//6 84//18
f 85//11 86//11 87//11
f 88//12 89//12 90//12
f 91//11 92//11 93//11
f 94//12 95//12 96//12
f 97//9 98//13 99//13
f 100//14 101//14 102//10
f 103//11 104//11 105//11
f 106//12 107//12 108//12
f 109//13 110//15 111//13
f 112//14 113//16 114//14
f 115//15 116//19 117//15
f 118//16 119//20 120//16
f 121//5 122//17 123//17
f 124//18 125//18 126//6
f 127//11 128//11 129//11
f 130//12 131//12 132//12
f 133//11 134//11 135//11
f 136//12 137//12 138//12
f 139//11 140//11 141//11
f 142//12 143//12 144//12
f 145//11 146//11 147//11
f 148//12 149//12 150//12
f 151//19 152//15 153//19
f 154//20 155//16 156//20
f 157//11 158//11 159//11
f 160//12 161//12 162//12
f 163//11 164//11 165//11
f 166//12 167//12 168//12
f 169//17 170//21 171//17
f 172//18 173//22 174//18
f 175//11 176//11 177//11
f 178//12 179//12 180//12
f 181//11 182//11 183//11
f 184//12 185//12 186//12
f 187//23 188//19 189//23
f 190//24 191//20 192//24
f 193//19 194//23 195//19
f 196//20 197//24 198//20
f 199//11 200//11 201//11
f 202//12 203//12 204//12
f 205//11 206//11 207//11
f 208//12 209//12 210//12
f 211//11 212//11 213//11
f 214//12 215//12 216//12
f 217//21 218//17 219//21
f 220//22 221//18 222//22
f 223//11 224//11 225//11
f 226//12 227//12 228//12
f 229//23 230//25 231//23
f 232//24 233//26 234//24
f 235//11 236//11 237//11
f 238//12 239//12 240//12
f 241//6 242//18 243//18
f 244//17 245//17 246//5
f 247//18 248//22 249//18
f 250//17 251//21 252//17
f 253//21 254//26 255//21
f 256//22 257//25 258//22
f 259//11 260//11 261//11
f 262//12 263//12 264//12
f 265//25 266//23 267//25
f 268//26 269//24 270//26
f 271//11 272//11 273//11
f 274//12 275//12 276//12
f 277//11 278//11 279//11
f 280//12 281//12 282//12
f 283//3 284//6 285//6
f 286//5 287//5 288//2
f 289//18 290//6 291//6
f 292//5 293//5 294//17
f 295//22 296//18 297//22
f 298//21 299//17 300//21
f 301//26 302//21 303//26
f 304//25 305//22 306//25
f 307//11 308//11 309//11
f 310//12 311//12 312//12
f 313//25 314//22 315//25
f 316//26 317//21 318//26
f 319//11 320//11 321//11
f 322//12 323//12 324//12
f 325//6 326//3 327//3
f 328//2 329//2 330//5
f 331//11 332//11 333//11
f 334//12 335//12 336//12
f 337//11 338//11 339//11
f 340//12 341//12 342//12
f 343//22 344//25 345//22
f 346//21 347//26 348//21
f 349//26 350//24 351//26
f 352//25 353//23 354//25
f 355//11 356//11 357//11
f 358//12 359//12 360//12
f 361//10 362//8 363//8
f 364//7 365//7 366//9
f 367//11 368//11 369//11
f 370//12 371//12 372//12
f 373//4 374//3 375//3
f 376//2 377//2 378//1
f 379//11 380//11 381//11
f 382//12 383//12 384//12
f 385//11 386//11 387//11
f 388//12 389//12 390//12
f 391//11 392//11 393//11
f 394//12 395//12 396//12
f 397//11 398//11 399//11
f 400//12 401//12 402//12
f 403//24 404//26 405//24
f 406//23 407//25 408//23
f 409//11 410//11 411//11
f 412//12 413//12 414//12
f 415//14 416//10 417//10
f 418//9 419//9 420//13
f 421//8 422//10 423//10
f 424//9 425//9 426//7
f 427//4 428//8 429//8
f 430//7 431//7 432//1
f 433//3 434//4 435//4
f 436//1 437//1 438//2
f 439//11 440//11 441//11
f 442//12 443//12 444//12
f 445//24 446//20 447//24
f 448//23 449//19 450//23
f 451//11 452//11 453//11
f 454//12 455//12 456//12
f 457//10 458//14 459//14
f 460//13 461//13 462//9
f 463//11 464//11 465//11
f 466//12 467//12 468//12
f 469//8 470//4 471//4
f 472//1 473//1 474//7
f 475//11 476//11 477//11
f 478//12 479//12 480//12
f 481//11 482//11 483//11
f 484//12 485//12 486//12
f 487//20 488//24 489//20
f 490//19 491//23 492//19
f 493//11 494//11 495//11
f 496//12 497//12 498//12
f 499//16 500//14 501//16
f 502//15 503//13 504//15
f 505//14 506//16 507//14
f 508//13 509//15 510//13
f 511//11 512//11 513//11
f 514//12 515//12 516//12
f 517//11 518//11 519//11
f 520//12 521//12 522//12
f 523//11 524//11 525//11
f 526//12 527//12 528//12
f 529//20 530//16 531//20
f 532//19 533//15 534//19
f 535//11 536//11 537//11
f 538//12 539//12 540//12
f 541//16 542//20 543//16
f 544//15 545//19 546//15
f 547//11 548//11 549//11
f 550//12 551//12 552//12
f 553//11 554//11 555//11
f 556//12 557//12 558//12
f 559//11 560//11 561//11
f 562//12 563//12 564//12
f 565//11 566//11 567//11
f 568//12 569//12 570//12
f 571//11 572//11 573//11
f 574//12 575//12 576//12
