# https://github.com/mikedh/trimesh
mtllib material.mtl
usemtl material_0
v 0.06094200 0.00218700 0.31907700
v 0.00977900 -0.04897700 0.26555000
v 0.06094200 0.00218700 0.26555000
v 0.00977900 -0.04897700 0.31907700
v 0.06094200 0.00218700 0.26555000
v -0.04138500 0.00218600 0.26555000
v 0.00977900 0.05335000 0.26555000
v 0.00977900 -0.04897700 0.26555000
v 0.00977900 0.05335000 0.31907700
v 0.06094200 0.00218700 0.26555000
v 0.00977900 0.05335000 0.26555000
v 0.06094200 0.00218700 0.31907700
v 0.00977900 -0.03799400 0.31907700
v 0.06094200 0.00218700 0.31907700
v 0.04995900 0.00218700 0.31907700
v 0.00977900 -0.04897700 0.31907700
v 0.00977900 -0.04897700 0.26555000
v -0.04138500 0.00218600 0.31907700
v -0.04138500 0.00218600 0.26555000
v 0.00977900 -0.04897700 0.31907700
v -0.04138500 0.00218600 0.31907700
v 0.00977900 0.05335000 0.26555000
v -0.04138500 0.00218600 0.26555000
v 0.00977900 0.05335000 0.31907700
v 0.00977900 0.04236700 0.31907700
v 0.00977900 0.05335000 0.31907700
v 0.04995900 0.00218700 0.53773700
v 0.00977900 -0.03799400 0.31907700
v 0.04995900 0.00218700 0.31907700
v 0.00977900 -0.03799400 0.53773700
v -0.03040200 0.00218600 0.31907700
v -0.04138500 0.00218600 0.31907700
v 0.00977900 0.04236700 0.53773700
v 0.04995900 0.00218700 0.31907700
v 0.00977900 0.04236700 0.31907700
v 0.04995900 0.00218700 0.53773700
v 0.00977900 -0.03026300 0.53773700
v 0.04995900 0.00218700 0.53773700
v 0.04222800 0.00218700 0.53773700
v 0.00977900 -0.03799400 0.53773700
v 0.00977900 -0.03799400 0.31907700
v -0.03040200 0.00218700 0.53773700
v -0.03040200 0.00218600 0.31907700
v 0.00977900 -0.03799400 0.53773700
v 0.00977900 0.04236700 0.53773700
v -0.03040200 0.00218600 0.31907700
v -0.03040200 0.00218700 0.53773700
v 0.00977900 0.04236700 0.31907700
v 0.00977900 0.03463600 0.53773700
v 0.00977900 0.04236700 0.53773700
v 0.00977900 -0.03026300 0.53773700
v 0.04222800 0.00218600 0.62859600
v 0.00977900 -0.03026300 0.62859600
v 0.04222800 0.00218700 0.53773700
v -0.02267100 0.00218700 0.53773700
v -0.03040200 0.00218700 0.53773700
v 0.00977900 0.03463600 0.62859600
v 0.04222800 0.00218700 0.53773700
v 0.00977900 0.03463600 0.53773700
v 0.04222800 0.00218600 0.62859600
v -0.02267100 0.00218700 0.62859600
v 0.04222800 0.00218600 0.62859600
v 0.00977900 0.03463600 0.62859600
v 0.00977900 -0.03026300 0.62859600
v 0.00977900 -0.03026300 0.62859600
v -0.02267100 0.00218700 0.53773700
v 0.00977900 -0.03026300 0.53773700
v -0.02267100 0.00218700 0.62859600
v 0.00977900 0.03463600 0.62859600
v -0.02267100 0.00218700 0.53773700
v -0.02267100 0.00218700 0.62859600
v 0.00977900 0.03463600 0.53773700
v 0.05970100 0.00218700 0.16182200
v 0.00977900 -0.04773600 0.12937300
v 0.05970100 0.00218700 0.12937300
v 0.00977900 -0.04773600 0.16182200
v 0.05970100 0.00218700 0.12937300
v -0.04014400 0.00218700 0.12937300
v 0.00977900 0.05210900 0.12937300
v 0.00977900 -0.04773600 0.12937300
v 0.05970100 0.00218700 0.16182200
v 0.00977900 0.05210900 0.12937300
v 0.00977900 0.05210900 0.16182200
v 0.05970100 0.00218700 0.12937300
v 0.05970100 0.00218700 0.19427200
v 0.00977900 -0.04773600 0.19427200
v 0.00977900 -0.04773600 0.16182200
v -0.04014400 0.00218700 0.12937300
v 0.00977900 -0.04773600 0.12937300
v -0.04014400 0.00218700 0.16182200
v 0.00977900 0.05210900 0.16182200
v -0.04014400 0.00218700 0.12937300
v -0.04014400 0.00218700 0.16182200
v 0.00977900 0.05210900 0.12937300
v 0.05970100 0.00218700 0.19427200
v 0.00977900 0.05210900 0.19427200
v 0.00977900 -0.05173000 0.19427200
v 0.05970100 0.00218700 0.19427200
v 0.06369500 0.00218700 0.19427200
v 0.00977900 -0.04773600 0.19427200
v 0.00977900 -0.04773600 0.19427200
v -0.04014400 0.00218700 0.19427200
v -0.04014400 0.00218700 0.19427200
v 0.00977900 0.05210900 0.19427200
v 0.00977900 0.05210900 0.19427200
v 0.00977900 0.05610300 0.19427200
v 0.06369500 0.00218700 0.20425600
v 0.00977900 -0.05173000 0.19427200
v 0.06369500 0.00218700 0.19427200
v 0.00977900 -0.05173000 0.20425600
v -0.04413700 0.00218700 0.19427200
v -0.04014400 0.00218700 0.19427200
v 0.06369500 0.00218700 0.20425600
v 0.00977900 0.05610300 0.19427200
v 0.00977900 0.05610300 0.20425600
v 0.06369500 0.00218700 0.19427200
v 0.00977900 -0.03845000 0.20425600
v 0.06369500 0.00218700 0.20425600
v 0.05041500 0.00218700 0.20425600
v 0.00977900 -0.05173000 0.20425600
v 0.00977900 -0.05173000 0.20425600
v -0.04413700 0.00218700 0.19427200
v 0.00977900 -0.05173000 0.19427200
v -0.04413700 0.00218700 0.20425600
v 0.00977900 0.05610300 0.20425600
v -0.04413700 0.00218700 0.19427200
v -0.04413700 0.00218700 0.20425600
v 0.00977900 0.05610300 0.19427200
v 0.00977900 0.04282300 0.20425600
v 0.00977900 0.05610300 0.20425600
v 0.03744700 0.00218700 0.22422500
v 0.00977900 -0.03845000 0.20425600
v 0.05041500 0.00218700 0.20425600
v 0.00977900 -0.02548300 0.22422500
v -0.03085800 0.00218700 0.20425600
v -0.04413700 0.00218700 0.20425600
v 0.03744700 0.00218700 0.22422500
v 0.00977900 0.04282300 0.20425600
v 0.00977900 0.02985500 0.22422500
v 0.05041500 0.00218700 0.20425600
v 0.03274300 0.00218700 0.29910800
v 0.00977900 -0.02077800 0.29910800
v 0.00977900 -0.02548300 0.22422500
v -0.03085800 0.00218700 0.20425600
v 0.00977900 -0.03845000 0.20425600
v -0.01789000 0.00218700 0.22422500
v -0.01789000 0.00218700 0.22422500
v 0.00977900 0.04282300 0.20425600
v -0.03085800 0.00218700 0.20425600
v 0.00977900 0.02985500 0.22422500
v 0.03274300 0.00218700 0.29910800
v 0.00977900 0.02515100 0.29910800
v 0.03074600 0.00218700 0.40581700
v 0.00977900 -0.01878100 0.40581700
v 0.00977900 -0.02077800 0.29910800
v -0.01318600 0.00218700 0.29910800
v -0.01318600 0.00218700 0.29910800
v 0.00977900 0.02515100 0.29910800
v 0.03074600 0.00218700 0.40581700
v 0.00977900 0.02315400 0.40581700
v 0.03074600 0.00218700 0.46946800
v 0.00977900 -0.01878100 0.46946800
v 0.00977900 -0.01878100 0.40581700
v -0.01118900 0.00218700 0.40581700
v -0.01118900 0.00218700 0.40581700
v 0.00977900 0.02315400 0.40581700
v 0.03074600 0.00218700 0.46946800
v 0.00977900 0.02315400 0.46946800
v 0.03074600 0.00218700 0.56494500
v 0.00977900 -0.01878100 0.56494500
v 0.00977900 -0.01878100 0.46946800
v -0.01118900 0.00218700 0.46946800
v 0.00977900 0.02315400 0.46946800
v -0.01118900 0.00218700 0.46946800
v 0.03074600 0.00218700 0.56494500
v 0.00977900 0.02315400 0.56494500
v 0.03074600 0.00218700 0.62859600
v 0.00977900 -0.01878100 0.62859600
v 0.00977900 -0.01878100 0.56494500
v -0.01118900 0.00218700 0.56494500
v -0.01118900 0.00218700 0.56494500
v 0.00977900 0.02315400 0.56494500
v 0.03074600 0.00218700 0.62859600
v 0.00977900 0.02315400 0.62859600
v -0.01118900 0.00218700 0.62859600
v 0.03074600 0.00218700 0.62859600
v 0.00977900 0.02315400 0.62859600
v 0.00977900 -0.01878100 0.62859600
v 0.00977900 -0.01878100 0.62859600
v -0.01118900 0.00218700 0.62859600
v -0.01118900 0.00218700 0.62859600
v 0.00977900 0.02315400 0.62859600
v 0.00977900 0.02964400 -0.56229300
v -0.01767900 0.00218600 -0.60385400
v -0.01767900 0.00218600 -0.57527400
v 0.00977900 0.02964400 -0.59000800
v 0.00977900 0.02964400 -0.47914900
v -0.01767900 0.00218600 -0.48953400
v 0.03723600 0.00218600 -0.57527300
v 0.00977900 0.02964400 -0.59000800
v 0.00977900 0.02964400 -0.56229300
v 0.03723600 0.00218600 -0.60385400
v 0.00977900 -0.02527100 -0.59000800
v -0.01767900 0.00218600 -0.60385400
v 0.00977900 0.02964400 -0.59000800
v 0.00977900 -0.02527100 -0.59000800
v -0.01767900 0.00218600 -0.57527400
v -0.01767900 0.00218600 -0.60385400
v 0.00977900 -0.02527100 -0.56229300
v 0.00977900 -0.02527100 -0.47914900
v -0.01767900 0.00218600 -0.48953400
v -0.01767900 0.00218600 -0.37521400
v 0.00977900 0.02964400 -0.36829000
v 0.03723600 0.00218600 -0.48953300
v 0.00977900 0.02964400 -0.47914900
v 0.03723600 0.00218600 -0.60385400
v 0.00977900 -0.02527100 -0.56229300
v 0.00977900 -0.02527100 -0.59000800
v 0.03723600 0.00218600 -0.57527300
v 0.00977900 -0.02527100 -0.59000800
v 0.00977900 0.02964400 -0.59000800
v 0.03723600 0.00218600 -0.60385400
v 0.03723600 0.00218600 -0.48953300
v 0.00977900 -0.02527100 -0.47914900
v -0.01767900 0.00218600 -0.37521400
v 0.00977900 -0.02527100 -0.36829000
v 0.00977900 0.02964400 -0.36829000
v 0.03723600 0.00218600 -0.37521400
v 0.00977900 0.02964400 -0.25743200
v -0.01767900 0.00218600 -0.26089400
v 0.00977900 -0.02527100 -0.36829000
v 0.03723600 0.00218600 -0.37521400
v 0.00977900 -0.02527100 -0.25743200
v -0.01767900 0.00218600 -0.26089400
v 0.03723600 0.00218600 -0.26089300
v 0.00977900 0.02964400 -0.25743200
v 0.00977900 0.02964400 -0.14657300
v -0.01767900 0.00218600 -0.14657300
v 0.03723600 0.00218600 -0.26089300
v 0.00977900 -0.02527100 -0.25743200
v 0.00977900 -0.02527100 -0.14657300
v -0.01767900 0.00218600 -0.14657300
v 0.03723600 0.00218600 -0.14657300
v 0.00977900 0.02964400 -0.14657300
v -0.01767900 0.00218600 -0.14657300
v 0.03723600 0.00218600 -0.14657300
v 0.00977900 0.02964400 -0.14657300
v 0.00977900 -0.02527100 -0.14657300
v 0.03723600 0.00218600 -0.14657300
v 0.00977900 -0.02527100 -0.14657300
v 0.00977900 -0.03775100 -0.25642700
v 0.03801900 -0.02605400 -0.11664400
v 0.00977900 -0.03775100 -0.11664400
v 0.03801900 -0.02605400 -0.25642700
v 0.00977900 -0.03775100 -0.25642700
v 0.03801900 0.03042700 -0.25642700
v 0.03801900 -0.02605400 -0.25642700
v 0.04971600 0.00218700 -0.11664400
v 0.04971600 0.00218700 -0.25642700
v 0.05213900 -0.04017400 -0.10666000
v 0.00977900 -0.03775100 -0.11664400
v 0.03801900 -0.02605400 -0.11664400
v 0.00977900 -0.05772000 -0.10666000
v -0.01846200 -0.02605400 -0.11664400
v -0.01846200 -0.02605400 -0.25642700
v 0.00977900 0.04212400 -0.25642700
v 0.04971600 0.00218700 -0.25642700
v 0.03801900 0.03042700 -0.11664400
v 0.03801900 0.03042700 -0.25642700
v 0.04971600 0.00218700 -0.11664400
v 0.06968500 0.00218700 -0.10666000
v 0.00977900 -0.05772000 -0.10666000
v 0.05213900 -0.04017400 -0.00681500
v 0.00977900 -0.05772000 -0.00681500
v 0.05213900 -0.04017400 -0.10666000
v -0.03258200 -0.04017400 -0.10666000
v -0.01846200 -0.02605400 -0.11664400
v -0.01846200 -0.02605400 -0.25642700
v -0.03015900 0.00218600 -0.25642700
v -0.03015900 0.00218600 -0.11664400
v 0.00977900 0.04212400 -0.11664400
v 0.00977900 0.04212400 -0.25642700
v 0.03801900 0.03042700 -0.11664400
v 0.05213900 0.04454700 -0.10666000
v 0.06968500 0.00218700 -0.00681500
v 0.06968500 0.00218700 -0.10666000
v 0.06272900 -0.05076400 0.00316900
v 0.00977900 -0.05772000 -0.00681500
v 0.05213900 -0.04017400 -0.00681500
v 0.00977900 -0.07269700 0.00316900
v -0.03258200 -0.04017400 -0.00681500
v -0.03258200 -0.04017400 -0.10666000
v -0.05012800 0.00218600 -0.10666000
v -0.03015900 0.00218600 -0.11664400
v -0.01846200 0.03042700 -0.25642700
v -0.03015900 0.00218600 -0.25642700
v -0.01846200 0.03042700 -0.25642700
v -0.01846200 0.03042700 -0.11664400
v 0.00977900 0.04212400 -0.11664400
v 0.00977900 0.06209300 -0.10666000
v 0.05213900 0.04454700 -0.00681500
v 0.05213900 0.04454700 -0.10666000
v 0.06968500 0.00218700 -0.00681500
v 0.08466200 0.00218700 0.00316900
v 0.00977900 -0.07269700 0.00316900
v 0.06272900 -0.05076400 0.09702300
v 0.00977900 -0.07269700 0.09702300
v 0.06272900 -0.05076400 0.00316900
v -0.04317200 -0.05076400 0.00316900
v -0.03258200 -0.04017400 -0.00681500
v -0.05012800 0.00218600 -0.10666000
v -0.05012800 0.00218700 -0.00681500
v -0.01846200 0.03042700 -0.11664400
v -0.03258200 0.04454700 -0.10666000
v 0.00977900 0.06209300 -0.00681500
v 0.00977900 0.06209300 -0.10666000
v 0.05213900 0.04454700 -0.00681500
v 0.06272900 0.05513700 0.00316900
v 0.08466200 0.00218700 0.09702300
v 0.08466200 0.00218700 0.00316900
v -0.04317200 -0.05076400 0.00316900
v -0.04317200 -0.05076400 0.09702300
v 0.00977900 -0.07269700 0.19087700
v 0.06272900 -0.05076400 0.19087700
v -0.06510500 0.00218700 0.00316900
v -0.05012800 0.00218700 -0.00681500
v -0.03258200 0.04454700 -0.10666000
v -0.03258200 0.04454700 -0.00681500
v 0.00977900 0.06209300 -0.00681500
v 0.00977900 0.07707000 0.00316900
v 0.06272900 0.05513700 0.09702300
v 0.06272900 0.05513700 0.00316900
v 0.08466200 0.00218700 0.19087700
v -0.06510500 0.00218700 0.00316900
v -0.06510500 0.00218700 0.09702300
v -0.04317200 -0.05076400 0.19087700
v 0.06272900 -0.05076400 0.28473100
v 0.00977900 -0.07269700 0.28473100
v -0.03258200 0.04454700 -0.00681500
v -0.04317200 0.05513700 0.00316900
v 0.00977900 0.07707000 0.09702300
v 0.00977900 0.07707000 0.00316900
v 0.06272900 0.05513700 0.19087700
v 0.08466200 0.00218600 0.28473100
v -0.04317200 0.05513700 0.00316900
v -0.04317200 0.05513700 0.09702300
v -0.06510500 0.00218700 0.19087700
v -0.04317200 -0.05076400 0.28473100
v 0.00977900 -0.07269700 0.37858500
v 0.06272900 -0.05076400 0.37858500
v 0.00977900 0.07707000 0.19087700
v 0.06272900 0.05513700 0.28473100
v 0.08466200 0.00218600 0.37858500
v -0.04317200 0.05513700 0.19087700
v -0.06510500 0.00218700 0.28473100
v -0.04317200 -0.05076400 0.37858500
v 0.09626500 -0.08430000 0.37858500
v 0.00977900 -0.07269700 0.37858500
v 0.06272900 -0.05076400 0.37858500
v 0.00977900 -0.12012300 0.37858500
v 0.00977900 0.07707000 0.28473100
v 0.06272900 0.05513700 0.37858500
v 0.08466200 0.00218600 0.37858500
v 0.13208800 0.00218600 0.37858500
v -0.04317200 0.05513700 0.28473100
v -0.06510500 0.00218700 0.37858500
v -0.07670700 -0.08430000 0.37858500
v -0.04317200 -0.05076400 0.37858500
v 0.09626500 -0.08430000 0.37858500
v 0.00977900 -0.12012300 0.39256300
v 0.00977900 -0.12012300 0.37858500
v 0.09626500 -0.08430000 0.39256300
v 0.00977900 0.07707000 0.37858500
v 0.06272900 0.05513700 0.37858500
v 0.09626500 0.08867200 0.37858500
v 0.13208800 0.00218600 0.37858500
v 0.13208800 0.00218600 0.39256300
v -0.04317200 0.05513700 0.37858500
v -0.11253100 0.00218700 0.37858500
v -0.06510500 0.00218700 0.37858500
v -0.07670700 -0.08430000 0.39256300
v -0.07670700 -0.08430000 0.37858500
v 0.00977900 -0.08218200 0.39256300
v 0.09626500 -0.08430000 0.39256300
v 0.06943600 -0.05747100 0.39256300
v 0.00977900 -0.12012300 0.39256300
v 0.00977900 0.07707000 0.37858500
v 0.00977900 0.12449600 0.37858500
v 0.09626500 0.08867200 0.39256300
v 0.09626500 0.08867200 0.37858500
v 0.13208800 0.00218600 0.39256300
v 0.09414700 0.00218600 0.39256300
v -0.04317200 0.05513700 0.37858500
v -0.07670700 0.08867200 0.37858500
v -0.11253100 0.00218700 0.39256300
v -0.11253100 0.00218700 0.37858500
v -0.07670700 -0.08430000 0.39256300
v -0.04987900 -0.05747100 0.39256300
v 0.06943600 -0.05747100 0.39256300
v 0.00977900 -0.08218200 0.42251600
v 0.00977900 -0.08218200 0.39256300
v 0.06943600 -0.05747100 0.42251600
v 0.00977900 0.12449600 0.37858500
v 0.00977900 0.12449600 0.39256300
v 0.06943600 0.06184400 0.39256300
v 0.09626500 0.08867200 0.39256300
v 0.09414700 0.00218600 0.42251600
v 0.09414700 0.00218600 0.39256300
v -0.07670700 0.08867200 0.37858500
v -0.07670700 0.08867200 0.39256300
v -0.07459000 0.00218700 0.39256300
v -0.11253100 0.00218700 0.39256300
v -0.04987900 -0.05747100 0.42251600
v -0.04987900 -0.05747100 0.39256300
v 0.00977900 -0.08218200 0.42251600
v 0.06943600 -0.05747100 0.42251600
v -0.07459000 0.00218700 0.42251600
v 0.00977900 0.08655500 0.39256300
v 0.00977900 0.12449600 0.39256300
v 0.06943600 0.06184400 0.42251600
v 0.06943600 0.06184400 0.39256300
v 0.09414700 0.00218600 0.42251600
v -0.04987900 0.06184400 0.42251600
v -0.04987900 0.06184400 0.39256300
v -0.07670700 0.08867200 0.39256300
v -0.07459000 0.00218700 0.39256300
v -0.07459000 0.00218700 0.42251600
v -0.04987900 -0.05747100 0.42251600
v 0.00977900 0.08655500 0.39256300
v 0.00977900 0.08655500 0.42251600
v 0.06943600 0.06184400 0.42251600
v 0.00977900 0.08655500 0.42251600
v -0.04987900 0.06184400 0.39256300
v -0.04987900 0.06184400 0.42251600
v 0.27584100 -0.26429800 0.43417300
v 0.00992500 -0.37444400 -0.67275400
v 0.00992500 -0.37444400 0.43417300
v 0.27584100 -0.26429800 -0.67275400
v 0.27584100 -0.26429800 -0.67275400
v 0.27584100 -0.26429800 0.43417300
v 0.00992500 -0.37444400 -0.67275400
v 0.00992500 -0.37444400 0.43417300
v 0.00992500 -0.37444400 -0.67275400
v 0.27584100 -0.26429800 -0.67275400
v 0.27584100 0.26753500 -0.67275400
v 0.27584100 0.26753500 -0.67275400
v 0.27584100 -0.26429800 -0.67275400
v 0.00992500 -0.37444400 -0.67275400
v -0.25599200 -0.26429800 -0.67275400
v -0.25599200 -0.26429800 0.43417300
v -0.25599200 -0.26429800 -0.67275400
v -0.25599200 -0.26429800 0.43417300
v 0.00992500 -0.37444400 0.43417300
v 0.38598700 0.00161900 0.43417300
v 0.27584100 -0.26429800 0.43417300
v 0.27584100 -0.26429800 0.43417300
v 0.38598700 0.00161900 0.43417300
v 0.00992500 -0.37444400 0.43417300
v 0.38598700 0.00161900 -0.67275400
v 0.38598700 0.00161900 0.43417300
v 0.38598700 0.00161900 0.43417300
v 0.38598700 0.00161900 -0.67275400
v 0.00992400 0.37768200 -0.67275400
v 0.00992400 0.37768200 -0.67275400
v 0.38598700 0.00161900 -0.67275400
v 0.38598700 0.00161900 -0.67275400
v -0.25599200 -0.26429800 -0.67275400
v -0.25599200 -0.26429800 -0.67275400
v -0.36613800 0.00161900 0.43417300
v -0.36613800 0.00161900 -0.67275400
v -0.36613800 0.00161900 0.43417300
v -0.36613800 0.00161900 -0.67275400
v -0.25599200 -0.26429800 0.43417300
v 0.27584100 0.26753500 0.43417300
v 0.27584100 0.26753500 0.43417300
v -0.25599200 -0.26429800 0.43417300
v 0.27584100 0.26753500 -0.67275400
v 0.27584100 0.26753500 0.43417300
v 0.27584100 0.26753500 0.43417300
v 0.27584100 0.26753500 -0.67275400
v 0.00992400 0.37768200 0.43417300
v 0.00992400 0.37768200 -0.67275400
v 0.00992400 0.37768200 0.43417300
v 0.00992400 0.37768200 -0.67275400
v -0.25599200 0.26753500 -0.67275400
v -0.25599200 0.26753500 -0.67275400
v -0.36613800 0.00161900 -0.67275400
v -0.36613800 0.00161900 -0.67275400
v -0.25599200 0.26753500 0.43417300
v -0.25599200 0.26753500 -0.67275400
v -0.25599200 0.26753500 0.43417300
v -0.25599200 0.26753500 -0.67275400
v -0.36613800 0.00161900 0.43417300
v 0.00992400 0.37768200 0.43417300
v 0.00992400 0.37768200 0.43417300
v -0.36613800 0.00161900 0.43417300
v -0.25599200 0.26753500 0.43417300
v -0.25599200 0.26753500 0.43417300
v 0.28582800 0.27823600 0.34613500
v 0.28582800 0.27823600 0.34613500
v 0.40017100 0.00218700 0.25177500
v 0.40017100 0.00218700 0.25177500
v 0.28582800 0.27823600 0.25177500
v 0.28582800 0.27823600 0.25177500
v 0.40017100 0.00218700 0.34613500
v 0.40017100 0.00218700 0.34613500
v 0.00977900 0.39257900 0.25177500
v 0.00977900 0.39257900 0.34613500
v 0.28582800 0.27823600 0.45050400
v 0.28582800 0.27823600 0.45050400
v 0.40017100 0.00218700 0.45050400
v 0.40017100 0.00218700 0.45050400
v 0.28582800 -0.27386300 0.25177500
v 0.28582800 -0.27386300 0.25177500
v 0.28582800 -0.27386300 0.34613500
v 0.28582800 -0.27386300 0.34613500
v 0.40017100 0.00218700 0.25177500
v 0.00977900 -0.38820600 0.25177500
v 0.28582800 0.27823600 0.25177500
v 0.28582800 -0.27386300 0.25177500
v -0.26627100 0.27823600 0.25177500
v -0.26627100 0.27823600 0.25177500
v -0.26627100 0.27823600 0.34613500
v -0.26627100 0.27823600 0.34613500
v 0.00977900 0.39257900 0.45050400
v -0.26627100 -0.27386300 0.25177500
v 0.00977900 0.39257900 0.25177500
v 0.16916000 0.16156800 0.45047300
v 0.16916000 0.16156800 0.45047300
v 0.16916000 0.16156800 0.45047300
v 0.40017100 0.00218700 0.45050400
v 0.40017100 0.00218700 0.45050400
v 0.28582800 0.27823600 0.45050400
v 0.28582800 0.27823600 0.45050400
v 0.23517800 0.00218700 0.45047300
v 0.23517800 0.00218700 0.45047300
v 0.23517800 0.00218700 0.45047300
v 0.28582800 -0.27386300 0.45050400
v 0.28582800 -0.27386300 0.45050400
v 0.00977900 -0.38820600 0.34613500
v 0.00977900 -0.38820600 0.34613500
v 0.00977900 -0.38820600 0.25177500
v 0.00977900 -0.38820600 0.25177500
v -0.38061400 0.00218600 0.34613500
v -0.38061400 0.00218600 0.34613500
v -0.38061400 0.00218600 0.25177500
v -0.38061400 0.00218600 0.25177500
v -0.26627100 0.27823600 0.45050400
v -0.26627100 0.27823600 0.45050400
v -0.26627100 0.27823600 0.25177500
v -0.38061400 0.00218600 0.25177500
v 0.00977900 0.22758600 0.45047300
v 0.00977900 0.22758600 0.45047300
v 0.00977900 0.22758600 0.45047300
v 0.00977900 0.39257900 0.45050400
v 0.00977900 0.39257900 0.45050400
v -0.26627100 -0.27386300 0.34613500
v -0.26627100 -0.27386300 0.34613500
v -0.26627100 -0.27386300 0.25177500
v -0.26627100 -0.27386300 0.25177500
v 0.00977900 0.00218700 0.45047300
v 0.16916000 -0.15719500 0.45047300
v 0.16916000 -0.15719500 0.45047300
v 0.16916000 -0.15719500 0.45047300
v 0.28582800 -0.27386300 0.45050400
v 0.28582800 -0.27386300 0.45050400
v 0.00977900 -0.38820600 0.45050400
v 0.00977900 -0.38820600 0.45050400
v -0.38061400 0.00218600 0.45050400
v -0.38061400 0.00218600 0.45050400
v -0.26627100 0.27823600 0.45050400
v -0.26627100 0.27823600 0.45050400
v -0.14960300 0.16156800 0.45047300
v -0.14960300 0.16156800 0.45047300
v -0.14960300 0.16156800 0.45047300
v -0.26627100 -0.27386300 0.45050400
v -0.26627100 -0.27386300 0.45050400
v 0.00977900 -0.22321300 0.45047300
v 0.00977900 -0.22321300 0.45047300
v 0.00977900 -0.22321300 0.45047300
v 0.00977900 -0.38820600 0.45050400
v 0.00977900 -0.38820600 0.45050400
v -0.38061400 0.00218600 0.45050400
v -0.38061400 0.00218600 0.45050400
v -0.21562100 0.00218600 0.45047300
v -0.21562100 0.00218600 0.45047300
v -0.21562100 0.00218600 0.45047300
v -0.26627100 -0.27386300 0.45050400
v -0.26627100 -0.27386300 0.45050400
v -0.14960300 -0.15719500 0.45047300
v -0.14960300 -0.15719500 0.45047300
v -0.14960300 -0.15719500 0.45047300
v 0.06625900 0.05866700 0.45880100
v 0.06625900 0.05866700 0.45880100
v 0.06625900 0.05866700 0.45880100
v 0.06625900 0.05866700 0.45880100
v 0.00977900 0.09454300 0.44436600
v 0.00977900 0.09454300 0.44436600
v 0.00977900 0.08206200 0.45880100
v 0.00977900 0.08206200 0.45880100
v 0.00977900 0.08206200 0.45880100
v 0.00977900 0.08206200 0.45880100
v 0.07508400 0.06749200 0.44436600
v 0.07508400 0.06749200 0.44436600
v -0.04670200 0.05866700 0.45880100
v -0.04670200 0.05866700 0.45880100
v -0.04670200 0.05866700 0.45880100
v -0.04670200 0.05866700 0.45880100
v -0.05552700 0.06749200 0.44436600
v -0.05552700 0.06749200 0.44436600
v 0.06625900 0.05866700 0.62719800
v 0.06625900 0.05866700 0.62719800
v 0.00977900 0.08206200 0.62719800
v 0.00977900 0.08206200 0.62719800
v 0.10213500 0.00218700 0.44436600
v 0.10213500 0.00218700 0.44436600
v 0.08965400 0.00218700 0.45880100
v 0.08965400 0.00218700 0.45880100
v 0.08965400 0.00218700 0.45880100
v 0.08965400 0.00218700 0.45880100
v 0.00977900 -0.09017000 0.44436600
v 0.00977900 0.09454300 0.44436600
v 0.07508400 0.06749200 0.44436600
v -0.05552700 -0.06311900 0.44436600
v -0.05552700 0.06749200 0.44436600
v -0.07009700 0.00218700 0.45880100
v -0.07009700 0.00218700 0.45880100
v -0.07009700 0.00218700 0.45880100
v -0.07009700 0.00218700 0.45880100
v -0.08257800 0.00218700 0.44436600
v -0.08257800 0.00218700 0.44436600
v -0.04670200 0.05866700 0.62719800
v -0.04670200 0.05866700 0.62719800
v 0.06625900 0.05866700 0.62719800
v 0.00977900 0.08206200 0.62719800
v -0.04670200 0.05866700 0.62719800
v 0.08965400 0.00218700 0.62719800
v 0.08965400 0.00218700 0.62719800
v 0.07508400 -0.06311900 0.44436600
v 0.10213500 0.00218700 0.44436600
v 0.07508400 -0.06311900 0.44436600
v 0.07508400 -0.06311900 0.44436600
v 0.06625900 -0.05429400 0.45880100
v 0.06625900 -0.05429400 0.45880100
v 0.06625900 -0.05429400 0.45880100
v 0.06625900 -0.05429400 0.45880100
v -0.08257800 0.00218700 0.44436600
v -0.07009700 0.00218700 0.62719800
v -0.07009700 0.00218700 0.62719800
v -0.04670200 -0.05429400 0.45880100
v -0.04670200 -0.05429400 0.45880100
v -0.04670200 -0.05429400 0.45880100
v -0.04670200 -0.05429400 0.45880100
v -0.05552700 -0.06311900 0.44436600
v -0.05552700 -0.06311900 0.44436600
v -0.07009700 0.00218700 0.62719800
v 0.08965400 0.00218700 0.62719800
v 0.06625900 -0.05429400 0.62719800
v 0.06625900 -0.05429400 0.62719800
v 0.00977900 -0.07768900 0.45880100
v 0.00977900 -0.07768900 0.45880100
v 0.00977900 -0.07768900 0.45880100
v 0.00977900 -0.07768900 0.45880100
v 0.00977900 -0.09017000 0.44436600
v 0.00977900 -0.09017000 0.44436600
v -0.04670200 -0.05429400 0.62719800
v -0.04670200 -0.05429400 0.62719800
v -0.04670200 -0.05429400 0.62719800
v 0.06625900 -0.05429400 0.62719800
v 0.00977900 -0.07768900 0.62719800
v 0.00977900 -0.07768900 0.62719800
v 0.00977900 -0.07768900 0.62719800
v 0.00977900 -0.11092200 0.90678600
v 0.00977900 -0.11092200 0.90678600
v 0.08975800 -0.07779300 0.90678600
v 0.08975800 -0.07779300 0.90678600
v 0.00977900 0.00218700 0.90716200
v 0.00977900 0.00218700 0.90716200
v 0.00977900 0.00218700 0.90716200
v 0.00977900 0.00218700 0.90716200
v 0.00977900 0.00218700 0.90716200
v 0.00977900 0.00218700 0.90716200
v 0.00977900 0.00218700 0.90716200
v 0.00977900 0.00218700 0.90716200
v -0.07020100 -0.07779300 0.90678600
v -0.07020100 -0.07779300 0.90678600
v 0.00977900 -0.12261900 0.86237500
v 0.00977900 -0.12261900 0.86237500
v 0.00977900 -0.12261900 0.86237500
v 0.00977900 -0.12261900 0.86237500
v 0.08975800 -0.07779300 0.90678600
v 0.08975800 -0.07779300 0.90678600
v 0.00977900 -0.11092200 0.90678600
v 0.00977900 -0.11092200 0.90678600
v 0.09803000 -0.08606500 0.86237500
v 0.09803000 -0.08606500 0.86237500
v 0.09803000 -0.08606500 0.86237500
v 0.09803000 -0.08606500 0.86237500
v 0.12288700 0.00218700 0.90678600
v 0.12288700 0.00218700 0.90678600
v -0.10333000 0.00218700 0.90678600
v -0.10333000 0.00218700 0.90678600
v -0.07020100 -0.07779300 0.90678600
v -0.07020100 -0.07779300 0.90678600
v -0.07847200 -0.08606500 0.86237500
v -0.07847200 -0.08606500 0.86237500
v -0.07847200 -0.08606500 0.86237500
v -0.07847200 -0.08606500 0.86237500
v 0.09803000 -0.08606500 0.80393000
v 0.09803000 -0.08606500 0.80393000
v 0.00977900 -0.12261900 0.80393000
v 0.00977900 -0.12261900 0.80393000
v 0.12288700 0.00218700 0.90678600
v 0.12288700 0.00218700 0.90678600
v 0.13458400 0.00218700 0.86237500
v 0.13458400 0.00218700 0.86237500
v 0.13458400 0.00218700 0.86237500
v 0.13458400 0.00218700 0.86237500
v 0.08975800 0.08216600 0.90678600
v 0.08975800 0.08216600 0.90678600
v -0.07020100 0.08216600 0.90678600
v -0.07020100 0.08216600 0.90678600
v -0.11502700 0.00218700 0.86237500
v -0.11502700 0.00218700 0.86237500
v -0.11502700 0.00218700 0.86237500
v -0.11502700 0.00218700 0.86237500
v -0.10333000 0.00218700 0.90678600
v -0.10333000 0.00218700 0.90678600
v -0.07847200 -0.08606500 0.80393000
v -0.07847200 -0.08606500 0.80393000
v 0.09803000 -0.08606500 0.74548600
v 0.09803000 -0.08606500 0.74548600
v 0.00977900 -0.12261900 0.74548600
v 0.00977900 -0.12261900 0.74548600
v 0.13458400 0.00218700 0.80393000
v 0.13458400 0.00218700 0.80393000
v 0.08975800 0.08216600 0.90678600
v 0.08975800 0.08216600 0.90678600
v 0.09803000 0.09043700 0.86237500
v 0.09803000 0.09043700 0.86237500
v 0.09803000 0.09043700 0.86237500
v 0.09803000 0.09043700 0.86237500
v 0.00977900 0.11529500 0.90678600
v 0.00977900 0.11529500 0.90678600
v -0.07847300 0.09043700 0.86237500
v -0.07847300 0.09043700 0.86237500
v -0.07847300 0.09043700 0.86237500
v -0.07847300 0.09043700 0.86237500
v -0.07020100 0.08216600 0.90678600
v -0.07020100 0.08216600 0.90678600
v -0.11502700 0.00218700 0.80620600
v -0.11502700 0.00218700 0.80620600
v -0.07847200 -0.08606500 0.74548600
v -0.07847200 -0.08606500 0.74548600
v 0.00977900 -0.12261900 0.68704000
v 0.00977900 -0.12261900 0.68704000
v 0.09803000 -0.08606500 0.68704000
v 0.09803000 -0.08606500 0.68704000
v 0.13458400 0.00218700 0.74548600
v 0.13458400 0.00218700 0.74548600
v 0.09803000 0.09043800 0.80393000
v 0.09803000 0.09043800 0.80393000
v 0.00977900 0.11529500 0.90678600
v 0.00977900 0.11529500 0.90678600
v 0.00977900 0.12699200 0.86237500
v 0.00977900 0.12699200 0.86237500
v 0.00977900 0.12699200 0.86237500
v 0.00977900 0.12699200 0.86237500
v -0.07847300 0.09043700 0.80393000
v -0.07847300 0.09043700 0.80393000
v -0.11502700 0.00218700 0.74548600
v -0.11502700 0.00218700 0.74548600
v -0.07847200 -0.08606500 0.68704000
v -0.07847200 -0.08606500 0.68704000
v 0.00977900 -0.12261900 0.62757200
v 0.00977900 -0.12261900 0.62757200
v 0.09803000 -0.08606500 0.62757200
v 0.09803000 -0.08606500 0.62757200
v 0.13458400 0.00218700 0.68704000
v 0.13458400 0.00218700 0.68704000
v 0.09803000 0.09043800 0.74548600
v 0.09803000 0.09043800 0.74548600
v 0.00977900 0.12699200 0.80393000
v 0.00977900 0.12699200 0.80393000
v -0.07847300 0.09043700 0.74548600
v -0.07847300 0.09043700 0.74548600
v -0.11502700 0.00218700 0.68704000
v -0.11502700 0.00218700 0.68704000
v -0.07847200 -0.08606500 0.62757200
v -0.07847200 -0.08606500 0.62757200
v 0.00977900 -0.12261900 0.62757200
v 0.09803000 0.09043800 0.62757200
v 0.09803000 -0.08606500 0.62757200
v 0.13458400 0.00218700 0.62757200
v 0.13458400 0.00218700 0.62757200
v 0.09803000 0.09043800 0.68704000
v 0.09803000 0.09043800 0.68704000
v 0.00977900 0.12699200 0.74548600
v 0.00977900 0.12699200 0.74548600
v -0.07847300 0.09043700 0.68704000
v -0.07847300 0.09043700 0.68704000
v -0.11502700 0.00218600 0.62757200
v -0.11502700 0.00218600 0.62757200
v -0.07847200 -0.08606500 0.62757200
v 0.00977900 0.12699200 0.62757200
v 0.13458400 0.00218700 0.62757200
v 0.09803000 0.09043800 0.62757200
v 0.09803000 0.09043800 0.62757200
v 0.00977900 0.12699200 0.68704000
v 0.00977900 0.12699200 0.68704000
v -0.07847300 0.09043700 0.62757200
v -0.07847300 0.09043700 0.62757200
v -0.11502700 0.00218600 0.62757200
v -0.07847300 0.09043700 0.62757200
v 0.00977900 0.12699200 0.62757200
v 0.00977900 0.12699200 0.62757200
v -0.49294200 0.00218700 0.82554300
v -0.49294200 0.00218700 0.82554300
v -0.53410600 0.03214000 0.85345500
v -0.53410600 0.03214000 0.85345500
v -0.48830400 0.03214000 0.85514300
v -0.48830400 0.03214000 0.85514300
v -0.52730700 0.00218700 0.82430500
v -0.52730700 0.00218700 0.82430500
v -0.55973100 0.00218700 0.80932900
v -0.55973100 0.00218700 0.80932900
v -0.57740000 0.03214000 0.83353800
v -0.57740000 0.03214000 0.83353800
v -0.54096300 0.00218700 0.88262700
v -0.54096300 0.00218700 0.88262700
v -0.48830400 0.03214000 0.85514300
v -0.48830400 0.03214000 0.85514300
v -0.53410600 0.03214000 0.85345500
v -0.53410600 0.03214000 0.85345500
v -0.48372900 0.00218700 0.88473600
v -0.48372900 0.00218700 0.88473600
v -0.37202000 0.00218700 0.80428500
v -0.37202000 0.00218700 0.80428500
v -0.36681900 0.03214000 0.83378400
v -0.36681900 0.03214000 0.83378400
v -0.48830400 -0.02776700 0.85514300
v -0.48830400 -0.02776700 0.85514300
v -0.52730700 0.00218700 0.82430500
v -0.52730700 0.00218700 0.82430500
v -0.49294200 0.00218700 0.82554300
v -0.49294200 0.00218700 0.82554300
v -0.53410600 -0.02776700 0.85345500
v -0.53410600 -0.02776700 0.85345500
v -0.55973100 0.00218700 0.80932900
v -0.55973100 0.00218700 0.80932900
v -0.57740000 -0.02776700 0.83353800
v -0.57740000 -0.02776700 0.83353800
v -0.58461900 0.00218700 0.78160800
v -0.58461900 0.00218700 0.78160800
v -0.61055900 0.03214000 0.79658500
v -0.61055900 0.03214000 0.79658500
v -0.57740000 0.03214000 0.83353800
v -0.57740000 0.03214000 0.83353800
v -0.59506400 0.00218700 0.85773900
v -0.59506400 0.00218700 0.85773900
v -0.53410600 -0.02776700 0.85345500
v -0.53410600 -0.02776700 0.85345500
v -0.48372900 0.00218700 0.88473600
v -0.48372900 0.00218700 0.88473600
v -0.54096300 0.00218700 0.88262700
v -0.54096300 0.00218700 0.88262700
v -0.48830400 -0.02776700 0.85514300
v -0.48830400 -0.02776700 0.85514300
v -0.36681900 0.03214000 0.83378400
v -0.36681900 0.03214000 0.83378400
v -0.36161700 0.00218700 0.86328200
v -0.36161700 0.00218700 0.86328200
v -0.25304300 0.00218700 0.78330700
v -0.24784100 0.03214000 0.81280500
v -0.37202000 0.00218700 0.80428500
v -0.37202000 0.00218700 0.80428500
v -0.36681900 -0.02776700 0.83378400
v -0.36681900 -0.02776700 0.83378400
v -0.58461900 0.00218700 0.78160800
v -0.58461900 0.00218700 0.78160800
v -0.61055900 -0.02776700 0.79658500
v -0.61055900 -0.02776700 0.79658500
v -0.57740000 -0.02776700 0.83353800
v -0.57740000 -0.02776700 0.83353800
v -0.59506400 0.00218700 0.85773900
v -0.59506400 0.00218700 0.85773900
v -0.61457200 0.00218700 0.72972700
v -0.64051300 0.03214000 0.74470400
v -0.61055900 0.03214000 0.79658500
v -0.61055900 0.03214000 0.79658500
v -0.63650000 0.00218700 0.81156100
v -0.63650000 0.00218700 0.81156100
v -0.36681900 -0.02776700 0.83378400
v -0.36681900 -0.02776700 0.83378400
v -0.36161700 0.00218700 0.86328200
v -0.36161700 0.00218700 0.86328200
v -0.24784100 0.03214000 0.81280500
v -0.24264000 0.00218700 0.84230300
v -0.13406600 0.00218700 0.76232800
v -0.12886400 0.03214000 0.79182600
v -0.25304300 0.00218700 0.78330700
v -0.24784100 -0.02776700 0.81280500
v -0.61055900 -0.02776700 0.79658500
v -0.61055900 -0.02776700 0.79658500
v -0.63650000 0.00218700 0.81156100
v -0.63650000 0.00218700 0.81156100
v -0.61457200 0.00218700 0.72972700
v -0.64051300 -0.02776700 0.74470400
v -0.64051300 0.03214000 0.74470400
v -0.66645300 0.00218700 0.75968000
v -0.61457200 0.00218700 0.72972700
v -0.66645300 0.00218700 0.75968000
v -0.64051300 0.03214000 0.74470400
v -0.64051300 -0.02776700 0.74470400
v -0.24784100 -0.02776700 0.81280500
v -0.24264000 0.00218700 0.84230300
v -0.12886400 0.03214000 0.79182600
v -0.12366300 0.00218700 0.82132400
v -0.01508900 0.00218700 0.74134900
v -0.00988700 0.03214000 0.77084700
v -0.13406600 0.00218700 0.76232800
v -0.12886400 -0.02776700 0.79182600
v -0.64051300 -0.02776700 0.74470400
v -0.66645300 0.00218700 0.75968000
v -0.12886400 -0.02776700 0.79182600
v -0.12366300 0.00218700 0.82132400
v -0.00988700 0.03214000 0.77084700
v -0.00468600 0.00218700 0.80034600
v -0.00988700 0.03214000 0.77084700
v -0.00988700 -0.02776700 0.77084700
v -0.01508900 0.00218700 0.74134900
v -0.00468600 0.00218700 0.80034600
v -0.01508900 0.00218700 0.74134900
v -0.00988700 -0.02776700 0.77084700
v -0.00988700 -0.02776700 0.77084700
v -0.00468600 0.00218700 0.80034600
vt 0.00979626 0.03332567
vt 0.00979626 0.03332567
vt 0.00979626 0.03332567
vt 0.00979626 0.03332567
vt 0.00979626 0.03332567
vt 0.00979626 0.03332567
vt 0.00979626 0.03332567
vt 0.00979626 0.03332567
vt 0.00979626 0.03332567
vt 0.00979626 0.03332567
vt 0.00979626 0.03332567
vt 0.00979626 0.03332567
vt 0.00979626 0.03332567
vt 0.00979626 0.03332567
vt 0.00979626 0.03332567
vt 0.00979626 0.03332567
vt 0.00979626 0.03332567
vt 0.00979626 0.03332567
vt 0.00979626 0.03332567
vt 0.00979626 0.03332567
vt 0.00979626 0.03332567
vt 0.00979626 0.03332567
vt 0.00979626 0.03332567
vt 0.00979626 0.03332567
vt 0.00979626 0.03332567
vt 0.00979626 0.03332567
vt 0.00979626 0.03332567
vt 0.00979626 0.03332567
vt 0.00979626 0.03332567
vt 0.00979626 0.03332567
vt 0.00979626 0.03332567
vt 0.00979626 0.03332567
vt 0.00979626 0.03332567
vt 0.00979626 0.03332567
vt 0.00979626 0.03332567
vt 0.00979626 0.03332567
vt 0.00979626 0.03332567
vt 0.00979626 0.03332567
vt 0.00979626 0.03332567
vt 0.00979626 0.03332567
vt 0.00979626 0.03332567
vt 0.00979626 0.03332567
vt 0.00979626 0.03332567
vt 0.00979626 0.03332567
vt 0.00979626 0.03332567
vt 0.00979626 0.03332567
vt 0.00979626 0.03332567
vt 0.00979626 0.03332567
vt 0.00979626 0.03332567
vt 0.00979626 0.03332567
vt 0.00979626 0.03332567
vt 0.00979626 0.03332567
vt 0.00979626 0.03332567
vt 0.00979626 0.03332567
vt 0.00979626 0.03332567
vt 0.00979626 0.03332567
vt 0.00979626 0.03332567
vt 0.00979626 0.03332567
vt 0.00979626 0.03332567
vt 0.00979626 0.03332567
vt 0.00979626 0.03332567
vt 0.00979626 0.03332567
vt 0.00979626 0.03332567
vt 0.00979626 0.03332567
vt 0.00979626 0.03332567
vt 0.00979626 0.03332567
vt 0.00979626 0.03332567
vt 0.00979626 0.03332567
vt 0.00979626 0.03332567
vt 0.00979626 0.03332567
vt 0.00979626 0.03332567
vt 0.00979626 0.03332567
vt 0.00979626 0.03332567
vt 0.00979626 0.03332567
vt 0.00979626 0.03332567
vt 0.00979626 0.03332567
vt 0.00979626 0.03332567
vt 0.00979626 0.03332567
vt 0.00979626 0.03332567
vt 0.00979626 0.03332567
vt 0.00979626 0.03332567
vt 0.00979626 0.03332567
vt 0.00979626 0.03332567
vt 0.00979626 0.03332567
vt 0.00979626 0.03332567
vt 0.00979626 0.03332567
vt 0.00979626 0.03332567
vt 0.00979626 0.03332567
vt 0.00979626 0.03332567
vt 0.00979626 0.03332567
vt 0.00979626 0.03332567
vt 0.00979626 0.03332567
vt 0.00979626 0.03332567
vt 0.00979626 0.03332567
vt 0.00979626 0.03332567
vt 0.00979626 0.03332567
vt 0.00979626 0.03332567
vt 0.00979626 0.03332567
vt 0.00979626 0.03332567
vt 0.00979626 0.03332567
vt 0.00979626 0.03332567
vt 0.00979626 0.03332567
vt 0.00979626 0.03332567
vt 0.00979626 0.03332567
vt 0.00979626 0.03332567
vt 0.00979626 0.03332567
vt 0.00979626 0.03332567
vt 0.00979626 0.03332567
vt 0.00979626 0.03332567
vt 0.00979626 0.03332567
vt 0.00979626 0.03332567
vt 0.00979626 0.03332567
vt 0.00979626 0.03332567
vt 0.00979626 0.03332567
vt 0.00979626 0.03332567
vt 0.00979626 0.03332567
vt 0.00979626 0.03332567
vt 0.00979626 0.03332567
vt 0.00979626 0.03332567
vt 0.00979626 0.03332567
vt 0.00979626 0.03332567
vt 0.00979626 0.03332567
vt 0.00979626 0.03332567
vt 0.00979626 0.03332567
vt 0.00979626 0.03332567
vt 0.00979626 0.03332567
vt 0.00979626 0.03332567
vt 0.00979626 0.03332567
vt 0.00979626 0.03332567
vt 0.00979626 0.03332567
vt 0.00979626 0.03332567
vt 0.00979626 0.03332567
vt 0.00979626 0.03332567
vt 0.00979626 0.03332567
vt 0.00979626 0.03332567
vt 0.00979626 0.03332567
vt 0.00979626 0.03332567
vt 0.00979626 0.03332567
vt 0.00979626 0.03332567
vt 0.00979626 0.03332567
vt 0.00979626 0.03332567
vt 0.00979626 0.03332567
vt 0.00979626 0.03332567
vt 0.00979626 0.03332567
vt 0.00979626 0.03332567
vt 0.00979626 0.03332567
vt 0.00979626 0.03332567
vt 0.00979626 0.03332567
vt 0.00979626 0.03332567
vt 0.00979626 0.03332567
vt 0.00979626 0.03332567
vt 0.00979626 0.03332567
vt 0.00979626 0.03332567
vt 0.00979626 0.03332567
vt 0.00979626 0.03332567
vt 0.00979626 0.03332567
vt 0.00979626 0.03332567
vt 0.00979626 0.03332567
vt 0.00979626 0.03332567
vt 0.00979626 0.03332567
vt 0.00979626 0.03332567
vt 0.00979626 0.03332567
vt 0.00979626 0.03332567
vt 0.00979626 0.03332567
vt 0.00979626 0.03332567
vt 0.00979626 0.03332567
vt 0.00979626 0.03332567
vt 0.00979626 0.03332567
vt 0.00979626 0.03332567
vt 0.00979626 0.03332567
vt 0.00979626 0.03332567
vt 0.00979626 0.03332567
vt 0.00979626 0.03332567
vt 0.00979626 0.03332567
vt 0.00979626 0.03332567
vt 0.00979626 0.03332567
vt 0.00979626 0.03332567
vt 0.00979626 0.03332567
vt 0.00979626 0.03332567
vt 0.00979626 0.03332567
vt 0.00979626 0.03332567
vt 0.00979626 0.03332567
vt 0.00979626 0.03332567
vt 0.00979626 0.03332567
vt 0.00979626 0.03332567
vt 0.00979626 0.03332567
vt 0.00979626 0.03332567
vt 0.00979626 0.03332567
vt 0.00979626 0.03332567
vt 0.00979626 0.03332567
vt 0.00979626 0.03332567
vt 0.00979626 0.03332567
vt 0.41912696 0.06186279
vt 0.43811664 0.04153800
vt 0.43811664 0.05551477
vt 0.41912696 0.04830923
vt 0.41912696 0.10252357
vt 0.43811664 0.09744506
vt 0.14912819 0.05551481
vt 0.16811786 0.04830913
vt 0.16811786 0.06186269
vt 0.14912819 0.04153796
vt 0.32312062 0.32134884
vt 0.33654839 0.30631045
vt 0.34997611 0.32134884
vt 0.40971061 0.04830923
vt 0.39072093 0.05551477
vt 0.39072093 0.04153800
vt 0.40971061 0.06186279
vt 0.40971061 0.10252357
vt 0.39072093 0.09744511
vt 0.43811664 0.15335249
vt 0.41912696 0.15673819
vt 0.14912824 0.09744526
vt 0.16811791 0.10252357
vt 0.13971203 0.04153771
vt 0.12072236 0.06186244
vt 0.12072236 0.04830886
vt 0.13971203 0.05551455
vt 0.23571823 0.22687091
vt 0.20886274 0.22687091
vt 0.22229046 0.21183252
vt 0.13971188 0.09744521
vt 0.12072221 0.10252352
vt 0.39072093 0.15335240
vt 0.40971061 0.15673809
vt 0.16811791 0.15673809
vt 0.14912824 0.15335249
vt 0.41912696 0.21095240
vt 0.43811664 0.20925953
vt 0.12072226 0.15673819
vt 0.13971193 0.15335259
vt 0.40971061 0.21095240
vt 0.39072093 0.20925958
vt 0.14912824 0.20925963
vt 0.16811791 0.21095240
vt 0.41912696 0.26516677
vt 0.43811664 0.26516677
vt 0.13971188 0.20925963
vt 0.12072221 0.21095240
vt 0.40971061 0.26516682
vt 0.39072093 0.26516682
vt 0.14912834 0.26516677
vt 0.16811801 0.26516677
vt 0.22229046 0.32512054
vt 0.22229046 0.35197598
vt 0.20886274 0.33854831
vt 0.23571823 0.33854831
vt 0.13971159 0.26516667
vt 0.12072196 0.26516667
vt 0.00979626 0.03332567
vt 0.00979626 0.03332567
vt 0.00979626 0.03332567
vt 0.00979626 0.03332567
vt 0.00979626 0.03332567
vt 0.00979626 0.03332567
vt 0.00979626 0.03332567
vt 0.00979626 0.03332567
vt 0.00979626 0.03332567
vt 0.00979626 0.03332567
vt 0.00979626 0.03332567
vt 0.00979626 0.03332567
vt 0.00979626 0.03332567
vt 0.00979626 0.03332567
vt 0.00979626 0.03332567
vt 0.00979626 0.03332567
vt 0.00979626 0.03332567
vt 0.00979626 0.03332567
vt 0.00979626 0.03332567
vt 0.00979626 0.03332567
vt 0.00979626 0.03332567
vt 0.00979626 0.03332567
vt 0.00979626 0.03332567
vt 0.00979626 0.03332567
vt 0.00979626 0.03332567
vt 0.00979626 0.03332567
vt 0.00979626 0.03332567
vt 0.00979626 0.03332567
vt 0.00979626 0.03332567
vt 0.00979626 0.03332567
vt 0.00979626 0.03332567
vt 0.00979626 0.03332567
vt 0.00979626 0.03332567
vt 0.00979626 0.03332567
vt 0.00979626 0.03332567
vt 0.00979626 0.03332567
vt 0.00979626 0.03332567
vt 0.00979626 0.03332567
vt 0.00979626 0.03332567
vt 0.00979626 0.03332567
vt 0.00979626 0.03332567
vt 0.00979626 0.03332567
vt 0.00979626 0.03332567
vt 0.00979626 0.03332567
vt 0.00979626 0.03332567
vt 0.00979626 0.03332567
vt 0.00979626 0.03332567
vt 0.00979626 0.03332567
vt 0.00979626 0.03332567
vt 0.00979626 0.03332567
vt 0.00979626 0.03332567
vt 0.00979626 0.03332567
vt 0.00979626 0.03332567
vt 0.00979626 0.03332567
vt 0.00979626 0.03332567
vt 0.00979626 0.03332567
vt 0.00979626 0.03332567
vt 0.00979626 0.03332567
vt 0.00979626 0.03332567
vt 0.00979626 0.03332567
vt 0.00979626 0.03332567
vt 0.00979626 0.03332567
vt 0.00979626 0.03332567
vt 0.00979626 0.03332567
vt 0.00979626 0.03332567
vt 0.00979626 0.03332567
vt 0.00979626 0.03332567
vt 0.00979626 0.03332567
vt 0.00979626 0.03332567
vt 0.00979626 0.03332567
vt 0.00979626 0.03332567
vt 0.00979626 0.03332567
vt 0.00979626 0.03332567
vt 0.00979626 0.03332567
vt 0.00979626 0.03332567
vt 0.00979626 0.03332567
vt 0.00979626 0.03332567
vt 0.00979626 0.03332567
vt 0.00979626 0.03332567
vt 0.00979626 0.03332567
vt 0.00979626 0.03332567
vt 0.00979626 0.03332567
vt 0.00979626 0.03332567
vt 0.00979626 0.03332567
vt 0.00979626 0.03332567
vt 0.00979626 0.03332567
vt 0.00979626 0.03332567
vt 0.00979626 0.03332567
vt 0.00979626 0.03332567
vt 0.00979626 0.03332567
vt 0.00979626 0.03332567
vt 0.00979626 0.03332567
vt 0.00979626 0.03332567
vt 0.00979626 0.03332567
vt 0.00979626 0.03332567
vt 0.00979626 0.03332567
vt 0.00979626 0.03332567
vt 0.00979626 0.03332567
vt 0.00979626 0.03332567
vt 0.00979626 0.03332567
vt 0.00979626 0.03332567
vt 0.00979626 0.03332567
vt 0.00979626 0.03332567
vt 0.00979626 0.03332567
vt 0.00979626 0.03332567
vt 0.00979626 0.03332567
vt 0.00979626 0.03332567
vt 0.00979626 0.03332567
vt 0.00979626 0.03332567
vt 0.00979626 0.03332567
vt 0.00979626 0.03332567
vt 0.00979626 0.03332567
vt 0.00979626 0.03332567
vt 0.00979626 0.03332567
vt 0.00979626 0.03332567
vt 0.00979626 0.03332567
vt 0.00979626 0.03332567
vt 0.00979626 0.03332567
vt 0.00979626 0.03332567
vt 0.00979626 0.03332567
vt 0.00979626 0.03332567
vt 0.00979626 0.03332567
vt 0.00979626 0.03332567
vt 0.00979626 0.03332567
vt 0.00979626 0.03332567
vt 0.00979626 0.03332567
vt 0.00979626 0.03332567
vt 0.00979626 0.03332567
vt 0.00979626 0.03332567
vt 0.00979626 0.03332567
vt 0.00979626 0.03332567
vt 0.00979626 0.03332567
vt 0.00979626 0.03332567
vt 0.00979626 0.03332567
vt 0.00979626 0.03332567
vt 0.00979626 0.03332567
vt 0.00979626 0.03332567
vt 0.00979626 0.03332567
vt 0.00979626 0.03332567
vt 0.00979626 0.03332567
vt 0.00979626 0.03332567
vt 0.00979626 0.03332567
vt 0.00979626 0.03332567
vt 0.00979626 0.03332567
vt 0.00979626 0.03332567
vt 0.00979626 0.03332567
vt 0.00979626 0.03332567
vt 0.00979626 0.03332567
vt 0.00979626 0.03332567
vt 0.00979626 0.03332567
vt 0.00979626 0.03332567
vt 0.00979626 0.03332567
vt 0.00979626 0.03332567
vt 0.00979626 0.03332567
vt 0.00979626 0.03332567
vt 0.00979626 0.03332567
vt 0.00979626 0.03332567
vt 0.00979626 0.03332567
vt 0.00979626 0.03332567
vt 0.00979626 0.03332567
vt 0.00979626 0.03332567
vt 0.00979626 0.03332567
vt 0.00979626 0.03332567
vt 0.00979626 0.03332567
vt 0.00979626 0.03332567
vt 0.00979626 0.03332567
vt 0.00979626 0.03332567
vt 0.00979626 0.03332567
vt 0.00979626 0.03332567
vt 0.00979626 0.03332567
vt 0.00979626 0.03332567
vt 0.00979626 0.03332567
vt 0.00979626 0.03332567
vt 0.00979626 0.03332567
vt 0.00979626 0.03332567
vt 0.00979626 0.03332567
vt 0.00979626 0.03332567
vt 0.00979626 0.03332567
vt 0.00979626 0.03332567
vt 0.00979626 0.03332567
vt 0.00979626 0.03332567
vt 0.00979626 0.03332567
vt 0.00979626 0.03332567
vt 0.00979626 0.03332567
vt 0.00979626 0.05685509
vt 0.00979626 0.05685509
vt 0.00979626 0.05685509
vt 0.00979626 0.05685509
vt 0.00979626 0.05685509
vt 0.00979626 0.05685509
vt 0.00979626 0.05685509
vt 0.00979626 0.05685509
vt 0.00979626 0.05685509
vt 0.00979626 0.05685509
vt 0.00979626 0.05685509
vt 0.00979626 0.05685509
vt 0.00979626 0.05685509
vt 0.00979626 0.05685509
vt 0.00979626 0.05685509
vt 0.00979626 0.05685509
vt 0.00979626 0.05685509
vt 0.00979626 0.05685509
vt 0.00979626 0.05685509
vt 0.00979626 0.05685509
vt 0.00979626 0.05685509
vt 0.00979626 0.05685509
vt 0.00979626 0.05685509
vt 0.00979626 0.05685509
vt 0.00979626 0.05685509
vt 0.00979626 0.05685509
vt 0.00979626 0.05685509
vt 0.00979626 0.05685509
vt 0.00979626 0.05685509
vt 0.00979626 0.05685509
vt 0.00979626 0.05685509
vt 0.00979626 0.05685509
vt 0.00979626 0.05685509
vt 0.00979626 0.05685509
vt 0.00979626 0.05685509
vt 0.00979626 0.05685509
vt 0.00979626 0.05685509
vt 0.00979626 0.05685509
vt 0.00979626 0.05685509
vt 0.00979626 0.05685509
vt 0.00979626 0.05685509
vt 0.00979626 0.05685509
vt 0.00979626 0.05685509
vt 0.00979626 0.05685509
vt 0.00979626 0.05685509
vt 0.00979626 0.05685509
vt 0.00979626 0.05685509
vt 0.00979626 0.05685509
vt 0.00979626 0.05685509
vt 0.00979626 0.05685509
vt 0.00979626 0.05685509
vt 0.00979626 0.05685509
vt 0.00979626 0.05685509
vt 0.00979626 0.05685509
vt 0.00979626 0.05685509
vt 0.00979626 0.05685509
vt 0.00979626 0.05685509
vt 0.00979626 0.05685509
vt 0.00979626 0.05685509
vt 0.00979626 0.05685509
vt 0.00979626 0.05685509
vt 0.00979626 0.05685509
vt 0.00979626 0.05685509
vt 0.00979626 0.05685509
vt 0.29758682 0.01002793
vt 0.07581228 0.01002793
vt 0.15146459 0.45997529
vt 0.05460374 0.45997524
vt 0.29758682 0.45997529
vt 0.07581228 0.45997534
vt 0.15146459 0.01002793
vt 0.05460374 0.01002793
vt 0.22193456 0.45997534
vt 0.22193456 0.01002793
vt 0.29758677 0.06106854
vt 0.07581228 0.06106854
vt 0.15146459 0.06106854
vt 0.05460377 0.06106854
vt 0.40457515 0.45997524
vt 0.33690449 0.45997534
vt 0.40457515 0.01002793
vt 0.33690449 0.01002793
vt 0.33654844 0.03337262
vt 0.14563043 0.33854831
vt 0.47154775 0.47354767
vt 0.20154898 0.47354772
vt 0.36805679 0.45997534
vt 0.50423494 0.45997544
vt 0.36805679 0.01002793
vt 0.50423494 0.01002793
vt 0.22193456 0.06106854
vt 0.20154898 0.20354895
vt 0.03331042 0.33854831
vt 0.14434644 0.41649233
vt 0.14424400 0.41653474
vt 0.14430402 0.41659477
vt 0.22224794 0.03347481
vt 0.22233282 0.03347481
vt 0.08724863 0.47365012
vt 0.08718865 0.47359014
vt 0.22224794 0.44888025
vt 0.22229041 0.44877781
vt 0.22233282 0.44888025
vt 0.40457520 0.06106854
vt 0.33690444 0.06106854
vt 0.48302652 0.01002793
vt 0.19078216 0.01002793
vt 0.48302652 0.45997534
vt 0.19078216 0.45997534
vt 0.15426355 0.01002793
vt 0.26125207 0.01002793
vt 0.15426355 0.45997544
vt 0.26125202 0.45997539
vt 0.36805679 0.06106854
vt 0.50423499 0.06106854
vt 0.47154775 0.20354890
vt 0.33654829 0.14763030
vt 0.11195851 0.33850584
vt 0.11206101 0.33854831
vt 0.11195851 0.33859073
vt 0.03331042 0.33859073
vt 0.03331042 0.33850584
vt 0.33690429 0.01002793
vt 0.40737426 0.01002793
vt 0.33690424 0.45997534
vt 0.40737426 0.45997539
vt 0.22229041 0.33854831
vt 0.30027694 0.41659477
vt 0.30023448 0.41649233
vt 0.30033697 0.41653474
vt 0.35739231 0.47359014
vt 0.35733229 0.47365017
vt 0.48302652 0.06106854
vt 0.19078216 0.06106854
vt 0.15426355 0.06106854
vt 0.26125207 0.06106854
vt 0.08718865 0.20350648
vt 0.08724863 0.20344645
vt 0.14424400 0.26056183
vt 0.14430402 0.26050185
vt 0.14434644 0.26060429
vt 0.33690424 0.06106854
vt 0.40737426 0.06106854
vt 0.33251996 0.33854831
vt 0.33262240 0.33850584
vt 0.33262240 0.33859073
vt 0.41331086 0.33859073
vt 0.41331086 0.33850584
vt 0.22224809 0.14752791
vt 0.22233297 0.14752791
vt 0.22224809 0.22821636
vt 0.22233297 0.22821636
vt 0.22229056 0.22831881
vt 0.35739231 0.20350648
vt 0.35733229 0.20344645
vt 0.30027694 0.26050185
vt 0.30033697 0.26056188
vt 0.30023448 0.26060429
vt 0.13392480 0.44879036
vt 0.13392480 0.06512609
vt 0.23947391 0.27260381
vt 0.23947381 0.06512609
vt 0.16615775 0.43975530
vt 0.27771232 0.10163264
vt 0.16382199 0.44879036
vt 0.28004802 0.11066750
vt 0.16382199 0.06512609
vt 0.28004812 0.06512609
vt 0.13158909 0.43975530
vt 0.24180961 0.26356870
vt 0.30994521 0.11066750
vt 0.06625333 0.15788272
vt 0.30994531 0.06512609
vt 0.06625319 0.06512609
vt 0.06391764 0.14884737
vt 0.31228097 0.10163264
vt 0.13392480 0.14747914
vt 0.23947381 0.14747914
vt 0.16382199 0.14747914
vt 0.28004812 0.14747914
vt 0.20724116 0.26356870
vt 0.49492070 0.17237164
vt 0.49258499 0.18140674
vt 0.20957687 0.27260381
vt 0.20957677 0.06512609
vt 0.49258510 0.06512609
vt 0.29138243 0.33854831
vt 0.38171445 0.33854831
vt 0.36848552 0.37048549
vt 0.30461121 0.30661108
vt 0.36848552 0.30661108
vt 0.09615024 0.06512609
vt 0.31936440 0.06668581
vt 0.09615039 0.15788272
vt 0.31936445 0.06512609
vt 0.09848610 0.14884737
vt 0.31702869 0.05765095
vt 0.30994531 0.14747914
vt 0.06625319 0.14747914
vt 0.19466915 0.36616967
vt 0.18322789 0.33854831
vt 0.19466915 0.31092695
vt 0.49258510 0.14747914
vt 0.20957677 0.14747914
vt 0.30461121 0.37048549
vt 0.33654844 0.38371432
vt 0.28112772 0.21958791
vt 0.46035211 0.17237164
vt 0.27879201 0.06512609
vt 0.46268792 0.06512609
vt 0.46268782 0.18140674
vt 0.27879196 0.22862296
vt 0.33654844 0.29338230
vt 0.09615024 0.14747914
vt 0.31936445 0.14747914
vt 0.34926159 0.06512609
vt 0.39501676 0.06512609
vt 0.39501676 0.38659231
vt 0.34926154 0.06668581
vt 0.39268100 0.37755725
vt 0.35159724 0.05765095
vt 0.22229041 0.29948579
vt 0.22229041 0.37761078
vt 0.46268792 0.14747914
vt 0.27879201 0.14747914
vt 0.24889483 0.22862296
vt 0.42491390 0.38659231
vt 0.24889487 0.06512609
vt 0.42491390 0.06512609
vt 0.24655912 0.21958791
vt 0.42724961 0.37755725
vt 0.34926159 0.14747914
vt 0.39501676 0.14747914
vt 0.24991177 0.31092695
vt 0.24991177 0.36616967
vt 0.24889487 0.14747914
vt 0.42491390 0.14747914
vt 0.26135288 0.33854831
vt 0.24267619 0.15267805
vt 0.43113343 0.40578682
vt 0.28501209 0.15267805
vt 0.45646794 0.07702569
vt 0.29499483 0.31356443
vt 0.14887359 0.06045705
vt 0.08120224 0.38921694
vt 0.22452591 0.27425114
vt 0.47763611 0.12813005
vt 0.40996540 0.45689118
vt 0.26384402 0.20378251
vt 0.33431304 0.24309570
vt 0.38879748 0.40578682
vt 0.35548101 0.19199135
vt 0.24048609 0.26249054
vt 0.24048653 0.15624313
vt 0.43332254 0.21608841
vt 0.43332249 0.26249054
vt 0.45646824 0.16070698
vt 0.28501159 0.17859513
vt 0.24267565 0.17859513
vt 0.43113338 0.23844041
vt 0.28720080 0.15624313
vt 0.28720036 0.26249054
vt 0.45427923 0.13835449
vt 0.45427947 0.26249054
vt 0.20335793 0.22314678
vt 0.49880403 0.07702569
vt 0.10237021 0.33811264
vt 0.31314507 0.19199135
vt 0.38879743 0.23844041
vt 0.35548101 0.30518933
vt 0.38660827 0.21608841
vt 0.35767018 0.28283683
vt 0.38660822 0.26249054
vt 0.35767023 0.26249054
vt 0.45427947 0.23390859
vt 0.28720036 0.23390859
vt 0.43332249 0.23390859
vt 0.24048609 0.23390859
vt 0.49880435 0.16070698
vt 0.20335773 0.19525644
vt 0.50099351 0.13835449
vt 0.50099378 0.26249054
vt 0.20116857 0.17290395
vt 0.20116857 0.26249004
vt 0.24569388 0.22314678
vt 0.12770547 0.00978100
vt 0.31616291 0.26246018
vt 0.06003426 0.33811264
vt 0.31095591 0.28283683
vt 0.10455923 0.31738679
vt 0.31095591 0.26249054
vt 0.10455908 0.26249054
vt 0.31314507 0.30518933
vt 0.10237006 0.33973879
vt 0.38660822 0.23390859
vt 0.35767023 0.23390859
vt 0.45427942 0.20532665
vt 0.28720041 0.20532665
vt 0.24048609 0.20532665
vt 0.43332249 0.20532665
vt 0.50099378 0.23390859
vt 0.20116857 0.23390810
vt 0.24569368 0.19525644
vt 0.12770547 0.26200437
vt 0.24788269 0.17290395
vt 0.24788274 0.26249004
vt 0.12551626 0.23965237
vt 0.12551626 0.26249054
vt 0.27382701 0.26246018
vt 0.17004137 0.00978100
vt 0.05784494 0.26249054
vt 0.31835356 0.26249054
vt 0.05784506 0.31738679
vt 0.31835291 0.29949913
vt 0.31616370 0.32185163
vt 0.06003410 0.33973879
vt 0.31095591 0.23502133
vt 0.10455908 0.23502133
vt 0.38660822 0.20532665
vt 0.35767023 0.20532665
vt 0.43332249 0.17674470
vt 0.24048609 0.17674470
vt 0.28720041 0.17674470
vt 0.45427937 0.17674470
vt 0.20116872 0.20532665
vt 0.50099374 0.20532665
vt 0.24788299 0.23390859
vt 0.12551631 0.23390859
vt 0.17004137 0.26200437
vt 0.27382780 0.32185163
vt 0.17223063 0.23965237
vt 0.27163859 0.29949913
vt 0.17223063 0.26249054
vt 0.27163919 0.26249054
vt 0.05784494 0.23390859
vt 0.31835356 0.23390859
vt 0.31095591 0.20532665
vt 0.10455908 0.20532665
vt 0.38660807 0.17674421
vt 0.35767023 0.17674470
vt 0.24048609 0.14766220
vt 0.43332234 0.14766170
vt 0.28720036 0.14766220
vt 0.45427932 0.14766220
vt 0.20116862 0.17674470
vt 0.50099366 0.17674470
vt 0.12551631 0.20532665
vt 0.24788294 0.20532665
vt 0.17223063 0.23390859
vt 0.27163919 0.23390859
vt 0.05784494 0.20532665
vt 0.31835356 0.20532665
vt 0.31095591 0.17674470
vt 0.10455908 0.17674470
vt 0.38660817 0.14766170
vt 0.35767037 0.14766220
vt 0.27551328 0.33854831
vt 0.37970681 0.38170668
vt 0.29339007 0.38170668
vt 0.20116862 0.14766220
vt 0.50099362 0.14766220
vt 0.24788299 0.17674470
vt 0.12551636 0.17674470
vt 0.17223063 0.20532665
vt 0.27163919 0.20532665
vt 0.31835356 0.17674470
vt 0.05784513 0.17674421
vt 0.10455942 0.14766170
vt 0.31095605 0.14766220
vt 0.29338992 0.29538994
vt 0.39758360 0.33854826
vt 0.33654844 0.39958347
vt 0.24788294 0.14766220
vt 0.12551636 0.14766220
vt 0.17223063 0.17674470
vt 0.27163919 0.17674470
vt 0.05784513 0.14766170
vt 0.31835356 0.14766220
vt 0.33654829 0.27751315
vt 0.37970666 0.29538989
vt 0.17223063 0.14766220
vt 0.27163924 0.14766220
vt 0.43557093 0.38758981
vt 0.47642713 0.39259232
vt 0.45623250 0.40706426
vt 0.39871950 0.48718216
vt 0.43384884 0.40823693
vt 0.47169291 0.41276299
vt 0.45236490 0.38671991
vt 0.38990888 0.46844118
vt 0.37035802 0.09117101
vt 0.40449190 0.45882773
vt 0.41819123 0.47437565
vt 0.38610295 0.10464343
vt 0.47329604 0.18268047
vt 0.04978192 0.22017473
vt 0.44701249 0.16350743
vt 0.41154888 0.15851921
vt 0.04095301 0.20142884
vt 0.46939590 0.16233020
vt 0.44532568 0.18415188
vt 0.40684512 0.17869138
vt 0.41815794 0.37810613
vt 0.41826302 0.37810995
vt 0.41315256 0.39820835
vt 0.41325068 0.39821043
vt 0.11078967 0.18430021
vt 0.15228751 0.17868493
vt 0.09227366 0.16278314
vt 0.51507164 0.20015239
vt 0.10906763 0.16365329
vt 0.14755329 0.15851425
vt 0.08840607 0.18312745
vt 0.50626102 0.21889332
vt 0.45344569 0.23626008
vt 0.50048865 0.19053909
vt 0.48678933 0.20608666
vt 0.43770076 0.24973250
vt 0.38004614 0.07574150
vt 0.37222869 0.13529409
vt 0.39901081 0.08407786
vt 0.39140802 0.14312393
vt 0.06043000 0.18863061
vt 0.10342436 0.23859866
vt 0.07412049 0.20418166
vt 0.11916795 0.25206711
vt 0.10375575 0.38631738
vt 0.17152027 0.46966390
vt 0.12782592 0.40813900
vt 0.08685086 0.41272797
vt 0.16269134 0.48840955
vt 0.09985556 0.40666774
vt 0.12613911 0.38749470
vt 0.08214710 0.39255610
vt 0.35300853 0.14396432
vt 0.35293566 0.14399259
vt 0.34800305 0.16406653
vt 0.34792327 0.16409332
vt 0.36093616 0.36381471
vt 0.35592383 0.38391524
vt 0.20582248 0.14402831
vt 0.20590324 0.14399259
vt 0.21082791 0.16413053
vt 0.21091557 0.16409332
vt 0.44375757 0.22083057
vt 0.43273363 0.23734404
vt 0.42479290 0.22916693
vt 0.41355434 0.24517389
vt 0.19048609 0.09352647
vt 0.15204329 0.45686538
vt 0.13835278 0.47241643
vt 0.17474245 0.10699491
vt 0.38330185 0.10817066
vt 0.40248118 0.11600050
vt 0.11633108 0.21803260
vt 0.12610517 0.23734404
vt 0.13529625 0.22636747
vt 0.14528450 0.24517389
vt 0.14068750 0.37800131
vt 0.14057583 0.37810995
vt 0.14558816 0.39821043
vt 0.14569294 0.39810352
vt 0.29560875 0.12969716
vt 0.29059642 0.14979788
vt 0.30360935 0.34951947
vt 0.29859702 0.36962000
vt 0.26323010 0.12969716
vt 0.26824243 0.14979788
vt 0.18661016 0.13529409
vt 0.17757936 0.07295991
vt 0.16743087 0.14312393
vt 0.15861415 0.08129527
vt 0.42166047 0.21022012
vt 0.40248118 0.21804997
vt 0.13717838 0.21022012
vt 0.15635766 0.21804997
vt 0.22229041 0.32880587
vt 0.22229041 0.35810274
vt 0.20764195 0.34345433
vt 0.23693882 0.34345433
vt 0.19790269 0.36381471
vt 0.20291502 0.38391519
vt 0.23828194 0.11540222
vt 0.23326956 0.13550245
vt 0.24628249 0.33522503
vt 0.24127016 0.35532560
vt 0.32055691 0.11540222
vt 0.32556924 0.13550245
vt 0.17553700 0.10817066
vt 0.15635766 0.11600050
vt 0.25522950 0.34951957
vt 0.26024188 0.36962005
vt 0.18095508 0.10110678
vt 0.17594275 0.12120750
vt 0.35119690 0.26276041
vt 0.32190003 0.26276041
vt 0.33654844 0.24811176
vt 0.33654844 0.27740857
vt 0.37788381 0.10110727
vt 0.38289615 0.12120800
vt 0.31255635 0.33522433
vt 0.31756869 0.35532481
f 1/1 2/2 3/3
f 2/2 1/1 4/4
f 5/5 6/6 7/7
f 6/6 5/5 8/8
f 9/9 10/10 11/11
f 10/10 9/9 12/12
f 13/13 14/14 15/15
f 14/14 13/13 16/16
f 17/17 18/18 19/19
f 18/18 17/17 20/20
f 21/21 22/22 23/23
f 22/22 21/21 24/24
f 25/25 14/14 26/26
f 14/14 25/25 15/15
f 27/27 28/28 29/29
f 28/28 27/27 30/30
f 16/16 31/31 32/32
f 31/31 16/16 13/13
f 32/32 25/25 26/26
f 25/25 32/32 31/31
f 33/33 34/34 35/35
f 34/34 33/33 36/36
f 37/37 38/38 39/39
f 38/38 37/37 40/40
f 41/41 42/42 43/43
f 42/42 41/41 44/44
f 45/45 46/46 47/47
f 46/46 45/45 48/48
f 49/49 38/38 50/50
f 38/38 49/49 39/39
f 51/51 52/52 53/53
f 52/52 51/51 54/54
f 40/40 55/55 56/56
f 55/55 40/40 37/37
f 56/56 49/49 50/50
f 49/49 56/56 55/55
f 57/57 58/58 59/59
f 58/58 57/57 60/60
f 61/61 62/62 63/63
f 62/62 61/61 64/64
f 65/65 66/66 67/67
f 66/66 65/65 68/68
f 69/69 70/70 71/71
f 70/70 69/69 72/72
f 73/73 74/74 75/75
f 74/74 73/73 76/76
f 77/77 78/78 79/79
f 78/78 77/77 80/80
f 81/81 82/82 83/83
f 82/82 81/81 84/84
f 85/85 76/76 73/73
f 76/76 85/85 86/86
f 87/87 88/88 89/89
f 88/88 87/87 90/90
f 91/91 92/92 93/93
f 92/92 91/91 94/94
f 95/95 83/83 96/96
f 83/83 95/95 81/81
f 97/97 98/98 99/99
f 98/98 97/97 100/100
f 101/101 90/90 87/87
f 90/90 101/101 102/102
f 103/103 91/91 93/93
f 91/91 103/103 104/104
f 99/99 105/105 106/106
f 105/105 99/99 98/98
f 107/107 108/108 109/109
f 108/108 107/107 110/110
f 100/100 111/111 112/112
f 111/111 100/100 97/97
f 105/105 111/111 106/106
f 111/111 105/105 112/112
f 113/113 114/114 115/115
f 114/114 113/113 116/116
f 117/117 118/118 119/119
f 118/118 117/117 120/120
f 121/121 122/122 123/123
f 122/122 121/121 124/124
f 125/125 126/126 127/127
f 126/126 125/125 128/128
f 129/129 118/118 130/130
f 118/118 129/129 119/119
f 131/131 132/132 133/133
f 132/132 131/131 134/134
f 120/120 135/135 136/136
f 135/135 120/120 117/117
f 136/136 129/129 130/130
f 129/129 136/136 135/135
f 137/137 138/138 139/139
f 138/138 137/137 140/140
f 141/141 134/134 131/131
f 134/134 141/141 142/142
f 143/143 144/144 145/145
f 144/144 143/143 146/146
f 147/147 148/148 149/149
f 148/148 147/147 150/150
f 151/151 139/139 152/152
f 139/139 151/151 137/137
f 153/153 142/142 141/141
f 142/142 153/153 154/154
f 155/155 146/146 143/143
f 146/146 155/155 156/156
f 157/157 150/150 147/147
f 150/150 157/157 158/158
f 159/159 152/152 160/160
f 152/152 159/159 151/151
f 161/161 154/154 153/153
f 154/154 161/161 162/162
f 163/163 156/156 155/155
f 156/156 163/163 164/164
f 165/165 158/158 157/157
f 158/158 165/165 166/166
f 167/167 160/160 168/168
f 160/160 167/167 159/159
f 169/169 162/162 161/161
f 162/162 169/169 170/170
f 171/171 164/164 163/163
f 164/164 171/171 172/172
f 173/173 165/165 174/174
f 165/165 173/173 166/166
f 175/175 168/168 176/176
f 168/168 175/175 167/167
f 177/177 170/170 169/169
f 170/170 177/177 178/178
f 179/179 172/172 171/171
f 172/172 179/179 180/180
f 181/181 173/173 174/174
f 173/173 181/181 182/182
f 183/183 176/176 184/184
f 176/176 183/183 175/175
f 185/185 186/186 187/187
f 186/186 185/185 188/188
f 189/189 180/180 179/179
f 180/180 189/189 190/190
f 191/191 182/182 181/181
f 182/182 191/191 192/192
f 193/193 194/194 195/195
f 194/194 193/193 196/196
f 197/197 195/195 198/198
f 195/195 197/197 193/193
f 199/199 200/200 201/201
f 200/200 199/199 202/202
f 203/203 204/204 205/205
f 206/206 207/207 208/208
f 207/207 206/206 209/209
f 207/207 210/210 211/211
f 210/210 207/207 209/209
f 212/212 197/197 198/198
f 197/197 212/212 213/213
f 201/201 214/214 199/199
f 214/214 201/201 215/215
f 216/216 217/217 218/218
f 217/217 216/216 219/219
f 220/220 221/221 222/222
f 223/223 217/217 219/219
f 217/217 223/223 224/224
f 210/210 225/225 211/211
f 225/225 210/210 226/226
f 227/227 214/214 215/215
f 214/214 227/227 228/228
f 229/229 212/212 230/230
f 212/212 229/229 213/213
f 223/223 231/231 224/224
f 231/231 223/223 232/232
f 225/225 233/233 234/234
f 233/233 225/225 226/226
f 227/227 235/235 228/228
f 235/235 227/227 236/236
f 237/237 230/230 238/238
f 230/230 237/237 229/229
f 239/239 231/231 232/232
f 231/231 239/239 240/240
f 234/234 241/241 242/242
f 241/241 234/234 233/233
f 236/236 243/243 235/235
f 243/243 236/236 244/244
f 245/245 246/246 247/247
f 246/246 245/245 248/248
f 249/249 240/240 239/239
f 240/240 249/249 250/250
f 251/251 252/252 253/253
f 252/252 251/251 254/254
f 255/255 256/256 257/257
f 258/258 254/254 259/259
f 254/254 258/258 252/252
f 260/260 261/261 262/262
f 261/261 260/260 263/263
f 251/251 264/264 265/265
f 264/264 251/251 253/253
f 255/255 266/266 256/256
f 257/257 256/256 267/267
f 268/268 259/259 269/269
f 259/259 268/268 258/258
f 260/260 270/270 271/271
f 270/270 260/260 262/262
f 272/272 273/273 274/274
f 273/273 272/272 275/275
f 261/261 276/276 277/277
f 276/276 261/261 263/263
f 255/255 278/278 266/266
f 264/264 279/279 265/265
f 279/279 264/264 280/280
f 281/281 269/269 282/282
f 269/269 281/281 268/268
f 271/271 283/283 284/284
f 283/283 271/271 270/270
f 285/285 275/275 286/286
f 275/275 285/285 273/273
f 287/287 288/288 289/289
f 288/288 287/287 290/290
f 272/272 291/291 292/292
f 291/291 272/272 274/274
f 277/277 293/293 294/294
f 293/293 277/277 276/276
f 278/278 295/295 266/266
f 278/278 296/296 295/295
f 280/280 297/297 279/279
f 297/297 280/280 298/298
f 281/281 297/297 298/298
f 297/297 281/281 282/282
f 284/284 299/299 300/300
f 299/299 284/284 283/283
f 301/301 286/286 302/302
f 286/286 301/301 285/285
f 287/287 303/303 304/304
f 303/303 287/287 289/289
f 305/305 306/306 307/307
f 306/306 305/305 308/308
f 288/288 309/309 310/310
f 309/309 288/288 290/290
f 291/291 311/311 292/292
f 311/311 291/291 312/312
f 313/313 293/293 314/314
f 293/293 313/313 294/294
f 299/299 314/314 300/300
f 314/314 299/299 313/313
f 315/315 302/302 316/316
f 302/302 315/315 301/301
f 304/304 317/317 318/318
f 317/317 304/304 303/303
f 319/319 308/308 320/320
f 308/308 319/319 306/306
f 321/321 307/307 322/322
f 307/307 321/321 305/305
f 306/306 323/323 307/307
f 323/323 306/306 324/324
f 310/310 325/325 326/326
f 325/325 310/310 309/309
f 312/312 327/327 311/311
f 327/327 312/312 328/328
f 328/328 316/316 327/327
f 316/316 328/328 315/315
f 318/318 329/329 330/330
f 329/329 318/318 317/317
f 331/331 320/320 332/332
f 320/320 331/331 319/319
f 333/333 306/306 319/319
f 306/306 333/333 324/324
f 322/322 334/334 321/321
f 334/334 322/322 335/335
f 307/307 336/336 322/322
f 336/336 307/307 323/323
f 323/323 337/337 338/338
f 337/337 323/323 324/324
f 339/339 325/325 340/340
f 325/325 339/339 326/326
f 329/329 340/340 330/330
f 340/340 329/329 339/339
f 341/341 332/332 342/342
f 332/332 341/341 331/331
f 343/343 319/319 331/331
f 319/319 343/343 333/333
f 344/344 324/324 333/333
f 324/324 344/344 337/337
f 335/335 345/345 334/334
f 345/345 335/335 346/346
f 336/336 335/335 322/322
f 335/335 336/336 347/347
f 336/336 338/338 348/348
f 338/338 336/336 323/323
f 337/337 349/349 338/338
f 349/349 337/337 350/350
f 346/346 342/342 345/345
f 342/342 346/346 341/341
f 351/351 331/331 341/341
f 331/331 351/351 343/343
f 352/352 333/333 343/343
f 333/333 352/352 344/344
f 353/353 337/337 344/344
f 337/337 353/353 350/350
f 347/347 346/346 335/335
f 346/346 347/347 354/354
f 348/348 347/347 336/336
f 347/347 348/348 355/355
f 348/348 349/349 356/356
f 349/349 348/348 338/338
f 357/357 358/358 359/359
f 358/358 357/357 360/360
f 351/351 346/346 354/354
f 346/346 351/351 341/341
f 361/361 343/343 351/351
f 343/343 361/361 352/352
f 362/362 344/344 352/352
f 344/344 362/362 353/353
f 357/357 363/363 364/364
f 363/363 357/357 359/359
f 355/355 354/354 347/347
f 354/354 355/355 365/365
f 356/356 355/355 348/348
f 355/355 356/356 366/366
f 358/358 367/367 368/368
f 367/367 358/358 360/360
f 369/369 370/370 371/371
f 370/370 369/369 372/372
f 365/365 351/351 354/354
f 351/351 365/365 361/361
f 362/362 361/361 373/373
f 361/361 362/362 352/352
f 364/364 374/374 375/375
f 374/374 364/364 363/363
f 376/376 372/372 369/369
f 372/372 376/376 377/377
f 366/366 365/365 355/355
f 365/365 366/366 378/378
f 368/368 379/379 380/380
f 379/379 368/368 367/367
f 371/371 381/381 382/382
f 381/381 371/371 370/370
f 383/383 384/384 385/385
f 384/384 383/383 386/386
f 373/373 365/365 378/378
f 365/365 373/373 361/361
f 375/375 387/387 388/388
f 387/387 375/375 374/374
f 389/389 376/376 390/390
f 376/376 389/389 377/377
f 385/385 391/391 392/392
f 391/391 385/385 384/384
f 393/393 379/379 394/394
f 379/379 393/393 380/380
f 382/382 395/395 396/396
f 395/395 382/382 381/381
f 397/397 383/383 398/398
f 383/383 397/397 386/386
f 399/399 400/400 401/401
f 400/400 399/399 402/402
f 387/387 394/394 388/388
f 394/394 387/387 393/393
f 389/389 403/403 404/404
f 403/403 389/389 390/390
f 405/405 391/391 406/406
f 391/391 405/405 392/392
f 407/407 399/399 408/408
f 399/399 407/407 402/402
f 395/395 409/409 396/396
f 409/409 395/395 410/410
f 397/397 411/411 412/412
f 411/411 397/397 398/398
f 401/401 413/413 414/414
f 413/413 401/401 400/400
f 415/415 416/416 417/417
f 404/404 409/409 410/410
f 409/409 404/404 403/403
f 418/418 406/406 419/419
f 406/406 418/418 405/405
f 420/420 408/408 421/421
f 408/408 420/420 407/407
f 416/416 422/422 423/423
f 412/412 424/424 425/425
f 424/424 412/412 411/411
f 413/413 426/426 414/414
f 426/426 413/413 427/427
f 415/415 417/417 428/428
f 416/416 423/423 417/417
f 425/425 418/418 419/419
f 418/418 425/425 424/424
f 420/420 429/429 430/430
f 429/429 420/420 421/421
f 422/422 431/431 432/432
f 422/422 432/432 423/423
f 427/427 433/433 426/426
f 433/433 427/427 434/434
f 434/434 429/429 433/433
f 429/429 434/434 430/430
f 435/435 436/436 437/437
f 436/436 435/435 438/438
f 439/439 440/440 441/441
f 442/442 441/441 440/440
f 443/443 444/444 445/445
f 446/446 447/447 448/448
f 437/437 449/449 450/450
f 449/449 437/437 436/436
f 441/441 442/442 451/451
f 452/452 451/451 442/442
f 453/453 454/454 455/455
f 456/456 457/457 458/458
f 435/435 459/459 438/438
f 459/459 435/435 460/460
f 461/461 440/440 462/462
f 439/439 462/462 440/440
f 443/443 445/445 463/463
f 464/464 446/446 448/448
f 444/444 465/465 445/445
f 446/446 466/466 447/447
f 443/443 463/463 467/467
f 468/468 464/464 448/448
f 469/469 449/449 470/470
f 449/449 469/469 450/450
f 452/452 471/471 451/451
f 472/472 451/451 471/471
f 453/453 473/473 474/474
f 475/475 476/476 458/458
f 453/453 474/474 454/454
f 457/457 475/475 458/458
f 460/460 477/477 459/459
f 477/477 460/460 478/478
f 479/479 461/461 480/480
f 462/462 480/480 461/461
f 477/477 481/481 482/482
f 481/481 477/477 478/478
f 479/479 480/480 483/483
f 484/484 483/483 480/480
f 467/467 463/463 485/485
f 486/486 464/464 468/468
f 467/467 485/485 487/487
f 488/488 486/486 468/468
f 489/489 470/470 490/490
f 470/470 489/489 469/469
f 471/471 491/491 472/472
f 492/492 472/472 491/491
f 473/473 493/493 494/494
f 495/495 496/496 476/476
f 473/473 494/494 474/474
f 475/475 495/495 476/476
f 482/482 489/489 490/490
f 489/489 482/482 481/481
f 483/483 484/484 491/491
f 492/492 491/491 484/484
f 493/493 497/497 494/494
f 495/495 498/498 496/496
f 499/499 501/501 503/503
f 501/501 499/499 505/505
f 500/500 507/507 508/508
f 507/507 500/500 504/504
f 509/509 505/505 499/499
f 505/505 509/509 511/511
f 506/506 513/513 502/502
f 513/513 506/506 515/515
f 517/517 518/518 519/519
f 518/518 517/517 520/520
f 508/508 521/521 523/523
f 521/521 508/508 507/507
f 510/510 508/508 525/525
f 508/508 510/510 500/500
f 519/519 526/526 527/527
f 526/526 519/519 518/518
f 530/530 531/531 533/533
f 531/531 530/530 535/535
f 512/512 515/515 506/506
f 515/515 512/512 538/538
f 514/514 541/541 543/543
f 541/541 514/514 516/516
f 544/544 522/522 546/546
f 522/522 544/544 524/524
f 525/525 523/523 548/548
f 523/523 525/525 508/508
f 526/526 550/550 527/527
f 550/550 526/526 551/551
f 554/554 534/534 555/555
f 534/534 554/554 529/529
f 542/542 557/557 559/559
f 557/557 542/542 540/540
f 536/536 528/528 561/561
f 562/562 532/532 537/537
f 532/532 562/562 566/566
f 516/516 568/568 541/541
f 568/568 516/516 539/539
f 558/558 547/547 560/560
f 547/547 558/558 545/545
f 569/569 524/524 544/544
f 524/524 569/569 549/549
f 571/571 552/552 556/556
f 552/552 571/571 573/573
f 561/561 528/528 553/553
f 557/557 567/567 576/576
f 567/567 557/557 540/540
f 563/563 536/536 561/561
f 580/580 565/565 564/564
f 565/565 580/580 581/581
f 577/577 545/545 558/558
f 545/545 577/577 570/570
f 583/583 574/574 572/572
f 574/574 583/583 585/585
f 561/561 553/553 575/575
f 588/588 579/579 591/591
f 579/579 588/588 582/582
f 578/578 563/563 561/561
f 589/589 586/586 584/584
f 586/586 589/589 590/590
f 587/587 561/561 575/575
f 578/578 561/561 592/592
f 592/592 561/561 587/587
f 593/593 597/597 599/599
f 597/597 593/593 603/603
f 605/605 598/598 610/610
f 598/598 605/605 600/600
f 611/611 601/601 613/613
f 601/601 611/611 594/594
f 595/595 615/615 604/604
f 615/615 595/595 618/618
f 621/621 622/622 623/623
f 624/624 625/625 622/622
f 628/628 609/609 630/630
f 609/609 628/628 606/606
f 614/614 607/607 632/632
f 607/607 614/614 602/602
f 634/634 635/635 636/636
f 612/612 619/619 596/596
f 619/619 612/612 638/638
f 639/639 623/623 640/640
f 617/617 642/642 616/616
f 642/642 617/617 645/645
f 621/621 623/623 639/639
f 621/621 624/624 622/622
f 624/624 647/647 625/625
f 648/648 608/608 626/626
f 608/608 648/648 633/633
f 653/653 631/631 655/655
f 631/631 653/653 627/627
f 656/656 634/634 636/636
f 634/634 656/656 657/657
f 637/637 644/644 620/620
f 644/644 637/637 658/658
f 641/641 660/660 664/664
f 660/660 641/641 646/646
f 665/665 652/652 654/654
f 652/652 665/665 661/661
f 666/666 629/629 650/650
f 629/629 666/666 649/649
f 668/668 657/657 656/656
f 657/657 668/668 669/669
f 643/643 670/670 662/662
f 670/670 643/643 659/659
f 663/663 667/667 651/651
f 667/667 663/663 671/671
f 672/672 669/669 668/668
f 673/673 675/675 683/683
f 674/674 682/682 685/685
f 688/688 692/692 693/693
f 692/692 688/688 695/695
f 676/676 700/700 681/681
f 686/686 684/684 702/702
f 689/689 703/703 705/705
f 703/703 689/689 694/694
f 710/710 687/687 712/712
f 687/687 710/710 696/696
f 713/713 697/697 715/715
f 697/697 713/713 691/691
f 699/699 719/719 680/680
f 679/679 722/722 701/701
f 704/704 723/723 706/706
f 723/723 704/704 727/727
f 711/711 707/707 729/729
f 707/707 711/711 690/690
f 732/732 712/712 733/733
f 712/712 732/732 710/710
f 716/716 709/709 735/735
f 709/709 716/716 698/698
f 737/737 717/717 739/739
f 717/717 737/737 714/714
f 678/678 720/720 744/744
f 677/677 743/743 721/721
f 728/728 747/747 724/724
f 747/747 728/728 750/750
f 708/708 751/751 730/730
f 751/751 708/708 725/725
f 734/734 729/729 753/753
f 729/729 734/734 711/711
f 756/756 732/732 733/733
f 732/732 756/756 757/757
f 735/735 731/731 760/760
f 731/731 735/735 709/709
f 740/740 736/736 761/761
f 736/736 740/740 718/718
f 763/763 741/741 765/765
f 741/741 763/763 738/738
f 749/749 766/766 748/748
f 766/766 749/749 764/764
f 752/752 745/745 769/769
f 745/745 752/752 726/726
f 730/730 771/771 754/754
f 771/771 730/730 751/751
f 755/755 753/753 773/773
f 753/753 755/755 734/734
f 775/775 757/757 756/756
f 757/757 775/775 777/777
f 760/760 758/758 780/780
f 758/758 760/760 731/731
f 761/761 759/759 782/782
f 759/759 761/761 736/736
f 742/742 783/783 767/767
f 783/783 742/742 762/762
f 768/768 770/770 746/746
f 770/770 768/768 784/784
f 752/752 785/785 772/772
f 785/785 752/752 769/769
f 754/754 787/787 774/774
f 787/787 754/754 771/771
f 789/789 755/755 773/773
f 755/755 789/789 776/776
f 791/791 792/792 793/793
f 780/780 778/778 795/795
f 778/778 780/780 758/758
f 782/782 779/779 796/796
f 779/779 782/782 759/759
f 762/762 798/798 783/783
f 798/798 762/762 781/781
f 784/784 786/786 770/770
f 786/786 784/784 799/799
f 772/772 801/801 788/788
f 801/801 772/772 785/785
f 774/774 803/803 790/790
f 803/803 774/774 787/787
f 791/791 804/804 805/805
f 791/791 805/805 792/792
f 793/793 792/792 806/806
f 796/796 794/794 807/807
f 794/794 796/796 779/779
f 798/798 797/797 809/809
f 797/797 798/798 781/781
f 799/799 800/800 786/786
f 800/800 799/799 810/810
f 788/788 811/811 802/802
f 811/811 788/788 801/801
f 804/804 813/813 814/814
f 804/804 814/814 805/805
f 809/809 808/808 815/815
f 808/808 809/809 797/797
f 810/810 812/812 800/800
f 812/812 810/810 816/816
f 817/817 819/819 821/821
f 819/819 817/817 823/823
f 820/820 826/826 827/827
f 826/826 820/820 824/824
f 829/829 831/831 834/834
f 831/831 829/829 835/835
f 822/822 837/837 818/818
f 837/837 822/822 839/839
f 841/841 843/843 845/845
f 843/843 841/841 847/847
f 850/850 848/848 851/851
f 848/848 850/850 844/844
f 828/828 853/853 855/855
f 853/853 828/828 825/825
f 830/830 857/857 859/859
f 857/857 830/830 833/833
f 861/861 863/863 866/866
f 863/863 861/861 867/867
f 836/836 869/869 832/832
f 869/869 836/836 871/871
f 840/840 873/873 838/838
f 873/873 840/840 874/874
f 875/875 842/842 846/846
f 842/842 875/875 877/877
f 879/879 852/852 881/881
f 852/852 879/879 849/849
f 884/884 865/865 885/885
f 865/865 884/884 862/862
f 856/856 887/887 888/888
f 887/887 856/856 854/854
f 860/860 889/889 891/891
f 889/889 860/860 858/858
f 893/893 864/864 868/868
f 864/864 893/893 896/896
f 872/872 897/897 870/870
f 897/897 872/872 898/898
f 874/874 899/899 873/873
f 899/899 874/874 900/900
f 901/901 878/878 876/876
f 878/878 901/901 902/902
f 904/904 886/886 906/906
f 886/886 904/904 883/883
f 907/907 882/882 908/908
f 882/882 907/907 880/880
f 892/892 909/909 910/910
f 909/909 892/892 890/890
f 911/911 912/912 913/913
f 912/912 911/911 914/914
f 915/915 895/895 894/894
f 895/895 915/915 916/916
f 898/898 917/917 897/897
f 917/917 898/898 918/918
f 900/900 919/919 899/899
f 919/919 900/900 920/920
f 921/921 902/902 901/901
f 902/902 921/921 922/922
f 923/923 905/905 924/924
f 905/905 923/923 903/903
f 925/925 916/916 915/915
f 916/916 925/925 926/926
f 918/918 927/927 917/917
f 927/927 918/918 928/928
f 929/929 930/930 931/931
f 930/930 929/929 932/932
f 933/933 922/922 921/921
f 922/922 933/933 934/934
f 935/935 926/926 925/925
f 926/926 935/935 936/936

